<?xml version="1.0" encoding="utf-8" standalone="no"?>
<!DOCTYPE svg PUBLIC "-//W3C//DTD SVG 1.1//EN"
  "http://www.w3.org/Graphics/SVG/1.1/DTD/svg11.dtd">
<svg xmlns:xlink="http://www.w3.org/1999/xlink" width="360pt" height="432pt" viewBox="0 0 360 432" xmlns="http://www.w3.org/2000/svg" version="1.1">
 <metadata>
  <rdf:RDF xmlns:dc="http://purl.org/dc/elements/1.1/" xmlns:cc="http://creativecommons.org/ns#" xmlns:rdf="http://www.w3.org/1999/02/22-rdf-syntax-ns#">
   <cc:Work>
    <dc:type rdf:resource="http://purl.org/dc/dcmitype/StillImage"/>
    <dc:date>2023-04-10T16:01:09.843530</dc:date>
    <dc:format>image/svg+xml</dc:format>
    <dc:creator>
     <cc:Agent>
      <dc:title>Matplotlib v3.6.3, https://matplotlib.org/</dc:title>
     </cc:Agent>
    </dc:creator>
   </cc:Work>
  </rdf:RDF>
 </metadata>
 <defs>
  <style type="text/css">*{stroke-linejoin: round; stroke-linecap: butt}</style>
 </defs>
 <g id="figure_1">
  <g id="patch_1">
   <path d="M 0 432 
L 360 432 
L 360 0 
L 0 0 
z
" style="fill: #ffffff"/>
  </g>
  <g id="axes_1">
   <g id="patch_2">
    <path d="M 88.2 291.05175 
L 349.2 291.05175 
L 349.2 14.599219 
L 88.2 14.599219 
z
" style="fill: #ffffff"/>
   </g>
   <g id="matplotlib.axis_1">
    <g id="xtick_1">
     <g id="line2d_1">
      <defs>
       <path id="m1a849fc975" d="M 0 0 
L 0 2 
" style="stroke: #000000; stroke-width: 0.6"/>
      </defs>
      <g>
       <use xlink:href="#m1a849fc975" x="88.2" y="291.05175" style="stroke: #000000; stroke-width: 0.6"/>
      </g>
     </g>
    </g>
    <g id="xtick_2">
     <g id="line2d_2">
      <g>
       <use xlink:href="#m1a849fc975" x="94.10435" y="291.05175" style="stroke: #000000; stroke-width: 0.6"/>
      </g>
     </g>
    </g>
    <g id="xtick_3">
     <g id="line2d_3">
      <g>
       <use xlink:href="#m1a849fc975" x="98.68412" y="291.05175" style="stroke: #000000; stroke-width: 0.6"/>
      </g>
     </g>
    </g>
    <g id="xtick_4">
     <g id="line2d_4">
      <g>
       <use xlink:href="#m1a849fc975" x="102.426064" y="291.05175" style="stroke: #000000; stroke-width: 0.6"/>
      </g>
     </g>
    </g>
    <g id="xtick_5">
     <g id="line2d_5">
      <g>
       <use xlink:href="#m1a849fc975" x="105.589833" y="291.05175" style="stroke: #000000; stroke-width: 0.6"/>
      </g>
     </g>
    </g>
    <g id="xtick_6">
     <g id="line2d_6">
      <g>
       <use xlink:href="#m1a849fc975" x="108.330415" y="291.05175" style="stroke: #000000; stroke-width: 0.6"/>
      </g>
     </g>
    </g>
    <g id="xtick_7">
     <g id="line2d_7">
      <g>
       <use xlink:href="#m1a849fc975" x="110.747779" y="291.05175" style="stroke: #000000; stroke-width: 0.6"/>
      </g>
     </g>
    </g>
    <g id="xtick_8">
     <g id="line2d_8">
      <g>
       <use xlink:href="#m1a849fc975" x="127.136249" y="291.05175" style="stroke: #000000; stroke-width: 0.6"/>
      </g>
     </g>
    </g>
    <g id="xtick_9">
     <g id="line2d_9">
      <g>
       <use xlink:href="#m1a849fc975" x="135.457963" y="291.05175" style="stroke: #000000; stroke-width: 0.6"/>
      </g>
     </g>
    </g>
    <g id="xtick_10">
     <g id="line2d_10">
      <g>
       <use xlink:href="#m1a849fc975" x="141.362313" y="291.05175" style="stroke: #000000; stroke-width: 0.6"/>
      </g>
     </g>
    </g>
    <g id="xtick_11">
     <g id="line2d_11">
      <g>
       <use xlink:href="#m1a849fc975" x="145.942083" y="291.05175" style="stroke: #000000; stroke-width: 0.6"/>
      </g>
     </g>
    </g>
    <g id="xtick_12">
     <g id="line2d_12">
      <g>
       <use xlink:href="#m1a849fc975" x="149.684028" y="291.05175" style="stroke: #000000; stroke-width: 0.6"/>
      </g>
     </g>
    </g>
    <g id="xtick_13">
     <g id="line2d_13">
      <g>
       <use xlink:href="#m1a849fc975" x="152.847796" y="291.05175" style="stroke: #000000; stroke-width: 0.6"/>
      </g>
     </g>
    </g>
    <g id="xtick_14">
     <g id="line2d_14">
      <g>
       <use xlink:href="#m1a849fc975" x="155.588378" y="291.05175" style="stroke: #000000; stroke-width: 0.6"/>
      </g>
     </g>
    </g>
    <g id="xtick_15">
     <g id="line2d_15">
      <g>
       <use xlink:href="#m1a849fc975" x="158.005742" y="291.05175" style="stroke: #000000; stroke-width: 0.6"/>
      </g>
     </g>
    </g>
    <g id="xtick_16">
     <g id="line2d_16">
      <g>
       <use xlink:href="#m1a849fc975" x="174.394212" y="291.05175" style="stroke: #000000; stroke-width: 0.6"/>
      </g>
     </g>
    </g>
    <g id="xtick_17">
     <g id="line2d_17">
      <g>
       <use xlink:href="#m1a849fc975" x="182.715926" y="291.05175" style="stroke: #000000; stroke-width: 0.6"/>
      </g>
     </g>
    </g>
    <g id="xtick_18">
     <g id="line2d_18">
      <g>
       <use xlink:href="#m1a849fc975" x="188.620276" y="291.05175" style="stroke: #000000; stroke-width: 0.6"/>
      </g>
     </g>
    </g>
    <g id="xtick_19">
     <g id="line2d_19">
      <g>
       <use xlink:href="#m1a849fc975" x="193.200046" y="291.05175" style="stroke: #000000; stroke-width: 0.6"/>
      </g>
     </g>
    </g>
    <g id="xtick_20">
     <g id="line2d_20">
      <g>
       <use xlink:href="#m1a849fc975" x="196.941991" y="291.05175" style="stroke: #000000; stroke-width: 0.6"/>
      </g>
     </g>
    </g>
    <g id="xtick_21">
     <g id="line2d_21">
      <g>
       <use xlink:href="#m1a849fc975" x="200.10576" y="291.05175" style="stroke: #000000; stroke-width: 0.6"/>
      </g>
     </g>
    </g>
    <g id="xtick_22">
     <g id="line2d_22">
      <g>
       <use xlink:href="#m1a849fc975" x="202.846341" y="291.05175" style="stroke: #000000; stroke-width: 0.6"/>
      </g>
     </g>
    </g>
    <g id="xtick_23">
     <g id="line2d_23">
      <g>
       <use xlink:href="#m1a849fc975" x="205.263705" y="291.05175" style="stroke: #000000; stroke-width: 0.6"/>
      </g>
     </g>
    </g>
    <g id="xtick_24">
     <g id="line2d_24">
      <g>
       <use xlink:href="#m1a849fc975" x="221.652175" y="291.05175" style="stroke: #000000; stroke-width: 0.6"/>
      </g>
     </g>
    </g>
    <g id="xtick_25">
     <g id="line2d_25">
      <g>
       <use xlink:href="#m1a849fc975" x="229.973889" y="291.05175" style="stroke: #000000; stroke-width: 0.6"/>
      </g>
     </g>
    </g>
    <g id="xtick_26">
     <g id="line2d_26">
      <g>
       <use xlink:href="#m1a849fc975" x="235.87824" y="291.05175" style="stroke: #000000; stroke-width: 0.6"/>
      </g>
     </g>
    </g>
    <g id="xtick_27">
     <g id="line2d_27">
      <g>
       <use xlink:href="#m1a849fc975" x="240.458009" y="291.05175" style="stroke: #000000; stroke-width: 0.6"/>
      </g>
     </g>
    </g>
    <g id="xtick_28">
     <g id="line2d_28">
      <g>
       <use xlink:href="#m1a849fc975" x="244.199954" y="291.05175" style="stroke: #000000; stroke-width: 0.6"/>
      </g>
     </g>
    </g>
    <g id="xtick_29">
     <g id="line2d_29">
      <g>
       <use xlink:href="#m1a849fc975" x="247.363723" y="291.05175" style="stroke: #000000; stroke-width: 0.6"/>
      </g>
     </g>
    </g>
    <g id="xtick_30">
     <g id="line2d_30">
      <g>
       <use xlink:href="#m1a849fc975" x="250.104304" y="291.05175" style="stroke: #000000; stroke-width: 0.6"/>
      </g>
     </g>
    </g>
    <g id="xtick_31">
     <g id="line2d_31">
      <g>
       <use xlink:href="#m1a849fc975" x="252.521668" y="291.05175" style="stroke: #000000; stroke-width: 0.6"/>
      </g>
     </g>
    </g>
    <g id="xtick_32">
     <g id="line2d_32">
      <g>
       <use xlink:href="#m1a849fc975" x="268.910138" y="291.05175" style="stroke: #000000; stroke-width: 0.6"/>
      </g>
     </g>
    </g>
    <g id="xtick_33">
     <g id="line2d_33">
      <g>
       <use xlink:href="#m1a849fc975" x="277.231852" y="291.05175" style="stroke: #000000; stroke-width: 0.6"/>
      </g>
     </g>
    </g>
    <g id="xtick_34">
     <g id="line2d_34">
      <g>
       <use xlink:href="#m1a849fc975" x="283.136203" y="291.05175" style="stroke: #000000; stroke-width: 0.6"/>
      </g>
     </g>
    </g>
    <g id="xtick_35">
     <g id="line2d_35">
      <g>
       <use xlink:href="#m1a849fc975" x="287.715972" y="291.05175" style="stroke: #000000; stroke-width: 0.6"/>
      </g>
     </g>
    </g>
    <g id="xtick_36">
     <g id="line2d_36">
      <g>
       <use xlink:href="#m1a849fc975" x="291.457917" y="291.05175" style="stroke: #000000; stroke-width: 0.6"/>
      </g>
     </g>
    </g>
    <g id="xtick_37">
     <g id="line2d_37">
      <g>
       <use xlink:href="#m1a849fc975" x="294.621686" y="291.05175" style="stroke: #000000; stroke-width: 0.6"/>
      </g>
     </g>
    </g>
    <g id="xtick_38">
     <g id="line2d_38">
      <g>
       <use xlink:href="#m1a849fc975" x="297.362267" y="291.05175" style="stroke: #000000; stroke-width: 0.6"/>
      </g>
     </g>
    </g>
    <g id="xtick_39">
     <g id="line2d_39">
      <g>
       <use xlink:href="#m1a849fc975" x="299.779631" y="291.05175" style="stroke: #000000; stroke-width: 0.6"/>
      </g>
     </g>
    </g>
    <g id="xtick_40">
     <g id="line2d_40">
      <g>
       <use xlink:href="#m1a849fc975" x="316.168101" y="291.05175" style="stroke: #000000; stroke-width: 0.6"/>
      </g>
     </g>
    </g>
    <g id="xtick_41">
     <g id="line2d_41">
      <g>
       <use xlink:href="#m1a849fc975" x="324.489816" y="291.05175" style="stroke: #000000; stroke-width: 0.6"/>
      </g>
     </g>
    </g>
    <g id="xtick_42">
     <g id="line2d_42">
      <g>
       <use xlink:href="#m1a849fc975" x="330.394166" y="291.05175" style="stroke: #000000; stroke-width: 0.6"/>
      </g>
     </g>
    </g>
    <g id="xtick_43">
     <g id="line2d_43">
      <g>
       <use xlink:href="#m1a849fc975" x="334.973936" y="291.05175" style="stroke: #000000; stroke-width: 0.6"/>
      </g>
     </g>
    </g>
    <g id="xtick_44">
     <g id="line2d_44">
      <g>
       <use xlink:href="#m1a849fc975" x="338.71588" y="291.05175" style="stroke: #000000; stroke-width: 0.6"/>
      </g>
     </g>
    </g>
    <g id="xtick_45">
     <g id="line2d_45">
      <g>
       <use xlink:href="#m1a849fc975" x="341.879649" y="291.05175" style="stroke: #000000; stroke-width: 0.6"/>
      </g>
     </g>
    </g>
    <g id="xtick_46">
     <g id="line2d_46">
      <g>
       <use xlink:href="#m1a849fc975" x="344.62023" y="291.05175" style="stroke: #000000; stroke-width: 0.6"/>
      </g>
     </g>
    </g>
    <g id="xtick_47">
     <g id="line2d_47">
      <g>
       <use xlink:href="#m1a849fc975" x="347.037594" y="291.05175" style="stroke: #000000; stroke-width: 0.6"/>
      </g>
     </g>
    </g>
   </g>
   <g id="matplotlib.axis_2">
    <g id="ytick_1">
     <g id="line2d_48">
      <defs>
       <path id="m32a62da3ad" d="M 0 0 
L -3.5 0 
" style="stroke: #000000; stroke-width: 0.8"/>
      </defs>
      <g>
       <use xlink:href="#m32a62da3ad" x="88.2" y="291.05175" style="stroke: #000000; stroke-width: 0.8"/>
      </g>
     </g>
     <g id="text_1">
      <!-- $\mathdefault{10^{0}}$ -->
      <g transform="translate(63.6 294.850969) scale(0.1 -0.1)">
       <defs>
        <path id="DejaVuSans-31" d="M 794 531 
L 1825 531 
L 1825 4091 
L 703 3866 
L 703 4441 
L 1819 4666 
L 2450 4666 
L 2450 531 
L 3481 531 
L 3481 0 
L 794 0 
L 794 531 
z
" transform="scale(0.015625)"/>
        <path id="DejaVuSans-30" d="M 2034 4250 
Q 1547 4250 1301 3770 
Q 1056 3291 1056 2328 
Q 1056 1369 1301 889 
Q 1547 409 2034 409 
Q 2525 409 2770 889 
Q 3016 1369 3016 2328 
Q 3016 3291 2770 3770 
Q 2525 4250 2034 4250 
z
M 2034 4750 
Q 2819 4750 3233 4129 
Q 3647 3509 3647 2328 
Q 3647 1150 3233 529 
Q 2819 -91 2034 -91 
Q 1250 -91 836 529 
Q 422 1150 422 2328 
Q 422 3509 836 4129 
Q 1250 4750 2034 4750 
z
" transform="scale(0.015625)"/>
       </defs>
       <use xlink:href="#DejaVuSans-31" transform="translate(0 0.765625)"/>
       <use xlink:href="#DejaVuSans-30" transform="translate(63.623047 0.765625)"/>
       <use xlink:href="#DejaVuSans-30" transform="translate(128.203125 39.046875) scale(0.7)"/>
      </g>
     </g>
    </g>
    <g id="ytick_2">
     <g id="line2d_49">
      <g>
       <use xlink:href="#m32a62da3ad" x="88.2" y="198.900906" style="stroke: #000000; stroke-width: 0.8"/>
      </g>
     </g>
     <g id="text_2">
      <!-- $\mathdefault{10^{1}}$ -->
      <g transform="translate(63.6 202.700125) scale(0.1 -0.1)">
       <use xlink:href="#DejaVuSans-31" transform="translate(0 0.684375)"/>
       <use xlink:href="#DejaVuSans-30" transform="translate(63.623047 0.684375)"/>
       <use xlink:href="#DejaVuSans-31" transform="translate(128.203125 38.965625) scale(0.7)"/>
      </g>
     </g>
    </g>
    <g id="ytick_3">
     <g id="line2d_50">
      <g>
       <use xlink:href="#m32a62da3ad" x="88.2" y="106.750063" style="stroke: #000000; stroke-width: 0.8"/>
      </g>
     </g>
     <g id="text_3">
      <!-- $\mathdefault{10^{2}}$ -->
      <g transform="translate(63.6 110.549281) scale(0.1 -0.1)">
       <defs>
        <path id="DejaVuSans-32" d="M 1228 531 
L 3431 531 
L 3431 0 
L 469 0 
L 469 531 
Q 828 903 1448 1529 
Q 2069 2156 2228 2338 
Q 2531 2678 2651 2914 
Q 2772 3150 2772 3378 
Q 2772 3750 2511 3984 
Q 2250 4219 1831 4219 
Q 1534 4219 1204 4116 
Q 875 4013 500 3803 
L 500 4441 
Q 881 4594 1212 4672 
Q 1544 4750 1819 4750 
Q 2544 4750 2975 4387 
Q 3406 4025 3406 3419 
Q 3406 3131 3298 2873 
Q 3191 2616 2906 2266 
Q 2828 2175 2409 1742 
Q 1991 1309 1228 531 
z
" transform="scale(0.015625)"/>
       </defs>
       <use xlink:href="#DejaVuSans-31" transform="translate(0 0.765625)"/>
       <use xlink:href="#DejaVuSans-30" transform="translate(63.623047 0.765625)"/>
       <use xlink:href="#DejaVuSans-32" transform="translate(128.203125 39.046875) scale(0.7)"/>
      </g>
     </g>
    </g>
    <g id="ytick_4">
     <g id="line2d_51">
      <g>
       <use xlink:href="#m32a62da3ad" x="88.2" y="14.599219" style="stroke: #000000; stroke-width: 0.8"/>
      </g>
     </g>
     <g id="text_4">
      <!-- $\mathdefault{10^{3}}$ -->
      <g transform="translate(63.6 18.398438) scale(0.1 -0.1)">
       <defs>
        <path id="DejaVuSans-33" d="M 2597 2516 
Q 3050 2419 3304 2112 
Q 3559 1806 3559 1356 
Q 3559 666 3084 287 
Q 2609 -91 1734 -91 
Q 1441 -91 1130 -33 
Q 819 25 488 141 
L 488 750 
Q 750 597 1062 519 
Q 1375 441 1716 441 
Q 2309 441 2620 675 
Q 2931 909 2931 1356 
Q 2931 1769 2642 2001 
Q 2353 2234 1838 2234 
L 1294 2234 
L 1294 2753 
L 1863 2753 
Q 2328 2753 2575 2939 
Q 2822 3125 2822 3475 
Q 2822 3834 2567 4026 
Q 2313 4219 1838 4219 
Q 1578 4219 1281 4162 
Q 984 4106 628 3988 
L 628 4550 
Q 988 4650 1302 4700 
Q 1616 4750 1894 4750 
Q 2613 4750 3031 4423 
Q 3450 4097 3450 3541 
Q 3450 3153 3228 2886 
Q 3006 2619 2597 2516 
z
" transform="scale(0.015625)"/>
       </defs>
       <use xlink:href="#DejaVuSans-31" transform="translate(0 0.765625)"/>
       <use xlink:href="#DejaVuSans-30" transform="translate(63.623047 0.765625)"/>
       <use xlink:href="#DejaVuSans-33" transform="translate(128.203125 39.046875) scale(0.7)"/>
      </g>
     </g>
    </g>
    <g id="ytick_5">
     <g id="line2d_52">
      <defs>
       <path id="m91c983fef9" d="M 0 0 
L -2 0 
" style="stroke: #000000; stroke-width: 0.6"/>
      </defs>
      <g>
       <use xlink:href="#m91c983fef9" x="88.2" y="263.311582" style="stroke: #000000; stroke-width: 0.6"/>
      </g>
     </g>
    </g>
    <g id="ytick_6">
     <g id="line2d_53">
      <g>
       <use xlink:href="#m91c983fef9" x="88.2" y="247.084624" style="stroke: #000000; stroke-width: 0.6"/>
      </g>
     </g>
    </g>
    <g id="ytick_7">
     <g id="line2d_54">
      <g>
       <use xlink:href="#m91c983fef9" x="88.2" y="235.571414" style="stroke: #000000; stroke-width: 0.6"/>
      </g>
     </g>
    </g>
    <g id="ytick_8">
     <g id="line2d_55">
      <g>
       <use xlink:href="#m91c983fef9" x="88.2" y="226.641074" style="stroke: #000000; stroke-width: 0.6"/>
      </g>
     </g>
    </g>
    <g id="ytick_9">
     <g id="line2d_56">
      <g>
       <use xlink:href="#m91c983fef9" x="88.2" y="219.344456" style="stroke: #000000; stroke-width: 0.6"/>
      </g>
     </g>
    </g>
    <g id="ytick_10">
     <g id="line2d_57">
      <g>
       <use xlink:href="#m91c983fef9" x="88.2" y="213.175253" style="stroke: #000000; stroke-width: 0.6"/>
      </g>
     </g>
    </g>
    <g id="ytick_11">
     <g id="line2d_58">
      <g>
       <use xlink:href="#m91c983fef9" x="88.2" y="207.831246" style="stroke: #000000; stroke-width: 0.6"/>
      </g>
     </g>
    </g>
    <g id="ytick_12">
     <g id="line2d_59">
      <g>
       <use xlink:href="#m91c983fef9" x="88.2" y="203.117498" style="stroke: #000000; stroke-width: 0.6"/>
      </g>
     </g>
    </g>
    <g id="ytick_13">
     <g id="line2d_60">
      <g>
       <use xlink:href="#m91c983fef9" x="88.2" y="171.160738" style="stroke: #000000; stroke-width: 0.6"/>
      </g>
     </g>
    </g>
    <g id="ytick_14">
     <g id="line2d_61">
      <g>
       <use xlink:href="#m91c983fef9" x="88.2" y="154.93378" style="stroke: #000000; stroke-width: 0.6"/>
      </g>
     </g>
    </g>
    <g id="ytick_15">
     <g id="line2d_62">
      <g>
       <use xlink:href="#m91c983fef9" x="88.2" y="143.42057" style="stroke: #000000; stroke-width: 0.6"/>
      </g>
     </g>
    </g>
    <g id="ytick_16">
     <g id="line2d_63">
      <g>
       <use xlink:href="#m91c983fef9" x="88.2" y="134.490231" style="stroke: #000000; stroke-width: 0.6"/>
      </g>
     </g>
    </g>
    <g id="ytick_17">
     <g id="line2d_64">
      <g>
       <use xlink:href="#m91c983fef9" x="88.2" y="127.193612" style="stroke: #000000; stroke-width: 0.6"/>
      </g>
     </g>
    </g>
    <g id="ytick_18">
     <g id="line2d_65">
      <g>
       <use xlink:href="#m91c983fef9" x="88.2" y="121.024409" style="stroke: #000000; stroke-width: 0.6"/>
      </g>
     </g>
    </g>
    <g id="ytick_19">
     <g id="line2d_66">
      <g>
       <use xlink:href="#m91c983fef9" x="88.2" y="115.680402" style="stroke: #000000; stroke-width: 0.6"/>
      </g>
     </g>
    </g>
    <g id="ytick_20">
     <g id="line2d_67">
      <g>
       <use xlink:href="#m91c983fef9" x="88.2" y="110.966654" style="stroke: #000000; stroke-width: 0.6"/>
      </g>
     </g>
    </g>
    <g id="ytick_21">
     <g id="line2d_68">
      <g>
       <use xlink:href="#m91c983fef9" x="88.2" y="79.009894" style="stroke: #000000; stroke-width: 0.6"/>
      </g>
     </g>
    </g>
    <g id="ytick_22">
     <g id="line2d_69">
      <g>
       <use xlink:href="#m91c983fef9" x="88.2" y="62.782936" style="stroke: #000000; stroke-width: 0.6"/>
      </g>
     </g>
    </g>
    <g id="ytick_23">
     <g id="line2d_70">
      <g>
       <use xlink:href="#m91c983fef9" x="88.2" y="51.269726" style="stroke: #000000; stroke-width: 0.6"/>
      </g>
     </g>
    </g>
    <g id="ytick_24">
     <g id="line2d_71">
      <g>
       <use xlink:href="#m91c983fef9" x="88.2" y="42.339387" style="stroke: #000000; stroke-width: 0.6"/>
      </g>
     </g>
    </g>
    <g id="ytick_25">
     <g id="line2d_72">
      <g>
       <use xlink:href="#m91c983fef9" x="88.2" y="35.042768" style="stroke: #000000; stroke-width: 0.6"/>
      </g>
     </g>
    </g>
    <g id="ytick_26">
     <g id="line2d_73">
      <g>
       <use xlink:href="#m91c983fef9" x="88.2" y="28.873565" style="stroke: #000000; stroke-width: 0.6"/>
      </g>
     </g>
    </g>
    <g id="ytick_27">
     <g id="line2d_74">
      <g>
       <use xlink:href="#m91c983fef9" x="88.2" y="23.529558" style="stroke: #000000; stroke-width: 0.6"/>
      </g>
     </g>
    </g>
    <g id="ytick_28">
     <g id="line2d_75">
      <g>
       <use xlink:href="#m91c983fef9" x="88.2" y="18.81581" style="stroke: #000000; stroke-width: 0.6"/>
      </g>
     </g>
    </g>
    <g id="text_5">
     <!-- $\kappa_q(\gamma)$ -->
     <g transform="translate(10.8 146.625484) scale(0.2 -0.2)">
      <defs>
       <path id="DejaVuSans-Oblique-3ba" d="M 938 3500 
L 1531 3500 
L 1247 2047 
L 3041 3500 
L 3741 3500 
L 2106 2181 
L 3275 0 
L 2572 0 
L 1628 1806 
L 1122 1403 
L 850 0 
L 256 0 
L 938 3500 
z
" transform="scale(0.015625)"/>
       <path id="DejaVuSans-Oblique-71" d="M 2669 525 
Q 2438 222 2123 65 
Q 1809 -91 1428 -91 
Q 897 -91 595 267 
Q 294 625 294 1253 
Q 294 1759 480 2231 
Q 666 2703 1013 3078 
Q 1238 3322 1530 3453 
Q 1822 3584 2144 3584 
Q 2531 3584 2781 3431 
Q 3031 3278 3144 2969 
L 3244 3494 
L 3822 3494 
L 2888 -1319 
L 2309 -1319 
L 2669 525 
z
M 891 1338 
Q 891 875 1084 633 
Q 1278 391 1644 391 
Q 2188 391 2572 911 
Q 2956 1431 2956 2175 
Q 2956 2625 2757 2864 
Q 2559 3103 2188 3103 
Q 1916 3103 1684 2976 
Q 1453 2850 1281 2606 
Q 1100 2350 995 2006 
Q 891 1663 891 1338 
z
" transform="scale(0.015625)"/>
       <path id="DejaVuSans-28" d="M 1984 4856 
Q 1566 4138 1362 3434 
Q 1159 2731 1159 2009 
Q 1159 1288 1364 580 
Q 1569 -128 1984 -844 
L 1484 -844 
Q 1016 -109 783 600 
Q 550 1309 550 2009 
Q 550 2706 781 3412 
Q 1013 4119 1484 4856 
L 1984 4856 
z
" transform="scale(0.015625)"/>
       <path id="DejaVuSans-Oblique-3b3" d="M 1491 2950 
L 1838 788 
L 3456 3500 
L 4066 3500 
L 1972 0 
L 1713 -1331 
L 1138 -1331 
L 1397 0 
L 988 2613 
Q 925 3006 628 3006 
L 475 3006 
L 569 3500 
L 788 3500 
Q 1403 3500 1491 2950 
z
" transform="scale(0.015625)"/>
       <path id="DejaVuSans-29" d="M 513 4856 
L 1013 4856 
Q 1481 4119 1714 3412 
Q 1947 2706 1947 2009 
Q 1947 1309 1714 600 
Q 1481 -109 1013 -844 
L 513 -844 
Q 928 -128 1133 580 
Q 1338 1288 1338 2009 
Q 1338 2731 1133 3434 
Q 928 4138 513 4856 
z
" transform="scale(0.015625)"/>
      </defs>
      <use xlink:href="#DejaVuSans-Oblique-3ba" transform="translate(0 0.125)"/>
      <use xlink:href="#DejaVuSans-Oblique-71" transform="translate(58.935547 -16.28125) scale(0.7)"/>
      <use xlink:href="#DejaVuSans-28" transform="translate(106.103516 0.125)"/>
      <use xlink:href="#DejaVuSans-Oblique-3b3" transform="translate(145.117188 0.125)"/>
      <use xlink:href="#DejaVuSans-29" transform="translate(204.296875 0.125)"/>
     </g>
    </g>
   </g>
   <g id="line2d_76">
    <path d="M -1 227.167775 
L 18.394258 227.167779 
L 40.942037 227.188413 
L 65.652221 227.25688 
L 88.2 227.43603 
L 112.910184 227.97862 
L 131.716019 228.906352 
L 141.362313 229.645396 
L 147.898217 230.268639 
L 152.847796 230.813401 
L 156.83263 231.301549 
L 160.168148 231.746868 
L 170.652268 233.395174 
L 177.557981 234.718069 
L 182.715926 235.83435 
L 186.834466 236.785932 
L 190.263063 237.588189 
L 193.200046 238.246355 
L 201.52176 239.462395 
L 207.426111 238.900261 
L 212.00588 237.067568 
L 215.747825 234.520701 
L 218.911594 231.674942 
L 221.652175 228.791055 
L 232.136295 216.335109 
L 239.042008 208.78262 
L 244.199954 203.708885 
L 248.318494 199.822838 
L 251.74709 196.612185 
L 254.684074 193.854132 
L 268.910138 180.62203 
L 283.136203 169.215549 
L 297.362267 161.097757 
L 311.588332 156.107902 
L 325.814396 153.316117 
L 340.04046 151.836054 
L 354.266525 151.073633 
L 361 150.890443 
" clip-path="url(#p080196a160)" style="fill: none; stroke: #1f77b4; stroke-opacity: 0.75; stroke-width: 1.5; stroke-linecap: square"/>
   </g>
   <g id="line2d_77">
    <path d="M -1 167.274482 
L 18.394258 167.274484 
L 40.942037 167.282609 
L 65.652221 167.311591 
L 88.2 167.395533 
L 112.910184 167.696905 
L 131.716019 168.366525 
L 141.362313 169.063789 
L 147.898217 169.783878 
L 152.847796 170.522551 
L 156.83263 171.275504 
L 160.168148 172.039085 
L 170.652268 175.492155 
L 177.557981 178.936136 
L 182.715926 182.299267 
L 186.834466 185.553636 
L 190.263063 188.690011 
L 193.200046 191.707099 
L 201.52176 202.011365 
L 207.426111 210.87247 
L 212.00588 218.452009 
L 215.747825 224.862056 
L 218.911594 230.188938 
L 221.652175 234.510328 
L 232.136295 244.055332 
L 239.042008 240.695456 
L 244.199954 234.305432 
L 248.318494 228.300297 
L 251.74709 223.255743 
L 254.684074 219.106525 
L 268.910138 203.227708 
L 283.136203 194.19598 
L 297.362267 189.534359 
L 311.588332 187.198594 
L 325.814396 186.035642 
L 340.04046 185.45641 
L 354.266525 185.167502 
L 361 185.09921 
" clip-path="url(#p080196a160)" style="fill: none; stroke: #aec7e8; stroke-opacity: 0.75; stroke-width: 1.5; stroke-linecap: square"/>
   </g>
   <g id="line2d_78">
    <path d="M -1 188.576196 
L 18.394258 188.576195 
L 40.942037 188.572107 
L 65.652221 188.567098 
L 88.2 188.580098 
L 112.910184 188.734217 
L 131.716019 189.234418 
L 141.362313 189.79601 
L 147.898217 190.379717 
L 152.847796 190.976277 
L 156.83263 191.581645 
L 160.168148 192.193216 
L 170.652268 194.941842 
L 177.557981 197.672233 
L 182.715926 200.333461 
L 186.834466 202.900894 
L 190.263063 205.362022 
L 193.200046 207.71074 
L 201.52176 215.493192 
L 207.426111 221.710185 
L 212.00588 226.486224 
L 215.747825 229.899331 
L 218.911594 231.937434 
L 221.652175 232.677234 
L 232.136295 226.953961 
L 239.042008 217.909866 
L 244.199954 209.664328 
L 248.318494 202.959855 
L 251.74709 197.733784 
L 254.684074 193.712374 
L 268.910138 181.433737 
L 283.136203 177.281675 
L 297.362267 176.061783 
L 311.588332 175.706432 
L 325.814396 175.597919 
L 340.04046 175.561721 
L 354.266525 175.548238 
L 361 175.545588 
" clip-path="url(#p080196a160)" style="fill: none; stroke: #ff7f0e; stroke-opacity: 0.75; stroke-width: 1.5; stroke-linecap: square"/>
   </g>
   <g id="line2d_79">
    <path d="M -1 51.98246 
L 18.394258 51.982507 
L 40.942037 52.209916 
L 65.652221 52.994557 
L 88.2 55.15709 
L 112.910184 61.863273 
L 131.716019 73.112498 
L 141.362313 81.71087 
L 147.898217 88.666184 
L 152.847796 94.504841 
L 156.83263 99.536156 
L 160.168148 103.957046 
L 170.652268 118.934168 
L 177.557981 129.550333 
L 182.715926 137.794655 
L 186.834466 144.535502 
L 190.263063 150.225401 
L 193.200046 155.127951 
L 201.52176 168.778374 
L 207.426111 177.521628 
L 212.00588 183.095889 
L 215.747825 186.518077 
L 218.911594 188.486951 
L 221.652175 189.488234 
L 232.136295 188.02395 
L 239.042008 182.916797 
L 244.199954 176.493231 
L 248.318494 169.818829 
L 251.74709 163.25101 
L 254.684074 157.218448 
L 268.910138 131.992924 
L 283.136203 116.824464 
L 297.362267 108.420938 
L 311.588332 103.997377 
L 325.814396 101.748632 
L 340.04046 100.620368 
L 354.266525 100.057132 
L 361 99.923859 
" clip-path="url(#p080196a160)" style="fill: none; stroke: #ffbb78; stroke-opacity: 0.75; stroke-width: 1.5; stroke-linecap: square"/>
   </g>
   <g id="line2d_80">
    <path d="M -1 158.208788 
L 18.394258 158.208867 
L 40.942037 158.306334 
L 65.652221 158.347418 
L 88.2 158.36043 
L 112.910184 158.472384 
L 131.716019 158.914701 
L 141.362313 159.492805 
L 147.898217 160.14123 
L 152.847796 160.830973 
L 156.83263 161.546064 
L 160.168148 162.276256 
L 170.652268 165.554265 
L 177.557981 168.696681 
L 182.715926 171.599748 
L 186.834466 174.242332 
L 190.263063 176.634703 
L 193.200046 178.798682 
L 201.52176 185.301138 
L 207.426111 190.060257 
L 212.00588 193.756131 
L 215.747825 196.737253 
L 218.911594 199.184199 
L 221.652175 201.201623 
L 232.136295 206.891028 
L 239.042008 205.858727 
L 244.199954 200.743947 
L 248.318494 195.654593 
L 251.74709 191.249721 
L 254.684074 187.485504 
L 268.910138 170.718336 
L 283.136203 157.477616 
L 297.362267 148.287677 
L 311.588332 142.679093 
L 325.814396 139.545888 
L 340.04046 137.884342 
L 354.266525 137.027944 
L 361 136.822124 
" clip-path="url(#p080196a160)" style="fill: none; stroke: #2ca02c; stroke-opacity: 0.75; stroke-width: 1.5; stroke-linecap: square"/>
   </g>
   <g id="line2d_81">
    <path d="M -1 217.041954 
L 18.394258 217.041824 
L 40.942037 216.668125 
L 65.652221 216.140147 
L 88.2 215.655846 
L 112.910184 214.950262 
L 131.716019 214.000119 
L 141.362313 213.312172 
L 147.898217 212.812536 
L 152.847796 212.466194 
L 156.83263 212.244845 
L 160.168148 212.125443 
L 170.652268 212.41839 
L 177.557981 213.457838 
L 182.715926 214.828602 
L 186.834466 216.336793 
L 190.263063 217.881593 
L 193.200046 219.407222 
L 201.52176 224.547509 
L 207.426111 228.478293 
L 212.00588 231.193853 
L 215.747825 232.860641 
L 218.911594 233.728117 
L 221.652175 234.054716 
L 232.136295 232.62124 
L 239.042008 229.368941 
L 244.199954 221.999548 
L 248.318494 215.426194 
L 251.74709 210.340228 
L 254.684074 206.339088 
L 268.910138 191.359776 
L 283.136203 182.009799 
L 297.362267 176.474162 
L 311.588332 173.396176 
L 325.814396 171.762851 
L 340.04046 170.920157 
L 354.266525 170.491988 
L 361 170.389796 
" clip-path="url(#p080196a160)" style="fill: none; stroke: #98df8a; stroke-opacity: 0.75; stroke-width: 1.5; stroke-linecap: square"/>
   </g>
   <g id="line2d_82">
    <path d="M -1 227.834409 
L 18.394258 227.834409 
L 40.942037 227.834351 
L 65.652221 227.834415 
L 88.2 227.835829 
L 112.910184 227.845213 
L 131.716019 227.859564 
L 141.362313 227.86317 
L 147.898217 227.860635 
L 152.847796 227.855211 
L 156.83263 227.848911 
L 160.168148 227.843112 
L 170.652268 227.838492 
L 177.557981 227.878856 
L 182.715926 227.958759 
L 186.834466 228.06687 
L 190.263063 228.192479 
L 193.200046 228.326678 
L 201.52176 228.80632 
L 207.426111 229.131994 
L 212.00588 229.263961 
L 215.747825 229.227711 
L 218.911594 229.064422 
L 221.652175 228.807578 
L 232.136295 225.677074 
L 239.042008 216.407407 
L 244.199954 207.244183 
L 248.318494 199.880333 
L 251.74709 194.016467 
L 254.684074 189.275216 
L 268.910138 170.338505 
L 283.136203 156.974481 
L 297.362267 148.297343 
L 311.588332 143.440531 
L 325.814396 140.968149 
L 340.04046 139.746232 
L 354.266525 139.143255 
L 361 139.001796 
" clip-path="url(#p080196a160)" style="fill: none; stroke: #d62728; stroke-opacity: 0.75; stroke-width: 1.5; stroke-linecap: square"/>
   </g>
   <g id="line2d_83">
    <path d="M -1 215.358435 
L 18.394258 215.358435 
L 40.942037 215.35762 
L 65.652221 215.367495 
L 88.2 215.444536 
L 112.910184 215.846795 
L 131.716019 216.819126 
L 141.362313 217.788516 
L 147.898217 218.719917 
L 152.847796 219.607268 
L 156.83263 220.451438 
L 160.168148 221.255115 
L 170.652268 224.413874 
L 177.557981 227.038147 
L 182.715926 229.23025 
L 186.834466 231.019015 
L 190.263063 232.398136 
L 193.200046 233.373378 
L 201.52176 234.491073 
L 207.426111 233.562774 
L 212.00588 231.540203 
L 215.747825 228.813734 
L 218.911594 225.670226 
L 221.652175 222.328153 
L 232.136295 205.344236 
L 239.042008 192.021961 
L 244.199954 181.646415 
L 248.318494 173.417211 
L 251.74709 166.827671 
L 254.684074 161.515047 
L 268.910138 142.577958 
L 283.136203 133.415567 
L 297.362267 124.521669 
L 311.588332 119.113522 
L 325.814396 117.10481 
L 340.04046 116.374877 
L 354.266525 116.083869 
L 361 116.02383 
" clip-path="url(#p080196a160)" style="fill: none; stroke: #ff9896; stroke-opacity: 0.75; stroke-width: 1.5; stroke-linecap: square"/>
   </g>
   <g id="line2d_84">
    <path d="M -1 216.292137 
L 18.394258 216.292137 
L 40.942037 216.296225 
L 65.652221 216.310459 
L 88.2 216.351576 
L 112.910184 216.495903 
L 131.716019 216.791966 
L 141.362313 217.068881 
L 147.898217 217.331064 
L 152.847796 217.582172 
L 156.83263 217.824814 
L 160.168148 218.06066 
L 170.652268 219.049832 
L 177.557981 219.962349 
L 182.715926 220.800878 
L 186.834466 221.559913 
L 190.263063 222.233732 
L 193.200046 222.818372 
L 201.52176 224.209704 
L 207.426111 224.456889 
L 212.00588 223.821316 
L 215.747825 222.570014 
L 218.911594 220.921623 
L 221.652175 219.03989 
L 232.136295 208.540543 
L 239.042008 200.193902 
L 244.199954 194.114613 
L 248.318494 189.563031 
L 251.74709 185.992048 
L 254.684074 183.072026 
L 268.910138 170.311768 
L 283.136203 160.143944 
L 297.362267 153.446626 
L 311.588332 149.728794 
L 325.814396 147.832523 
L 340.04046 146.889663 
L 354.266525 146.422097 
L 361 146.31207 
" clip-path="url(#p080196a160)" style="fill: none; stroke: #9467bd; stroke-opacity: 0.75; stroke-width: 1.5; stroke-linecap: square"/>
   </g>
   <g id="line2d_85">
    <path d="M -1 52.764397 
L 18.394258 52.764425 
L 40.942037 52.90482 
L 65.652221 53.402553 
L 88.2 54.825589 
L 112.910184 59.504485 
L 131.716019 68.018896 
L 141.362313 75.036446 
L 147.898217 81.008651 
L 152.847796 86.206711 
L 156.83263 90.809834 
L 160.168148 94.94199 
L 170.652268 109.462885 
L 177.557981 120.147617 
L 182.715926 128.606453 
L 186.834466 135.599863 
L 190.263063 141.546911 
L 193.200046 146.70333 
L 201.52176 161.334555 
L 207.426111 171.274531 
L 212.00588 178.322858 
L 215.747825 183.40353 
L 218.911594 187.082474 
L 221.652175 189.738148 
L 232.136295 194.733907 
L 239.042008 193.220471 
L 244.199954 189.279282 
L 248.318494 184.607954 
L 251.74709 180.261786 
L 254.684074 176.594046 
L 268.910138 163.567419 
L 283.136203 157.0372 
L 297.362267 153.54969 
L 311.588332 151.70546 
L 325.814396 150.762651 
L 340.04046 150.288467 
L 354.266525 150.051133 
L 361 149.994989 
" clip-path="url(#p080196a160)" style="fill: none; stroke: #c5b0d5; stroke-opacity: 0.75; stroke-width: 1.5; stroke-linecap: square"/>
   </g>
   <g id="line2d_86">
    <path d="M -1 171.083972 
L 18.394258 171.083992 
L 40.942037 171.175778 
L 65.652221 171.477932 
L 88.2 172.203683 
L 112.910184 173.819038 
L 131.716019 175.539391 
L 141.362313 176.564958 
L 147.898217 177.352946 
L 152.847796 178.027104 
L 156.83263 178.635986 
L 160.168148 179.203036 
L 170.652268 181.457339 
L 177.557981 183.491714 
L 182.715926 185.39928 
L 186.834466 187.207301 
L 190.263063 188.926439 
L 193.200046 190.562143 
L 201.52176 196.003913 
L 207.426111 200.43282 
L 212.00588 203.933466 
L 215.747825 206.60118 
L 218.911594 208.562319 
L 221.652175 209.957349 
L 232.136295 211.907439 
L 239.042008 209.247818 
L 244.199954 204.516717 
L 248.318494 199.515134 
L 251.74709 194.98208 
L 254.684074 191.052989 
L 268.910138 174.691919 
L 283.136203 164.769666 
L 297.362267 159.612654 
L 311.588332 157.109333 
L 325.814396 155.917223 
L 340.04046 155.344372 
L 354.266525 155.065098 
L 361 154.999949 
" clip-path="url(#p080196a160)" style="fill: none; stroke: #8c564b; stroke-opacity: 0.75; stroke-width: 1.5; stroke-linecap: square"/>
   </g>
   <g id="line2d_87">
    <path d="M -1 154.426174 
L 18.394258 154.426179 
L 40.942037 154.451168 
L 65.652221 154.535996 
L 88.2 154.763101 
L 112.910184 155.479943 
L 131.716019 156.833688 
L 141.362313 158.05093 
L 147.898217 159.178638 
L 152.847796 160.2375 
L 156.83263 161.238872 
L 160.168148 162.189861 
L 170.652268 165.914354 
L 177.557981 168.972552 
L 182.715926 171.493067 
L 186.834466 173.562426 
L 190.263063 175.247015 
L 193.200046 176.601084 
L 201.52176 179.441429 
L 207.426111 179.943478 
L 212.00588 179.171344 
L 215.747825 177.76184 
L 218.911594 176.074815 
L 221.652175 174.298165 
L 232.136295 165.341611 
L 239.042008 157.753091 
L 244.199954 151.419282 
L 248.318494 146.293985 
L 251.74709 142.28973 
L 254.684074 139.221449 
L 268.910138 130.203442 
L 283.136203 127.14595 
L 297.362267 123.761108 
L 311.588332 118.749157 
L 325.814396 115.427957 
L 340.04046 113.692183 
L 354.266525 112.822286 
L 361 112.617176 
" clip-path="url(#p080196a160)" style="fill: none; stroke: #c49c94; stroke-opacity: 0.75; stroke-width: 1.5; stroke-linecap: square"/>
   </g>
   <g id="line2d_88">
    <path d="M -1 200.136663 
L 18.394258 200.136666 
L 40.942037 200.1514 
L 65.652221 200.201175 
L 88.2 200.331782 
L 112.910184 200.720406 
L 131.716019 201.436569 
L 141.362313 202.106035 
L 147.898217 202.757314 
L 152.847796 203.396923 
L 156.83263 204.026896 
L 160.168148 204.647733 
L 170.652268 207.300574 
L 177.557981 209.784157 
L 182.715926 212.104394 
L 186.834466 214.266676 
L 190.263063 216.275378 
L 193.200046 218.134283 
L 201.52176 223.809545 
L 207.426111 227.282237 
L 212.00588 228.122562 
L 215.747825 227.262022 
L 218.911594 225.517488 
L 221.652175 223.255676 
L 232.136295 208.629062 
L 239.042008 194.966955 
L 244.199954 183.580385 
L 248.318494 174.205003 
L 251.74709 166.444003 
L 254.684074 159.963175 
L 268.910138 133.661281 
L 283.136203 118.983811 
L 297.362267 112.907746 
L 311.588332 110.559347 
L 325.814396 109.584569 
L 340.04046 109.145957 
L 354.266525 108.938248 
L 361 108.890434 
" clip-path="url(#p080196a160)" style="fill: none; stroke: #e377c2; stroke-opacity: 0.75; stroke-width: 1.5; stroke-linecap: square"/>
   </g>
   <g id="line2d_89">
    <path d="M -1 119.642168 
L 18.394258 119.64217 
L 40.942037 119.652944 
L 65.652221 119.698566 
L 88.2 119.88277 
L 112.910184 120.754945 
L 131.716019 122.73482 
L 141.362313 124.623774 
L 147.898217 126.422494 
L 152.847796 128.144278 
L 156.83263 129.798536 
L 160.168148 131.391814 
L 170.652268 137.849621 
L 177.557981 143.482997 
L 182.715926 148.474049 
L 186.834466 152.949434 
L 190.263063 157.001715 
L 193.200046 160.700358 
L 201.52176 172.209958 
L 207.426111 181.114857 
L 212.00588 188.267926 
L 215.747825 194.142706 
L 218.911594 199.031951 
L 221.652175 203.130362 
L 232.136295 215.908272 
L 239.042008 218.985447 
L 244.199954 217.18473 
L 248.318494 213.820146 
L 251.74709 210.274931 
L 254.684074 206.950644 
L 268.910138 190.609701 
L 283.136203 178.400937 
L 297.362267 171.597726 
L 311.588332 168.310215 
L 325.814396 166.769085 
L 340.04046 166.036371 
L 354.266525 165.681155 
L 361 165.598495 
" clip-path="url(#p080196a160)" style="fill: none; stroke: #f7b6d2; stroke-opacity: 0.75; stroke-width: 1.5; stroke-linecap: square"/>
   </g>
   <g id="line2d_90">
    <path d="M -1 143.430016 
L 18.394258 143.430018 
L 40.942037 143.434329 
L 65.652221 143.442254 
L 88.2 143.459167 
L 112.910184 143.556962 
L 131.716019 144.03204 
L 141.362313 144.758511 
L 147.898217 145.632766 
L 152.847796 146.594968 
L 156.83263 147.609312 
L 160.168148 148.653389 
L 170.652268 153.359049 
L 177.557981 157.868048 
L 182.715926 162.052052 
L 186.834466 165.896521 
L 190.263063 169.417279 
L 193.200046 172.637882 
L 201.52176 182.425276 
L 207.426111 189.290615 
L 212.00588 193.90775 
L 215.747825 196.81863 
L 218.911594 198.492996 
L 221.652175 199.307805 
L 232.136295 197.162149 
L 239.042008 185.990786 
L 244.199954 174.357456 
L 248.318494 165.06904 
L 251.74709 157.753017 
L 254.684074 151.977907 
L 268.910138 131.432662 
L 283.136203 113.621754 
L 297.362267 102.64429 
L 311.588332 98.058953 
L 325.814396 96.203915 
L 340.04046 95.403682 
L 354.266525 95.036353 
L 361 94.953293 
" clip-path="url(#p080196a160)" style="fill: none; stroke: #7f7f7f; stroke-opacity: 0.75; stroke-width: 1.5; stroke-linecap: square"/>
   </g>
   <g id="line2d_91">
    <path d="M -1 123.145256 
L 18.394258 123.145269 
L 40.942037 123.210415 
L 65.652221 123.437358 
L 88.2 124.075787 
L 112.910184 126.214398 
L 131.716019 130.392342 
L 141.362313 134.139967 
L 147.898217 137.551617 
L 152.847796 140.690473 
L 156.83263 143.601616 
L 160.168148 146.318814 
L 170.652268 156.624055 
L 177.557981 164.899447 
L 182.715926 171.80249 
L 186.834466 177.688945 
L 190.263063 182.771266 
L 193.200046 187.183083 
L 201.52176 198.999371 
L 207.426111 205.49016 
L 212.00588 209.223166 
L 215.747825 211.635972 
L 218.911594 213.365572 
L 221.652175 214.711051 
L 232.136295 218.862628 
L 239.042008 219.26494 
L 244.199954 216.71865 
L 248.318494 213.046795 
L 251.74709 209.427256 
L 254.684074 206.164297 
L 268.910138 190.932262 
L 283.136203 179.098128 
L 297.362267 171.280415 
L 311.588332 166.672039 
L 325.814396 164.149986 
L 340.04046 162.827761 
L 354.266525 162.15049 
L 361 161.988221 
" clip-path="url(#p080196a160)" style="fill: none; stroke: #c7c7c7; stroke-opacity: 0.75; stroke-width: 1.5; stroke-linecap: square"/>
   </g>
   <g id="line2d_92">
    <path d="M -1 120.719377 
L 18.394258 120.719341 
L 40.942037 120.60969 
L 65.652221 120.501973 
L 88.2 120.674625 
L 112.910184 121.761755 
L 131.716019 124.143396 
L 141.362313 126.386991 
L 147.898217 128.493531 
L 152.847796 130.477965 
L 156.83263 132.354117 
L 160.168148 134.133898 
L 170.652268 141.106921 
L 177.557981 146.940654 
L 182.715926 151.968368 
L 186.834466 156.389183 
L 190.263063 160.329401 
L 193.200046 163.872516 
L 201.52176 174.405945 
L 207.426111 181.506386 
L 212.00588 186.063971 
L 215.747825 188.955856 
L 218.911594 190.79283 
L 221.652175 191.922239 
L 232.136295 191.168013 
L 239.042008 184.53508 
L 244.199954 178.401766 
L 248.318494 174.079289 
L 251.74709 171.174823 
L 254.684074 169.207894 
L 268.910138 164.186668 
L 283.136203 162.014346 
L 297.362267 160.686199 
L 311.588332 159.881926 
L 325.814396 159.429306 
L 340.04046 159.187783 
L 354.266525 159.062891 
L 361 159.032806 
" clip-path="url(#p080196a160)" style="fill: none; stroke: #bcbd22; stroke-opacity: 0.75; stroke-width: 1.5; stroke-linecap: square"/>
   </g>
   <g id="line2d_93">
    <path d="M -1 263.515177 
L 18.394258 263.515174 
L 40.942037 263.497504 
L 65.652221 263.431215 
L 88.2 263.226891 
L 112.910184 262.550412 
L 131.716019 261.412989 
L 141.362313 260.495038 
L 147.898217 259.681677 
L 152.847796 258.930023 
L 156.83263 258.221452 
L 160.168148 257.546634 
L 170.652268 254.855922 
L 177.557981 252.551886 
L 182.715926 250.538942 
L 186.834466 248.751457 
L 190.263063 247.142363 
L 193.200046 245.677475 
L 201.52176 241.105229 
L 207.426111 237.511008 
L 212.00588 234.560758 
L 215.747825 232.06492 
L 218.911594 229.826083 
L 221.652175 227.390058 
L 232.136295 212.859049 
L 239.042008 203.858409 
L 244.199954 197.740136 
L 248.318494 193.060709 
L 251.74709 189.230422 
L 254.684074 185.977645 
L 268.910138 171.058058 
L 283.136203 159.888708 
L 297.362267 153.82451 
L 311.588332 151.182531 
L 325.814396 150.098185 
L 340.04046 149.637369 
L 354.266525 149.430215 
L 361 149.38409 
" clip-path="url(#p080196a160)" style="fill: none; stroke: #dbdb8d; stroke-opacity: 0.75; stroke-width: 1.5; stroke-linecap: square"/>
   </g>
   <g id="line2d_94">
    <path d="M -1 119.748007 
L 18.394258 119.748018 
L 40.942037 119.799026 
L 65.652221 119.975697 
L 88.2 120.472949 
L 112.910184 122.174984 
L 131.716019 125.637311 
L 141.362313 128.844368 
L 147.898217 131.821096 
L 152.847796 134.594964 
L 156.83263 137.19 
L 160.168148 139.626761 
L 170.652268 148.942181 
L 177.557981 156.457874 
L 182.715926 162.741654 
L 186.834466 168.128777 
L 190.263063 172.83204 
L 193.200046 176.994387 
L 201.52176 189.211688 
L 207.426111 197.871056 
L 212.00588 204.232434 
L 215.747825 209.0041 
L 218.911594 212.664331 
L 221.652175 215.551168 
L 232.136295 222.863666 
L 239.042008 219.005459 
L 244.199954 215.130025 
L 248.318494 212.031687 
L 251.74709 209.439492 
L 254.684074 207.193756 
L 268.910138 193.32243 
L 283.136203 176.89176 
L 297.362267 166.234668 
L 311.588332 160.086729 
L 325.814396 156.758654 
L 340.04046 155.023064 
L 354.266525 154.136281 
L 361 153.924098 
" clip-path="url(#p080196a160)" style="fill: none; stroke: #17becf; stroke-opacity: 0.75; stroke-width: 1.5; stroke-linecap: square"/>
   </g>
   <g id="line2d_95">
    <path d="M -1 213.224082 
L 18.394258 213.224082 
L 40.942037 213.223266 
L 65.652221 213.224807 
L 88.2 213.244951 
L 112.910184 213.356511 
L 131.716019 213.631081 
L 141.362313 213.9148 
L 147.898217 214.202613 
L 152.847796 214.493363 
L 156.83263 214.786156 
L 160.168148 215.0799 
L 170.652268 216.372253 
L 177.557981 217.587096 
L 182.715926 218.634019 
L 186.834466 219.29813 
L 190.263063 219.332557 
L 193.200046 218.986403 
L 201.52176 216.954852 
L 207.426111 214.741635 
L 212.00588 212.610385 
L 215.747825 210.618467 
L 218.911594 208.767683 
L 221.652175 207.04297 
L 232.136295 199.414074 
L 239.042008 193.759801 
L 244.199954 189.512731 
L 248.318494 186.189632 
L 251.74709 183.479736 
L 254.684074 181.20128 
L 268.910138 170.899454 
L 283.136203 162.493707 
L 297.362267 156.591557 
L 311.588332 152.978939 
L 325.814396 150.965404 
L 340.04046 149.901159 
L 354.266525 149.354062 
L 361 149.222755 
" clip-path="url(#p080196a160)" style="fill: none; stroke: #9edae5; stroke-opacity: 0.75; stroke-width: 1.5; stroke-linecap: square"/>
   </g>
   <g id="PathCollection_1">
    <defs>
     <path id="C0_0_fa62657b02" d="M -2.236068 4.472136 
L 0 2.236068 
L 2.236068 4.472136 
L 4.472136 2.236068 
L 2.236068 -0 
L 4.472136 -2.236068 
L 2.236068 -4.472136 
L 0 -2.236068 
L -2.236068 -4.472136 
L -4.472136 -2.236068 
L -2.236068 0 
L -4.472136 2.236068 
z
"/>
    </defs>
    <g clip-path="url(#p080196a160)">
     <use xlink:href="#C0_0_fa62657b02" x="201.52176" y="239.462395" style="fill: #1f77b4; stroke: #1f77b4"/>
    </g>
    <g clip-path="url(#p080196a160)">
     <use xlink:href="#C0_0_fa62657b02" x="232.136295" y="244.055332" style="fill: #aec7e8; stroke: #aec7e8"/>
    </g>
    <g clip-path="url(#p080196a160)">
     <use xlink:href="#C0_0_fa62657b02" x="221.652175" y="232.677234" style="fill: #ff7f0e; stroke: #ff7f0e"/>
    </g>
    <g clip-path="url(#p080196a160)">
     <use xlink:href="#C0_0_fa62657b02" x="221.652175" y="189.488234" style="fill: #ffbb78; stroke: #ffbb78"/>
    </g>
    <g clip-path="url(#p080196a160)">
     <use xlink:href="#C0_0_fa62657b02" x="232.136295" y="206.891028" style="fill: #2ca02c; stroke: #2ca02c"/>
    </g>
    <g clip-path="url(#p080196a160)">
     <use xlink:href="#C0_0_fa62657b02" x="221.652175" y="234.054716" style="fill: #98df8a; stroke: #98df8a"/>
    </g>
    <g clip-path="url(#p080196a160)">
     <use xlink:href="#C0_0_fa62657b02" x="212.00588" y="229.263961" style="fill: #d62728; stroke: #d62728"/>
    </g>
    <g clip-path="url(#p080196a160)">
     <use xlink:href="#C0_0_fa62657b02" x="201.52176" y="234.491073" style="fill: #ff9896; stroke: #ff9896"/>
    </g>
    <g clip-path="url(#p080196a160)">
     <use xlink:href="#C0_0_fa62657b02" x="207.426111" y="224.456889" style="fill: #9467bd; stroke: #9467bd"/>
    </g>
    <g clip-path="url(#p080196a160)">
     <use xlink:href="#C0_0_fa62657b02" x="232.136295" y="194.733907" style="fill: #c5b0d5; stroke: #c5b0d5"/>
    </g>
    <g clip-path="url(#p080196a160)">
     <use xlink:href="#C0_0_fa62657b02" x="232.136295" y="211.907439" style="fill: #8c564b; stroke: #8c564b"/>
    </g>
    <g clip-path="url(#p080196a160)">
     <use xlink:href="#C0_0_fa62657b02" x="207.426111" y="179.943478" style="fill: #c49c94; stroke: #c49c94"/>
    </g>
    <g clip-path="url(#p080196a160)">
     <use xlink:href="#C0_0_fa62657b02" x="212.00588" y="228.122562" style="fill: #e377c2; stroke: #e377c2"/>
    </g>
    <g clip-path="url(#p080196a160)">
     <use xlink:href="#C0_0_fa62657b02" x="239.042008" y="218.985447" style="fill: #f7b6d2; stroke: #f7b6d2"/>
    </g>
    <g clip-path="url(#p080196a160)">
     <use xlink:href="#C0_0_fa62657b02" x="221.652175" y="199.307805" style="fill: #7f7f7f; stroke: #7f7f7f"/>
    </g>
    <g clip-path="url(#p080196a160)">
     <use xlink:href="#C0_0_fa62657b02" x="239.042008" y="219.26494" style="fill: #c7c7c7; stroke: #c7c7c7"/>
    </g>
    <g clip-path="url(#p080196a160)">
     <use xlink:href="#C0_0_fa62657b02" x="221.652175" y="191.922239" style="fill: #bcbd22; stroke: #bcbd22"/>
    </g>
    <g clip-path="url(#p080196a160)">
     <use xlink:href="#C0_0_fa62657b02" x="232.136295" y="222.863666" style="fill: #17becf; stroke: #17becf"/>
    </g>
    <g clip-path="url(#p080196a160)">
     <use xlink:href="#C0_0_fa62657b02" x="190.263063" y="219.332557" style="fill: #9edae5; stroke: #9edae5"/>
    </g>
   </g>
   <g id="patch_3">
    <path d="M 88.2 291.05175 
L 88.2 14.599219 
" style="fill: none; stroke: #000000; stroke-width: 0.8; stroke-linejoin: miter; stroke-linecap: square"/>
   </g>
   <g id="patch_4">
    <path d="M 349.2 291.05175 
L 349.2 14.599219 
" style="fill: none; stroke: #000000; stroke-width: 0.8; stroke-linejoin: miter; stroke-linecap: square"/>
   </g>
   <g id="patch_5">
    <path d="M 88.2 291.05175 
L 349.2 291.05175 
" style="fill: none; stroke: #000000; stroke-width: 0.8; stroke-linejoin: miter; stroke-linecap: square"/>
   </g>
   <g id="patch_6">
    <path d="M 88.2 14.599219 
L 349.2 14.599219 
" style="fill: none; stroke: #000000; stroke-width: 0.8; stroke-linejoin: miter; stroke-linecap: square"/>
   </g>
   <g id="axes_2">
    <g id="patch_7">
     <path d="M 88.2 373.987509 
L 349.2 373.987509 
L 349.2 291.05175 
L 88.2 291.05175 
z
" style="fill: #ffffff"/>
    </g>
    <g id="PolyCollection_1">
     <defs>
      <path id="m2411571bcb" d="M 165.211887 -58.106541 
L 165.211887 -58.012491 
L 165.708778 -58.012491 
L 166.205669 -58.012491 
L 166.70256 -58.012491 
L 167.199451 -58.012491 
L 167.696341 -58.012491 
L 168.193232 -58.012491 
L 168.690123 -58.012491 
L 169.187014 -58.012491 
L 169.683905 -58.012491 
L 170.180796 -58.012491 
L 170.677687 -58.012491 
L 171.174578 -58.012491 
L 171.671469 -58.012491 
L 172.16836 -58.012491 
L 172.665251 -58.012491 
L 173.162142 -58.012491 
L 173.659033 -58.012491 
L 174.155924 -58.012491 
L 174.652815 -58.012491 
L 175.149706 -58.012491 
L 175.646597 -58.012491 
L 176.143488 -58.012491 
L 176.640378 -58.012491 
L 177.137269 -58.012491 
L 177.63416 -58.012491 
L 178.131051 -58.012491 
L 178.627942 -58.012491 
L 179.124833 -58.012491 
L 179.621724 -58.012491 
L 180.118615 -58.012491 
L 180.615506 -58.012491 
L 181.112397 -58.012491 
L 181.609288 -58.012491 
L 182.106179 -58.012491 
L 182.60307 -58.012491 
L 183.099961 -58.012491 
L 183.596852 -58.012491 
L 184.093743 -58.012491 
L 184.590634 -58.012491 
L 185.087524 -58.012491 
L 185.584415 -58.012491 
L 186.081306 -58.012491 
L 186.578197 -58.012491 
L 187.075088 -58.012491 
L 187.571979 -58.012491 
L 188.06887 -58.012491 
L 188.565761 -58.012491 
L 189.062652 -58.012491 
L 189.559543 -58.012491 
L 190.056434 -58.012491 
L 190.553325 -58.012491 
L 191.050216 -58.012491 
L 191.547107 -58.012491 
L 192.043998 -58.012491 
L 192.540889 -58.012491 
L 193.03778 -58.012491 
L 193.534671 -58.012491 
L 194.031561 -58.012491 
L 194.528452 -58.012491 
L 195.025343 -58.012491 
L 195.522234 -58.012491 
L 196.019125 -58.012491 
L 196.516016 -58.012491 
L 197.012907 -58.012491 
L 197.509798 -58.012491 
L 198.006689 -58.012491 
L 198.50358 -58.012491 
L 199.000471 -58.012491 
L 199.497362 -58.012491 
L 199.994253 -58.012491 
L 200.491144 -58.012491 
L 200.988035 -58.012491 
L 201.484926 -58.012491 
L 201.981817 -58.012491 
L 202.478707 -58.012491 
L 202.975598 -58.012491 
L 203.472489 -58.012491 
L 203.96938 -58.012491 
L 204.466271 -58.012491 
L 204.963162 -58.012491 
L 205.460053 -58.012491 
L 205.956944 -58.012491 
L 206.453835 -58.012491 
L 206.950726 -58.012491 
L 207.447617 -58.012491 
L 207.944508 -58.012491 
L 208.441399 -58.012491 
L 208.93829 -58.012491 
L 209.435181 -58.012491 
L 209.932072 -58.012491 
L 210.428963 -58.012491 
L 210.925854 -58.012491 
L 211.422744 -58.012491 
L 211.919635 -58.012491 
L 212.416526 -58.012491 
L 212.913417 -58.012491 
L 213.410308 -58.012491 
L 213.907199 -58.012491 
L 214.40409 -58.012491 
L 214.900981 -58.012491 
L 215.397872 -58.012491 
L 215.894763 -58.012491 
L 216.391654 -58.012491 
L 216.888545 -58.012491 
L 217.385436 -58.012491 
L 217.882327 -58.012491 
L 218.379218 -58.012491 
L 218.876109 -58.012491 
L 219.373 -58.012491 
L 219.869891 -58.012491 
L 220.366781 -58.012491 
L 220.863672 -58.012491 
L 221.360563 -58.012491 
L 221.857454 -58.012491 
L 222.354345 -58.012491 
L 222.851236 -58.012491 
L 223.348127 -58.012491 
L 223.845018 -58.012491 
L 224.341909 -58.012491 
L 224.8388 -58.012491 
L 225.335691 -58.012491 
L 225.832582 -58.012491 
L 226.329473 -58.012491 
L 226.826364 -58.012491 
L 227.323255 -58.012491 
L 227.820146 -58.012491 
L 228.317037 -58.012491 
L 228.813927 -58.012491 
L 229.310818 -58.012491 
L 229.807709 -58.012491 
L 230.3046 -58.012491 
L 230.801491 -58.012491 
L 231.298382 -58.012491 
L 231.795273 -58.012491 
L 232.292164 -58.012491 
L 232.789055 -58.012491 
L 233.285946 -58.012491 
L 233.782837 -58.012491 
L 234.279728 -58.012491 
L 234.776619 -58.012491 
L 235.27351 -58.012491 
L 235.770401 -58.012491 
L 236.267292 -58.012491 
L 236.764183 -58.012491 
L 237.261074 -58.012491 
L 237.757964 -58.012491 
L 238.254855 -58.012491 
L 238.751746 -58.012491 
L 239.248637 -58.012491 
L 239.745528 -58.012491 
L 240.242419 -58.012491 
L 240.73931 -58.012491 
L 241.236201 -58.012491 
L 241.733092 -58.012491 
L 242.229983 -58.012491 
L 242.726874 -58.012491 
L 243.223765 -58.012491 
L 243.720656 -58.012491 
L 244.217547 -58.012491 
L 244.714438 -58.012491 
L 245.211329 -58.012491 
L 245.70822 -58.012491 
L 246.20511 -58.012491 
L 246.702001 -58.012491 
L 247.198892 -58.012491 
L 247.695783 -58.012491 
L 248.192674 -58.012491 
L 248.689565 -58.012491 
L 249.186456 -58.012491 
L 249.683347 -58.012491 
L 250.180238 -58.012491 
L 250.677129 -58.012491 
L 251.17402 -58.012491 
L 251.670911 -58.012491 
L 252.167802 -58.012491 
L 252.664693 -58.012491 
L 253.161584 -58.012491 
L 253.658475 -58.012491 
L 254.155366 -58.012491 
L 254.652257 -58.012491 
L 255.149147 -58.012491 
L 255.646038 -58.012491 
L 256.142929 -58.012491 
L 256.63982 -58.012491 
L 257.136711 -58.012491 
L 257.633602 -58.012491 
L 258.130493 -58.012491 
L 258.627384 -58.012491 
L 259.124275 -58.012491 
L 259.621166 -58.012491 
L 260.118057 -58.012491 
L 260.614948 -58.012491 
L 261.111839 -58.012491 
L 261.60873 -58.012491 
L 262.105621 -58.012491 
L 262.602512 -58.012491 
L 263.099403 -58.012491 
L 263.596293 -58.012491 
L 264.093184 -58.012491 
L 264.093184 -58.225523 
L 264.093184 -58.225523 
L 263.596293 -58.268382 
L 263.099403 -58.318866 
L 262.602512 -58.378123 
L 262.105621 -58.447435 
L 261.60873 -58.528225 
L 261.111839 -58.622065 
L 260.614948 -58.730684 
L 260.118057 -58.85597 
L 259.621166 -58.99998 
L 259.124275 -59.164937 
L 258.627384 -59.353232 
L 258.130493 -59.567423 
L 257.633602 -59.810227 
L 257.136711 -60.084515 
L 256.63982 -60.393296 
L 256.142929 -60.739708 
L 255.646038 -61.126995 
L 255.149147 -61.558483 
L 254.652257 -62.037558 
L 254.155366 -62.567629 
L 253.658475 -63.152098 
L 253.161584 -63.794321 
L 252.664693 -64.49756 
L 252.167802 -65.264946 
L 251.670911 -66.099424 
L 251.17402 -67.003705 
L 250.677129 -67.980216 
L 250.180238 -69.031044 
L 249.683347 -70.157886 
L 249.186456 -71.361997 
L 248.689565 -72.644139 
L 248.192674 -74.004539 
L 247.695783 -75.442841 
L 247.198892 -76.958074 
L 246.702001 -78.548622 
L 246.20511 -80.212196 
L 245.70822 -81.945823 
L 245.211329 -83.745839 
L 244.714438 -85.607894 
L 244.217547 -87.526963 
L 243.720656 -89.497373 
L 243.223765 -91.512838 
L 242.726874 -93.566503 
L 242.229983 -95.651001 
L 241.733092 -97.758518 
L 241.236201 -99.880867 
L 240.73931 -102.009569 
L 240.242419 -104.135939 
L 239.745528 -106.251184 
L 239.248637 -108.346493 
L 238.751746 -110.413134 
L 238.254855 -112.442556 
L 237.757964 -114.426477 
L 237.261074 -116.356974 
L 236.764183 -118.226569 
L 236.267292 -120.028305 
L 235.770401 -121.755808 
L 235.27351 -123.403347 
L 234.776619 -124.965875 
L 234.279728 -126.439065 
L 233.782837 -127.819324 
L 233.285946 -129.103806 
L 232.789055 -130.290403 
L 232.292164 -131.377733 
L 231.795273 -132.365106 
L 231.298382 -133.252497 
L 230.801491 -134.040495 
L 230.3046 -134.730259 
L 229.807709 -135.32346 
L 229.310818 -135.822227 
L 228.813927 -136.229088 
L 228.317037 -136.546915 
L 227.820146 -136.778868 
L 227.323255 -136.928343 
L 226.826364 -136.998928 
L 226.329473 -136.994356 
L 225.832582 -136.918473 
L 225.335691 -136.775201 
L 224.8388 -136.568515 
L 224.341909 -136.30242 
L 223.845018 -135.98093 
L 223.348127 -135.608055 
L 222.851236 -135.187784 
L 222.354345 -134.724074 
L 221.857454 -134.220836 
L 221.360563 -133.68192 
L 220.863672 -133.111099 
L 220.366781 -132.512051 
L 219.869891 -131.888334 
L 219.373 -131.243365 
L 218.876109 -130.580393 
L 218.379218 -129.902465 
L 217.882327 -129.2124 
L 217.385436 -128.512755 
L 216.888545 -127.805794 
L 216.391654 -127.093459 
L 215.894763 -126.377345 
L 215.397872 -125.658674 
L 214.900981 -124.938283 
L 214.40409 -124.21661 
L 213.907199 -123.493696 
L 213.410308 -122.769187 
L 212.913417 -122.042349 
L 212.416526 -121.312094 
L 211.919635 -120.577009 
L 211.422744 -119.8354 
L 210.925854 -119.085334 
L 210.428963 -118.324698 
L 209.932072 -117.551257 
L 209.435181 -116.762716 
L 208.93829 -115.956786 
L 208.441399 -115.131249 
L 207.944508 -114.284023 
L 207.447617 -113.413222 
L 206.950726 -112.517212 
L 206.453835 -111.594664 
L 205.956944 -110.644596 
L 205.460053 -109.666404 
L 204.963162 -108.659892 
L 204.466271 -107.625286 
L 203.96938 -106.563237 
L 203.472489 -105.474819 
L 202.975598 -104.361511 
L 202.478707 -103.225176 
L 201.981817 -102.068029 
L 201.484926 -100.892592 
L 200.988035 -99.701655 
L 200.491144 -98.49822 
L 199.994253 -97.28545 
L 199.497362 -96.066612 
L 199.000471 -94.845019 
L 198.50358 -93.623977 
L 198.006689 -92.406733 
L 197.509798 -91.196422 
L 197.012907 -89.996027 
L 196.516016 -88.808338 
L 196.019125 -87.63592 
L 195.522234 -86.481091 
L 195.025343 -85.345901 
L 194.528452 -84.232122 
L 194.031561 -83.141249 
L 193.534671 -82.074496 
L 193.03778 -81.032813 
L 192.540889 -80.016899 
L 192.043998 -79.027222 
L 191.547107 -78.06404 
L 191.050216 -77.127436 
L 190.553325 -76.217336 
L 190.056434 -75.333548 
L 189.559543 -74.475786 
L 189.062652 -73.643698 
L 188.565761 -72.836893 
L 188.06887 -72.054968 
L 187.571979 -71.297523 
L 187.075088 -70.564181 
L 186.578197 -69.854601 
L 186.081306 -69.168488 
L 185.584415 -68.505596 
L 185.087524 -67.865733 
L 184.590634 -67.248756 
L 184.093743 -66.654568 
L 183.596852 -66.083112 
L 183.099961 -65.534358 
L 182.60307 -65.008294 
L 182.106179 -64.504918 
L 181.609288 -64.024215 
L 181.112397 -63.566158 
L 180.615506 -63.130685 
L 180.118615 -62.717694 
L 179.621724 -62.327035 
L 179.124833 -61.958495 
L 178.627942 -61.611799 
L 178.131051 -61.286605 
L 177.63416 -60.982497 
L 177.137269 -60.69899 
L 176.640378 -60.435529 
L 176.143488 -60.191493 
L 175.646597 -59.9662 
L 175.149706 -59.758913 
L 174.652815 -59.568847 
L 174.155924 -59.395177 
L 173.659033 -59.237047 
L 173.162142 -59.093578 
L 172.665251 -58.963878 
L 172.16836 -58.84705 
L 171.671469 -58.742198 
L 171.174578 -58.64844 
L 170.677687 -58.564911 
L 170.180796 -58.490769 
L 169.683905 -58.425204 
L 169.187014 -58.36744 
L 168.690123 -58.316737 
L 168.193232 -58.272399 
L 167.696341 -58.233773 
L 167.199451 -58.200249 
L 166.70256 -58.171261 
L 166.205669 -58.146291 
L 165.708778 -58.124862 
L 165.211887 -58.106541 
z
" style="stroke: #1f77b4"/>
     </defs>
     <g clip-path="url(#p7f3972cad1)">
      <use xlink:href="#m2411571bcb" x="0" y="432" style="fill: #1f77b4; fill-opacity: 0.25; stroke: #1f77b4"/>
     </g>
    </g>
    <g id="matplotlib.axis_3">
     <g id="xtick_48">
      <g id="line2d_96">
       <defs>
        <path id="m302a281797" d="M 0 0 
L 0 3.5 
" style="stroke: #000000; stroke-width: 0.8"/>
       </defs>
       <g>
        <use xlink:href="#m302a281797" x="98.68412" y="373.987509" style="stroke: #000000; stroke-width: 0.8"/>
       </g>
      </g>
      <g id="text_6">
       <!-- 0.0005 -->
       <g transform="translate(81.188808 388.585947) scale(0.1 -0.1)">
        <defs>
         <path id="DejaVuSans-2e" d="M 684 794 
L 1344 794 
L 1344 0 
L 684 0 
L 684 794 
z
" transform="scale(0.015625)"/>
         <path id="DejaVuSans-35" d="M 691 4666 
L 3169 4666 
L 3169 4134 
L 1269 4134 
L 1269 2991 
Q 1406 3038 1543 3061 
Q 1681 3084 1819 3084 
Q 2600 3084 3056 2656 
Q 3513 2228 3513 1497 
Q 3513 744 3044 326 
Q 2575 -91 1722 -91 
Q 1428 -91 1123 -41 
Q 819 9 494 109 
L 494 744 
Q 775 591 1075 516 
Q 1375 441 1709 441 
Q 2250 441 2565 725 
Q 2881 1009 2881 1497 
Q 2881 1984 2565 2268 
Q 2250 2553 1709 2553 
Q 1456 2553 1204 2497 
Q 953 2441 691 2322 
L 691 4666 
z
" transform="scale(0.015625)"/>
        </defs>
        <use xlink:href="#DejaVuSans-30"/>
        <use xlink:href="#DejaVuSans-2e" x="63.623047"/>
        <use xlink:href="#DejaVuSans-30" x="95.410156"/>
        <use xlink:href="#DejaVuSans-30" x="159.033203"/>
        <use xlink:href="#DejaVuSans-30" x="222.65625"/>
        <use xlink:href="#DejaVuSans-35" x="286.279297"/>
       </g>
      </g>
     </g>
     <g id="xtick_49">
      <g id="line2d_97">
       <g>
        <use xlink:href="#m302a281797" x="145.942083" y="373.987509" style="stroke: #000000; stroke-width: 0.8"/>
       </g>
      </g>
      <g id="text_7">
       <!-- 0.005 -->
       <g transform="translate(131.628021 388.585947) scale(0.1 -0.1)">
        <use xlink:href="#DejaVuSans-30"/>
        <use xlink:href="#DejaVuSans-2e" x="63.623047"/>
        <use xlink:href="#DejaVuSans-30" x="95.410156"/>
        <use xlink:href="#DejaVuSans-30" x="159.033203"/>
        <use xlink:href="#DejaVuSans-35" x="222.65625"/>
       </g>
      </g>
     </g>
     <g id="xtick_50">
      <g id="line2d_98">
       <g>
        <use xlink:href="#m302a281797" x="193.200046" y="373.987509" style="stroke: #000000; stroke-width: 0.8"/>
       </g>
      </g>
      <g id="text_8">
       <!-- 0.05 -->
       <g transform="translate(182.067234 388.585947) scale(0.1 -0.1)">
        <use xlink:href="#DejaVuSans-30"/>
        <use xlink:href="#DejaVuSans-2e" x="63.623047"/>
        <use xlink:href="#DejaVuSans-30" x="95.410156"/>
        <use xlink:href="#DejaVuSans-35" x="159.033203"/>
       </g>
      </g>
     </g>
     <g id="xtick_51">
      <g id="line2d_99">
       <g>
        <use xlink:href="#m302a281797" x="226.231945" y="373.987509" style="stroke: #000000; stroke-width: 0.8"/>
       </g>
      </g>
      <g id="text_9">
       <!-- 0.25 -->
       <g transform="translate(215.099132 388.585947) scale(0.1 -0.1)">
        <use xlink:href="#DejaVuSans-30"/>
        <use xlink:href="#DejaVuSans-2e" x="63.623047"/>
        <use xlink:href="#DejaVuSans-32" x="95.410156"/>
        <use xlink:href="#DejaVuSans-35" x="159.033203"/>
       </g>
      </g>
     </g>
     <g id="xtick_52">
      <g id="line2d_100">
       <g>
        <use xlink:href="#m302a281797" x="254.684074" y="373.987509" style="stroke: #000000; stroke-width: 0.8"/>
       </g>
      </g>
      <g id="text_10">
       <!-- 1 -->
       <g transform="translate(251.502824 388.585947) scale(0.1 -0.1)">
        <use xlink:href="#DejaVuSans-31"/>
       </g>
      </g>
     </g>
     <g id="xtick_53">
      <g id="line2d_101">
       <g>
        <use xlink:href="#m302a281797" x="283.136203" y="373.987509" style="stroke: #000000; stroke-width: 0.8"/>
       </g>
      </g>
      <g id="text_11">
       <!-- 4 -->
       <g transform="translate(279.954953 388.585947) scale(0.1 -0.1)">
        <defs>
         <path id="DejaVuSans-34" d="M 2419 4116 
L 825 1625 
L 2419 1625 
L 2419 4116 
z
M 2253 4666 
L 3047 4666 
L 3047 1625 
L 3713 1625 
L 3713 1100 
L 3047 1100 
L 3047 0 
L 2419 0 
L 2419 1100 
L 313 1100 
L 313 1709 
L 2253 4666 
z
" transform="scale(0.015625)"/>
        </defs>
        <use xlink:href="#DejaVuSans-34"/>
       </g>
      </g>
     </g>
     <g id="xtick_54">
      <g id="line2d_102">
       <g>
        <use xlink:href="#m302a281797" x="311.588332" y="373.987509" style="stroke: #000000; stroke-width: 0.8"/>
       </g>
      </g>
      <g id="text_12">
       <!-- 16 -->
       <g transform="translate(305.225832 388.585947) scale(0.1 -0.1)">
        <defs>
         <path id="DejaVuSans-36" d="M 2113 2584 
Q 1688 2584 1439 2293 
Q 1191 2003 1191 1497 
Q 1191 994 1439 701 
Q 1688 409 2113 409 
Q 2538 409 2786 701 
Q 3034 994 3034 1497 
Q 3034 2003 2786 2293 
Q 2538 2584 2113 2584 
z
M 3366 4563 
L 3366 3988 
Q 3128 4100 2886 4159 
Q 2644 4219 2406 4219 
Q 1781 4219 1451 3797 
Q 1122 3375 1075 2522 
Q 1259 2794 1537 2939 
Q 1816 3084 2150 3084 
Q 2853 3084 3261 2657 
Q 3669 2231 3669 1497 
Q 3669 778 3244 343 
Q 2819 -91 2113 -91 
Q 1303 -91 875 529 
Q 447 1150 447 2328 
Q 447 3434 972 4092 
Q 1497 4750 2381 4750 
Q 2619 4750 2861 4703 
Q 3103 4656 3366 4563 
z
" transform="scale(0.015625)"/>
        </defs>
        <use xlink:href="#DejaVuSans-31"/>
        <use xlink:href="#DejaVuSans-36" x="63.623047"/>
       </g>
      </g>
     </g>
     <g id="xtick_55">
      <g id="line2d_103">
       <g>
        <use xlink:href="#m302a281797" x="340.04046" y="373.987509" style="stroke: #000000; stroke-width: 0.8"/>
       </g>
      </g>
      <g id="text_13">
       <!-- 64 -->
       <g transform="translate(333.67796 388.585947) scale(0.1 -0.1)">
        <use xlink:href="#DejaVuSans-36"/>
        <use xlink:href="#DejaVuSans-34" x="63.623047"/>
       </g>
      </g>
     </g>
     <g id="text_14">
      <!-- $\gamma$ -->
      <g transform="translate(215.7 402.243759) scale(0.1 -0.1)">
       <use xlink:href="#DejaVuSans-Oblique-3b3" transform="translate(0 0.3125)"/>
      </g>
     </g>
    </g>
    <g id="matplotlib.axis_4"/>
    <g id="patch_8">
     <path d="M 88.2 373.987509 
L 88.2 291.05175 
" style="fill: none; stroke: #000000; stroke-width: 0.8; stroke-linejoin: miter; stroke-linecap: square"/>
    </g>
    <g id="patch_9">
     <path d="M 349.2 373.987509 
L 349.2 291.05175 
" style="fill: none; stroke: #000000; stroke-width: 0.8; stroke-linejoin: miter; stroke-linecap: square"/>
    </g>
    <g id="patch_10">
     <path d="M 88.2 373.987509 
L 349.2 373.987509 
" style="fill: none; stroke: #000000; stroke-width: 0.8; stroke-linejoin: miter; stroke-linecap: square"/>
    </g>
    <g id="patch_11">
     <path d="M 88.2 291.05175 
L 349.2 291.05175 
" style="fill: none; stroke: #000000; stroke-width: 0.8; stroke-linejoin: miter; stroke-linecap: square"/>
    </g>
   </g>
  </g>
 </g>
 <defs>
  <clipPath id="p080196a160">
   <rect x="88.2" y="14.599219" width="261" height="276.452531"/>
  </clipPath>
  <clipPath id="p7f3972cad1">
   <rect x="88.2" y="291.05175" width="261" height="82.935759"/>
  </clipPath>
 </defs>
</svg>
