<?xml version="1.0" encoding="utf-8" standalone="no"?>
<!DOCTYPE svg PUBLIC "-//W3C//DTD SVG 1.1//EN"
  "http://www.w3.org/Graphics/SVG/1.1/DTD/svg11.dtd">
<svg xmlns:xlink="http://www.w3.org/1999/xlink" width="1184.350607pt" height="233.794646pt" viewBox="0 0 1184.350607 233.794646" xmlns="http://www.w3.org/2000/svg" version="1.1">
 <metadata>
  <rdf:RDF xmlns:dc="http://purl.org/dc/elements/1.1/" xmlns:cc="http://creativecommons.org/ns#" xmlns:rdf="http://www.w3.org/1999/02/22-rdf-syntax-ns#">
   <cc:Work>
    <dc:type rdf:resource="http://purl.org/dc/dcmitype/StillImage"/>
    <dc:date>2023-04-17T11:55:32.688792</dc:date>
    <dc:format>image/svg+xml</dc:format>
    <dc:creator>
     <cc:Agent>
      <dc:title>Matplotlib v3.6.3, https://matplotlib.org/</dc:title>
     </cc:Agent>
    </dc:creator>
   </cc:Work>
  </rdf:RDF>
 </metadata>
 <defs>
  <style type="text/css">*{stroke-linejoin: round; stroke-linecap: butt}</style>
 </defs>
 <g id="figure_1">
  <g id="patch_1">
   <path d="M 0 233.794646 
L 1184.350607 233.794646 
L 1184.350607 0 
L 0 0 
z
" style="fill: #ffffff"/>
  </g>
  <g id="axes_1">
   <g id="patch_2">
    <path d="M 95.525 191.399333 
L 304.528521 191.399333 
L 304.528521 28.95 
L 95.525 28.95 
z
" style="fill: #ffffff"/>
   </g>
   <g id="matplotlib.axis_1">
    <g id="xtick_1">
     <g id="line2d_1">
      <defs>
       <path id="mf0fa30c0ac" d="M 0 0 
L 0 3.5 
" style="stroke: #000000; stroke-width: 0.8"/>
      </defs>
      <g>
       <use xlink:href="#mf0fa30c0ac" x="100.454328" y="191.399333" style="stroke: #000000; stroke-width: 0.8"/>
      </g>
     </g>
     <g id="text_1">
      <!-- 0 -->
      <g transform="translate(97.273078 205.997771) scale(0.1 -0.1)">
       <defs>
        <path id="DejaVuSans-30" d="M 2034 4250 
Q 1547 4250 1301 3770 
Q 1056 3291 1056 2328 
Q 1056 1369 1301 889 
Q 1547 409 2034 409 
Q 2525 409 2770 889 
Q 3016 1369 3016 2328 
Q 3016 3291 2770 3770 
Q 2525 4250 2034 4250 
z
M 2034 4750 
Q 2819 4750 3233 4129 
Q 3647 3509 3647 2328 
Q 3647 1150 3233 529 
Q 2819 -91 2034 -91 
Q 1250 -91 836 529 
Q 422 1150 422 2328 
Q 422 3509 836 4129 
Q 1250 4750 2034 4750 
z
" transform="scale(0.015625)"/>
       </defs>
       <use xlink:href="#DejaVuSans-30"/>
      </g>
     </g>
    </g>
    <g id="xtick_2">
     <g id="line2d_2">
      <g>
       <use xlink:href="#mf0fa30c0ac" x="149.747612" y="191.399333" style="stroke: #000000; stroke-width: 0.8"/>
      </g>
     </g>
     <g id="text_2">
      <!-- 1 -->
      <g transform="translate(146.566362 205.997771) scale(0.1 -0.1)">
       <defs>
        <path id="DejaVuSans-31" d="M 794 531 
L 1825 531 
L 1825 4091 
L 703 3866 
L 703 4441 
L 1819 4666 
L 2450 4666 
L 2450 531 
L 3481 531 
L 3481 0 
L 794 0 
L 794 531 
z
" transform="scale(0.015625)"/>
       </defs>
       <use xlink:href="#DejaVuSans-31"/>
      </g>
     </g>
    </g>
    <g id="xtick_3">
     <g id="line2d_3">
      <g>
       <use xlink:href="#mf0fa30c0ac" x="199.040895" y="191.399333" style="stroke: #000000; stroke-width: 0.8"/>
      </g>
     </g>
     <g id="text_3">
      <!-- 2 -->
      <g transform="translate(195.859645 205.997771) scale(0.1 -0.1)">
       <defs>
        <path id="DejaVuSans-32" d="M 1228 531 
L 3431 531 
L 3431 0 
L 469 0 
L 469 531 
Q 828 903 1448 1529 
Q 2069 2156 2228 2338 
Q 2531 2678 2651 2914 
Q 2772 3150 2772 3378 
Q 2772 3750 2511 3984 
Q 2250 4219 1831 4219 
Q 1534 4219 1204 4116 
Q 875 4013 500 3803 
L 500 4441 
Q 881 4594 1212 4672 
Q 1544 4750 1819 4750 
Q 2544 4750 2975 4387 
Q 3406 4025 3406 3419 
Q 3406 3131 3298 2873 
Q 3191 2616 2906 2266 
Q 2828 2175 2409 1742 
Q 1991 1309 1228 531 
z
" transform="scale(0.015625)"/>
       </defs>
       <use xlink:href="#DejaVuSans-32"/>
      </g>
     </g>
    </g>
    <g id="xtick_4">
     <g id="line2d_4">
      <g>
       <use xlink:href="#mf0fa30c0ac" x="248.334178" y="191.399333" style="stroke: #000000; stroke-width: 0.8"/>
      </g>
     </g>
     <g id="text_4">
      <!-- 3 -->
      <g transform="translate(245.152928 205.997771) scale(0.1 -0.1)">
       <defs>
        <path id="DejaVuSans-33" d="M 2597 2516 
Q 3050 2419 3304 2112 
Q 3559 1806 3559 1356 
Q 3559 666 3084 287 
Q 2609 -91 1734 -91 
Q 1441 -91 1130 -33 
Q 819 25 488 141 
L 488 750 
Q 750 597 1062 519 
Q 1375 441 1716 441 
Q 2309 441 2620 675 
Q 2931 909 2931 1356 
Q 2931 1769 2642 2001 
Q 2353 2234 1838 2234 
L 1294 2234 
L 1294 2753 
L 1863 2753 
Q 2328 2753 2575 2939 
Q 2822 3125 2822 3475 
Q 2822 3834 2567 4026 
Q 2313 4219 1838 4219 
Q 1578 4219 1281 4162 
Q 984 4106 628 3988 
L 628 4550 
Q 988 4650 1302 4700 
Q 1616 4750 1894 4750 
Q 2613 4750 3031 4423 
Q 3450 4097 3450 3541 
Q 3450 3153 3228 2886 
Q 3006 2619 2597 2516 
z
" transform="scale(0.015625)"/>
       </defs>
       <use xlink:href="#DejaVuSans-33"/>
      </g>
     </g>
    </g>
    <g id="xtick_5">
     <g id="line2d_5">
      <g>
       <use xlink:href="#mf0fa30c0ac" x="297.627462" y="191.399333" style="stroke: #000000; stroke-width: 0.8"/>
      </g>
     </g>
     <g id="text_5">
      <!-- 4 -->
      <g transform="translate(294.446212 205.997771) scale(0.1 -0.1)">
       <defs>
        <path id="DejaVuSans-34" d="M 2419 4116 
L 825 1625 
L 2419 1625 
L 2419 4116 
z
M 2253 4666 
L 3047 4666 
L 3047 1625 
L 3713 1625 
L 3713 1100 
L 3047 1100 
L 3047 0 
L 2419 0 
L 2419 1100 
L 313 1100 
L 313 1709 
L 2253 4666 
z
" transform="scale(0.015625)"/>
       </defs>
       <use xlink:href="#DejaVuSans-34"/>
      </g>
     </g>
    </g>
    <g id="text_6">
     <!-- $\gamma$ -->
     <g transform="translate(195.526761 223.444646) scale(0.15 -0.15)">
      <defs>
       <path id="DejaVuSans-Oblique-3b3" d="M 1491 2950 
L 1838 788 
L 3456 3500 
L 4066 3500 
L 1972 0 
L 1713 -1331 
L 1138 -1331 
L 1397 0 
L 988 2613 
Q 925 3006 628 3006 
L 475 3006 
L 569 3500 
L 788 3500 
Q 1403 3500 1491 2950 
z
" transform="scale(0.015625)"/>
      </defs>
      <use xlink:href="#DejaVuSans-Oblique-3b3" transform="translate(0 0.3125)"/>
     </g>
    </g>
   </g>
   <g id="matplotlib.axis_2">
    <g id="ytick_1">
     <g id="line2d_6">
      <defs>
       <path id="md23fae44db" d="M 0 0 
L -3.5 0 
" style="stroke: #000000; stroke-width: 0.8"/>
      </defs>
      <g>
       <use xlink:href="#md23fae44db" x="95.525" y="190.999212" style="stroke: #000000; stroke-width: 0.8"/>
      </g>
     </g>
     <g id="text_7">
      <!-- 0 -->
      <g transform="translate(82.1625 194.798431) scale(0.1 -0.1)">
       <use xlink:href="#DejaVuSans-30"/>
      </g>
     </g>
    </g>
    <g id="ytick_2">
     <g id="line2d_7">
      <g>
       <use xlink:href="#md23fae44db" x="95.525" y="150.987061" style="stroke: #000000; stroke-width: 0.8"/>
      </g>
     </g>
     <g id="text_8">
      <!-- 10 -->
      <g transform="translate(75.8 154.78628) scale(0.1 -0.1)">
       <use xlink:href="#DejaVuSans-31"/>
       <use xlink:href="#DejaVuSans-30" x="63.623047"/>
      </g>
     </g>
    </g>
    <g id="ytick_3">
     <g id="line2d_8">
      <g>
       <use xlink:href="#md23fae44db" x="95.525" y="110.97491" style="stroke: #000000; stroke-width: 0.8"/>
      </g>
     </g>
     <g id="text_9">
      <!-- 20 -->
      <g transform="translate(75.8 114.774128) scale(0.1 -0.1)">
       <use xlink:href="#DejaVuSans-32"/>
       <use xlink:href="#DejaVuSans-30" x="63.623047"/>
      </g>
     </g>
    </g>
    <g id="ytick_4">
     <g id="line2d_9">
      <g>
       <use xlink:href="#md23fae44db" x="95.525" y="70.962759" style="stroke: #000000; stroke-width: 0.8"/>
      </g>
     </g>
     <g id="text_10">
      <!-- 30 -->
      <g transform="translate(75.8 74.761977) scale(0.1 -0.1)">
       <use xlink:href="#DejaVuSans-33"/>
       <use xlink:href="#DejaVuSans-30" x="63.623047"/>
      </g>
     </g>
    </g>
    <g id="ytick_5">
     <g id="line2d_10">
      <g>
       <use xlink:href="#md23fae44db" x="95.525" y="30.950608" style="stroke: #000000; stroke-width: 0.8"/>
      </g>
     </g>
     <g id="text_11">
      <!-- 40 -->
      <g transform="translate(75.8 34.749826) scale(0.1 -0.1)">
       <use xlink:href="#DejaVuSans-34"/>
       <use xlink:href="#DejaVuSans-30" x="63.623047"/>
      </g>
     </g>
    </g>
    <g id="text_12">
     <!-- $\| R(\gamma) \|_p$ -->
     <g transform="translate(7.2 114.774667) scale(0.2 -0.2)">
      <defs>
       <path id="DejaVuSans-7c" d="M 1344 4891 
L 1344 -1509 
L 813 -1509 
L 813 4891 
L 1344 4891 
z
" transform="scale(0.015625)"/>
       <path id="DejaVuSans-Oblique-52" d="M 1613 4147 
L 1294 2491 
L 2106 2491 
Q 2584 2491 2879 2755 
Q 3175 3019 3175 3444 
Q 3175 3784 2976 3965 
Q 2778 4147 2406 4147 
L 1613 4147 
z
M 2772 2241 
Q 2972 2194 3105 2009 
Q 3238 1825 3413 1275 
L 3809 0 
L 3144 0 
L 2778 1197 
Q 2638 1659 2453 1815 
Q 2269 1972 1888 1972 
L 1191 1972 
L 806 0 
L 172 0 
L 1081 4666 
L 2503 4666 
Q 3150 4666 3495 4373 
Q 3841 4081 3841 3531 
Q 3841 3044 3547 2687 
Q 3253 2331 2772 2241 
z
" transform="scale(0.015625)"/>
       <path id="DejaVuSans-28" d="M 1984 4856 
Q 1566 4138 1362 3434 
Q 1159 2731 1159 2009 
Q 1159 1288 1364 580 
Q 1569 -128 1984 -844 
L 1484 -844 
Q 1016 -109 783 600 
Q 550 1309 550 2009 
Q 550 2706 781 3412 
Q 1013 4119 1484 4856 
L 1984 4856 
z
" transform="scale(0.015625)"/>
       <path id="DejaVuSans-29" d="M 513 4856 
L 1013 4856 
Q 1481 4119 1714 3412 
Q 1947 2706 1947 2009 
Q 1947 1309 1714 600 
Q 1481 -109 1013 -844 
L 513 -844 
Q 928 -128 1133 580 
Q 1338 1288 1338 2009 
Q 1338 2731 1133 3434 
Q 928 4138 513 4856 
z
" transform="scale(0.015625)"/>
       <path id="DejaVuSans-Oblique-70" d="M 3175 2156 
Q 3175 2616 2975 2859 
Q 2775 3103 2400 3103 
Q 2144 3103 1911 2972 
Q 1678 2841 1497 2591 
Q 1319 2344 1212 1994 
Q 1106 1644 1106 1300 
Q 1106 863 1306 627 
Q 1506 391 1875 391 
Q 2147 391 2380 519 
Q 2613 647 2778 891 
Q 2956 1147 3065 1494 
Q 3175 1841 3175 2156 
z
M 1394 2969 
Q 1625 3272 1939 3428 
Q 2253 3584 2638 3584 
Q 3175 3584 3472 3232 
Q 3769 2881 3769 2247 
Q 3769 1728 3584 1258 
Q 3400 788 3053 416 
Q 2822 169 2531 39 
Q 2241 -91 1919 -91 
Q 1547 -91 1294 64 
Q 1041 219 916 525 
L 556 -1331 
L -19 -1331 
L 922 3500 
L 1497 3500 
L 1394 2969 
z
" transform="scale(0.015625)"/>
      </defs>
      <use xlink:href="#DejaVuSans-7c" transform="translate(0 0.578125)"/>
      <use xlink:href="#DejaVuSans-Oblique-52" transform="translate(33.691406 0.578125)"/>
      <use xlink:href="#DejaVuSans-28" transform="translate(103.173828 0.578125)"/>
      <use xlink:href="#DejaVuSans-Oblique-3b3" transform="translate(142.1875 0.578125)"/>
      <use xlink:href="#DejaVuSans-29" transform="translate(201.367188 0.578125)"/>
      <use xlink:href="#DejaVuSans-7c" transform="translate(240.380859 0.578125)"/>
      <use xlink:href="#DejaVuSans-Oblique-70" transform="translate(275.029297 -15.828125) scale(0.7)"/>
     </g>
    </g>
   </g>
   <g id="line2d_11">
    <path d="M 102.48034 -1 
L 102.590371 9.502337 
L 102.918993 32.677985 
L 104.151325 83.402335 
L 105.383657 109.030075 
L 106.615989 124.492771 
L 107.848321 134.837343 
L 109.080653 142.244084 
L 110.312985 147.80888 
L 116.885423 163.434927 
L 123.457861 170.152001 
L 130.030298 173.888968 
L 136.602736 176.268991 
L 143.175174 177.917599 
L 149.747612 179.127036 
L 199.040895 183.060437 
L 297.627462 185.028697 
L 494.800595 186.01306 
L 889.146862 186.505406 
L 1185.350607 186.597894 
" clip-path="url(#pc2d939fb16)" style="fill: none; stroke: #440154; stroke-width: 1.5; stroke-linecap: square"/>
   </g>
   <g id="line2d_12">
    <path d="M 100.792612 -1 
L 100.799381 2.915162 
L 100.873321 32.249327 
L 100.947261 53.618487 
L 101.275883 104.792009 
L 101.604505 127.934848 
L 101.933127 140.247486 
L 102.261749 148.187604 
L 102.590371 153.830999 
L 102.918993 158.021179 
L 104.151325 166.549062 
L 105.383657 169.994368 
L 106.615989 172.436188 
L 107.848321 174.261272 
L 109.080653 175.679263 
L 110.312985 176.814345 
L 116.885423 180.397194 
L 123.457861 182.175641 
L 130.030298 183.253603 
L 136.602736 183.981684 
L 143.175174 184.507921 
L 149.747612 184.906331 
L 199.040895 186.26155 
L 297.627462 186.488491 
L 494.800595 186.534094 
L 889.146862 186.556944 
L 1185.350607 186.561271 
" clip-path="url(#pc2d939fb16)" style="fill: none; stroke: #21918c; stroke-width: 1.5; stroke-linecap: square"/>
   </g>
   <g id="line2d_13">
    <path d="M 100.611738 -1 
L 100.651501 24.60145 
L 100.725441 51.301255 
L 100.799381 68.669437 
L 100.873321 81.029804 
L 100.947261 87.921064 
L 101.275883 98.58107 
L 101.604505 106.377024 
L 101.933127 112.429896 
L 102.261749 117.323983 
L 102.590371 121.398287 
L 102.918993 124.865519 
L 104.151325 134.431313 
L 105.383657 140.858207 
L 106.615989 145.571449 
L 107.848321 149.220854 
L 109.080653 152.153484 
L 110.312985 154.574866 
L 116.885423 162.762844 
L 123.457861 167.200677 
L 130.030298 170.02837 
L 136.602736 171.655447 
L 143.175174 172.774773 
L 149.747612 173.635765 
L 199.040895 176.729269 
L 297.627462 178.50093 
L 494.800595 179.463902 
L 889.146862 179.968738 
L 1185.350607 180.065977 
" clip-path="url(#pc2d939fb16)" style="fill: none; stroke: #fde725; stroke-width: 1.5; stroke-linecap: square"/>
   </g>
   <g id="patch_3">
    <path d="M 95.525 191.399333 
L 95.525 28.95 
" style="fill: none; stroke: #000000; stroke-width: 0.8; stroke-linejoin: miter; stroke-linecap: square"/>
   </g>
   <g id="patch_4">
    <path d="M 304.528521 191.399333 
L 304.528521 28.95 
" style="fill: none; stroke: #000000; stroke-width: 0.8; stroke-linejoin: miter; stroke-linecap: square"/>
   </g>
   <g id="patch_5">
    <path d="M 95.525 191.399333 
L 304.528521 191.399333 
" style="fill: none; stroke: #000000; stroke-width: 0.8; stroke-linejoin: miter; stroke-linecap: square"/>
   </g>
   <g id="patch_6">
    <path d="M 95.525 28.95 
L 304.528521 28.95 
" style="fill: none; stroke: #000000; stroke-width: 0.8; stroke-linejoin: miter; stroke-linecap: square"/>
   </g>
   <g id="text_13">
    <!-- $R^{(0 \leftarrow 1)}_{\cdot | \cdot}(\gamma)$ -->
    <g transform="translate(95.525 22.35) scale(0.15 -0.15)">
     <defs>
      <path id="DejaVuSans-2190" d="M 313 1866 
L 313 2147 
L 1541 3375 
L 1916 3000 
L 1188 2272 
L 4997 2272 
L 4997 1741 
L 1188 1741 
L 1916 1013 
L 1541 638 
L 313 1866 
z
" transform="scale(0.015625)"/>
      <path id="DejaVuSans-22c5" d="M 684 2619 
L 1344 2619 
L 1344 1825 
L 684 1825 
L 684 2619 
z
" transform="scale(0.015625)"/>
     </defs>
     <use xlink:href="#DejaVuSans-Oblique-52" transform="translate(0 0.004687)"/>
     <use xlink:href="#DejaVuSans-28" transform="translate(76.499193 47.8875) scale(0.7)"/>
     <use xlink:href="#DejaVuSans-30" transform="translate(103.808763 47.8875) scale(0.7)"/>
     <use xlink:href="#DejaVuSans-2190" transform="translate(161.982591 47.8875) scale(0.7)"/>
     <use xlink:href="#DejaVuSans-31" transform="translate(234.27263 47.8875) scale(0.7)"/>
     <use xlink:href="#DejaVuSans-29" transform="translate(278.808763 47.8875) scale(0.7)"/>
     <use xlink:href="#DejaVuSans-22c5" transform="translate(69.482422 -27.339063) scale(0.7)"/>
     <use xlink:href="#DejaVuSans-7c" transform="translate(91.733398 -27.339063) scale(0.7)"/>
     <use xlink:href="#DejaVuSans-22c5" transform="translate(128.955078 -27.339063) scale(0.7)"/>
     <use xlink:href="#DejaVuSans-28" transform="translate(308.852708 0.004687)"/>
     <use xlink:href="#DejaVuSans-Oblique-3b3" transform="translate(347.86638 0.004687)"/>
     <use xlink:href="#DejaVuSans-29" transform="translate(407.046068 0.004687)"/>
    </g>
   </g>
   <g id="legend_1">
    <g id="patch_7">
     <path d="M 238.528521 81.045312 
L 297.528521 81.045312 
Q 299.528521 81.045312 299.528521 79.045312 
L 299.528521 35.95 
Q 299.528521 33.95 297.528521 33.95 
L 238.528521 33.95 
Q 236.528521 33.95 236.528521 35.95 
L 236.528521 79.045312 
Q 236.528521 81.045312 238.528521 81.045312 
z
" style="fill: #ffffff; opacity: 0.8; stroke: #cccccc; stroke-linejoin: miter"/>
    </g>
    <g id="line2d_14">
     <path d="M 240.528521 42.048438 
L 250.528521 42.048438 
L 260.528521 42.048438 
" style="fill: none; stroke: #440154; stroke-width: 1.5; stroke-linecap: square"/>
    </g>
    <g id="text_14">
     <!-- $p = 1$ -->
     <g transform="translate(268.528521 45.548438) scale(0.1 -0.1)">
      <defs>
       <path id="DejaVuSans-3d" d="M 678 2906 
L 4684 2906 
L 4684 2381 
L 678 2381 
L 678 2906 
z
M 678 1631 
L 4684 1631 
L 4684 1100 
L 678 1100 
L 678 1631 
z
" transform="scale(0.015625)"/>
      </defs>
      <use xlink:href="#DejaVuSans-Oblique-70" transform="translate(0 0.09375)"/>
      <use xlink:href="#DejaVuSans-3d" transform="translate(82.958984 0.09375)"/>
      <use xlink:href="#DejaVuSans-31" transform="translate(186.230469 0.09375)"/>
     </g>
    </g>
    <g id="line2d_15">
     <path d="M 240.528521 56.746875 
L 250.528521 56.746875 
L 260.528521 56.746875 
" style="fill: none; stroke: #21918c; stroke-width: 1.5; stroke-linecap: square"/>
    </g>
    <g id="text_15">
     <!-- $p = 2$ -->
     <g transform="translate(268.528521 60.246875) scale(0.1 -0.1)">
      <use xlink:href="#DejaVuSans-Oblique-70" transform="translate(0 0.78125)"/>
      <use xlink:href="#DejaVuSans-3d" transform="translate(82.958984 0.78125)"/>
      <use xlink:href="#DejaVuSans-32" transform="translate(186.230469 0.78125)"/>
     </g>
    </g>
    <g id="line2d_16">
     <path d="M 240.528521 71.445312 
L 250.528521 71.445312 
L 260.528521 71.445312 
" style="fill: none; stroke: #fde725; stroke-width: 1.5; stroke-linecap: square"/>
    </g>
    <g id="text_16">
     <!-- $p = \infty$ -->
     <g transform="translate(268.528521 74.945312) scale(0.1 -0.1)">
      <defs>
       <path id="DejaVuSans-221e" d="M 2916 1091 
Q 2819 1203 2666 1466 
Q 2456 1091 2272 925 
Q 2041 725 1681 725 
Q 1259 725 981 1041 
Q 688 1372 688 1919 
Q 688 2444 981 2800 
Q 1244 3116 1688 3116 
Q 1916 3116 2084 3022 
Q 2281 2919 2416 2741 
Q 2541 2581 2666 2366 
Q 2875 2741 3059 2906 
Q 3291 3106 3650 3106 
Q 4072 3106 4350 2791 
Q 4644 2459 4644 1913 
Q 4644 1388 4350 1031 
Q 4088 716 3644 716 
Q 3416 716 3247 809 
Q 3078 894 2916 1091 
z
M 1647 1134 
Q 2163 1134 2472 1884 
Q 2075 2703 1647 2703 
Q 1334 2703 1175 2478 
Q 1003 2238 1003 1919 
Q 1003 1569 1175 1353 
Q 1350 1134 1647 1134 
z
M 3684 2697 
Q 3219 2697 2859 1947 
Q 3253 1128 3684 1128 
Q 3997 1128 4156 1353 
Q 4328 1594 4328 1913 
Q 4328 2263 4156 2478 
Q 3981 2697 3684 2697 
z
" transform="scale(0.015625)"/>
      </defs>
      <use xlink:href="#DejaVuSans-Oblique-70"/>
      <use xlink:href="#DejaVuSans-3d" transform="translate(82.958984 0)"/>
      <use xlink:href="#DejaVuSans-221e" transform="translate(186.230469 0)"/>
     </g>
    </g>
   </g>
  </g>
  <g id="axes_2">
   <g id="patch_8">
    <path d="M 313.680521 191.399333 
L 522.684043 191.399333 
L 522.684043 28.95 
L 313.680521 28.95 
z
" style="fill: #ffffff"/>
   </g>
   <g id="matplotlib.axis_3">
    <g id="xtick_6">
     <g id="line2d_17">
      <g>
       <use xlink:href="#mf0fa30c0ac" x="318.60985" y="191.399333" style="stroke: #000000; stroke-width: 0.8"/>
      </g>
     </g>
     <g id="text_17">
      <!-- 0 -->
      <g transform="translate(315.4286 205.997771) scale(0.1 -0.1)">
       <use xlink:href="#DejaVuSans-30"/>
      </g>
     </g>
    </g>
    <g id="xtick_7">
     <g id="line2d_18">
      <g>
       <use xlink:href="#mf0fa30c0ac" x="367.903133" y="191.399333" style="stroke: #000000; stroke-width: 0.8"/>
      </g>
     </g>
     <g id="text_18">
      <!-- 1 -->
      <g transform="translate(364.721883 205.997771) scale(0.1 -0.1)">
       <use xlink:href="#DejaVuSans-31"/>
      </g>
     </g>
    </g>
    <g id="xtick_8">
     <g id="line2d_19">
      <g>
       <use xlink:href="#mf0fa30c0ac" x="417.196417" y="191.399333" style="stroke: #000000; stroke-width: 0.8"/>
      </g>
     </g>
     <g id="text_19">
      <!-- 2 -->
      <g transform="translate(414.015167 205.997771) scale(0.1 -0.1)">
       <use xlink:href="#DejaVuSans-32"/>
      </g>
     </g>
    </g>
    <g id="xtick_9">
     <g id="line2d_20">
      <g>
       <use xlink:href="#mf0fa30c0ac" x="466.4897" y="191.399333" style="stroke: #000000; stroke-width: 0.8"/>
      </g>
     </g>
     <g id="text_20">
      <!-- 3 -->
      <g transform="translate(463.30845 205.997771) scale(0.1 -0.1)">
       <use xlink:href="#DejaVuSans-33"/>
      </g>
     </g>
    </g>
    <g id="xtick_10">
     <g id="line2d_21">
      <g>
       <use xlink:href="#mf0fa30c0ac" x="515.782983" y="191.399333" style="stroke: #000000; stroke-width: 0.8"/>
      </g>
     </g>
     <g id="text_21">
      <!-- 4 -->
      <g transform="translate(512.601733 205.997771) scale(0.1 -0.1)">
       <use xlink:href="#DejaVuSans-34"/>
      </g>
     </g>
    </g>
    <g id="text_22">
     <!-- $\gamma$ -->
     <g transform="translate(413.682282 223.444646) scale(0.15 -0.15)">
      <use xlink:href="#DejaVuSans-Oblique-3b3" transform="translate(0 0.3125)"/>
     </g>
    </g>
   </g>
   <g id="matplotlib.axis_4">
    <g id="ytick_6">
     <g id="line2d_22">
      <g>
       <use xlink:href="#md23fae44db" x="313.680521" y="190.999212" style="stroke: #000000; stroke-width: 0.8"/>
      </g>
     </g>
    </g>
    <g id="ytick_7">
     <g id="line2d_23">
      <g>
       <use xlink:href="#md23fae44db" x="313.680521" y="150.987061" style="stroke: #000000; stroke-width: 0.8"/>
      </g>
     </g>
    </g>
    <g id="ytick_8">
     <g id="line2d_24">
      <g>
       <use xlink:href="#md23fae44db" x="313.680521" y="110.97491" style="stroke: #000000; stroke-width: 0.8"/>
      </g>
     </g>
    </g>
    <g id="ytick_9">
     <g id="line2d_25">
      <g>
       <use xlink:href="#md23fae44db" x="313.680521" y="70.962759" style="stroke: #000000; stroke-width: 0.8"/>
      </g>
     </g>
    </g>
    <g id="ytick_10">
     <g id="line2d_26">
      <g>
       <use xlink:href="#md23fae44db" x="313.680521" y="30.950608" style="stroke: #000000; stroke-width: 0.8"/>
      </g>
     </g>
    </g>
   </g>
   <g id="line2d_27">
    <path d="M 320.682258 -1 
L 320.745892 5.304712 
L 321.074514 29.274378 
L 322.306846 81.48012 
L 323.539178 107.723747 
L 324.77151 123.515202 
L 326.003842 134.061785 
L 327.236174 141.604397 
L 328.468506 147.266368 
L 335.040944 163.143321 
L 341.613382 169.958238 
L 348.18582 173.747034 
L 354.758258 176.159101 
L 361.330695 177.829461 
L 367.903133 179.054625 
L 417.196417 183.037838 
L 515.782983 185.030254 
L 712.956117 186.026663 
L 1107.302384 186.514491 
L 1185.350607 186.538414 
" clip-path="url(#pd136f24f5b)" style="fill: none; stroke: #440154; stroke-width: 1.5; stroke-linecap: square"/>
   </g>
   <g id="line2d_28">
    <path d="M 319.096499 -1 
L 319.102783 1.393261 
L 319.431405 66.631915 
L 319.760026 96.546555 
L 320.088648 114.186136 
L 320.41727 125.873714 
L 320.745892 134.174521 
L 321.074514 140.352041 
L 322.306846 154.053311 
L 323.539178 161.226302 
L 324.77151 165.68085 
L 326.003842 168.723099 
L 327.236174 170.935904 
L 328.468506 172.619708 
L 335.040944 177.463987 
L 341.613382 179.596875 
L 348.18582 180.778764 
L 354.758258 181.515706 
L 361.330695 182.008455 
L 367.903133 182.344007 
L 417.196417 182.878329 
L 515.782983 183.006925 
L 712.956117 183.067017 
L 1107.302384 183.097967 
L 1185.350607 183.099537 
" clip-path="url(#pd136f24f5b)" style="fill: none; stroke: #21918c; stroke-width: 1.5; stroke-linecap: square"/>
   </g>
   <g id="line2d_29">
    <path d="M 319.734197 -1 
L 319.760026 1.099578 
L 320.088648 19.018548 
L 320.41727 32.166919 
L 320.745892 42.378257 
L 321.074514 50.624994 
L 322.306846 71.684764 
L 323.539178 84.75411 
L 324.77151 93.931297 
L 326.003842 100.854305 
L 327.236174 106.327678 
L 328.468506 110.800327 
L 335.040944 125.765603 
L 341.613382 133.898493 
L 348.18582 139.14507 
L 354.758258 142.853789 
L 361.330695 145.631549 
L 367.903133 147.797677 
L 417.196417 155.809124 
L 515.782983 159.856368 
L 712.956117 162.098132 
L 1107.302384 163.301082 
L 1185.350607 163.362862 
" clip-path="url(#pd136f24f5b)" style="fill: none; stroke: #fde725; stroke-width: 1.5; stroke-linecap: square"/>
   </g>
   <g id="patch_9">
    <path d="M 313.680521 191.399333 
L 313.680521 28.95 
" style="fill: none; stroke: #000000; stroke-width: 0.8; stroke-linejoin: miter; stroke-linecap: square"/>
   </g>
   <g id="patch_10">
    <path d="M 522.684043 191.399333 
L 522.684043 28.95 
" style="fill: none; stroke: #000000; stroke-width: 0.8; stroke-linejoin: miter; stroke-linecap: square"/>
   </g>
   <g id="patch_11">
    <path d="M 313.680521 191.399333 
L 522.684043 191.399333 
" style="fill: none; stroke: #000000; stroke-width: 0.8; stroke-linejoin: miter; stroke-linecap: square"/>
   </g>
   <g id="patch_12">
    <path d="M 313.680521 28.95 
L 522.684043 28.95 
" style="fill: none; stroke: #000000; stroke-width: 0.8; stroke-linejoin: miter; stroke-linecap: square"/>
   </g>
   <g id="text_23">
    <!-- $R^{(1 \leftarrow 2)}_{\cdot | \cdot}(\gamma)$ -->
    <g transform="translate(313.680521 22.35) scale(0.15 -0.15)">
     <use xlink:href="#DejaVuSans-Oblique-52" transform="translate(0 0.004687)"/>
     <use xlink:href="#DejaVuSans-28" transform="translate(76.499193 47.8875) scale(0.7)"/>
     <use xlink:href="#DejaVuSans-31" transform="translate(103.808763 47.8875) scale(0.7)"/>
     <use xlink:href="#DejaVuSans-2190" transform="translate(161.982591 47.8875) scale(0.7)"/>
     <use xlink:href="#DejaVuSans-32" transform="translate(234.27263 47.8875) scale(0.7)"/>
     <use xlink:href="#DejaVuSans-29" transform="translate(278.808763 47.8875) scale(0.7)"/>
     <use xlink:href="#DejaVuSans-22c5" transform="translate(69.482422 -27.339063) scale(0.7)"/>
     <use xlink:href="#DejaVuSans-7c" transform="translate(91.733398 -27.339063) scale(0.7)"/>
     <use xlink:href="#DejaVuSans-22c5" transform="translate(128.955078 -27.339063) scale(0.7)"/>
     <use xlink:href="#DejaVuSans-28" transform="translate(308.852708 0.004687)"/>
     <use xlink:href="#DejaVuSans-Oblique-3b3" transform="translate(347.86638 0.004687)"/>
     <use xlink:href="#DejaVuSans-29" transform="translate(407.046068 0.004687)"/>
    </g>
   </g>
   <g id="legend_2">
    <g id="patch_13">
     <path d="M 456.684043 81.045312 
L 515.684043 81.045312 
Q 517.684043 81.045312 517.684043 79.045312 
L 517.684043 35.95 
Q 517.684043 33.95 515.684043 33.95 
L 456.684043 33.95 
Q 454.684043 33.95 454.684043 35.95 
L 454.684043 79.045312 
Q 454.684043 81.045312 456.684043 81.045312 
z
" style="fill: #ffffff; opacity: 0.8; stroke: #cccccc; stroke-linejoin: miter"/>
    </g>
    <g id="line2d_30">
     <path d="M 458.684043 42.048438 
L 468.684043 42.048438 
L 478.684043 42.048438 
" style="fill: none; stroke: #440154; stroke-width: 1.5; stroke-linecap: square"/>
    </g>
    <g id="text_24">
     <!-- $p = 1$ -->
     <g transform="translate(486.684043 45.548438) scale(0.1 -0.1)">
      <use xlink:href="#DejaVuSans-Oblique-70" transform="translate(0 0.09375)"/>
      <use xlink:href="#DejaVuSans-3d" transform="translate(82.958984 0.09375)"/>
      <use xlink:href="#DejaVuSans-31" transform="translate(186.230469 0.09375)"/>
     </g>
    </g>
    <g id="line2d_31">
     <path d="M 458.684043 56.746875 
L 468.684043 56.746875 
L 478.684043 56.746875 
" style="fill: none; stroke: #21918c; stroke-width: 1.5; stroke-linecap: square"/>
    </g>
    <g id="text_25">
     <!-- $p = 2$ -->
     <g transform="translate(486.684043 60.246875) scale(0.1 -0.1)">
      <use xlink:href="#DejaVuSans-Oblique-70" transform="translate(0 0.78125)"/>
      <use xlink:href="#DejaVuSans-3d" transform="translate(82.958984 0.78125)"/>
      <use xlink:href="#DejaVuSans-32" transform="translate(186.230469 0.78125)"/>
     </g>
    </g>
    <g id="line2d_32">
     <path d="M 458.684043 71.445312 
L 468.684043 71.445312 
L 478.684043 71.445312 
" style="fill: none; stroke: #fde725; stroke-width: 1.5; stroke-linecap: square"/>
    </g>
    <g id="text_26">
     <!-- $p = \infty$ -->
     <g transform="translate(486.684043 74.945312) scale(0.1 -0.1)">
      <use xlink:href="#DejaVuSans-Oblique-70"/>
      <use xlink:href="#DejaVuSans-3d" transform="translate(82.958984 0)"/>
      <use xlink:href="#DejaVuSans-221e" transform="translate(186.230469 0)"/>
     </g>
    </g>
   </g>
  </g>
  <g id="axes_3">
   <g id="patch_14">
    <path d="M 531.836043 191.399333 
L 740.839564 191.399333 
L 740.839564 28.95 
L 531.836043 28.95 
z
" style="fill: #ffffff"/>
   </g>
   <g id="matplotlib.axis_5">
    <g id="xtick_11">
     <g id="line2d_33">
      <g>
       <use xlink:href="#mf0fa30c0ac" x="536.765371" y="191.399333" style="stroke: #000000; stroke-width: 0.8"/>
      </g>
     </g>
     <g id="text_27">
      <!-- 0 -->
      <g transform="translate(533.584121 205.997771) scale(0.1 -0.1)">
       <use xlink:href="#DejaVuSans-30"/>
      </g>
     </g>
    </g>
    <g id="xtick_12">
     <g id="line2d_34">
      <g>
       <use xlink:href="#mf0fa30c0ac" x="586.058655" y="191.399333" style="stroke: #000000; stroke-width: 0.8"/>
      </g>
     </g>
     <g id="text_28">
      <!-- 1 -->
      <g transform="translate(582.877405 205.997771) scale(0.1 -0.1)">
       <use xlink:href="#DejaVuSans-31"/>
      </g>
     </g>
    </g>
    <g id="xtick_13">
     <g id="line2d_35">
      <g>
       <use xlink:href="#mf0fa30c0ac" x="635.351938" y="191.399333" style="stroke: #000000; stroke-width: 0.8"/>
      </g>
     </g>
     <g id="text_29">
      <!-- 2 -->
      <g transform="translate(632.170688 205.997771) scale(0.1 -0.1)">
       <use xlink:href="#DejaVuSans-32"/>
      </g>
     </g>
    </g>
    <g id="xtick_14">
     <g id="line2d_36">
      <g>
       <use xlink:href="#mf0fa30c0ac" x="684.645221" y="191.399333" style="stroke: #000000; stroke-width: 0.8"/>
      </g>
     </g>
     <g id="text_30">
      <!-- 3 -->
      <g transform="translate(681.463971 205.997771) scale(0.1 -0.1)">
       <use xlink:href="#DejaVuSans-33"/>
      </g>
     </g>
    </g>
    <g id="xtick_15">
     <g id="line2d_37">
      <g>
       <use xlink:href="#mf0fa30c0ac" x="733.938505" y="191.399333" style="stroke: #000000; stroke-width: 0.8"/>
      </g>
     </g>
     <g id="text_31">
      <!-- 4 -->
      <g transform="translate(730.757255 205.997771) scale(0.1 -0.1)">
       <use xlink:href="#DejaVuSans-34"/>
      </g>
     </g>
    </g>
    <g id="text_32">
     <!-- $\gamma$ -->
     <g transform="translate(631.837804 223.444646) scale(0.15 -0.15)">
      <use xlink:href="#DejaVuSans-Oblique-3b3" transform="translate(0 0.3125)"/>
     </g>
    </g>
   </g>
   <g id="matplotlib.axis_6">
    <g id="ytick_11">
     <g id="line2d_38">
      <g>
       <use xlink:href="#md23fae44db" x="531.836043" y="190.999212" style="stroke: #000000; stroke-width: 0.8"/>
      </g>
     </g>
    </g>
    <g id="ytick_12">
     <g id="line2d_39">
      <g>
       <use xlink:href="#md23fae44db" x="531.836043" y="150.987061" style="stroke: #000000; stroke-width: 0.8"/>
      </g>
     </g>
    </g>
    <g id="ytick_13">
     <g id="line2d_40">
      <g>
       <use xlink:href="#md23fae44db" x="531.836043" y="110.97491" style="stroke: #000000; stroke-width: 0.8"/>
      </g>
     </g>
    </g>
    <g id="ytick_14">
     <g id="line2d_41">
      <g>
       <use xlink:href="#md23fae44db" x="531.836043" y="70.962759" style="stroke: #000000; stroke-width: 0.8"/>
      </g>
     </g>
    </g>
    <g id="ytick_15">
     <g id="line2d_42">
      <g>
       <use xlink:href="#md23fae44db" x="531.836043" y="30.950608" style="stroke: #000000; stroke-width: 0.8"/>
      </g>
     </g>
    </g>
   </g>
   <g id="line2d_43">
    <path d="M 538.675987 -1 
L 538.901414 18.161903 
L 539.230035 39.1525 
L 540.462367 86.167839 
L 541.6947 110.500591 
L 542.927032 125.375401 
L 544.159364 135.409443 
L 545.391696 142.63493 
L 546.624028 148.086319 
L 553.196466 163.499289 
L 559.768903 170.172958 
L 566.341341 173.88027 
L 572.913779 176.248353 
L 579.486217 177.892182 
L 586.058655 179.099948 
L 635.351938 183.038631 
L 733.938505 185.015719 
L 931.111638 186.006207 
L 1185.350607 186.325811 
" clip-path="url(#pef7a842a5b)" style="fill: none; stroke: #440154; stroke-width: 1.5; stroke-linecap: square"/>
   </g>
   <g id="line2d_44">
    <path d="M 537.205059 -1 
L 537.258304 12.532294 
L 537.586926 64.829625 
L 537.915548 92.66657 
L 538.24417 109.956328 
L 538.572792 121.745186 
L 538.901414 130.304026 
L 539.230035 136.804359 
L 540.462367 151.611491 
L 541.6947 159.437715 
L 542.927032 164.293441 
L 544.159364 167.609466 
L 545.391696 170.025225 
L 546.624028 171.86936 
L 553.196466 177.260701 
L 559.768903 179.73856 
L 566.341341 181.176067 
L 572.913779 182.108184 
L 579.486217 182.748365 
L 586.058655 183.094379 
L 635.351938 183.605255 
L 733.938505 183.816846 
L 931.111638 183.917389 
L 1185.350607 183.949354 
" clip-path="url(#pef7a842a5b)" style="fill: none; stroke: #21918c; stroke-width: 1.5; stroke-linecap: square"/>
   </g>
   <g id="line2d_45">
    <path d="M 539.227886 -1 
L 539.230035 -0.922964 
L 540.462367 29.616493 
L 541.6947 48.911018 
L 542.927032 62.599333 
L 544.159364 72.982613 
L 545.391696 81.21156 
L 546.624028 87.938831 
L 553.196466 110.324879 
L 559.768903 122.280475 
L 566.341341 129.853194 
L 572.913779 135.120018 
L 579.486217 138.888828 
L 586.058655 141.725539 
L 635.351938 151.978382 
L 733.938505 157.843093 
L 931.111638 161.008563 
L 1185.350607 162.071923 
" clip-path="url(#pef7a842a5b)" style="fill: none; stroke: #fde725; stroke-width: 1.5; stroke-linecap: square"/>
   </g>
   <g id="patch_15">
    <path d="M 531.836043 191.399333 
L 531.836043 28.95 
" style="fill: none; stroke: #000000; stroke-width: 0.8; stroke-linejoin: miter; stroke-linecap: square"/>
   </g>
   <g id="patch_16">
    <path d="M 740.839564 191.399333 
L 740.839564 28.95 
" style="fill: none; stroke: #000000; stroke-width: 0.8; stroke-linejoin: miter; stroke-linecap: square"/>
   </g>
   <g id="patch_17">
    <path d="M 531.836043 191.399333 
L 740.839564 191.399333 
" style="fill: none; stroke: #000000; stroke-width: 0.8; stroke-linejoin: miter; stroke-linecap: square"/>
   </g>
   <g id="patch_18">
    <path d="M 531.836043 28.95 
L 740.839564 28.95 
" style="fill: none; stroke: #000000; stroke-width: 0.8; stroke-linejoin: miter; stroke-linecap: square"/>
   </g>
   <g id="text_33">
    <!-- $R^{(2 \leftarrow 3)}_{\cdot | \cdot}(\gamma)$ -->
    <g transform="translate(531.836043 22.35) scale(0.15 -0.15)">
     <use xlink:href="#DejaVuSans-Oblique-52" transform="translate(0 0.004687)"/>
     <use xlink:href="#DejaVuSans-28" transform="translate(76.499193 47.8875) scale(0.7)"/>
     <use xlink:href="#DejaVuSans-32" transform="translate(103.808763 47.8875) scale(0.7)"/>
     <use xlink:href="#DejaVuSans-2190" transform="translate(161.982591 47.8875) scale(0.7)"/>
     <use xlink:href="#DejaVuSans-33" transform="translate(234.27263 47.8875) scale(0.7)"/>
     <use xlink:href="#DejaVuSans-29" transform="translate(278.808763 47.8875) scale(0.7)"/>
     <use xlink:href="#DejaVuSans-22c5" transform="translate(69.482422 -27.339063) scale(0.7)"/>
     <use xlink:href="#DejaVuSans-7c" transform="translate(91.733398 -27.339063) scale(0.7)"/>
     <use xlink:href="#DejaVuSans-22c5" transform="translate(128.955078 -27.339063) scale(0.7)"/>
     <use xlink:href="#DejaVuSans-28" transform="translate(308.852708 0.004687)"/>
     <use xlink:href="#DejaVuSans-Oblique-3b3" transform="translate(347.86638 0.004687)"/>
     <use xlink:href="#DejaVuSans-29" transform="translate(407.046068 0.004687)"/>
    </g>
   </g>
   <g id="legend_3">
    <g id="patch_19">
     <path d="M 674.839564 81.045312 
L 733.839564 81.045312 
Q 735.839564 81.045312 735.839564 79.045312 
L 735.839564 35.95 
Q 735.839564 33.95 733.839564 33.95 
L 674.839564 33.95 
Q 672.839564 33.95 672.839564 35.95 
L 672.839564 79.045312 
Q 672.839564 81.045312 674.839564 81.045312 
z
" style="fill: #ffffff; opacity: 0.8; stroke: #cccccc; stroke-linejoin: miter"/>
    </g>
    <g id="line2d_46">
     <path d="M 676.839564 42.048438 
L 686.839564 42.048438 
L 696.839564 42.048438 
" style="fill: none; stroke: #440154; stroke-width: 1.5; stroke-linecap: square"/>
    </g>
    <g id="text_34">
     <!-- $p = 1$ -->
     <g transform="translate(704.839564 45.548438) scale(0.1 -0.1)">
      <use xlink:href="#DejaVuSans-Oblique-70" transform="translate(0 0.09375)"/>
      <use xlink:href="#DejaVuSans-3d" transform="translate(82.958984 0.09375)"/>
      <use xlink:href="#DejaVuSans-31" transform="translate(186.230469 0.09375)"/>
     </g>
    </g>
    <g id="line2d_47">
     <path d="M 676.839564 56.746875 
L 686.839564 56.746875 
L 696.839564 56.746875 
" style="fill: none; stroke: #21918c; stroke-width: 1.5; stroke-linecap: square"/>
    </g>
    <g id="text_35">
     <!-- $p = 2$ -->
     <g transform="translate(704.839564 60.246875) scale(0.1 -0.1)">
      <use xlink:href="#DejaVuSans-Oblique-70" transform="translate(0 0.78125)"/>
      <use xlink:href="#DejaVuSans-3d" transform="translate(82.958984 0.78125)"/>
      <use xlink:href="#DejaVuSans-32" transform="translate(186.230469 0.78125)"/>
     </g>
    </g>
    <g id="line2d_48">
     <path d="M 676.839564 71.445312 
L 686.839564 71.445312 
L 696.839564 71.445312 
" style="fill: none; stroke: #fde725; stroke-width: 1.5; stroke-linecap: square"/>
    </g>
    <g id="text_36">
     <!-- $p = \infty$ -->
     <g transform="translate(704.839564 74.945312) scale(0.1 -0.1)">
      <use xlink:href="#DejaVuSans-Oblique-70"/>
      <use xlink:href="#DejaVuSans-3d" transform="translate(82.958984 0)"/>
      <use xlink:href="#DejaVuSans-221e" transform="translate(186.230469 0)"/>
     </g>
    </g>
   </g>
  </g>
  <g id="axes_4">
   <g id="patch_20">
    <path d="M 749.991564 191.399333 
L 958.995086 191.399333 
L 958.995086 28.95 
L 749.991564 28.95 
z
" style="fill: #ffffff"/>
   </g>
   <g id="matplotlib.axis_7">
    <g id="xtick_16">
     <g id="line2d_49">
      <g>
       <use xlink:href="#mf0fa30c0ac" x="754.920893" y="191.399333" style="stroke: #000000; stroke-width: 0.8"/>
      </g>
     </g>
     <g id="text_37">
      <!-- 0 -->
      <g transform="translate(751.739643 205.997771) scale(0.1 -0.1)">
       <use xlink:href="#DejaVuSans-30"/>
      </g>
     </g>
    </g>
    <g id="xtick_17">
     <g id="line2d_50">
      <g>
       <use xlink:href="#mf0fa30c0ac" x="804.214176" y="191.399333" style="stroke: #000000; stroke-width: 0.8"/>
      </g>
     </g>
     <g id="text_38">
      <!-- 1 -->
      <g transform="translate(801.032926 205.997771) scale(0.1 -0.1)">
       <use xlink:href="#DejaVuSans-31"/>
      </g>
     </g>
    </g>
    <g id="xtick_18">
     <g id="line2d_51">
      <g>
       <use xlink:href="#mf0fa30c0ac" x="853.507459" y="191.399333" style="stroke: #000000; stroke-width: 0.8"/>
      </g>
     </g>
     <g id="text_39">
      <!-- 2 -->
      <g transform="translate(850.326209 205.997771) scale(0.1 -0.1)">
       <use xlink:href="#DejaVuSans-32"/>
      </g>
     </g>
    </g>
    <g id="xtick_19">
     <g id="line2d_52">
      <g>
       <use xlink:href="#mf0fa30c0ac" x="902.800743" y="191.399333" style="stroke: #000000; stroke-width: 0.8"/>
      </g>
     </g>
     <g id="text_40">
      <!-- 3 -->
      <g transform="translate(899.619493 205.997771) scale(0.1 -0.1)">
       <use xlink:href="#DejaVuSans-33"/>
      </g>
     </g>
    </g>
    <g id="xtick_20">
     <g id="line2d_53">
      <g>
       <use xlink:href="#mf0fa30c0ac" x="952.094026" y="191.399333" style="stroke: #000000; stroke-width: 0.8"/>
      </g>
     </g>
     <g id="text_41">
      <!-- 4 -->
      <g transform="translate(948.912776 205.997771) scale(0.1 -0.1)">
       <use xlink:href="#DejaVuSans-34"/>
      </g>
     </g>
    </g>
    <g id="text_42">
     <!-- $\gamma$ -->
     <g transform="translate(849.993325 223.444646) scale(0.15 -0.15)">
      <use xlink:href="#DejaVuSans-Oblique-3b3" transform="translate(0 0.3125)"/>
     </g>
    </g>
   </g>
   <g id="matplotlib.axis_8">
    <g id="ytick_16">
     <g id="line2d_54">
      <g>
       <use xlink:href="#md23fae44db" x="749.991564" y="190.999212" style="stroke: #000000; stroke-width: 0.8"/>
      </g>
     </g>
    </g>
    <g id="ytick_17">
     <g id="line2d_55">
      <g>
       <use xlink:href="#md23fae44db" x="749.991564" y="150.987061" style="stroke: #000000; stroke-width: 0.8"/>
      </g>
     </g>
    </g>
    <g id="ytick_18">
     <g id="line2d_56">
      <g>
       <use xlink:href="#md23fae44db" x="749.991564" y="110.97491" style="stroke: #000000; stroke-width: 0.8"/>
      </g>
     </g>
    </g>
    <g id="ytick_19">
     <g id="line2d_57">
      <g>
       <use xlink:href="#md23fae44db" x="749.991564" y="70.962759" style="stroke: #000000; stroke-width: 0.8"/>
      </g>
     </g>
    </g>
    <g id="ytick_20">
     <g id="line2d_58">
      <g>
       <use xlink:href="#md23fae44db" x="749.991564" y="30.950608" style="stroke: #000000; stroke-width: 0.8"/>
      </g>
     </g>
    </g>
   </g>
   <g id="line2d_59">
    <path d="M 756.964273 -1 
L 757.056935 7.877347 
L 757.385557 31.171652 
L 758.617889 82.253587 
L 759.850221 108.113071 
L 761.082553 123.732255 
L 762.314885 134.188533 
L 763.547217 141.6787 
L 764.779549 147.308041 
L 771.351987 163.124093 
L 777.924425 169.926795 
L 784.496863 173.712428 
L 791.0693 176.123835 
L 797.641738 177.794347 
L 804.214176 179.01995 
L 853.507459 183.006457 
L 952.094026 185.001598 
L 1149.26716 185.999639 
L 1185.350607 186.045311 
" clip-path="url(#pcbeec2ad1c)" style="fill: none; stroke: #440154; stroke-width: 1.5; stroke-linecap: square"/>
   </g>
   <g id="line2d_60">
    <path d="M 755.291223 -1 
L 755.339886 12.111482 
L 755.413826 28.144824 
L 755.742447 73.168407 
L 756.071069 97.598434 
L 756.399691 113.0687 
L 756.728313 123.805321 
L 757.056935 131.721902 
L 757.385557 137.815618 
L 758.617889 152.009905 
L 759.850221 159.718739 
L 761.082553 164.580842 
L 762.314885 167.932667 
L 763.547217 170.383196 
L 764.779549 172.249681 
L 771.351987 177.025476 
L 777.924425 179.012022 
L 784.496863 180.230332 
L 791.0693 181.050515 
L 797.641738 181.584164 
L 804.214176 181.972094 
L 853.507459 183.305714 
L 952.094026 183.952209 
L 1149.26716 184.08266 
L 1185.350607 184.086882 
" clip-path="url(#pcbeec2ad1c)" style="fill: none; stroke: #21918c; stroke-width: 1.5; stroke-linecap: square"/>
   </g>
   <g id="line2d_61">
    <path d="M 755.86593 -1 
L 756.071069 13.854199 
L 756.399691 30.670341 
L 756.728313 43.405562 
L 757.056935 53.501569 
L 757.385557 60.6688 
L 758.617889 74.036812 
L 759.850221 83.766536 
L 761.082553 91.307591 
L 762.314885 97.376603 
L 763.547217 102.396003 
L 764.779549 106.634587 
L 771.351987 121.592041 
L 777.924425 130.108272 
L 784.496863 135.693644 
L 791.0693 139.66753 
L 797.641738 142.650881 
L 804.214176 144.978232 
L 853.507459 153.554571 
L 952.094026 158.59078 
L 1149.26716 161.353402 
L 1185.350607 161.486313 
" clip-path="url(#pcbeec2ad1c)" style="fill: none; stroke: #fde725; stroke-width: 1.5; stroke-linecap: square"/>
   </g>
   <g id="patch_21">
    <path d="M 749.991564 191.399333 
L 749.991564 28.95 
" style="fill: none; stroke: #000000; stroke-width: 0.8; stroke-linejoin: miter; stroke-linecap: square"/>
   </g>
   <g id="patch_22">
    <path d="M 958.995086 191.399333 
L 958.995086 28.95 
" style="fill: none; stroke: #000000; stroke-width: 0.8; stroke-linejoin: miter; stroke-linecap: square"/>
   </g>
   <g id="patch_23">
    <path d="M 749.991564 191.399333 
L 958.995086 191.399333 
" style="fill: none; stroke: #000000; stroke-width: 0.8; stroke-linejoin: miter; stroke-linecap: square"/>
   </g>
   <g id="patch_24">
    <path d="M 749.991564 28.95 
L 958.995086 28.95 
" style="fill: none; stroke: #000000; stroke-width: 0.8; stroke-linejoin: miter; stroke-linecap: square"/>
   </g>
   <g id="text_43">
    <!-- $R^{(3 \leftarrow 4)}_{\cdot | \cdot}(\gamma)$ -->
    <g transform="translate(749.991564 22.35) scale(0.15 -0.15)">
     <use xlink:href="#DejaVuSans-Oblique-52" transform="translate(0 0.004687)"/>
     <use xlink:href="#DejaVuSans-28" transform="translate(76.499193 47.8875) scale(0.7)"/>
     <use xlink:href="#DejaVuSans-33" transform="translate(103.808763 47.8875) scale(0.7)"/>
     <use xlink:href="#DejaVuSans-2190" transform="translate(161.982591 47.8875) scale(0.7)"/>
     <use xlink:href="#DejaVuSans-34" transform="translate(234.27263 47.8875) scale(0.7)"/>
     <use xlink:href="#DejaVuSans-29" transform="translate(278.808763 47.8875) scale(0.7)"/>
     <use xlink:href="#DejaVuSans-22c5" transform="translate(69.482422 -27.339063) scale(0.7)"/>
     <use xlink:href="#DejaVuSans-7c" transform="translate(91.733398 -27.339063) scale(0.7)"/>
     <use xlink:href="#DejaVuSans-22c5" transform="translate(128.955078 -27.339063) scale(0.7)"/>
     <use xlink:href="#DejaVuSans-28" transform="translate(308.852708 0.004687)"/>
     <use xlink:href="#DejaVuSans-Oblique-3b3" transform="translate(347.86638 0.004687)"/>
     <use xlink:href="#DejaVuSans-29" transform="translate(407.046068 0.004687)"/>
    </g>
   </g>
   <g id="legend_4">
    <g id="patch_25">
     <path d="M 892.995086 81.045312 
L 951.995086 81.045312 
Q 953.995086 81.045312 953.995086 79.045312 
L 953.995086 35.95 
Q 953.995086 33.95 951.995086 33.95 
L 892.995086 33.95 
Q 890.995086 33.95 890.995086 35.95 
L 890.995086 79.045312 
Q 890.995086 81.045312 892.995086 81.045312 
z
" style="fill: #ffffff; opacity: 0.8; stroke: #cccccc; stroke-linejoin: miter"/>
    </g>
    <g id="line2d_62">
     <path d="M 894.995086 42.048438 
L 904.995086 42.048438 
L 914.995086 42.048438 
" style="fill: none; stroke: #440154; stroke-width: 1.5; stroke-linecap: square"/>
    </g>
    <g id="text_44">
     <!-- $p = 1$ -->
     <g transform="translate(922.995086 45.548438) scale(0.1 -0.1)">
      <use xlink:href="#DejaVuSans-Oblique-70" transform="translate(0 0.09375)"/>
      <use xlink:href="#DejaVuSans-3d" transform="translate(82.958984 0.09375)"/>
      <use xlink:href="#DejaVuSans-31" transform="translate(186.230469 0.09375)"/>
     </g>
    </g>
    <g id="line2d_63">
     <path d="M 894.995086 56.746875 
L 904.995086 56.746875 
L 914.995086 56.746875 
" style="fill: none; stroke: #21918c; stroke-width: 1.5; stroke-linecap: square"/>
    </g>
    <g id="text_45">
     <!-- $p = 2$ -->
     <g transform="translate(922.995086 60.246875) scale(0.1 -0.1)">
      <use xlink:href="#DejaVuSans-Oblique-70" transform="translate(0 0.78125)"/>
      <use xlink:href="#DejaVuSans-3d" transform="translate(82.958984 0.78125)"/>
      <use xlink:href="#DejaVuSans-32" transform="translate(186.230469 0.78125)"/>
     </g>
    </g>
    <g id="line2d_64">
     <path d="M 894.995086 71.445312 
L 904.995086 71.445312 
L 914.995086 71.445312 
" style="fill: none; stroke: #fde725; stroke-width: 1.5; stroke-linecap: square"/>
    </g>
    <g id="text_46">
     <!-- $p = \infty$ -->
     <g transform="translate(922.995086 74.945312) scale(0.1 -0.1)">
      <use xlink:href="#DejaVuSans-Oblique-70"/>
      <use xlink:href="#DejaVuSans-3d" transform="translate(82.958984 0)"/>
      <use xlink:href="#DejaVuSans-221e" transform="translate(186.230469 0)"/>
     </g>
    </g>
   </g>
  </g>
  <g id="axes_5">
   <g id="patch_26">
    <path d="M 968.147086 191.399333 
L 1177.150607 191.399333 
L 1177.150607 28.95 
L 968.147086 28.95 
z
" style="fill: #ffffff"/>
   </g>
   <g id="matplotlib.axis_9">
    <g id="xtick_21">
     <g id="line2d_65">
      <g>
       <use xlink:href="#mf0fa30c0ac" x="973.076414" y="191.399333" style="stroke: #000000; stroke-width: 0.8"/>
      </g>
     </g>
     <g id="text_47">
      <!-- 0 -->
      <g transform="translate(969.895164 205.997771) scale(0.1 -0.1)">
       <use xlink:href="#DejaVuSans-30"/>
      </g>
     </g>
    </g>
    <g id="xtick_22">
     <g id="line2d_66">
      <g>
       <use xlink:href="#mf0fa30c0ac" x="1022.369697" y="191.399333" style="stroke: #000000; stroke-width: 0.8"/>
      </g>
     </g>
     <g id="text_48">
      <!-- 1 -->
      <g transform="translate(1019.188447 205.997771) scale(0.1 -0.1)">
       <use xlink:href="#DejaVuSans-31"/>
      </g>
     </g>
    </g>
    <g id="xtick_23">
     <g id="line2d_67">
      <g>
       <use xlink:href="#mf0fa30c0ac" x="1071.662981" y="191.399333" style="stroke: #000000; stroke-width: 0.8"/>
      </g>
     </g>
     <g id="text_49">
      <!-- 2 -->
      <g transform="translate(1068.481731 205.997771) scale(0.1 -0.1)">
       <use xlink:href="#DejaVuSans-32"/>
      </g>
     </g>
    </g>
    <g id="xtick_24">
     <g id="line2d_68">
      <g>
       <use xlink:href="#mf0fa30c0ac" x="1120.956264" y="191.399333" style="stroke: #000000; stroke-width: 0.8"/>
      </g>
     </g>
     <g id="text_50">
      <!-- 3 -->
      <g transform="translate(1117.775014 205.997771) scale(0.1 -0.1)">
       <use xlink:href="#DejaVuSans-33"/>
      </g>
     </g>
    </g>
    <g id="xtick_25">
     <g id="line2d_69">
      <g>
       <use xlink:href="#mf0fa30c0ac" x="1170.249548" y="191.399333" style="stroke: #000000; stroke-width: 0.8"/>
      </g>
     </g>
     <g id="text_51">
      <!-- 4 -->
      <g transform="translate(1167.068298 205.997771) scale(0.1 -0.1)">
       <use xlink:href="#DejaVuSans-34"/>
      </g>
     </g>
    </g>
    <g id="text_52">
     <!-- $\gamma$ -->
     <g transform="translate(1068.148847 223.444646) scale(0.15 -0.15)">
      <use xlink:href="#DejaVuSans-Oblique-3b3" transform="translate(0 0.3125)"/>
     </g>
    </g>
   </g>
   <g id="matplotlib.axis_10">
    <g id="ytick_21">
     <g id="line2d_70">
      <g>
       <use xlink:href="#md23fae44db" x="968.147086" y="190.999212" style="stroke: #000000; stroke-width: 0.8"/>
      </g>
     </g>
    </g>
    <g id="ytick_22">
     <g id="line2d_71">
      <g>
       <use xlink:href="#md23fae44db" x="968.147086" y="150.987061" style="stroke: #000000; stroke-width: 0.8"/>
      </g>
     </g>
    </g>
    <g id="ytick_23">
     <g id="line2d_72">
      <g>
       <use xlink:href="#md23fae44db" x="968.147086" y="110.97491" style="stroke: #000000; stroke-width: 0.8"/>
      </g>
     </g>
    </g>
    <g id="ytick_24">
     <g id="line2d_73">
      <g>
       <use xlink:href="#md23fae44db" x="968.147086" y="70.962759" style="stroke: #000000; stroke-width: 0.8"/>
      </g>
     </g>
    </g>
    <g id="ytick_25">
     <g id="line2d_74">
      <g>
       <use xlink:href="#md23fae44db" x="968.147086" y="30.950608" style="stroke: #000000; stroke-width: 0.8"/>
      </g>
     </g>
    </g>
   </g>
   <g id="line2d_75">
    <path d="M 974.829178 -1 
L 974.883835 4.500513 
L 975.212456 28.775203 
L 975.541078 47.350775 
L 976.77341 90.039795 
L 978.005742 112.741727 
L 979.238075 126.830822 
L 980.470407 136.426975 
L 981.702739 143.383761 
L 982.935071 148.658515 
L 989.507509 163.694583 
L 996.079946 170.261847 
L 1002.652384 173.942991 
L 1009.224822 176.297827 
L 1015.79726 177.933724 
L 1022.369697 179.136329 
L 1071.662981 183.062089 
L 1170.249548 185.03495 
L 1185.350607 185.110433 
" clip-path="url(#p2425137394)" style="fill: none; stroke: #440154; stroke-width: 1.5; stroke-linecap: square"/>
   </g>
   <g id="line2d_76">
    <path d="M 973.192784 -1 
L 973.199647 2.304121 
L 973.273587 27.968714 
L 973.347527 47.338641 
L 973.421467 62.469686 
L 973.495407 74.609351 
L 973.569347 84.560753 
L 973.897969 113.228997 
L 974.226591 129.009882 
L 974.555213 136.940761 
L 974.883835 142.693214 
L 975.212456 147.176127 
L 975.541078 150.775178 
L 976.77341 159.702505 
L 978.005742 164.906686 
L 979.238075 168.338504 
L 980.470407 170.782253 
L 981.702739 172.616548 
L 982.935071 174.047372 
L 989.507509 178.360246 
L 996.079946 180.382618 
L 1002.652384 181.561141 
L 1009.224822 182.331713 
L 1015.79726 182.873409 
L 1022.369697 183.273921 
L 1071.662981 184.577414 
L 1170.249548 185.210289 
L 1185.350607 185.233556 
" clip-path="url(#p2425137394)" style="fill: none; stroke: #21918c; stroke-width: 1.5; stroke-linecap: square"/>
   </g>
   <g id="line2d_77">
    <path d="M 973.539927 -1 
L 973.569347 1.216602 
L 973.897969 20.947951 
L 974.226591 35.323289 
L 974.555213 46.457224 
L 974.883835 55.443977 
L 975.212456 62.915988 
L 975.541078 69.268671 
L 976.77341 86.771347 
L 978.005742 98.513675 
L 979.238075 107.114622 
L 980.470407 113.765079 
L 981.702739 119.100768 
L 982.935071 123.498473 
L 989.507509 138.287377 
L 996.079946 146.222033 
L 1002.652384 151.235286 
L 1009.224822 154.70831 
L 1015.79726 157.183076 
L 1022.369697 158.973304 
L 1071.662981 165.371823 
L 1170.249548 168.980959 
L 1185.350607 169.128938 
" clip-path="url(#p2425137394)" style="fill: none; stroke: #fde725; stroke-width: 1.5; stroke-linecap: square"/>
   </g>
   <g id="patch_27">
    <path d="M 968.147086 191.399333 
L 968.147086 28.95 
" style="fill: none; stroke: #000000; stroke-width: 0.8; stroke-linejoin: miter; stroke-linecap: square"/>
   </g>
   <g id="patch_28">
    <path d="M 1177.150607 191.399333 
L 1177.150607 28.95 
" style="fill: none; stroke: #000000; stroke-width: 0.8; stroke-linejoin: miter; stroke-linecap: square"/>
   </g>
   <g id="patch_29">
    <path d="M 968.147086 191.399333 
L 1177.150607 191.399333 
" style="fill: none; stroke: #000000; stroke-width: 0.8; stroke-linejoin: miter; stroke-linecap: square"/>
   </g>
   <g id="patch_30">
    <path d="M 968.147086 28.95 
L 1177.150607 28.95 
" style="fill: none; stroke: #000000; stroke-width: 0.8; stroke-linejoin: miter; stroke-linecap: square"/>
   </g>
   <g id="text_53">
    <!-- $R^{(4 \leftarrow 5)}_{\cdot | \cdot}(\gamma)$ -->
    <g transform="translate(968.147086 22.35) scale(0.15 -0.15)">
     <defs>
      <path id="DejaVuSans-35" d="M 691 4666 
L 3169 4666 
L 3169 4134 
L 1269 4134 
L 1269 2991 
Q 1406 3038 1543 3061 
Q 1681 3084 1819 3084 
Q 2600 3084 3056 2656 
Q 3513 2228 3513 1497 
Q 3513 744 3044 326 
Q 2575 -91 1722 -91 
Q 1428 -91 1123 -41 
Q 819 9 494 109 
L 494 744 
Q 775 591 1075 516 
Q 1375 441 1709 441 
Q 2250 441 2565 725 
Q 2881 1009 2881 1497 
Q 2881 1984 2565 2268 
Q 2250 2553 1709 2553 
Q 1456 2553 1204 2497 
Q 953 2441 691 2322 
L 691 4666 
z
" transform="scale(0.015625)"/>
     </defs>
     <use xlink:href="#DejaVuSans-Oblique-52" transform="translate(0 0.004687)"/>
     <use xlink:href="#DejaVuSans-28" transform="translate(76.499193 47.8875) scale(0.7)"/>
     <use xlink:href="#DejaVuSans-34" transform="translate(103.808763 47.8875) scale(0.7)"/>
     <use xlink:href="#DejaVuSans-2190" transform="translate(161.982591 47.8875) scale(0.7)"/>
     <use xlink:href="#DejaVuSans-35" transform="translate(234.27263 47.8875) scale(0.7)"/>
     <use xlink:href="#DejaVuSans-29" transform="translate(278.808763 47.8875) scale(0.7)"/>
     <use xlink:href="#DejaVuSans-22c5" transform="translate(69.482422 -27.339063) scale(0.7)"/>
     <use xlink:href="#DejaVuSans-7c" transform="translate(91.733398 -27.339063) scale(0.7)"/>
     <use xlink:href="#DejaVuSans-22c5" transform="translate(128.955078 -27.339063) scale(0.7)"/>
     <use xlink:href="#DejaVuSans-28" transform="translate(308.852708 0.004687)"/>
     <use xlink:href="#DejaVuSans-Oblique-3b3" transform="translate(347.86638 0.004687)"/>
     <use xlink:href="#DejaVuSans-29" transform="translate(407.046068 0.004687)"/>
    </g>
   </g>
   <g id="legend_5">
    <g id="patch_31">
     <path d="M 1111.150607 81.045312 
L 1170.150607 81.045312 
Q 1172.150607 81.045312 1172.150607 79.045312 
L 1172.150607 35.95 
Q 1172.150607 33.95 1170.150607 33.95 
L 1111.150607 33.95 
Q 1109.150607 33.95 1109.150607 35.95 
L 1109.150607 79.045312 
Q 1109.150607 81.045312 1111.150607 81.045312 
z
" style="fill: #ffffff; opacity: 0.8; stroke: #cccccc; stroke-linejoin: miter"/>
    </g>
    <g id="line2d_78">
     <path d="M 1113.150607 42.048438 
L 1123.150607 42.048438 
L 1133.150607 42.048438 
" style="fill: none; stroke: #440154; stroke-width: 1.5; stroke-linecap: square"/>
    </g>
    <g id="text_54">
     <!-- $p = 1$ -->
     <g transform="translate(1141.150607 45.548438) scale(0.1 -0.1)">
      <use xlink:href="#DejaVuSans-Oblique-70" transform="translate(0 0.09375)"/>
      <use xlink:href="#DejaVuSans-3d" transform="translate(82.958984 0.09375)"/>
      <use xlink:href="#DejaVuSans-31" transform="translate(186.230469 0.09375)"/>
     </g>
    </g>
    <g id="line2d_79">
     <path d="M 1113.150607 56.746875 
L 1123.150607 56.746875 
L 1133.150607 56.746875 
" style="fill: none; stroke: #21918c; stroke-width: 1.5; stroke-linecap: square"/>
    </g>
    <g id="text_55">
     <!-- $p = 2$ -->
     <g transform="translate(1141.150607 60.246875) scale(0.1 -0.1)">
      <use xlink:href="#DejaVuSans-Oblique-70" transform="translate(0 0.78125)"/>
      <use xlink:href="#DejaVuSans-3d" transform="translate(82.958984 0.78125)"/>
      <use xlink:href="#DejaVuSans-32" transform="translate(186.230469 0.78125)"/>
     </g>
    </g>
    <g id="line2d_80">
     <path d="M 1113.150607 71.445312 
L 1123.150607 71.445312 
L 1133.150607 71.445312 
" style="fill: none; stroke: #fde725; stroke-width: 1.5; stroke-linecap: square"/>
    </g>
    <g id="text_56">
     <!-- $p = \infty$ -->
     <g transform="translate(1141.150607 74.945312) scale(0.1 -0.1)">
      <use xlink:href="#DejaVuSans-Oblique-70"/>
      <use xlink:href="#DejaVuSans-3d" transform="translate(82.958984 0)"/>
      <use xlink:href="#DejaVuSans-221e" transform="translate(186.230469 0)"/>
     </g>
    </g>
   </g>
  </g>
 </g>
 <defs>
  <clipPath id="pc2d939fb16">
   <rect x="95.525" y="28.95" width="209.003521" height="162.449333"/>
  </clipPath>
  <clipPath id="pd136f24f5b">
   <rect x="313.680521" y="28.95" width="209.003521" height="162.449333"/>
  </clipPath>
  <clipPath id="pef7a842a5b">
   <rect x="531.836043" y="28.95" width="209.003521" height="162.449333"/>
  </clipPath>
  <clipPath id="pcbeec2ad1c">
   <rect x="749.991564" y="28.95" width="209.003521" height="162.449333"/>
  </clipPath>
  <clipPath id="p2425137394">
   <rect x="968.147086" y="28.95" width="209.003521" height="162.449333"/>
  </clipPath>
 </defs>
</svg>
