<?xml version="1.0" encoding="utf-8" standalone="no"?>
<!DOCTYPE svg PUBLIC "-//W3C//DTD SVG 1.1//EN"
  "http://www.w3.org/Graphics/SVG/1.1/DTD/svg11.dtd">
<svg xmlns:xlink="http://www.w3.org/1999/xlink" width="1152pt" height="288pt" viewBox="0 0 1152 288" xmlns="http://www.w3.org/2000/svg" version="1.1">
 <metadata>
  <rdf:RDF xmlns:dc="http://purl.org/dc/elements/1.1/" xmlns:cc="http://creativecommons.org/ns#" xmlns:rdf="http://www.w3.org/1999/02/22-rdf-syntax-ns#">
   <cc:Work>
    <dc:type rdf:resource="http://purl.org/dc/dcmitype/StillImage"/>
    <dc:date>2023-04-07T21:17:26.604300</dc:date>
    <dc:format>image/svg+xml</dc:format>
    <dc:creator>
     <cc:Agent>
      <dc:title>Matplotlib v3.6.2, https://matplotlib.org/</dc:title>
     </cc:Agent>
    </dc:creator>
   </cc:Work>
  </rdf:RDF>
 </metadata>
 <defs>
  <style type="text/css">*{stroke-linejoin: round; stroke-linecap: butt}</style>
 </defs>
 <g id="figure_1">
  <g id="patch_1">
   <path d="M 0 288 
L 1152 288 
L 1152 0 
L 0 0 
z
" style="fill: #ffffff"/>
  </g>
  <g id="axes_1">
   <g id="patch_2">
    <path d="M 35.287282 226.677333 
L 209.638699 226.677333 
L 209.638699 89.3488 
L 35.287282 89.3488 
z
" style="fill: #ffffff"/>
   </g>
   <g id="matplotlib.axis_1">
    <g id="xtick_1">
     <g id="line2d_1">
      <defs>
       <path id="m9df5e8ca27" d="M 0 0 
L 0 3.5 
" style="stroke: #000000; stroke-width: 0.8"/>
      </defs>
      <g>
       <use xlink:href="#m9df5e8ca27" x="102.588081" y="226.677333" style="stroke: #000000; stroke-width: 0.8"/>
      </g>
     </g>
     <g id="text_1">
      <!-- $\mathdefault{10^{0}}$ -->
      <g transform="translate(93.788081 241.275771) scale(0.1 -0.1)">
       <defs>
        <path id="DejaVuSans-31" d="M 794 531 
L 1825 531 
L 1825 4091 
L 703 3866 
L 703 4441 
L 1819 4666 
L 2450 4666 
L 2450 531 
L 3481 531 
L 3481 0 
L 794 0 
L 794 531 
z
" transform="scale(0.015625)"/>
        <path id="DejaVuSans-30" d="M 2034 4250 
Q 1547 4250 1301 3770 
Q 1056 3291 1056 2328 
Q 1056 1369 1301 889 
Q 1547 409 2034 409 
Q 2525 409 2770 889 
Q 3016 1369 3016 2328 
Q 3016 3291 2770 3770 
Q 2525 4250 2034 4250 
z
M 2034 4750 
Q 2819 4750 3233 4129 
Q 3647 3509 3647 2328 
Q 3647 1150 3233 529 
Q 2819 -91 2034 -91 
Q 1250 -91 836 529 
Q 422 1150 422 2328 
Q 422 3509 836 4129 
Q 1250 4750 2034 4750 
z
" transform="scale(0.015625)"/>
       </defs>
       <use xlink:href="#DejaVuSans-31" transform="translate(0 0.765625)"/>
       <use xlink:href="#DejaVuSans-30" transform="translate(63.623047 0.765625)"/>
       <use xlink:href="#DejaVuSans-30" transform="translate(128.203125 39.046875) scale(0.7)"/>
      </g>
     </g>
    </g>
    <g id="xtick_2">
     <g id="line2d_2">
      <g>
       <use xlink:href="#m9df5e8ca27" x="173.60803" y="226.677333" style="stroke: #000000; stroke-width: 0.8"/>
      </g>
     </g>
     <g id="text_2">
      <!-- $\mathdefault{10^{2}}$ -->
      <g transform="translate(164.80803 241.275771) scale(0.1 -0.1)">
       <defs>
        <path id="DejaVuSans-32" d="M 1228 531 
L 3431 531 
L 3431 0 
L 469 0 
L 469 531 
Q 828 903 1448 1529 
Q 2069 2156 2228 2338 
Q 2531 2678 2651 2914 
Q 2772 3150 2772 3378 
Q 2772 3750 2511 3984 
Q 2250 4219 1831 4219 
Q 1534 4219 1204 4116 
Q 875 4013 500 3803 
L 500 4441 
Q 881 4594 1212 4672 
Q 1544 4750 1819 4750 
Q 2544 4750 2975 4387 
Q 3406 4025 3406 3419 
Q 3406 3131 3298 2873 
Q 3191 2616 2906 2266 
Q 2828 2175 2409 1742 
Q 1991 1309 1228 531 
z
" transform="scale(0.015625)"/>
       </defs>
       <use xlink:href="#DejaVuSans-31" transform="translate(0 0.765625)"/>
       <use xlink:href="#DejaVuSans-30" transform="translate(63.623047 0.765625)"/>
       <use xlink:href="#DejaVuSans-32" transform="translate(128.203125 39.046875) scale(0.7)"/>
      </g>
     </g>
    </g>
    <g id="text_3">
     <!-- $\gamma$ -->
     <g transform="translate(119.462991 254.933583) scale(0.1 -0.1)">
      <defs>
       <path id="DejaVuSans-Oblique-3b3" d="M 1491 2950 
L 1838 788 
L 3456 3500 
L 4066 3500 
L 1972 0 
L 1713 -1331 
L 1138 -1331 
L 1397 0 
L 988 2613 
Q 925 3006 628 3006 
L 475 3006 
L 569 3500 
L 788 3500 
Q 1403 3500 1491 2950 
z
" transform="scale(0.015625)"/>
      </defs>
      <use xlink:href="#DejaVuSans-Oblique-3b3" transform="translate(0 0.3125)"/>
     </g>
    </g>
   </g>
   <g id="matplotlib.axis_2">
    <g id="ytick_1">
     <g id="line2d_3">
      <defs>
       <path id="mb4aa66652f" d="M 0 0 
L -3.5 0 
" style="stroke: #000000; stroke-width: 0.8"/>
      </defs>
      <g>
       <use xlink:href="#mb4aa66652f" x="35.287282" y="196.563828" style="stroke: #000000; stroke-width: 0.8"/>
      </g>
     </g>
     <g id="text_4">
      <!-- $\mathdefault{10^{-4}}$ -->
      <g transform="translate(4.787282 200.363046) scale(0.1 -0.1)">
       <defs>
        <path id="DejaVuSans-2212" d="M 678 2272 
L 4684 2272 
L 4684 1741 
L 678 1741 
L 678 2272 
z
" transform="scale(0.015625)"/>
        <path id="DejaVuSans-34" d="M 2419 4116 
L 825 1625 
L 2419 1625 
L 2419 4116 
z
M 2253 4666 
L 3047 4666 
L 3047 1625 
L 3713 1625 
L 3713 1100 
L 3047 1100 
L 3047 0 
L 2419 0 
L 2419 1100 
L 313 1100 
L 313 1709 
L 2253 4666 
z
" transform="scale(0.015625)"/>
       </defs>
       <use xlink:href="#DejaVuSans-31" transform="translate(0 0.684375)"/>
       <use xlink:href="#DejaVuSans-30" transform="translate(63.623047 0.684375)"/>
       <use xlink:href="#DejaVuSans-2212" transform="translate(128.203125 38.965625) scale(0.7)"/>
       <use xlink:href="#DejaVuSans-34" transform="translate(186.855469 38.965625) scale(0.7)"/>
      </g>
     </g>
    </g>
    <g id="ytick_2">
     <g id="line2d_4">
      <g>
       <use xlink:href="#mb4aa66652f" x="35.287282" y="143.556973" style="stroke: #000000; stroke-width: 0.8"/>
      </g>
     </g>
     <g id="text_5">
      <!-- $\mathdefault{10^{-2}}$ -->
      <g transform="translate(4.787282 147.356192) scale(0.1 -0.1)">
       <use xlink:href="#DejaVuSans-31" transform="translate(0 0.765625)"/>
       <use xlink:href="#DejaVuSans-30" transform="translate(63.623047 0.765625)"/>
       <use xlink:href="#DejaVuSans-2212" transform="translate(128.203125 39.046875) scale(0.7)"/>
       <use xlink:href="#DejaVuSans-32" transform="translate(186.855469 39.046875) scale(0.7)"/>
      </g>
     </g>
    </g>
    <g id="ytick_3">
     <g id="line2d_5">
      <g>
       <use xlink:href="#mb4aa66652f" x="35.287282" y="90.550119" style="stroke: #000000; stroke-width: 0.8"/>
      </g>
     </g>
     <g id="text_6">
      <!-- $\mathdefault{10^{0}}$ -->
      <g transform="translate(10.687282 94.349338) scale(0.1 -0.1)">
       <use xlink:href="#DejaVuSans-31" transform="translate(0 0.765625)"/>
       <use xlink:href="#DejaVuSans-30" transform="translate(63.623047 0.765625)"/>
       <use xlink:href="#DejaVuSans-30" transform="translate(128.203125 39.046875) scale(0.7)"/>
      </g>
     </g>
    </g>
    <g id="text_7">
     <!-- $\frac{ \sigma_i(\gamma) }{ \sigma_i(0) }$ -->
     <g transform="translate(-4.512718 166.613067) rotate(-90) scale(0.1 -0.1)">
      <defs>
       <path id="DejaVuSans-Oblique-3c3" d="M 2219 3044 
Q 1744 3044 1422 2700 
Q 1081 2341 969 1747 
Q 844 1119 1044 756 
Q 1241 397 1706 397 
Q 2166 397 2503 759 
Q 2844 1122 2966 1747 
Q 3075 2319 2881 2700 
Q 2700 3044 2219 3044 
z
M 2309 3503 
L 4219 3500 
L 4106 2925 
L 3463 2925 
Q 3706 2438 3575 1747 
Q 3406 888 2884 400 
Q 2359 -91 1609 -91 
Q 856 -91 525 400 
Q 194 888 363 1747 
Q 528 2609 1050 3097 
Q 1484 3503 2309 3503 
z
" transform="scale(0.015625)"/>
       <path id="DejaVuSans-Oblique-69" d="M 1172 4863 
L 1747 4863 
L 1606 4134 
L 1031 4134 
L 1172 4863 
z
M 909 3500 
L 1484 3500 
L 800 0 
L 225 0 
L 909 3500 
z
" transform="scale(0.015625)"/>
       <path id="DejaVuSans-28" d="M 1984 4856 
Q 1566 4138 1362 3434 
Q 1159 2731 1159 2009 
Q 1159 1288 1364 580 
Q 1569 -128 1984 -844 
L 1484 -844 
Q 1016 -109 783 600 
Q 550 1309 550 2009 
Q 550 2706 781 3412 
Q 1013 4119 1484 4856 
L 1984 4856 
z
" transform="scale(0.015625)"/>
       <path id="DejaVuSans-29" d="M 513 4856 
L 1013 4856 
Q 1481 4119 1714 3412 
Q 1947 2706 1947 2009 
Q 1947 1309 1714 600 
Q 1481 -109 1013 -844 
L 513 -844 
Q 928 -128 1133 580 
Q 1338 1288 1338 2009 
Q 1338 2731 1133 3434 
Q 928 4138 513 4856 
z
" transform="scale(0.015625)"/>
      </defs>
      <use xlink:href="#DejaVuSans-Oblique-3c3" transform="translate(2 58.8875) scale(0.7)"/>
      <use xlink:href="#DejaVuSans-Oblique-69" transform="translate(46.365234 47.403125) scale(0.49)"/>
      <use xlink:href="#DejaVuSans-28" transform="translate(61.893066 58.8875) scale(0.7)"/>
      <use xlink:href="#DejaVuSans-Oblique-3b3" transform="translate(89.202637 58.8875) scale(0.7)"/>
      <use xlink:href="#DejaVuSans-29" transform="translate(130.628418 58.8875) scale(0.7)"/>
      <use xlink:href="#DejaVuSans-Oblique-3c3" transform="translate(0 -40.032812) scale(0.7)"/>
      <use xlink:href="#DejaVuSans-Oblique-69" transform="translate(44.365234 -51.517187) scale(0.49)"/>
      <use xlink:href="#DejaVuSans-28" transform="translate(59.893066 -40.032812) scale(0.7)"/>
      <use xlink:href="#DejaVuSans-30" transform="translate(87.202637 -40.032812) scale(0.7)"/>
      <use xlink:href="#DejaVuSans-29" transform="translate(131.73877 -40.032812) scale(0.7)"/>
      <path d="M 0 19.329688 
L 0 25.579688 
L 159.04834 25.579688 
L 159.04834 19.329688 
L 0 19.329688 
z
"/>
     </g>
    </g>
   </g>
   <g id="line2d_6">
    <path d="M -1 90.596872 
L 10.188998 90.63857 
L 17.437293 90.689635 
L 22.348418 90.739301 
L 26.067568 90.78779 
L 29.0618 90.835166 
L 31.568132 90.881598 
L 39.445976 91.07874 
L 44.634979 91.264204 
L 48.510696 91.440884 
L 51.605397 91.610509 
L 54.181669 91.774223 
L 56.388539 91.932801 
L 62.641536 92.491041 
L 67.078107 93.004406 
L 70.519379 93.483216 
L 73.331103 93.933876 
L 75.708382 94.360877 
L 77.767674 94.767359 
L 85.645518 96.672643 
L 90.834521 98.265191 
L 94.710238 99.644312 
L 97.804938 100.865233 
L 100.381211 101.962635 
L 102.588081 102.960484 
L 113.277649 108.501072 
L 123.967216 115.018162 
L 134.656784 122.210198 
L 145.346351 129.835496 
L 156.035919 137.766241 
L 166.725486 145.997449 
L 177.415054 154.699039 
L 188.104621 164.369002 
L 198.794189 176.876773 
L 209.483756 223.067255 
" clip-path="url(#pc2d2873352)" style="fill: none; stroke: #440154; stroke-width: 1.5; stroke-linecap: square"/>
   </g>
   <g id="line2d_7">
    <path d="M -1 90.59741 
L 10.188998 90.639697 
L 17.437293 90.692132 
L 22.348418 90.743693 
L 26.067568 90.794592 
L 29.0618 90.844936 
L 31.568132 90.894599 
L 39.445976 91.109884 
L 44.634979 91.316304 
L 48.510696 91.516037 
L 51.605397 91.710311 
L 54.181669 91.899946 
L 56.388539 92.085364 
L 62.641536 92.747442 
L 67.078107 93.362616 
L 70.519379 93.940938 
L 73.331103 94.484645 
L 75.708382 94.999778 
L 77.767674 95.487983 
L 85.645518 97.751808 
L 90.834521 99.614332 
L 94.710238 101.177407 
L 97.804938 102.540915 
L 100.381211 103.755022 
L 102.588081 104.851705 
L 113.277649 110.898382 
L 123.967216 117.911385 
L 134.656784 125.438338 
L 145.346351 133.279475 
L 156.035919 141.3131 
L 166.725486 149.570295 
L 177.415054 158.276224 
L 188.104621 167.986069 
L 198.794189 180.390209 
L 209.483756 223.067255 
" clip-path="url(#pc2d2873352)" style="fill: none; stroke: #21918c; stroke-width: 1.5; stroke-linecap: square"/>
   </g>
   <g id="line2d_8">
    <path d="M -1 90.614391 
L 10.188998 90.670762 
L 17.437293 90.738542 
L 22.348418 90.803387 
L 26.067568 90.865577 
L 29.0618 90.925427 
L 31.568132 90.983144 
L 39.445976 91.218619 
L 44.634979 91.427755 
L 48.510696 91.61759 
L 51.605397 91.792469 
L 54.181669 91.955341 
L 56.388539 92.108311 
L 62.641536 92.616491 
L 67.078107 93.053232 
L 70.519379 93.442841 
L 73.331103 93.799005 
L 75.708382 94.130086 
L 77.767674 94.441649 
L 85.645518 95.890509 
L 90.834521 97.121295 
L 94.710238 98.214683 
L 97.804938 99.205829 
L 100.381211 100.114941 
L 102.588081 100.955909 
L 113.277649 105.831525 
L 123.967216 111.883404 
L 134.656784 118.79161 
L 145.346351 126.25876 
L 156.035919 134.106221 
L 166.725486 142.298754 
L 177.415054 150.97913 
L 188.104621 160.662582 
L 198.794189 173.17206 
L 209.483756 223.067255 
" clip-path="url(#pc2d2873352)" style="fill: none; stroke: #fde725; stroke-width: 1.5; stroke-linecap: square"/>
   </g>
   <g id="patch_3">
    <path d="M 35.287282 226.677333 
L 35.287282 89.3488 
" style="fill: none; stroke: #000000; stroke-width: 0.8; stroke-linejoin: miter; stroke-linecap: square"/>
   </g>
   <g id="patch_4">
    <path d="M 209.638699 226.677333 
L 209.638699 89.3488 
" style="fill: none; stroke: #000000; stroke-width: 0.8; stroke-linejoin: miter; stroke-linecap: square"/>
   </g>
   <g id="patch_5">
    <path d="M 35.287282 226.677333 
L 209.638699 226.677333 
" style="fill: none; stroke: #000000; stroke-width: 0.8; stroke-linejoin: miter; stroke-linecap: square"/>
   </g>
   <g id="patch_6">
    <path d="M 35.287282 89.3488 
L 209.638699 89.3488 
" style="fill: none; stroke: #000000; stroke-width: 0.8; stroke-linejoin: miter; stroke-linecap: square"/>
   </g>
   <g id="text_8">
    <!-- $\gamma_1 = \gamma , \;\; \gamma_{2-6} = 0$ -->
    <g transform="translate(73.382991 83.3488) scale(0.12 -0.12)">
     <defs>
      <path id="DejaVuSans-3d" d="M 678 2906 
L 4684 2906 
L 4684 2381 
L 678 2381 
L 678 2906 
z
M 678 1631 
L 4684 1631 
L 4684 1100 
L 678 1100 
L 678 1631 
z
" transform="scale(0.015625)"/>
      <path id="DejaVuSans-2c" d="M 750 794 
L 1409 794 
L 1409 256 
L 897 -744 
L 494 -744 
L 750 256 
L 750 794 
z
" transform="scale(0.015625)"/>
      <path id="DejaVuSans-36" d="M 2113 2584 
Q 1688 2584 1439 2293 
Q 1191 2003 1191 1497 
Q 1191 994 1439 701 
Q 1688 409 2113 409 
Q 2538 409 2786 701 
Q 3034 994 3034 1497 
Q 3034 2003 2786 2293 
Q 2538 2584 2113 2584 
z
M 3366 4563 
L 3366 3988 
Q 3128 4100 2886 4159 
Q 2644 4219 2406 4219 
Q 1781 4219 1451 3797 
Q 1122 3375 1075 2522 
Q 1259 2794 1537 2939 
Q 1816 3084 2150 3084 
Q 2853 3084 3261 2657 
Q 3669 2231 3669 1497 
Q 3669 778 3244 343 
Q 2819 -91 2113 -91 
Q 1303 -91 875 529 
Q 447 1150 447 2328 
Q 447 3434 972 4092 
Q 1497 4750 2381 4750 
Q 2619 4750 2861 4703 
Q 3103 4656 3366 4563 
z
" transform="scale(0.015625)"/>
     </defs>
     <use xlink:href="#DejaVuSans-Oblique-3b3" transform="translate(0 0.78125)"/>
     <use xlink:href="#DejaVuSans-31" transform="translate(59.179688 -15.625) scale(0.7)"/>
     <use xlink:href="#DejaVuSans-3d" transform="translate(125.932617 0.78125)"/>
     <use xlink:href="#DejaVuSans-Oblique-3b3" transform="translate(229.204102 0.78125)"/>
     <use xlink:href="#DejaVuSans-2c" transform="translate(288.383789 0.78125)"/>
     <use xlink:href="#DejaVuSans-Oblique-3b3" transform="translate(393.771592 0.78125)"/>
     <use xlink:href="#DejaVuSans-32" transform="translate(452.951279 -15.625) scale(0.7)"/>
     <use xlink:href="#DejaVuSans-2212" transform="translate(511.125107 -15.625) scale(0.7)"/>
     <use xlink:href="#DejaVuSans-36" transform="translate(583.415146 -15.625) scale(0.7)"/>
     <use xlink:href="#DejaVuSans-3d" transform="translate(650.168076 0.78125)"/>
     <use xlink:href="#DejaVuSans-30" transform="translate(753.439561 0.78125)"/>
    </g>
   </g>
  </g>
  <g id="axes_2">
   <g id="patch_7">
    <path d="M 221.71718 226.677333 
L 396.068596 226.677333 
L 396.068596 89.3488 
L 221.71718 89.3488 
z
" style="fill: #ffffff"/>
   </g>
   <g id="matplotlib.axis_3">
    <g id="xtick_3">
     <g id="line2d_9">
      <g>
       <use xlink:href="#m9df5e8ca27" x="289.017979" y="226.677333" style="stroke: #000000; stroke-width: 0.8"/>
      </g>
     </g>
     <g id="text_9">
      <!-- $\mathdefault{10^{0}}$ -->
      <g transform="translate(280.217979 241.275771) scale(0.1 -0.1)">
       <use xlink:href="#DejaVuSans-31" transform="translate(0 0.765625)"/>
       <use xlink:href="#DejaVuSans-30" transform="translate(63.623047 0.765625)"/>
       <use xlink:href="#DejaVuSans-30" transform="translate(128.203125 39.046875) scale(0.7)"/>
      </g>
     </g>
    </g>
    <g id="xtick_4">
     <g id="line2d_10">
      <g>
       <use xlink:href="#m9df5e8ca27" x="360.037928" y="226.677333" style="stroke: #000000; stroke-width: 0.8"/>
      </g>
     </g>
     <g id="text_10">
      <!-- $\mathdefault{10^{2}}$ -->
      <g transform="translate(351.237928 241.275771) scale(0.1 -0.1)">
       <use xlink:href="#DejaVuSans-31" transform="translate(0 0.765625)"/>
       <use xlink:href="#DejaVuSans-30" transform="translate(63.623047 0.765625)"/>
       <use xlink:href="#DejaVuSans-32" transform="translate(128.203125 39.046875) scale(0.7)"/>
      </g>
     </g>
    </g>
    <g id="text_11">
     <!-- $\gamma$ -->
     <g transform="translate(305.892888 254.933583) scale(0.1 -0.1)">
      <use xlink:href="#DejaVuSans-Oblique-3b3" transform="translate(0 0.3125)"/>
     </g>
    </g>
   </g>
   <g id="matplotlib.axis_4">
    <g id="ytick_4">
     <g id="line2d_11">
      <g>
       <use xlink:href="#mb4aa66652f" x="221.71718" y="196.563828" style="stroke: #000000; stroke-width: 0.8"/>
      </g>
     </g>
    </g>
    <g id="ytick_5">
     <g id="line2d_12">
      <g>
       <use xlink:href="#mb4aa66652f" x="221.71718" y="143.556973" style="stroke: #000000; stroke-width: 0.8"/>
      </g>
     </g>
    </g>
    <g id="ytick_6">
     <g id="line2d_13">
      <g>
       <use xlink:href="#mb4aa66652f" x="221.71718" y="90.550119" style="stroke: #000000; stroke-width: 0.8"/>
      </g>
     </g>
    </g>
   </g>
   <g id="line2d_14">
    <path d="M -1 90.550284 
L 111.468106 90.550285 
L 128.41067 90.550855 
L 146.978081 90.553182 
L 163.920645 90.561576 
L 182.488055 90.598754 
L 196.618895 90.688422 
L 203.86719 90.780213 
L 208.778316 90.870823 
L 212.497465 90.95936 
L 215.491698 91.045584 
L 217.99803 91.129543 
L 225.875873 91.478469 
L 231.064876 91.796051 
L 234.940593 92.09027 
L 238.035294 92.366197 
L 240.611566 92.627199 
L 242.818437 92.875674 
L 249.071433 93.721667 
L 253.508004 94.468238 
L 256.949276 95.143396 
L 259.761 95.763508 
L 262.138279 96.339253 
L 264.197572 96.878137 
L 272.075415 99.309768 
L 277.264418 101.253204 
L 281.140135 102.888157 
L 284.234836 104.305638 
L 286.811108 105.559741 
L 289.017979 106.685818 
L 299.707546 112.75081 
L 310.397114 119.621696 
L 321.086681 127.024719 
L 331.776249 134.766091 
L 342.465816 142.756264 
L 353.155384 151.017177 
L 363.844951 159.72122 
L 374.534519 169.390435 
L 385.224086 181.801166 
L 395.913653 223.067255 
" clip-path="url(#p5dc97e80f0)" style="fill: none; stroke: #440154; stroke-width: 1.5; stroke-linecap: square"/>
   </g>
   <g id="line2d_15">
    <path d="M -1 90.552833 
L 111.468106 90.552842 
L 128.41067 90.558436 
L 146.978081 90.576952 
L 163.920645 90.623676 
L 182.488055 90.750334 
L 196.618895 90.953546 
L 203.86719 91.120774 
L 208.778316 91.269649 
L 212.497465 91.406821 
L 215.491698 91.535274 
L 217.99803 91.656887 
L 225.875873 92.141084 
L 231.064876 92.564807 
L 234.940593 92.950718 
L 238.035294 93.309593 
L 240.611566 93.64792 
L 242.818437 93.969548 
L 249.071433 95.056872 
L 253.508004 96.009173 
L 256.949276 96.86759 
L 259.761 97.653383 
L 262.138279 98.375973 
L 264.197572 99.04613 
L 272.075415 102.050145 
L 277.264418 104.441836 
L 281.140135 106.44612 
L 284.234836 108.182032 
L 286.811108 109.713381 
L 289.017979 111.082269 
L 299.707546 118.342222 
L 310.397114 126.301116 
L 321.086681 134.675791 
L 331.776249 143.229673 
L 342.465816 151.935478 
L 353.155384 160.701815 
L 363.844951 169.535011 
L 374.534519 179.177644 
L 385.224086 191.419351 
L 395.913653 223.067255 
" clip-path="url(#p5dc97e80f0)" style="fill: none; stroke: #21918c; stroke-width: 1.5; stroke-linecap: square"/>
   </g>
   <g id="line2d_16">
    <path d="M -1 90.543522 
L 111.468106 90.543501 
L 128.41067 90.531078 
L 146.978081 90.494861 
L 163.920645 90.430138 
L 182.488055 90.368651 
L 196.618895 90.410114 
L 203.86719 90.488275 
L 208.778316 90.571792 
L 212.497465 90.655225 
L 215.491698 90.737182 
L 217.99803 90.817267 
L 225.875873 91.150642 
L 231.064876 91.452749 
L 234.940593 91.730327 
L 238.035294 91.988161 
L 240.611566 92.229712 
L 242.818437 92.457506 
L 249.071433 93.218294 
L 253.508004 93.873665 
L 256.949276 94.456748 
L 259.761 94.986649 
L 262.138279 95.475441 
L 264.197572 95.931272 
L 272.075415 97.988125 
L 277.264418 99.651915 
L 281.140135 101.073403 
L 284.234836 102.323263 
L 286.811108 103.442437 
L 289.017979 104.457658 
L 299.707546 110.068965 
L 310.397114 116.637851 
L 321.086681 123.863309 
L 331.776249 131.50813 
L 342.465816 139.448613 
L 353.155384 147.685572 
L 363.844951 156.384123 
L 374.534519 166.063215 
L 385.224086 178.532315 
L 395.913653 223.067255 
" clip-path="url(#p5dc97e80f0)" style="fill: none; stroke: #fde725; stroke-width: 1.5; stroke-linecap: square"/>
   </g>
   <g id="patch_8">
    <path d="M 221.71718 226.677333 
L 221.71718 89.3488 
" style="fill: none; stroke: #000000; stroke-width: 0.8; stroke-linejoin: miter; stroke-linecap: square"/>
   </g>
   <g id="patch_9">
    <path d="M 396.068596 226.677333 
L 396.068596 89.3488 
" style="fill: none; stroke: #000000; stroke-width: 0.8; stroke-linejoin: miter; stroke-linecap: square"/>
   </g>
   <g id="patch_10">
    <path d="M 221.71718 226.677333 
L 396.068596 226.677333 
" style="fill: none; stroke: #000000; stroke-width: 0.8; stroke-linejoin: miter; stroke-linecap: square"/>
   </g>
   <g id="patch_11">
    <path d="M 221.71718 89.3488 
L 396.068596 89.3488 
" style="fill: none; stroke: #000000; stroke-width: 0.8; stroke-linejoin: miter; stroke-linecap: square"/>
   </g>
   <g id="text_12">
    <!-- $\gamma_{1,2} = \gamma , \;\; \gamma_{3-6} = 0$ -->
    <g transform="translate(255.012888 83.3488) scale(0.12 -0.12)">
     <defs>
      <path id="DejaVuSans-33" d="M 2597 2516 
Q 3050 2419 3304 2112 
Q 3559 1806 3559 1356 
Q 3559 666 3084 287 
Q 2609 -91 1734 -91 
Q 1441 -91 1130 -33 
Q 819 25 488 141 
L 488 750 
Q 750 597 1062 519 
Q 1375 441 1716 441 
Q 2309 441 2620 675 
Q 2931 909 2931 1356 
Q 2931 1769 2642 2001 
Q 2353 2234 1838 2234 
L 1294 2234 
L 1294 2753 
L 1863 2753 
Q 2328 2753 2575 2939 
Q 2822 3125 2822 3475 
Q 2822 3834 2567 4026 
Q 2313 4219 1838 4219 
Q 1578 4219 1281 4162 
Q 984 4106 628 3988 
L 628 4550 
Q 988 4650 1302 4700 
Q 1616 4750 1894 4750 
Q 2613 4750 3031 4423 
Q 3450 4097 3450 3541 
Q 3450 3153 3228 2886 
Q 3006 2619 2597 2516 
z
" transform="scale(0.015625)"/>
     </defs>
     <use xlink:href="#DejaVuSans-Oblique-3b3" transform="translate(0 0.78125)"/>
     <use xlink:href="#DejaVuSans-31" transform="translate(59.179688 -15.625) scale(0.7)"/>
     <use xlink:href="#DejaVuSans-2c" transform="translate(103.71582 -15.625) scale(0.7)"/>
     <use xlink:href="#DejaVuSans-32" transform="translate(139.604492 -15.625) scale(0.7)"/>
     <use xlink:href="#DejaVuSans-3d" transform="translate(206.357422 0.78125)"/>
     <use xlink:href="#DejaVuSans-Oblique-3b3" transform="translate(309.628906 0.78125)"/>
     <use xlink:href="#DejaVuSans-2c" transform="translate(368.808594 0.78125)"/>
     <use xlink:href="#DejaVuSans-Oblique-3b3" transform="translate(474.196396 0.78125)"/>
     <use xlink:href="#DejaVuSans-33" transform="translate(533.376084 -15.625) scale(0.7)"/>
     <use xlink:href="#DejaVuSans-2212" transform="translate(591.549912 -15.625) scale(0.7)"/>
     <use xlink:href="#DejaVuSans-36" transform="translate(663.839951 -15.625) scale(0.7)"/>
     <use xlink:href="#DejaVuSans-3d" transform="translate(730.592881 0.78125)"/>
     <use xlink:href="#DejaVuSans-30" transform="translate(833.864365 0.78125)"/>
    </g>
   </g>
  </g>
  <g id="axes_3">
   <g id="patch_12">
    <path d="M 408.147077 226.677333 
L 582.498494 226.677333 
L 582.498494 89.3488 
L 408.147077 89.3488 
z
" style="fill: #ffffff"/>
   </g>
   <g id="matplotlib.axis_5">
    <g id="xtick_5">
     <g id="line2d_17">
      <g>
       <use xlink:href="#m9df5e8ca27" x="475.447876" y="226.677333" style="stroke: #000000; stroke-width: 0.8"/>
      </g>
     </g>
     <g id="text_13">
      <!-- $\mathdefault{10^{0}}$ -->
      <g transform="translate(466.647876 241.275771) scale(0.1 -0.1)">
       <use xlink:href="#DejaVuSans-31" transform="translate(0 0.765625)"/>
       <use xlink:href="#DejaVuSans-30" transform="translate(63.623047 0.765625)"/>
       <use xlink:href="#DejaVuSans-30" transform="translate(128.203125 39.046875) scale(0.7)"/>
      </g>
     </g>
    </g>
    <g id="xtick_6">
     <g id="line2d_18">
      <g>
       <use xlink:href="#m9df5e8ca27" x="546.467825" y="226.677333" style="stroke: #000000; stroke-width: 0.8"/>
      </g>
     </g>
     <g id="text_14">
      <!-- $\mathdefault{10^{2}}$ -->
      <g transform="translate(537.667825 241.275771) scale(0.1 -0.1)">
       <use xlink:href="#DejaVuSans-31" transform="translate(0 0.765625)"/>
       <use xlink:href="#DejaVuSans-30" transform="translate(63.623047 0.765625)"/>
       <use xlink:href="#DejaVuSans-32" transform="translate(128.203125 39.046875) scale(0.7)"/>
      </g>
     </g>
    </g>
    <g id="text_15">
     <!-- $\gamma$ -->
     <g transform="translate(492.322785 254.933583) scale(0.1 -0.1)">
      <use xlink:href="#DejaVuSans-Oblique-3b3" transform="translate(0 0.3125)"/>
     </g>
    </g>
   </g>
   <g id="matplotlib.axis_6">
    <g id="ytick_7">
     <g id="line2d_19">
      <g>
       <use xlink:href="#mb4aa66652f" x="408.147077" y="196.563828" style="stroke: #000000; stroke-width: 0.8"/>
      </g>
     </g>
    </g>
    <g id="ytick_8">
     <g id="line2d_20">
      <g>
       <use xlink:href="#mb4aa66652f" x="408.147077" y="143.556973" style="stroke: #000000; stroke-width: 0.8"/>
      </g>
     </g>
    </g>
    <g id="ytick_9">
     <g id="line2d_21">
      <g>
       <use xlink:href="#mb4aa66652f" x="408.147077" y="90.550119" style="stroke: #000000; stroke-width: 0.8"/>
      </g>
     </g>
    </g>
   </g>
   <g id="line2d_22">
    <path d="M -1 90.551474 
L 297.898004 90.551486 
L 314.840567 90.554438 
L 333.407978 90.564828 
L 350.350542 90.594497 
L 368.917953 90.694047 
L 383.048792 90.885399 
L 390.297088 91.0575 
L 395.208213 91.217419 
L 398.927363 91.368584 
L 401.921595 91.512909 
L 404.427927 91.651618 
L 412.305771 92.217814 
L 417.494774 92.725539 
L 421.370491 93.191925 
L 424.465191 93.626392 
L 427.041464 94.034967 
L 429.248334 94.421844 
L 435.50133 95.724442 
L 439.937902 96.855947 
L 443.379174 97.865116 
L 446.190898 98.780385 
L 448.568177 99.620337 
L 450.627469 100.397985 
L 458.505313 103.807486 
L 463.694316 106.421448 
L 467.570033 108.550872 
L 470.664733 110.350224 
L 473.241006 111.90909 
L 475.447876 113.284522 
L 486.137444 120.367891 
L 496.827011 127.922169 
L 507.516579 135.731685 
L 518.206146 143.694977 
L 528.895714 151.7972 
L 539.585281 160.104494 
L 550.274849 168.810149 
L 560.964416 178.420776 
L 571.653983 190.597584 
L 582.343551 223.067255 
" clip-path="url(#pa970574dcb)" style="fill: none; stroke: #440154; stroke-width: 1.5; stroke-linecap: square"/>
   </g>
   <g id="line2d_23">
    <path d="M -1 90.552974 
L 297.898004 90.553 
L 314.840567 90.558888 
L 333.407978 90.578781 
L 350.350542 90.630632 
L 368.917953 90.782544 
L 383.048792 91.03734 
L 390.297088 91.25509 
L 395.208213 91.452716 
L 398.927363 91.637072 
L 401.921595 91.809867 
L 404.427927 91.973285 
L 412.305771 92.634206 
L 417.494774 93.221429 
L 421.370491 93.758148 
L 424.465191 94.252281 
L 427.041464 94.715602 
L 429.248334 95.15123 
L 435.50133 96.617319 
L 439.937902 97.896662 
L 443.379174 99.042508 
L 446.190898 100.083507 
L 448.568177 101.034912 
L 450.627469 101.911283 
L 458.505313 105.752572 
L 463.694316 108.677853 
L 467.570033 111.042525 
L 470.664733 113.040497 
L 473.241006 114.757009 
L 475.447876 116.262094 
L 486.137444 123.840436 
L 496.827011 131.740957 
L 507.516579 139.800841 
L 518.206146 147.947622 
L 528.895714 156.202508 
L 539.585281 164.569053 
L 550.274849 173.274406 
L 560.964416 182.820476 
L 571.653983 194.760908 
L 582.343551 223.067255 
" clip-path="url(#pa970574dcb)" style="fill: none; stroke: #21918c; stroke-width: 1.5; stroke-linecap: square"/>
   </g>
   <g id="line2d_24">
    <path d="M -1 90.550721 
L 297.898004 90.550727 
L 314.840567 90.552357 
L 333.407978 90.56147 
L 350.350542 90.604497 
L 368.917953 90.810974 
L 383.048792 90.907313 
L 390.297088 90.966601 
L 395.208213 91.045075 
L 398.927363 91.133868 
L 401.921595 91.228519 
L 404.427927 91.326487 
L 412.305771 91.773212 
L 417.494774 92.212194 
L 421.370491 92.633726 
L 424.465191 93.036916 
L 427.041464 93.422816 
L 429.248334 93.792914 
L 435.50133 95.063322 
L 439.937902 96.189425 
L 443.379174 97.208249 
L 446.190898 98.143497 
L 448.568177 99.011302 
L 450.627469 99.823213 
L 458.505313 103.491306 
L 463.694316 106.195495 
L 467.570033 108.199502 
L 470.664733 109.937885 
L 473.241006 111.477729 
L 475.447876 112.863402 
L 486.137444 120.472215 
L 496.827011 129.603381 
L 507.516579 137.149477 
L 518.206146 144.963969 
L 528.895714 152.986139 
L 539.585281 161.249745 
L 550.274849 169.929088 
L 560.964416 179.514519 
L 571.653983 191.642712 
L 582.343551 223.067255 
" clip-path="url(#pa970574dcb)" style="fill: none; stroke: #fde725; stroke-width: 1.5; stroke-linecap: square"/>
   </g>
   <g id="patch_13">
    <path d="M 408.147077 226.677333 
L 408.147077 89.3488 
" style="fill: none; stroke: #000000; stroke-width: 0.8; stroke-linejoin: miter; stroke-linecap: square"/>
   </g>
   <g id="patch_14">
    <path d="M 582.498494 226.677333 
L 582.498494 89.3488 
" style="fill: none; stroke: #000000; stroke-width: 0.8; stroke-linejoin: miter; stroke-linecap: square"/>
   </g>
   <g id="patch_15">
    <path d="M 408.147077 226.677333 
L 582.498494 226.677333 
" style="fill: none; stroke: #000000; stroke-width: 0.8; stroke-linejoin: miter; stroke-linecap: square"/>
   </g>
   <g id="patch_16">
    <path d="M 408.147077 89.3488 
L 582.498494 89.3488 
" style="fill: none; stroke: #000000; stroke-width: 0.8; stroke-linejoin: miter; stroke-linecap: square"/>
   </g>
   <g id="text_16">
    <!-- $\gamma_{1-3} = \gamma , \;\; \gamma_{4-6} = 0$ -->
    <g transform="translate(438.442785 83.3488) scale(0.12 -0.12)">
     <use xlink:href="#DejaVuSans-Oblique-3b3" transform="translate(0 0.78125)"/>
     <use xlink:href="#DejaVuSans-31" transform="translate(59.179688 -15.625) scale(0.7)"/>
     <use xlink:href="#DejaVuSans-2212" transform="translate(117.353516 -15.625) scale(0.7)"/>
     <use xlink:href="#DejaVuSans-33" transform="translate(189.643555 -15.625) scale(0.7)"/>
     <use xlink:href="#DejaVuSans-3d" transform="translate(256.396484 0.78125)"/>
     <use xlink:href="#DejaVuSans-Oblique-3b3" transform="translate(359.667969 0.78125)"/>
     <use xlink:href="#DejaVuSans-2c" transform="translate(418.847656 0.78125)"/>
     <use xlink:href="#DejaVuSans-Oblique-3b3" transform="translate(524.235459 0.78125)"/>
     <use xlink:href="#DejaVuSans-34" transform="translate(583.415146 -15.625) scale(0.7)"/>
     <use xlink:href="#DejaVuSans-2212" transform="translate(641.588975 -15.625) scale(0.7)"/>
     <use xlink:href="#DejaVuSans-36" transform="translate(713.879014 -15.625) scale(0.7)"/>
     <use xlink:href="#DejaVuSans-3d" transform="translate(780.631943 0.78125)"/>
     <use xlink:href="#DejaVuSans-30" transform="translate(883.903428 0.78125)"/>
    </g>
   </g>
  </g>
  <g id="axes_4">
   <g id="patch_17">
    <path d="M 594.576974 226.677333 
L 768.928391 226.677333 
L 768.928391 89.3488 
L 594.576974 89.3488 
z
" style="fill: #ffffff"/>
   </g>
   <g id="matplotlib.axis_7">
    <g id="xtick_7">
     <g id="line2d_25">
      <g>
       <use xlink:href="#m9df5e8ca27" x="661.877774" y="226.677333" style="stroke: #000000; stroke-width: 0.8"/>
      </g>
     </g>
     <g id="text_17">
      <!-- $\mathdefault{10^{0}}$ -->
      <g transform="translate(653.077774 241.275771) scale(0.1 -0.1)">
       <use xlink:href="#DejaVuSans-31" transform="translate(0 0.765625)"/>
       <use xlink:href="#DejaVuSans-30" transform="translate(63.623047 0.765625)"/>
       <use xlink:href="#DejaVuSans-30" transform="translate(128.203125 39.046875) scale(0.7)"/>
      </g>
     </g>
    </g>
    <g id="xtick_8">
     <g id="line2d_26">
      <g>
       <use xlink:href="#m9df5e8ca27" x="732.897723" y="226.677333" style="stroke: #000000; stroke-width: 0.8"/>
      </g>
     </g>
     <g id="text_18">
      <!-- $\mathdefault{10^{2}}$ -->
      <g transform="translate(724.097723 241.275771) scale(0.1 -0.1)">
       <use xlink:href="#DejaVuSans-31" transform="translate(0 0.765625)"/>
       <use xlink:href="#DejaVuSans-30" transform="translate(63.623047 0.765625)"/>
       <use xlink:href="#DejaVuSans-32" transform="translate(128.203125 39.046875) scale(0.7)"/>
      </g>
     </g>
    </g>
    <g id="text_19">
     <!-- $\gamma$ -->
     <g transform="translate(678.752683 254.933583) scale(0.1 -0.1)">
      <use xlink:href="#DejaVuSans-Oblique-3b3" transform="translate(0 0.3125)"/>
     </g>
    </g>
   </g>
   <g id="matplotlib.axis_8">
    <g id="ytick_10">
     <g id="line2d_27">
      <g>
       <use xlink:href="#mb4aa66652f" x="594.576974" y="196.563828" style="stroke: #000000; stroke-width: 0.8"/>
      </g>
     </g>
    </g>
    <g id="ytick_11">
     <g id="line2d_28">
      <g>
       <use xlink:href="#mb4aa66652f" x="594.576974" y="143.556973" style="stroke: #000000; stroke-width: 0.8"/>
      </g>
     </g>
    </g>
    <g id="ytick_12">
     <g id="line2d_29">
      <g>
       <use xlink:href="#mb4aa66652f" x="594.576974" y="90.550119" style="stroke: #000000; stroke-width: 0.8"/>
      </g>
     </g>
    </g>
   </g>
   <g id="line2d_30">
    <path d="M -1 90.55146 
L 484.327901 90.551481 
L 501.270465 90.554455 
L 519.837876 90.565016 
L 536.780439 90.5961 
L 555.34785 90.707705 
L 569.47869 90.941742 
L 576.726985 91.164378 
L 581.63811 91.376894 
L 585.35726 91.58081 
L 588.351493 91.777315 
L 590.857825 91.967352 
L 598.735668 92.75006 
L 603.924671 93.457113 
L 607.800388 94.108878 
L 610.895089 94.717257 
L 613.471361 95.290086 
L 615.678232 95.83289 
L 621.931228 97.661559 
L 626.367799 99.249517 
L 629.809071 100.664344 
L 632.620795 101.945975 
L 634.998074 103.120666 
L 637.057367 104.206937 
L 644.93521 108.954401 
L 650.124213 112.579319 
L 653.99993 115.526118 
L 657.094631 118.014515 
L 659.670903 120.170713 
L 661.877774 122.07388 
L 672.567341 131.793662 
L 683.256909 141.290168 
L 693.946476 149.91404 
L 704.636044 158.159986 
L 715.325611 166.347443 
L 726.015178 174.640545 
L 736.704746 183.230261 
L 747.394313 192.517081 
L 758.083881 203.651063 
L 768.773448 223.067255 
" clip-path="url(#pca49549221)" style="fill: none; stroke: #440154; stroke-width: 1.5; stroke-linecap: square"/>
   </g>
   <g id="line2d_31">
    <path d="M -1 90.552923 
L 484.327901 90.552964 
L 501.270465 90.558804 
L 519.837876 90.578707 
L 536.780439 90.631938 
L 555.34785 90.79816 
L 569.47869 91.108476 
L 576.726985 91.38681 
L 581.63811 91.646204 
L 585.35726 91.890885 
L 588.351493 92.124465 
L 590.857825 92.348723 
L 598.735668 93.255049 
L 603.924671 94.063329 
L 607.800388 94.803412 
L 610.895089 95.493821 
L 613.471361 96.143386 
L 615.678232 96.758561 
L 621.931228 98.827363 
L 626.367799 100.603322 
L 629.809071 102.16634 
L 632.620795 103.580137 
L 634.998074 104.876927 
L 637.057367 106.07762 
L 644.93521 111.333465 
L 650.124213 115.337327 
L 653.99993 118.558253 
L 657.094631 121.246458 
L 659.670903 123.585352 
L 661.877774 125.639114 
L 672.567341 137.0957 
L 683.256909 153.124051 
L 693.946476 161.793326 
L 704.636044 170.434849 
L 715.325611 179.060279 
L 726.015178 187.450137 
L 736.704746 195.673423 
L 747.394313 204.079047 
L 758.083881 212.949017 
L 768.773448 223.067255 
" clip-path="url(#pca49549221)" style="fill: none; stroke: #21918c; stroke-width: 1.5; stroke-linecap: square"/>
   </g>
   <g id="line2d_32">
    <path d="M -1 90.551171 
L 484.327901 90.551187 
L 501.270465 90.553705 
L 519.837876 90.565449 
L 536.780439 90.613246 
L 555.34785 90.824237 
L 569.47869 90.941274 
L 576.726985 91.066579 
L 581.63811 91.211298 
L 585.35726 91.365044 
L 588.351493 91.523024 
L 590.857825 91.682698 
L 598.735668 92.386389 
L 603.924671 93.060002 
L 607.800388 93.699306 
L 610.895089 94.306829 
L 613.471361 94.885954 
L 615.678232 95.439837 
L 621.931228 97.334135 
L 626.367799 99.008548 
L 629.809071 100.522577 
L 632.620795 101.913687 
L 634.998074 103.207296 
L 637.057367 104.421601 
L 644.93521 109.733877 
L 650.124213 113.163814 
L 653.99993 115.904626 
L 657.094631 118.238605 
L 659.670903 120.285361 
L 661.877774 121.933797 
L 672.567341 130.785189 
L 683.256909 138.32277 
L 693.946476 145.96485 
L 704.636044 153.827675 
L 715.325611 161.863936 
L 726.015178 170.111051 
L 736.704746 178.727847 
L 747.394313 188.147447 
L 758.083881 199.731248 
L 768.773448 223.067255 
" clip-path="url(#pca49549221)" style="fill: none; stroke: #fde725; stroke-width: 1.5; stroke-linecap: square"/>
   </g>
   <g id="patch_18">
    <path d="M 594.576974 226.677333 
L 594.576974 89.3488 
" style="fill: none; stroke: #000000; stroke-width: 0.8; stroke-linejoin: miter; stroke-linecap: square"/>
   </g>
   <g id="patch_19">
    <path d="M 768.928391 226.677333 
L 768.928391 89.3488 
" style="fill: none; stroke: #000000; stroke-width: 0.8; stroke-linejoin: miter; stroke-linecap: square"/>
   </g>
   <g id="patch_20">
    <path d="M 594.576974 226.677333 
L 768.928391 226.677333 
" style="fill: none; stroke: #000000; stroke-width: 0.8; stroke-linejoin: miter; stroke-linecap: square"/>
   </g>
   <g id="patch_21">
    <path d="M 594.576974 89.3488 
L 768.928391 89.3488 
" style="fill: none; stroke: #000000; stroke-width: 0.8; stroke-linejoin: miter; stroke-linecap: square"/>
   </g>
   <g id="text_20">
    <!-- $\gamma_{1-4} = \gamma , \;\; \gamma_{5,6} = 0$ -->
    <g transform="translate(627.872683 83.3488) scale(0.12 -0.12)">
     <defs>
      <path id="DejaVuSans-35" d="M 691 4666 
L 3169 4666 
L 3169 4134 
L 1269 4134 
L 1269 2991 
Q 1406 3038 1543 3061 
Q 1681 3084 1819 3084 
Q 2600 3084 3056 2656 
Q 3513 2228 3513 1497 
Q 3513 744 3044 326 
Q 2575 -91 1722 -91 
Q 1428 -91 1123 -41 
Q 819 9 494 109 
L 494 744 
Q 775 591 1075 516 
Q 1375 441 1709 441 
Q 2250 441 2565 725 
Q 2881 1009 2881 1497 
Q 2881 1984 2565 2268 
Q 2250 2553 1709 2553 
Q 1456 2553 1204 2497 
Q 953 2441 691 2322 
L 691 4666 
z
" transform="scale(0.015625)"/>
     </defs>
     <use xlink:href="#DejaVuSans-Oblique-3b3" transform="translate(0 0.78125)"/>
     <use xlink:href="#DejaVuSans-31" transform="translate(59.179688 -15.625) scale(0.7)"/>
     <use xlink:href="#DejaVuSans-2212" transform="translate(117.353516 -15.625) scale(0.7)"/>
     <use xlink:href="#DejaVuSans-34" transform="translate(189.643555 -15.625) scale(0.7)"/>
     <use xlink:href="#DejaVuSans-3d" transform="translate(256.396484 0.78125)"/>
     <use xlink:href="#DejaVuSans-Oblique-3b3" transform="translate(359.667969 0.78125)"/>
     <use xlink:href="#DejaVuSans-2c" transform="translate(418.847656 0.78125)"/>
     <use xlink:href="#DejaVuSans-Oblique-3b3" transform="translate(524.235459 0.78125)"/>
     <use xlink:href="#DejaVuSans-35" transform="translate(583.415146 -15.625) scale(0.7)"/>
     <use xlink:href="#DejaVuSans-2c" transform="translate(627.951279 -15.625) scale(0.7)"/>
     <use xlink:href="#DejaVuSans-36" transform="translate(663.839951 -15.625) scale(0.7)"/>
     <use xlink:href="#DejaVuSans-3d" transform="translate(730.592881 0.78125)"/>
     <use xlink:href="#DejaVuSans-30" transform="translate(833.864365 0.78125)"/>
    </g>
   </g>
  </g>
  <g id="axes_5">
   <g id="patch_22">
    <path d="M 781.006872 226.677333 
L 955.358289 226.677333 
L 955.358289 89.3488 
L 781.006872 89.3488 
z
" style="fill: #ffffff"/>
   </g>
   <g id="matplotlib.axis_9">
    <g id="xtick_9">
     <g id="line2d_33">
      <g>
       <use xlink:href="#m9df5e8ca27" x="848.307671" y="226.677333" style="stroke: #000000; stroke-width: 0.8"/>
      </g>
     </g>
     <g id="text_21">
      <!-- $\mathdefault{10^{0}}$ -->
      <g transform="translate(839.507671 241.275771) scale(0.1 -0.1)">
       <use xlink:href="#DejaVuSans-31" transform="translate(0 0.765625)"/>
       <use xlink:href="#DejaVuSans-30" transform="translate(63.623047 0.765625)"/>
       <use xlink:href="#DejaVuSans-30" transform="translate(128.203125 39.046875) scale(0.7)"/>
      </g>
     </g>
    </g>
    <g id="xtick_10">
     <g id="line2d_34">
      <g>
       <use xlink:href="#m9df5e8ca27" x="919.32762" y="226.677333" style="stroke: #000000; stroke-width: 0.8"/>
      </g>
     </g>
     <g id="text_22">
      <!-- $\mathdefault{10^{2}}$ -->
      <g transform="translate(910.52762 241.275771) scale(0.1 -0.1)">
       <use xlink:href="#DejaVuSans-31" transform="translate(0 0.765625)"/>
       <use xlink:href="#DejaVuSans-30" transform="translate(63.623047 0.765625)"/>
       <use xlink:href="#DejaVuSans-32" transform="translate(128.203125 39.046875) scale(0.7)"/>
      </g>
     </g>
    </g>
    <g id="text_23">
     <!-- $\gamma$ -->
     <g transform="translate(865.18258 254.933583) scale(0.1 -0.1)">
      <use xlink:href="#DejaVuSans-Oblique-3b3" transform="translate(0 0.3125)"/>
     </g>
    </g>
   </g>
   <g id="matplotlib.axis_10">
    <g id="ytick_13">
     <g id="line2d_35">
      <g>
       <use xlink:href="#mb4aa66652f" x="781.006872" y="196.563828" style="stroke: #000000; stroke-width: 0.8"/>
      </g>
     </g>
    </g>
    <g id="ytick_14">
     <g id="line2d_36">
      <g>
       <use xlink:href="#mb4aa66652f" x="781.006872" y="143.556973" style="stroke: #000000; stroke-width: 0.8"/>
      </g>
     </g>
    </g>
    <g id="ytick_15">
     <g id="line2d_37">
      <g>
       <use xlink:href="#mb4aa66652f" x="781.006872" y="90.550119" style="stroke: #000000; stroke-width: 0.8"/>
      </g>
     </g>
    </g>
   </g>
   <g id="line2d_38">
    <path d="M -1 90.553012 
L 670.757799 90.55307 
L 687.700362 90.559197 
L 706.267773 90.580726 
L 723.210337 90.642353 
L 741.777748 90.853028 
L 755.908587 91.269958 
L 763.156883 91.649475 
L 768.068008 92.002172 
L 771.787158 92.334721 
L 774.78139 92.651425 
L 777.287722 92.955208 
L 785.165566 94.193047 
L 790.354568 95.305831 
L 794.230286 96.333905 
L 797.324986 97.298143 
L 799.901259 98.211348 
L 802.108129 99.082231 
L 808.361125 102.063728 
L 812.797697 104.726543 
L 816.238969 107.174409 
L 819.050693 109.471055 
L 821.427972 111.661015 
L 823.487264 113.77843 
L 831.365108 124.825955 
L 836.55411 129.308341 
L 840.429828 131.674168 
L 843.524528 133.462204 
L 846.100801 134.922461 
L 848.307671 136.171392 
L 858.997239 142.461502 
L 869.686806 149.342164 
L 880.376374 156.715738 
L 891.065941 164.413041 
L 901.755508 172.330842 
L 912.445076 180.450729 
L 923.134643 188.861519 
L 933.824211 197.834852 
L 944.513778 208.147897 
L 955.203346 223.067255 
" clip-path="url(#p4d65c3ed66)" style="fill: none; stroke: #440154; stroke-width: 1.5; stroke-linecap: square"/>
   </g>
   <g id="line2d_39">
    <path d="M -1 90.55431 
L 670.757799 90.554394 
L 687.700362 90.563136 
L 706.267773 90.593036 
L 723.210337 90.674304 
L 741.777748 90.93088 
L 755.908587 91.407353 
L 763.156883 91.829996 
L 768.068008 92.220651 
L 771.787158 92.586301 
L 774.78139 92.931498 
L 777.287722 93.262528 
L 785.165566 94.61701 
L 790.354568 95.836094 
L 794.230286 96.961265 
L 797.324986 98.011563 
L 799.901259 99.003274 
L 802.108129 99.94398 
L 808.361125 103.154944 
L 812.797697 106.020608 
L 816.238969 108.661026 
L 819.050693 111.143112 
L 821.427972 113.513772 
L 823.487264 115.813229 
L 831.365108 128.191129 
L 836.55411 133.89339 
L 840.429828 137.974952 
L 843.524528 140.797714 
L 846.100801 142.90794 
L 848.307671 144.689838 
L 858.997239 153.263886 
L 869.686806 162.310456 
L 880.376374 172.109782 
L 891.065941 181.614949 
L 901.755508 190.763797 
L 912.445076 198.897624 
L 923.134643 206.178221 
L 933.824211 212.84645 
L 944.513778 218.595131 
L 955.203346 223.067255 
" clip-path="url(#p4d65c3ed66)" style="fill: none; stroke: #21918c; stroke-width: 1.5; stroke-linecap: square"/>
   </g>
   <g id="line2d_40">
    <path d="M -1 90.552668 
L 670.757799 90.55272 
L 687.700362 90.558287 
L 706.267773 90.580546 
L 723.210337 90.65724 
L 741.777748 90.9279 
L 755.908587 91.107199 
L 763.156883 91.328148 
L 768.068008 91.564056 
L 771.787158 91.805763 
L 774.78139 92.049166 
L 777.287722 92.292143 
L 785.165566 93.346558 
L 790.354568 94.346958 
L 794.230286 95.29511 
L 797.324986 96.197155 
L 799.901259 97.058981 
L 802.108129 97.885601 
L 808.361125 100.216982 
L 812.797697 102.24915 
L 816.238969 104.067472 
L 819.050693 105.712851 
L 821.427972 107.215657 
L 823.487264 108.541628 
L 831.365108 114.117413 
L 836.55411 118.200702 
L 840.429828 121.430559 
L 843.524528 124.11614 
L 846.100801 126.429164 
L 848.307671 128.474215 
L 858.997239 137.411183 
L 869.686806 144.547276 
L 880.376374 152.194202 
L 891.065941 160.236214 
L 901.755508 168.742407 
L 912.445076 178.090806 
L 923.134643 187.334471 
L 933.824211 196.406381 
L 944.513778 206.974857 
L 955.203346 223.067255 
" clip-path="url(#p4d65c3ed66)" style="fill: none; stroke: #fde725; stroke-width: 1.5; stroke-linecap: square"/>
   </g>
   <g id="patch_23">
    <path d="M 781.006872 226.677333 
L 781.006872 89.3488 
" style="fill: none; stroke: #000000; stroke-width: 0.8; stroke-linejoin: miter; stroke-linecap: square"/>
   </g>
   <g id="patch_24">
    <path d="M 955.358289 226.677333 
L 955.358289 89.3488 
" style="fill: none; stroke: #000000; stroke-width: 0.8; stroke-linejoin: miter; stroke-linecap: square"/>
   </g>
   <g id="patch_25">
    <path d="M 781.006872 226.677333 
L 955.358289 226.677333 
" style="fill: none; stroke: #000000; stroke-width: 0.8; stroke-linejoin: miter; stroke-linecap: square"/>
   </g>
   <g id="patch_26">
    <path d="M 781.006872 89.3488 
L 955.358289 89.3488 
" style="fill: none; stroke: #000000; stroke-width: 0.8; stroke-linejoin: miter; stroke-linecap: square"/>
   </g>
   <g id="text_24">
    <!-- $\gamma_{1-5} = \gamma , \;\; \gamma_{6} = 0$ -->
    <g transform="translate(819.10258 83.3488) scale(0.12 -0.12)">
     <use xlink:href="#DejaVuSans-Oblique-3b3" transform="translate(0 0.78125)"/>
     <use xlink:href="#DejaVuSans-31" transform="translate(59.179688 -15.625) scale(0.7)"/>
     <use xlink:href="#DejaVuSans-2212" transform="translate(117.353516 -15.625) scale(0.7)"/>
     <use xlink:href="#DejaVuSans-35" transform="translate(189.643555 -15.625) scale(0.7)"/>
     <use xlink:href="#DejaVuSans-3d" transform="translate(256.396484 0.78125)"/>
     <use xlink:href="#DejaVuSans-Oblique-3b3" transform="translate(359.667969 0.78125)"/>
     <use xlink:href="#DejaVuSans-2c" transform="translate(418.847656 0.78125)"/>
     <use xlink:href="#DejaVuSans-Oblique-3b3" transform="translate(524.235459 0.78125)"/>
     <use xlink:href="#DejaVuSans-36" transform="translate(583.415146 -15.625) scale(0.7)"/>
     <use xlink:href="#DejaVuSans-3d" transform="translate(650.168076 0.78125)"/>
     <use xlink:href="#DejaVuSans-30" transform="translate(753.439561 0.78125)"/>
    </g>
   </g>
  </g>
  <g id="axes_6">
   <g id="patch_27">
    <path d="M 967.436769 226.677333 
L 1141.788186 226.677333 
L 1141.788186 89.3488 
L 967.436769 89.3488 
z
" style="fill: #ffffff"/>
   </g>
   <g id="matplotlib.axis_11">
    <g id="xtick_11">
     <g id="line2d_41">
      <g>
       <use xlink:href="#m9df5e8ca27" x="1034.737569" y="226.677333" style="stroke: #000000; stroke-width: 0.8"/>
      </g>
     </g>
     <g id="text_25">
      <!-- $\mathdefault{10^{0}}$ -->
      <g transform="translate(1025.937569 241.275771) scale(0.1 -0.1)">
       <use xlink:href="#DejaVuSans-31" transform="translate(0 0.765625)"/>
       <use xlink:href="#DejaVuSans-30" transform="translate(63.623047 0.765625)"/>
       <use xlink:href="#DejaVuSans-30" transform="translate(128.203125 39.046875) scale(0.7)"/>
      </g>
     </g>
    </g>
    <g id="xtick_12">
     <g id="line2d_42">
      <g>
       <use xlink:href="#m9df5e8ca27" x="1105.757518" y="226.677333" style="stroke: #000000; stroke-width: 0.8"/>
      </g>
     </g>
     <g id="text_26">
      <!-- $\mathdefault{10^{2}}$ -->
      <g transform="translate(1096.957518 241.275771) scale(0.1 -0.1)">
       <use xlink:href="#DejaVuSans-31" transform="translate(0 0.765625)"/>
       <use xlink:href="#DejaVuSans-30" transform="translate(63.623047 0.765625)"/>
       <use xlink:href="#DejaVuSans-32" transform="translate(128.203125 39.046875) scale(0.7)"/>
      </g>
     </g>
    </g>
    <g id="text_27">
     <!-- $\gamma$ -->
     <g transform="translate(1051.612478 254.933583) scale(0.1 -0.1)">
      <use xlink:href="#DejaVuSans-Oblique-3b3" transform="translate(0 0.3125)"/>
     </g>
    </g>
   </g>
   <g id="matplotlib.axis_12">
    <g id="ytick_16">
     <g id="line2d_43">
      <g>
       <use xlink:href="#mb4aa66652f" x="967.436769" y="196.563828" style="stroke: #000000; stroke-width: 0.8"/>
      </g>
     </g>
    </g>
    <g id="ytick_17">
     <g id="line2d_44">
      <g>
       <use xlink:href="#mb4aa66652f" x="967.436769" y="143.556973" style="stroke: #000000; stroke-width: 0.8"/>
      </g>
     </g>
    </g>
    <g id="ytick_18">
     <g id="line2d_45">
      <g>
       <use xlink:href="#mb4aa66652f" x="967.436769" y="90.550119" style="stroke: #000000; stroke-width: 0.8"/>
      </g>
     </g>
    </g>
   </g>
   <g id="line2d_46">
    <path d="M -1 90.554627 
L 857.187696 90.554743 
L 874.13026 90.564219 
L 892.697671 90.597402 
L 909.640234 90.692293 
L 928.207645 91.018758 
L 942.338485 91.681134 
L 949.58678 92.3021 
L 954.497905 92.891753 
L 958.217055 93.456608 
L 961.211287 94.000922 
L 963.71762 94.527677 
L 971.595463 96.703366 
L 976.784466 98.675977 
L 980.660183 100.497252 
L 983.754884 102.197823 
L 986.331156 103.798599 
L 988.538027 105.314979 
L 994.791023 110.427154 
L 999.227594 114.878449 
L 1002.668866 118.649722 
L 1005.48059 121.696591 
L 1007.857869 124.391767 
L 1009.917162 126.847663 
L 1017.795005 137.234651 
L 1022.984008 144.179645 
L 1026.859725 148.483267 
L 1029.954426 151.293699 
L 1032.530698 153.339727 
L 1034.737569 154.957214 
L 1045.427136 162.125307 
L 1056.116704 169.24902 
L 1066.806271 176.638162 
L 1077.495838 184.210089 
L 1088.185406 191.824479 
L 1098.874973 199.321135 
L 1109.564541 206.501173 
L 1120.254108 213.081329 
L 1130.943676 218.702465 
L 1141.633243 223.067255 
" clip-path="url(#pb042363e1c)" style="fill: none; stroke: #440154; stroke-width: 1.5; stroke-linecap: square"/>
   </g>
   <g id="line2d_47">
    <path d="M -1 90.555799 
L 857.187696 90.555943 
L 874.13026 90.567756 
L 892.697671 90.608528 
L 909.640234 90.720992 
L 928.207645 91.087955 
L 942.338485 91.800652 
L 949.58678 92.45627 
L 954.497905 93.075509 
L 958.217055 93.665344 
L 961.211287 94.23034 
L 963.71762 94.776161 
L 971.595463 97.026953 
L 976.784466 99.059011 
L 980.660183 100.923638 
L 983.754884 102.652142 
L 986.331156 104.265473 
L 988.538027 105.780347 
L 994.791023 110.795154 
L 999.227594 115.042447 
L 1002.668866 118.751195 
L 1005.48059 121.980654 
L 1007.857869 124.213003 
L 1009.917162 126.203597 
L 1017.795005 134.117001 
L 1022.984008 139.49958 
L 1026.859725 143.52661 
L 1029.954426 146.790458 
L 1032.530698 149.678828 
L 1034.737569 152.299803 
L 1045.427136 166.901235 
L 1056.116704 185.99669 
L 1066.806271 214.731278 
L 1077.495838 223.630564 
L 1088.185406 225.580285 
L 1098.874973 224.547294 
L 1109.564541 223.755176 
L 1120.254108 223.358732 
L 1130.943676 223.157455 
L 1141.633243 223.067255 
" clip-path="url(#pb042363e1c)" style="fill: none; stroke: #21918c; stroke-width: 1.5; stroke-linecap: square"/>
   </g>
   <g id="line2d_48">
    <path d="M -1 90.553986 
L 857.187696 90.554086 
L 874.13026 90.562381 
L 892.697671 90.593974 
L 909.640234 90.696402 
L 928.207645 91.036719 
L 942.338485 91.402483 
L 949.58678 91.803987 
L 954.497905 92.215417 
L 958.217055 92.627979 
L 961.211287 93.037791 
L 963.71762 93.442941 
L 971.595463 95.171616 
L 976.784466 96.780399 
L 980.660183 98.282284 
L 983.754884 99.69223 
L 986.331156 101.023144 
L 988.538027 102.28567 
L 994.791023 106.544356 
L 999.227594 110.19759 
L 1002.668866 113.161174 
L 1005.48059 115.641281 
L 1007.857869 117.86267 
L 1009.917162 119.877771 
L 1017.795005 128.012611 
L 1022.984008 133.837128 
L 1026.859725 137.60434 
L 1029.954426 139.400389 
L 1032.530698 140.990691 
L 1034.737569 142.413886 
L 1045.427136 149.978144 
L 1056.116704 158.627 
L 1066.806271 169.070375 
L 1077.495838 185.631465 
L 1088.185406 203.936209 
L 1098.874973 209.853173 
L 1109.564541 214.947634 
L 1120.254108 218.843718 
L 1130.943676 221.471847 
L 1141.633243 223.067255 
" clip-path="url(#pb042363e1c)" style="fill: none; stroke: #fde725; stroke-width: 1.5; stroke-linecap: square"/>
   </g>
   <g id="patch_28">
    <path d="M 967.436769 226.677333 
L 967.436769 89.3488 
" style="fill: none; stroke: #000000; stroke-width: 0.8; stroke-linejoin: miter; stroke-linecap: square"/>
   </g>
   <g id="patch_29">
    <path d="M 1141.788186 226.677333 
L 1141.788186 89.3488 
" style="fill: none; stroke: #000000; stroke-width: 0.8; stroke-linejoin: miter; stroke-linecap: square"/>
   </g>
   <g id="patch_30">
    <path d="M 967.436769 226.677333 
L 1141.788186 226.677333 
" style="fill: none; stroke: #000000; stroke-width: 0.8; stroke-linejoin: miter; stroke-linecap: square"/>
   </g>
   <g id="patch_31">
    <path d="M 967.436769 89.3488 
L 1141.788186 89.3488 
" style="fill: none; stroke: #000000; stroke-width: 0.8; stroke-linejoin: miter; stroke-linecap: square"/>
   </g>
   <g id="text_28">
    <!-- $\gamma_{1-6} = \gamma$ -->
    <g transform="translate(1029.472478 83.3488) scale(0.12 -0.12)">
     <use xlink:href="#DejaVuSans-Oblique-3b3" transform="translate(0 0.3125)"/>
     <use xlink:href="#DejaVuSans-31" transform="translate(59.179688 -16.09375) scale(0.7)"/>
     <use xlink:href="#DejaVuSans-2212" transform="translate(117.353516 -16.09375) scale(0.7)"/>
     <use xlink:href="#DejaVuSans-36" transform="translate(189.643555 -16.09375) scale(0.7)"/>
     <use xlink:href="#DejaVuSans-3d" transform="translate(256.396484 0.3125)"/>
     <use xlink:href="#DejaVuSans-Oblique-3b3" transform="translate(359.667969 0.3125)"/>
    </g>
   </g>
   <g id="legend_1">
    <g id="patch_32">
     <path d="M 1075.788186 141.444113 
L 1134.788186 141.444113 
Q 1136.788186 141.444113 1136.788186 139.444113 
L 1136.788186 96.3488 
Q 1136.788186 94.3488 1134.788186 94.3488 
L 1075.788186 94.3488 
Q 1073.788186 94.3488 1073.788186 96.3488 
L 1073.788186 139.444113 
Q 1073.788186 141.444113 1075.788186 141.444113 
z
" style="fill: #ffffff; opacity: 0.8; stroke: #cccccc; stroke-linejoin: miter"/>
    </g>
    <g id="line2d_49">
     <path d="M 1077.788186 102.447238 
L 1087.788186 102.447238 
L 1097.788186 102.447238 
" style="fill: none; stroke: #440154; stroke-width: 1.5; stroke-linecap: square"/>
    </g>
    <g id="text_29">
     <!-- $p = 1$ -->
     <g transform="translate(1105.788186 105.947238) scale(0.1 -0.1)">
      <defs>
       <path id="DejaVuSans-Oblique-70" d="M 3175 2156 
Q 3175 2616 2975 2859 
Q 2775 3103 2400 3103 
Q 2144 3103 1911 2972 
Q 1678 2841 1497 2591 
Q 1319 2344 1212 1994 
Q 1106 1644 1106 1300 
Q 1106 863 1306 627 
Q 1506 391 1875 391 
Q 2147 391 2380 519 
Q 2613 647 2778 891 
Q 2956 1147 3065 1494 
Q 3175 1841 3175 2156 
z
M 1394 2969 
Q 1625 3272 1939 3428 
Q 2253 3584 2638 3584 
Q 3175 3584 3472 3232 
Q 3769 2881 3769 2247 
Q 3769 1728 3584 1258 
Q 3400 788 3053 416 
Q 2822 169 2531 39 
Q 2241 -91 1919 -91 
Q 1547 -91 1294 64 
Q 1041 219 916 525 
L 556 -1331 
L -19 -1331 
L 922 3500 
L 1497 3500 
L 1394 2969 
z
" transform="scale(0.015625)"/>
      </defs>
      <use xlink:href="#DejaVuSans-Oblique-70" transform="translate(0 0.09375)"/>
      <use xlink:href="#DejaVuSans-3d" transform="translate(82.958984 0.09375)"/>
      <use xlink:href="#DejaVuSans-31" transform="translate(186.230469 0.09375)"/>
     </g>
    </g>
    <g id="line2d_50">
     <path d="M 1077.788186 117.145675 
L 1087.788186 117.145675 
L 1097.788186 117.145675 
" style="fill: none; stroke: #21918c; stroke-width: 1.5; stroke-linecap: square"/>
    </g>
    <g id="text_30">
     <!-- $p = 2$ -->
     <g transform="translate(1105.788186 120.645675) scale(0.1 -0.1)">
      <use xlink:href="#DejaVuSans-Oblique-70" transform="translate(0 0.78125)"/>
      <use xlink:href="#DejaVuSans-3d" transform="translate(82.958984 0.78125)"/>
      <use xlink:href="#DejaVuSans-32" transform="translate(186.230469 0.78125)"/>
     </g>
    </g>
    <g id="line2d_51">
     <path d="M 1077.788186 131.844113 
L 1087.788186 131.844113 
L 1097.788186 131.844113 
" style="fill: none; stroke: #fde725; stroke-width: 1.5; stroke-linecap: square"/>
    </g>
    <g id="text_31">
     <!-- $p = \infty$ -->
     <g transform="translate(1105.788186 135.344113) scale(0.1 -0.1)">
      <defs>
       <path id="DejaVuSans-221e" d="M 2916 1091 
Q 2819 1203 2666 1466 
Q 2456 1091 2272 925 
Q 2041 725 1681 725 
Q 1259 725 981 1041 
Q 688 1372 688 1919 
Q 688 2444 981 2800 
Q 1244 3116 1688 3116 
Q 1916 3116 2084 3022 
Q 2281 2919 2416 2741 
Q 2541 2581 2666 2366 
Q 2875 2741 3059 2906 
Q 3291 3106 3650 3106 
Q 4072 3106 4350 2791 
Q 4644 2459 4644 1913 
Q 4644 1388 4350 1031 
Q 4088 716 3644 716 
Q 3416 716 3247 809 
Q 3078 894 2916 1091 
z
M 1647 1134 
Q 2163 1134 2472 1884 
Q 2075 2703 1647 2703 
Q 1334 2703 1175 2478 
Q 1003 2238 1003 1919 
Q 1003 1569 1175 1353 
Q 1350 1134 1647 1134 
z
M 3684 2697 
Q 3219 2697 2859 1947 
Q 3253 1128 3684 1128 
Q 3997 1128 4156 1353 
Q 4328 1594 4328 1913 
Q 4328 2263 4156 2478 
Q 3981 2697 3684 2697 
z
" transform="scale(0.015625)"/>
      </defs>
      <use xlink:href="#DejaVuSans-Oblique-70"/>
      <use xlink:href="#DejaVuSans-3d" transform="translate(82.958984 0)"/>
      <use xlink:href="#DejaVuSans-221e" transform="translate(186.230469 0)"/>
     </g>
    </g>
   </g>
  </g>
  <g id="text_32">
   <!-- $\frac{\| R(\gamma) \|_p - \| R(\gamma=\infty) \|_p + 10^{-5} }{\| R(\gamma=0) \|_p}$  (on a log-scaled y-axis) -->
   <g transform="translate(347.94 32.64) scale(0.21 -0.21)">
    <defs>
     <path id="DejaVuSans-7c" d="M 1344 4891 
L 1344 -1509 
L 813 -1509 
L 813 4891 
L 1344 4891 
z
" transform="scale(0.015625)"/>
     <path id="DejaVuSans-Oblique-52" d="M 1613 4147 
L 1294 2491 
L 2106 2491 
Q 2584 2491 2879 2755 
Q 3175 3019 3175 3444 
Q 3175 3784 2976 3965 
Q 2778 4147 2406 4147 
L 1613 4147 
z
M 2772 2241 
Q 2972 2194 3105 2009 
Q 3238 1825 3413 1275 
L 3809 0 
L 3144 0 
L 2778 1197 
Q 2638 1659 2453 1815 
Q 2269 1972 1888 1972 
L 1191 1972 
L 806 0 
L 172 0 
L 1081 4666 
L 2503 4666 
Q 3150 4666 3495 4373 
Q 3841 4081 3841 3531 
Q 3841 3044 3547 2687 
Q 3253 2331 2772 2241 
z
" transform="scale(0.015625)"/>
     <path id="DejaVuSans-2b" d="M 2944 4013 
L 2944 2272 
L 4684 2272 
L 4684 1741 
L 2944 1741 
L 2944 0 
L 2419 0 
L 2419 1741 
L 678 1741 
L 678 2272 
L 2419 2272 
L 2419 4013 
L 2944 4013 
z
" transform="scale(0.015625)"/>
     <path id="DejaVuSans-20" transform="scale(0.015625)"/>
     <path id="DejaVuSans-6f" d="M 1959 3097 
Q 1497 3097 1228 2736 
Q 959 2375 959 1747 
Q 959 1119 1226 758 
Q 1494 397 1959 397 
Q 2419 397 2687 759 
Q 2956 1122 2956 1747 
Q 2956 2369 2687 2733 
Q 2419 3097 1959 3097 
z
M 1959 3584 
Q 2709 3584 3137 3096 
Q 3566 2609 3566 1747 
Q 3566 888 3137 398 
Q 2709 -91 1959 -91 
Q 1206 -91 779 398 
Q 353 888 353 1747 
Q 353 2609 779 3096 
Q 1206 3584 1959 3584 
z
" transform="scale(0.015625)"/>
     <path id="DejaVuSans-6e" d="M 3513 2113 
L 3513 0 
L 2938 0 
L 2938 2094 
Q 2938 2591 2744 2837 
Q 2550 3084 2163 3084 
Q 1697 3084 1428 2787 
Q 1159 2491 1159 1978 
L 1159 0 
L 581 0 
L 581 3500 
L 1159 3500 
L 1159 2956 
Q 1366 3272 1645 3428 
Q 1925 3584 2291 3584 
Q 2894 3584 3203 3211 
Q 3513 2838 3513 2113 
z
" transform="scale(0.015625)"/>
     <path id="DejaVuSans-61" d="M 2194 1759 
Q 1497 1759 1228 1600 
Q 959 1441 959 1056 
Q 959 750 1161 570 
Q 1363 391 1709 391 
Q 2188 391 2477 730 
Q 2766 1069 2766 1631 
L 2766 1759 
L 2194 1759 
z
M 3341 1997 
L 3341 0 
L 2766 0 
L 2766 531 
Q 2569 213 2275 61 
Q 1981 -91 1556 -91 
Q 1019 -91 701 211 
Q 384 513 384 1019 
Q 384 1609 779 1909 
Q 1175 2209 1959 2209 
L 2766 2209 
L 2766 2266 
Q 2766 2663 2505 2880 
Q 2244 3097 1772 3097 
Q 1472 3097 1187 3025 
Q 903 2953 641 2809 
L 641 3341 
Q 956 3463 1253 3523 
Q 1550 3584 1831 3584 
Q 2591 3584 2966 3190 
Q 3341 2797 3341 1997 
z
" transform="scale(0.015625)"/>
     <path id="DejaVuSans-6c" d="M 603 4863 
L 1178 4863 
L 1178 0 
L 603 0 
L 603 4863 
z
" transform="scale(0.015625)"/>
     <path id="DejaVuSans-67" d="M 2906 1791 
Q 2906 2416 2648 2759 
Q 2391 3103 1925 3103 
Q 1463 3103 1205 2759 
Q 947 2416 947 1791 
Q 947 1169 1205 825 
Q 1463 481 1925 481 
Q 2391 481 2648 825 
Q 2906 1169 2906 1791 
z
M 3481 434 
Q 3481 -459 3084 -895 
Q 2688 -1331 1869 -1331 
Q 1566 -1331 1297 -1286 
Q 1028 -1241 775 -1147 
L 775 -588 
Q 1028 -725 1275 -790 
Q 1522 -856 1778 -856 
Q 2344 -856 2625 -561 
Q 2906 -266 2906 331 
L 2906 616 
Q 2728 306 2450 153 
Q 2172 0 1784 0 
Q 1141 0 747 490 
Q 353 981 353 1791 
Q 353 2603 747 3093 
Q 1141 3584 1784 3584 
Q 2172 3584 2450 3431 
Q 2728 3278 2906 2969 
L 2906 3500 
L 3481 3500 
L 3481 434 
z
" transform="scale(0.015625)"/>
     <path id="DejaVuSans-2d" d="M 313 2009 
L 1997 2009 
L 1997 1497 
L 313 1497 
L 313 2009 
z
" transform="scale(0.015625)"/>
     <path id="DejaVuSans-73" d="M 2834 3397 
L 2834 2853 
Q 2591 2978 2328 3040 
Q 2066 3103 1784 3103 
Q 1356 3103 1142 2972 
Q 928 2841 928 2578 
Q 928 2378 1081 2264 
Q 1234 2150 1697 2047 
L 1894 2003 
Q 2506 1872 2764 1633 
Q 3022 1394 3022 966 
Q 3022 478 2636 193 
Q 2250 -91 1575 -91 
Q 1294 -91 989 -36 
Q 684 19 347 128 
L 347 722 
Q 666 556 975 473 
Q 1284 391 1588 391 
Q 1994 391 2212 530 
Q 2431 669 2431 922 
Q 2431 1156 2273 1281 
Q 2116 1406 1581 1522 
L 1381 1569 
Q 847 1681 609 1914 
Q 372 2147 372 2553 
Q 372 3047 722 3315 
Q 1072 3584 1716 3584 
Q 2034 3584 2315 3537 
Q 2597 3491 2834 3397 
z
" transform="scale(0.015625)"/>
     <path id="DejaVuSans-63" d="M 3122 3366 
L 3122 2828 
Q 2878 2963 2633 3030 
Q 2388 3097 2138 3097 
Q 1578 3097 1268 2742 
Q 959 2388 959 1747 
Q 959 1106 1268 751 
Q 1578 397 2138 397 
Q 2388 397 2633 464 
Q 2878 531 3122 666 
L 3122 134 
Q 2881 22 2623 -34 
Q 2366 -91 2075 -91 
Q 1284 -91 818 406 
Q 353 903 353 1747 
Q 353 2603 823 3093 
Q 1294 3584 2113 3584 
Q 2378 3584 2631 3529 
Q 2884 3475 3122 3366 
z
" transform="scale(0.015625)"/>
     <path id="DejaVuSans-65" d="M 3597 1894 
L 3597 1613 
L 953 1613 
Q 991 1019 1311 708 
Q 1631 397 2203 397 
Q 2534 397 2845 478 
Q 3156 559 3463 722 
L 3463 178 
Q 3153 47 2828 -22 
Q 2503 -91 2169 -91 
Q 1331 -91 842 396 
Q 353 884 353 1716 
Q 353 2575 817 3079 
Q 1281 3584 2069 3584 
Q 2775 3584 3186 3129 
Q 3597 2675 3597 1894 
z
M 3022 2063 
Q 3016 2534 2758 2815 
Q 2500 3097 2075 3097 
Q 1594 3097 1305 2825 
Q 1016 2553 972 2059 
L 3022 2063 
z
" transform="scale(0.015625)"/>
     <path id="DejaVuSans-64" d="M 2906 2969 
L 2906 4863 
L 3481 4863 
L 3481 0 
L 2906 0 
L 2906 525 
Q 2725 213 2448 61 
Q 2172 -91 1784 -91 
Q 1150 -91 751 415 
Q 353 922 353 1747 
Q 353 2572 751 3078 
Q 1150 3584 1784 3584 
Q 2172 3584 2448 3432 
Q 2725 3281 2906 2969 
z
M 947 1747 
Q 947 1113 1208 752 
Q 1469 391 1925 391 
Q 2381 391 2643 752 
Q 2906 1113 2906 1747 
Q 2906 2381 2643 2742 
Q 2381 3103 1925 3103 
Q 1469 3103 1208 2742 
Q 947 2381 947 1747 
z
" transform="scale(0.015625)"/>
     <path id="DejaVuSans-79" d="M 2059 -325 
Q 1816 -950 1584 -1140 
Q 1353 -1331 966 -1331 
L 506 -1331 
L 506 -850 
L 844 -850 
Q 1081 -850 1212 -737 
Q 1344 -625 1503 -206 
L 1606 56 
L 191 3500 
L 800 3500 
L 1894 763 
L 2988 3500 
L 3597 3500 
L 2059 -325 
z
" transform="scale(0.015625)"/>
     <path id="DejaVuSans-78" d="M 3513 3500 
L 2247 1797 
L 3578 0 
L 2900 0 
L 1881 1375 
L 863 0 
L 184 0 
L 1544 1831 
L 300 3500 
L 978 3500 
L 1906 2253 
L 2834 3500 
L 3513 3500 
z
" transform="scale(0.015625)"/>
     <path id="DejaVuSans-69" d="M 603 3500 
L 1178 3500 
L 1178 0 
L 603 0 
L 603 3500 
z
M 603 4863 
L 1178 4863 
L 1178 4134 
L 603 4134 
L 603 4863 
z
" transform="scale(0.015625)"/>
    </defs>
    <use xlink:href="#DejaVuSans-7c" transform="translate(0 65.479063) scale(0.7)"/>
    <use xlink:href="#DejaVuSans-Oblique-52" transform="translate(23.583984 65.479063) scale(0.7)"/>
    <use xlink:href="#DejaVuSans-28" transform="translate(72.22168 65.479063) scale(0.7)"/>
    <use xlink:href="#DejaVuSans-Oblique-3b3" transform="translate(99.53125 65.479063) scale(0.7)"/>
    <use xlink:href="#DejaVuSans-29" transform="translate(140.957031 65.479063) scale(0.7)"/>
    <use xlink:href="#DejaVuSans-7c" transform="translate(168.266602 65.479063) scale(0.7)"/>
    <use xlink:href="#DejaVuSans-Oblique-70" transform="translate(192.520508 53.994688) scale(0.49)"/>
    <use xlink:href="#DejaVuSans-2212" transform="translate(239.175781 65.479063) scale(0.7)"/>
    <use xlink:href="#DejaVuSans-7c" transform="translate(311.46582 65.479063) scale(0.7)"/>
    <use xlink:href="#DejaVuSans-Oblique-52" transform="translate(335.049805 65.479063) scale(0.7)"/>
    <use xlink:href="#DejaVuSans-28" transform="translate(383.6875 65.479063) scale(0.7)"/>
    <use xlink:href="#DejaVuSans-Oblique-3b3" transform="translate(410.99707 65.479063) scale(0.7)"/>
    <use xlink:href="#DejaVuSans-3d" transform="translate(466.060547 65.479063) scale(0.7)"/>
    <use xlink:href="#DejaVuSans-221e" transform="translate(538.350586 65.479063) scale(0.7)"/>
    <use xlink:href="#DejaVuSans-29" transform="translate(596.661133 65.479063) scale(0.7)"/>
    <use xlink:href="#DejaVuSans-7c" transform="translate(623.970703 65.479063) scale(0.7)"/>
    <use xlink:href="#DejaVuSans-Oblique-70" transform="translate(648.224609 53.994688) scale(0.49)"/>
    <use xlink:href="#DejaVuSans-2b" transform="translate(694.879883 65.479063) scale(0.7)"/>
    <use xlink:href="#DejaVuSans-31" transform="translate(767.169922 65.479063) scale(0.7)"/>
    <use xlink:href="#DejaVuSans-30" transform="translate(811.706055 65.479063) scale(0.7)"/>
    <use xlink:href="#DejaVuSans-2212" transform="translate(856.912109 92.275938) scale(0.49)"/>
    <use xlink:href="#DejaVuSans-35" transform="translate(897.96875 92.275938) scale(0.49)"/>
    <use xlink:href="#DejaVuSans-7c" transform="translate(288 -40.941094) scale(0.7)"/>
    <use xlink:href="#DejaVuSans-Oblique-52" transform="translate(311.583984 -40.941094) scale(0.7)"/>
    <use xlink:href="#DejaVuSans-28" transform="translate(360.22168 -40.941094) scale(0.7)"/>
    <use xlink:href="#DejaVuSans-Oblique-3b3" transform="translate(387.53125 -40.941094) scale(0.7)"/>
    <use xlink:href="#DejaVuSans-3d" transform="translate(442.594727 -40.941094) scale(0.7)"/>
    <use xlink:href="#DejaVuSans-30" transform="translate(514.884766 -40.941094) scale(0.7)"/>
    <use xlink:href="#DejaVuSans-29" transform="translate(559.420898 -40.941094) scale(0.7)"/>
    <use xlink:href="#DejaVuSans-7c" transform="translate(586.730469 -40.941094) scale(0.7)"/>
    <use xlink:href="#DejaVuSans-Oblique-70" transform="translate(610.984375 -52.425469) scale(0.49)"/>
    <use xlink:href="#DejaVuSans-20" transform="translate(943.558105 0.007344)"/>
    <use xlink:href="#DejaVuSans-20" transform="translate(975.345215 0.007344)"/>
    <use xlink:href="#DejaVuSans-28" transform="translate(1007.132324 0.007344)"/>
    <use xlink:href="#DejaVuSans-6f" transform="translate(1046.145996 0.007344)"/>
    <use xlink:href="#DejaVuSans-6e" transform="translate(1107.327637 0.007344)"/>
    <use xlink:href="#DejaVuSans-20" transform="translate(1170.706543 0.007344)"/>
    <use xlink:href="#DejaVuSans-61" transform="translate(1202.493652 0.007344)"/>
    <use xlink:href="#DejaVuSans-20" transform="translate(1263.772949 0.007344)"/>
    <use xlink:href="#DejaVuSans-6c" transform="translate(1295.560059 0.007344)"/>
    <use xlink:href="#DejaVuSans-6f" transform="translate(1323.343262 0.007344)"/>
    <use xlink:href="#DejaVuSans-67" transform="translate(1384.524902 0.007344)"/>
    <use xlink:href="#DejaVuSans-2d" transform="translate(1448.001465 0.007344)"/>
    <use xlink:href="#DejaVuSans-73" transform="translate(1484.085449 0.007344)"/>
    <use xlink:href="#DejaVuSans-63" transform="translate(1536.185059 0.007344)"/>
    <use xlink:href="#DejaVuSans-61" transform="translate(1591.165527 0.007344)"/>
    <use xlink:href="#DejaVuSans-6c" transform="translate(1652.444824 0.007344)"/>
    <use xlink:href="#DejaVuSans-65" transform="translate(1680.228027 0.007344)"/>
    <use xlink:href="#DejaVuSans-64" transform="translate(1741.751465 0.007344)"/>
    <use xlink:href="#DejaVuSans-20" transform="translate(1805.228027 0.007344)"/>
    <use xlink:href="#DejaVuSans-79" transform="translate(1837.015137 0.007344)"/>
    <use xlink:href="#DejaVuSans-2d" transform="translate(1896.194824 0.007344)"/>
    <use xlink:href="#DejaVuSans-61" transform="translate(1932.278809 0.007344)"/>
    <use xlink:href="#DejaVuSans-78" transform="translate(1993.558105 0.007344)"/>
    <use xlink:href="#DejaVuSans-69" transform="translate(2052.737793 0.007344)"/>
    <use xlink:href="#DejaVuSans-73" transform="translate(2080.520996 0.007344)"/>
    <use xlink:href="#DejaVuSans-29" transform="translate(2132.620605 0.007344)"/>
    <path d="M 0 18.804219 
L 0 25.054219 
L 931.058105 25.054219 
L 931.058105 18.804219 
L 0 18.804219 
z
"/>
   </g>
  </g>
 </g>
 <defs>
  <clipPath id="pc2d2873352">
   <rect x="35.287282" y="89.3488" width="174.351417" height="137.328533"/>
  </clipPath>
  <clipPath id="p5dc97e80f0">
   <rect x="221.71718" y="89.3488" width="174.351417" height="137.328533"/>
  </clipPath>
  <clipPath id="pa970574dcb">
   <rect x="408.147077" y="89.3488" width="174.351417" height="137.328533"/>
  </clipPath>
  <clipPath id="pca49549221">
   <rect x="594.576974" y="89.3488" width="174.351417" height="137.328533"/>
  </clipPath>
  <clipPath id="p4d65c3ed66">
   <rect x="781.006872" y="89.3488" width="174.351417" height="137.328533"/>
  </clipPath>
  <clipPath id="pb042363e1c">
   <rect x="967.436769" y="89.3488" width="174.351417" height="137.328533"/>
  </clipPath>
 </defs>
</svg>
