<?xml version="1.0" encoding="utf-8" standalone="no"?>
<!DOCTYPE svg PUBLIC "-//W3C//DTD SVG 1.1//EN"
  "http://www.w3.org/Graphics/SVG/1.1/DTD/svg11.dtd">
<svg xmlns:xlink="http://www.w3.org/1999/xlink" width="504.186719pt" height="347.795313pt" viewBox="0 0 504.186719 347.795313" xmlns="http://www.w3.org/2000/svg" version="1.1">
 <metadata>
  <rdf:RDF xmlns:dc="http://purl.org/dc/elements/1.1/" xmlns:cc="http://creativecommons.org/ns#" xmlns:rdf="http://www.w3.org/1999/02/22-rdf-syntax-ns#">
   <cc:Work>
    <dc:type rdf:resource="http://purl.org/dc/dcmitype/StillImage"/>
    <dc:date>2023-12-12T17:51:23.167189</dc:date>
    <dc:format>image/svg+xml</dc:format>
    <dc:creator>
     <cc:Agent>
      <dc:title>Matplotlib v3.5.1, https://matplotlib.org/</dc:title>
     </cc:Agent>
    </dc:creator>
   </cc:Work>
  </rdf:RDF>
 </metadata>
 <defs>
  <style type="text/css">*{stroke-linejoin: round; stroke-linecap: butt}</style>
 </defs>
 <g id="figure_1">
  <g id="patch_1">
   <path d="M 0 347.795313 
L 504.186719 347.795313 
L 504.186719 0 
L 0 0 
z
" style="fill: #ffffff"/>
  </g>
  <g id="axes_1">
   <g id="patch_2">
    <path d="M 55.217188 305.4 
L 445.817188 305.4 
L 445.817188 28.2 
L 55.217188 28.2 
z
" style="fill: #ffffff"/>
   </g>
   <g id="matplotlib.axis_1">
    <g id="xtick_1">
     <g id="line2d_1">
      <defs>
       <path id="m6fa307a317" d="M 0 0 
L 0 3.5 
" style="stroke: #000000; stroke-width: 0.8"/>
      </defs>
      <g>
       <use xlink:href="#m6fa307a317" x="74.470221" y="305.4" style="stroke: #000000; stroke-width: 0.8"/>
      </g>
     </g>
     <g id="text_1">
      <!-- 0.0001 -->
      <g transform="translate(56.974908 319.998438)scale(0.1 -0.1)">
       <defs>
        <path id="DejaVuSans-30" d="M 2034 4250 
Q 1547 4250 1301 3770 
Q 1056 3291 1056 2328 
Q 1056 1369 1301 889 
Q 1547 409 2034 409 
Q 2525 409 2770 889 
Q 3016 1369 3016 2328 
Q 3016 3291 2770 3770 
Q 2525 4250 2034 4250 
z
M 2034 4750 
Q 2819 4750 3233 4129 
Q 3647 3509 3647 2328 
Q 3647 1150 3233 529 
Q 2819 -91 2034 -91 
Q 1250 -91 836 529 
Q 422 1150 422 2328 
Q 422 3509 836 4129 
Q 1250 4750 2034 4750 
z
" transform="scale(0.015625)"/>
        <path id="DejaVuSans-2e" d="M 684 794 
L 1344 794 
L 1344 0 
L 684 0 
L 684 794 
z
" transform="scale(0.015625)"/>
        <path id="DejaVuSans-31" d="M 794 531 
L 1825 531 
L 1825 4091 
L 703 3866 
L 703 4441 
L 1819 4666 
L 2450 4666 
L 2450 531 
L 3481 531 
L 3481 0 
L 794 0 
L 794 531 
z
" transform="scale(0.015625)"/>
       </defs>
       <use xlink:href="#DejaVuSans-30"/>
       <use xlink:href="#DejaVuSans-2e" x="63.623047"/>
       <use xlink:href="#DejaVuSans-30" x="95.410156"/>
       <use xlink:href="#DejaVuSans-30" x="159.033203"/>
       <use xlink:href="#DejaVuSans-30" x="222.65625"/>
       <use xlink:href="#DejaVuSans-31" x="286.279297"/>
      </g>
     </g>
    </g>
    <g id="xtick_2">
     <g id="line2d_2">
      <g>
       <use xlink:href="#m6fa307a317" x="138.427413" y="305.4" style="stroke: #000000; stroke-width: 0.8"/>
      </g>
     </g>
     <g id="text_2">
      <!-- 0.001 -->
      <g transform="translate(124.11335 319.998438)scale(0.1 -0.1)">
       <use xlink:href="#DejaVuSans-30"/>
       <use xlink:href="#DejaVuSans-2e" x="63.623047"/>
       <use xlink:href="#DejaVuSans-30" x="95.410156"/>
       <use xlink:href="#DejaVuSans-30" x="159.033203"/>
       <use xlink:href="#DejaVuSans-31" x="222.65625"/>
      </g>
     </g>
    </g>
    <g id="xtick_3">
     <g id="line2d_3">
      <g>
       <use xlink:href="#m6fa307a317" x="202.384604" y="305.4" style="stroke: #000000; stroke-width: 0.8"/>
      </g>
     </g>
     <g id="text_3">
      <!-- 0.01 -->
      <g transform="translate(191.251792 319.998438)scale(0.1 -0.1)">
       <use xlink:href="#DejaVuSans-30"/>
       <use xlink:href="#DejaVuSans-2e" x="63.623047"/>
       <use xlink:href="#DejaVuSans-30" x="95.410156"/>
       <use xlink:href="#DejaVuSans-31" x="159.033203"/>
      </g>
     </g>
    </g>
    <g id="xtick_4">
     <g id="line2d_4">
      <g>
       <use xlink:href="#m6fa307a317" x="266.341796" y="305.4" style="stroke: #000000; stroke-width: 0.8"/>
      </g>
     </g>
     <g id="text_4">
      <!-- 0.1 -->
      <g transform="translate(258.390234 319.998438)scale(0.1 -0.1)">
       <use xlink:href="#DejaVuSans-30"/>
       <use xlink:href="#DejaVuSans-2e" x="63.623047"/>
       <use xlink:href="#DejaVuSans-31" x="95.410156"/>
      </g>
     </g>
    </g>
    <g id="xtick_5">
     <g id="line2d_5">
      <g>
       <use xlink:href="#m6fa307a317" x="296.857132" y="305.4" style="stroke: #000000; stroke-width: 0.8"/>
      </g>
     </g>
     <g id="text_5">
      <!-- 0.3 -->
      <g transform="translate(288.90557 319.998438)scale(0.1 -0.1)">
       <defs>
        <path id="DejaVuSans-33" d="M 2597 2516 
Q 3050 2419 3304 2112 
Q 3559 1806 3559 1356 
Q 3559 666 3084 287 
Q 2609 -91 1734 -91 
Q 1441 -91 1130 -33 
Q 819 25 488 141 
L 488 750 
Q 750 597 1062 519 
Q 1375 441 1716 441 
Q 2309 441 2620 675 
Q 2931 909 2931 1356 
Q 2931 1769 2642 2001 
Q 2353 2234 1838 2234 
L 1294 2234 
L 1294 2753 
L 1863 2753 
Q 2328 2753 2575 2939 
Q 2822 3125 2822 3475 
Q 2822 3834 2567 4026 
Q 2313 4219 1838 4219 
Q 1578 4219 1281 4162 
Q 984 4106 628 3988 
L 628 4550 
Q 988 4650 1302 4700 
Q 1616 4750 1894 4750 
Q 2613 4750 3031 4423 
Q 3450 4097 3450 3541 
Q 3450 3153 3228 2886 
Q 3006 2619 2597 2516 
z
" transform="scale(0.015625)"/>
       </defs>
       <use xlink:href="#DejaVuSans-30"/>
       <use xlink:href="#DejaVuSans-2e" x="63.623047"/>
       <use xlink:href="#DejaVuSans-33" x="95.410156"/>
      </g>
     </g>
    </g>
    <g id="xtick_6">
     <g id="line2d_6">
      <g>
       <use xlink:href="#m6fa307a317" x="330.298988" y="305.4" style="stroke: #000000; stroke-width: 0.8"/>
      </g>
     </g>
     <g id="text_6">
      <!-- 1 -->
      <g transform="translate(327.117738 319.998438)scale(0.1 -0.1)">
       <use xlink:href="#DejaVuSans-31"/>
      </g>
     </g>
    </g>
    <g id="xtick_7">
     <g id="line2d_7">
      <g>
       <use xlink:href="#m6fa307a317" x="349.552021" y="305.4" style="stroke: #000000; stroke-width: 0.8"/>
      </g>
     </g>
     <g id="text_7">
      <!-- 2 -->
      <g transform="translate(346.370771 319.998438)scale(0.1 -0.1)">
       <defs>
        <path id="DejaVuSans-32" d="M 1228 531 
L 3431 531 
L 3431 0 
L 469 0 
L 469 531 
Q 828 903 1448 1529 
Q 2069 2156 2228 2338 
Q 2531 2678 2651 2914 
Q 2772 3150 2772 3378 
Q 2772 3750 2511 3984 
Q 2250 4219 1831 4219 
Q 1534 4219 1204 4116 
Q 875 4013 500 3803 
L 500 4441 
Q 881 4594 1212 4672 
Q 1544 4750 1819 4750 
Q 2544 4750 2975 4387 
Q 3406 4025 3406 3419 
Q 3406 3131 3298 2873 
Q 3191 2616 2906 2266 
Q 2828 2175 2409 1742 
Q 1991 1309 1228 531 
z
" transform="scale(0.015625)"/>
       </defs>
       <use xlink:href="#DejaVuSans-32"/>
      </g>
     </g>
    </g>
    <g id="xtick_8">
     <g id="line2d_8">
      <g>
       <use xlink:href="#m6fa307a317" x="368.805055" y="305.4" style="stroke: #000000; stroke-width: 0.8"/>
      </g>
     </g>
     <g id="text_8">
      <!-- 4 -->
      <g transform="translate(365.623805 319.998438)scale(0.1 -0.1)">
       <defs>
        <path id="DejaVuSans-34" d="M 2419 4116 
L 825 1625 
L 2419 1625 
L 2419 4116 
z
M 2253 4666 
L 3047 4666 
L 3047 1625 
L 3713 1625 
L 3713 1100 
L 3047 1100 
L 3047 0 
L 2419 0 
L 2419 1100 
L 313 1100 
L 313 1709 
L 2253 4666 
z
" transform="scale(0.015625)"/>
       </defs>
       <use xlink:href="#DejaVuSans-34"/>
      </g>
     </g>
    </g>
    <g id="xtick_9">
     <g id="line2d_9">
      <g>
       <use xlink:href="#m6fa307a317" x="388.058088" y="305.4" style="stroke: #000000; stroke-width: 0.8"/>
      </g>
     </g>
     <g id="text_9">
      <!-- 8 -->
      <g transform="translate(384.876838 319.998438)scale(0.1 -0.1)">
       <defs>
        <path id="DejaVuSans-38" d="M 2034 2216 
Q 1584 2216 1326 1975 
Q 1069 1734 1069 1313 
Q 1069 891 1326 650 
Q 1584 409 2034 409 
Q 2484 409 2743 651 
Q 3003 894 3003 1313 
Q 3003 1734 2745 1975 
Q 2488 2216 2034 2216 
z
M 1403 2484 
Q 997 2584 770 2862 
Q 544 3141 544 3541 
Q 544 4100 942 4425 
Q 1341 4750 2034 4750 
Q 2731 4750 3128 4425 
Q 3525 4100 3525 3541 
Q 3525 3141 3298 2862 
Q 3072 2584 2669 2484 
Q 3125 2378 3379 2068 
Q 3634 1759 3634 1313 
Q 3634 634 3220 271 
Q 2806 -91 2034 -91 
Q 1263 -91 848 271 
Q 434 634 434 1313 
Q 434 1759 690 2068 
Q 947 2378 1403 2484 
z
M 1172 3481 
Q 1172 3119 1398 2916 
Q 1625 2713 2034 2713 
Q 2441 2713 2670 2916 
Q 2900 3119 2900 3481 
Q 2900 3844 2670 4047 
Q 2441 4250 2034 4250 
Q 1625 4250 1398 4047 
Q 1172 3844 1172 3481 
z
" transform="scale(0.015625)"/>
       </defs>
       <use xlink:href="#DejaVuSans-38"/>
      </g>
     </g>
    </g>
    <g id="xtick_10">
     <g id="line2d_10">
      <g>
       <use xlink:href="#m6fa307a317" x="407.311121" y="305.4" style="stroke: #000000; stroke-width: 0.8"/>
      </g>
     </g>
     <g id="text_10">
      <!-- 16 -->
      <g transform="translate(400.948621 319.998438)scale(0.1 -0.1)">
       <defs>
        <path id="DejaVuSans-36" d="M 2113 2584 
Q 1688 2584 1439 2293 
Q 1191 2003 1191 1497 
Q 1191 994 1439 701 
Q 1688 409 2113 409 
Q 2538 409 2786 701 
Q 3034 994 3034 1497 
Q 3034 2003 2786 2293 
Q 2538 2584 2113 2584 
z
M 3366 4563 
L 3366 3988 
Q 3128 4100 2886 4159 
Q 2644 4219 2406 4219 
Q 1781 4219 1451 3797 
Q 1122 3375 1075 2522 
Q 1259 2794 1537 2939 
Q 1816 3084 2150 3084 
Q 2853 3084 3261 2657 
Q 3669 2231 3669 1497 
Q 3669 778 3244 343 
Q 2819 -91 2113 -91 
Q 1303 -91 875 529 
Q 447 1150 447 2328 
Q 447 3434 972 4092 
Q 1497 4750 2381 4750 
Q 2619 4750 2861 4703 
Q 3103 4656 3366 4563 
z
" transform="scale(0.015625)"/>
       </defs>
       <use xlink:href="#DejaVuSans-31"/>
       <use xlink:href="#DejaVuSans-36" x="63.623047"/>
      </g>
     </g>
    </g>
    <g id="xtick_11">
     <g id="line2d_11">
      <g>
       <use xlink:href="#m6fa307a317" x="426.564154" y="305.4" style="stroke: #000000; stroke-width: 0.8"/>
      </g>
     </g>
     <g id="text_11">
      <!-- 32 -->
      <g transform="translate(420.201654 319.998438)scale(0.1 -0.1)">
       <use xlink:href="#DejaVuSans-33"/>
       <use xlink:href="#DejaVuSans-32" x="63.623047"/>
      </g>
     </g>
    </g>
    <g id="xtick_12">
     <g id="line2d_12">
      <defs>
       <path id="m700514d027" d="M 0 0 
L 0 2 
" style="stroke: #000000; stroke-width: 0.6"/>
      </defs>
      <g>
       <use xlink:href="#m700514d027" x="55.217187" y="305.4" style="stroke: #000000; stroke-width: 0.6"/>
      </g>
     </g>
    </g>
    <g id="xtick_13">
     <g id="line2d_13">
      <g>
       <use xlink:href="#m700514d027" x="60.281398" y="305.4" style="stroke: #000000; stroke-width: 0.6"/>
      </g>
     </g>
    </g>
    <g id="xtick_14">
     <g id="line2d_14">
      <g>
       <use xlink:href="#m700514d027" x="64.563126" y="305.4" style="stroke: #000000; stroke-width: 0.6"/>
      </g>
     </g>
    </g>
    <g id="xtick_15">
     <g id="line2d_15">
      <g>
       <use xlink:href="#m700514d027" x="68.272128" y="305.4" style="stroke: #000000; stroke-width: 0.6"/>
      </g>
     </g>
    </g>
    <g id="xtick_16">
     <g id="line2d_16">
      <g>
       <use xlink:href="#m700514d027" x="71.5437" y="305.4" style="stroke: #000000; stroke-width: 0.6"/>
      </g>
     </g>
    </g>
    <g id="xtick_17">
     <g id="line2d_17">
      <g>
       <use xlink:href="#m700514d027" x="93.723254" y="305.4" style="stroke: #000000; stroke-width: 0.6"/>
      </g>
     </g>
    </g>
    <g id="xtick_18">
     <g id="line2d_18">
      <g>
       <use xlink:href="#m700514d027" x="104.985556" y="305.4" style="stroke: #000000; stroke-width: 0.6"/>
      </g>
     </g>
    </g>
    <g id="xtick_19">
     <g id="line2d_19">
      <g>
       <use xlink:href="#m700514d027" x="112.976287" y="305.4" style="stroke: #000000; stroke-width: 0.6"/>
      </g>
     </g>
    </g>
    <g id="xtick_20">
     <g id="line2d_20">
      <g>
       <use xlink:href="#m700514d027" x="119.174379" y="305.4" style="stroke: #000000; stroke-width: 0.6"/>
      </g>
     </g>
    </g>
    <g id="xtick_21">
     <g id="line2d_21">
      <g>
       <use xlink:href="#m700514d027" x="124.23859" y="305.4" style="stroke: #000000; stroke-width: 0.6"/>
      </g>
     </g>
    </g>
    <g id="xtick_22">
     <g id="line2d_22">
      <g>
       <use xlink:href="#m700514d027" x="128.520318" y="305.4" style="stroke: #000000; stroke-width: 0.6"/>
      </g>
     </g>
    </g>
    <g id="xtick_23">
     <g id="line2d_23">
      <g>
       <use xlink:href="#m700514d027" x="132.22932" y="305.4" style="stroke: #000000; stroke-width: 0.6"/>
      </g>
     </g>
    </g>
    <g id="xtick_24">
     <g id="line2d_24">
      <g>
       <use xlink:href="#m700514d027" x="135.500892" y="305.4" style="stroke: #000000; stroke-width: 0.6"/>
      </g>
     </g>
    </g>
    <g id="xtick_25">
     <g id="line2d_25">
      <g>
       <use xlink:href="#m700514d027" x="157.680446" y="305.4" style="stroke: #000000; stroke-width: 0.6"/>
      </g>
     </g>
    </g>
    <g id="xtick_26">
     <g id="line2d_26">
      <g>
       <use xlink:href="#m700514d027" x="168.942748" y="305.4" style="stroke: #000000; stroke-width: 0.6"/>
      </g>
     </g>
    </g>
    <g id="xtick_27">
     <g id="line2d_27">
      <g>
       <use xlink:href="#m700514d027" x="176.933479" y="305.4" style="stroke: #000000; stroke-width: 0.6"/>
      </g>
     </g>
    </g>
    <g id="xtick_28">
     <g id="line2d_28">
      <g>
       <use xlink:href="#m700514d027" x="183.131571" y="305.4" style="stroke: #000000; stroke-width: 0.6"/>
      </g>
     </g>
    </g>
    <g id="xtick_29">
     <g id="line2d_29">
      <g>
       <use xlink:href="#m700514d027" x="188.195781" y="305.4" style="stroke: #000000; stroke-width: 0.6"/>
      </g>
     </g>
    </g>
    <g id="xtick_30">
     <g id="line2d_30">
      <g>
       <use xlink:href="#m700514d027" x="192.47751" y="305.4" style="stroke: #000000; stroke-width: 0.6"/>
      </g>
     </g>
    </g>
    <g id="xtick_31">
     <g id="line2d_31">
      <g>
       <use xlink:href="#m700514d027" x="196.186512" y="305.4" style="stroke: #000000; stroke-width: 0.6"/>
      </g>
     </g>
    </g>
    <g id="xtick_32">
     <g id="line2d_32">
      <g>
       <use xlink:href="#m700514d027" x="199.458084" y="305.4" style="stroke: #000000; stroke-width: 0.6"/>
      </g>
     </g>
    </g>
    <g id="xtick_33">
     <g id="line2d_33">
      <g>
       <use xlink:href="#m700514d027" x="221.637638" y="305.4" style="stroke: #000000; stroke-width: 0.6"/>
      </g>
     </g>
    </g>
    <g id="xtick_34">
     <g id="line2d_34">
      <g>
       <use xlink:href="#m700514d027" x="232.89994" y="305.4" style="stroke: #000000; stroke-width: 0.6"/>
      </g>
     </g>
    </g>
    <g id="xtick_35">
     <g id="line2d_35">
      <g>
       <use xlink:href="#m700514d027" x="240.890671" y="305.4" style="stroke: #000000; stroke-width: 0.6"/>
      </g>
     </g>
    </g>
    <g id="xtick_36">
     <g id="line2d_36">
      <g>
       <use xlink:href="#m700514d027" x="247.088763" y="305.4" style="stroke: #000000; stroke-width: 0.6"/>
      </g>
     </g>
    </g>
    <g id="xtick_37">
     <g id="line2d_37">
      <g>
       <use xlink:href="#m700514d027" x="252.152973" y="305.4" style="stroke: #000000; stroke-width: 0.6"/>
      </g>
     </g>
    </g>
    <g id="xtick_38">
     <g id="line2d_38">
      <g>
       <use xlink:href="#m700514d027" x="256.434702" y="305.4" style="stroke: #000000; stroke-width: 0.6"/>
      </g>
     </g>
    </g>
    <g id="xtick_39">
     <g id="line2d_39">
      <g>
       <use xlink:href="#m700514d027" x="260.143704" y="305.4" style="stroke: #000000; stroke-width: 0.6"/>
      </g>
     </g>
    </g>
    <g id="xtick_40">
     <g id="line2d_40">
      <g>
       <use xlink:href="#m700514d027" x="263.415276" y="305.4" style="stroke: #000000; stroke-width: 0.6"/>
      </g>
     </g>
    </g>
    <g id="xtick_41">
     <g id="line2d_41">
      <g>
       <use xlink:href="#m700514d027" x="285.59483" y="305.4" style="stroke: #000000; stroke-width: 0.6"/>
      </g>
     </g>
    </g>
    <g id="xtick_42">
     <g id="line2d_42">
      <g>
       <use xlink:href="#m700514d027" x="304.847863" y="305.4" style="stroke: #000000; stroke-width: 0.6"/>
      </g>
     </g>
    </g>
    <g id="xtick_43">
     <g id="line2d_43">
      <g>
       <use xlink:href="#m700514d027" x="311.045955" y="305.4" style="stroke: #000000; stroke-width: 0.6"/>
      </g>
     </g>
    </g>
    <g id="xtick_44">
     <g id="line2d_44">
      <g>
       <use xlink:href="#m700514d027" x="316.110165" y="305.4" style="stroke: #000000; stroke-width: 0.6"/>
      </g>
     </g>
    </g>
    <g id="xtick_45">
     <g id="line2d_45">
      <g>
       <use xlink:href="#m700514d027" x="320.391894" y="305.4" style="stroke: #000000; stroke-width: 0.6"/>
      </g>
     </g>
    </g>
    <g id="xtick_46">
     <g id="line2d_46">
      <g>
       <use xlink:href="#m700514d027" x="324.100896" y="305.4" style="stroke: #000000; stroke-width: 0.6"/>
      </g>
     </g>
    </g>
    <g id="xtick_47">
     <g id="line2d_47">
      <g>
       <use xlink:href="#m700514d027" x="327.372468" y="305.4" style="stroke: #000000; stroke-width: 0.6"/>
      </g>
     </g>
    </g>
    <g id="xtick_48">
     <g id="line2d_48">
      <g>
       <use xlink:href="#m700514d027" x="360.814324" y="305.4" style="stroke: #000000; stroke-width: 0.6"/>
      </g>
     </g>
    </g>
    <g id="xtick_49">
     <g id="line2d_49">
      <g>
       <use xlink:href="#m700514d027" x="375.003147" y="305.4" style="stroke: #000000; stroke-width: 0.6"/>
      </g>
     </g>
    </g>
    <g id="xtick_50">
     <g id="line2d_50">
      <g>
       <use xlink:href="#m700514d027" x="380.067357" y="305.4" style="stroke: #000000; stroke-width: 0.6"/>
      </g>
     </g>
    </g>
    <g id="xtick_51">
     <g id="line2d_51">
      <g>
       <use xlink:href="#m700514d027" x="384.349086" y="305.4" style="stroke: #000000; stroke-width: 0.6"/>
      </g>
     </g>
    </g>
    <g id="xtick_52">
     <g id="line2d_52">
      <g>
       <use xlink:href="#m700514d027" x="391.32966" y="305.4" style="stroke: #000000; stroke-width: 0.6"/>
      </g>
     </g>
    </g>
    <g id="xtick_53">
     <g id="line2d_53">
      <g>
       <use xlink:href="#m700514d027" x="413.509213" y="305.4" style="stroke: #000000; stroke-width: 0.6"/>
      </g>
     </g>
    </g>
    <g id="xtick_54">
     <g id="line2d_54">
      <g>
       <use xlink:href="#m700514d027" x="424.771516" y="305.4" style="stroke: #000000; stroke-width: 0.6"/>
      </g>
     </g>
    </g>
    <g id="xtick_55">
     <g id="line2d_55">
      <g>
       <use xlink:href="#m700514d027" x="432.762247" y="305.4" style="stroke: #000000; stroke-width: 0.6"/>
      </g>
     </g>
    </g>
    <g id="xtick_56">
     <g id="line2d_56">
      <g>
       <use xlink:href="#m700514d027" x="438.960339" y="305.4" style="stroke: #000000; stroke-width: 0.6"/>
      </g>
     </g>
    </g>
    <g id="xtick_57">
     <g id="line2d_57">
      <g>
       <use xlink:href="#m700514d027" x="444.024549" y="305.4" style="stroke: #000000; stroke-width: 0.6"/>
      </g>
     </g>
    </g>
    <g id="text_12">
     <!-- $\gamma$ -->
     <g transform="translate(246.017188 337.445312)scale(0.15 -0.15)">
      <defs>
       <path id="DejaVuSans-Oblique-3b3" d="M 1491 2950 
L 1838 788 
L 3456 3500 
L 4066 3500 
L 1972 0 
L 1713 -1331 
L 1138 -1331 
L 1397 0 
L 988 2613 
Q 925 3006 628 3006 
L 475 3006 
L 569 3500 
L 788 3500 
Q 1403 3500 1491 2950 
z
" transform="scale(0.015625)"/>
      </defs>
      <use xlink:href="#DejaVuSans-Oblique-3b3" transform="translate(0 0.3125)"/>
     </g>
    </g>
   </g>
   <g id="matplotlib.axis_2">
    <g id="ytick_1">
     <g id="line2d_58">
      <defs>
       <path id="m573f7ebad4" d="M 0 0 
L -3.5 0 
" style="stroke: #000000; stroke-width: 0.8"/>
      </defs>
      <g>
       <use xlink:href="#m573f7ebad4" x="55.217188" y="271.700633" style="stroke: #000000; stroke-width: 0.8"/>
      </g>
     </g>
     <g id="text_13">
      <!-- $\mathdefault{10^{-2}}$ -->
      <g transform="translate(24.717188 275.499852)scale(0.1 -0.1)">
       <defs>
        <path id="DejaVuSans-2212" d="M 678 2272 
L 4684 2272 
L 4684 1741 
L 678 1741 
L 678 2272 
z
" transform="scale(0.015625)"/>
       </defs>
       <use xlink:href="#DejaVuSans-31" transform="translate(0 0.765625)"/>
       <use xlink:href="#DejaVuSans-30" transform="translate(63.623047 0.765625)"/>
       <use xlink:href="#DejaVuSans-2212" transform="translate(128.203125 39.046875)scale(0.7)"/>
       <use xlink:href="#DejaVuSans-32" transform="translate(186.855469 39.046875)scale(0.7)"/>
      </g>
     </g>
    </g>
    <g id="ytick_2">
     <g id="line2d_59">
      <g>
       <use xlink:href="#m573f7ebad4" x="55.217188" y="207.250955" style="stroke: #000000; stroke-width: 0.8"/>
      </g>
     </g>
     <g id="text_14">
      <!-- $\mathdefault{10^{-1}}$ -->
      <g transform="translate(24.717188 211.050173)scale(0.1 -0.1)">
       <use xlink:href="#DejaVuSans-31" transform="translate(0 0.684375)"/>
       <use xlink:href="#DejaVuSans-30" transform="translate(63.623047 0.684375)"/>
       <use xlink:href="#DejaVuSans-2212" transform="translate(128.203125 38.965625)scale(0.7)"/>
       <use xlink:href="#DejaVuSans-31" transform="translate(186.855469 38.965625)scale(0.7)"/>
      </g>
     </g>
    </g>
    <g id="ytick_3">
     <g id="line2d_60">
      <g>
       <use xlink:href="#m573f7ebad4" x="55.217188" y="142.801276" style="stroke: #000000; stroke-width: 0.8"/>
      </g>
     </g>
     <g id="text_15">
      <!-- $\mathdefault{10^{0}}$ -->
      <g transform="translate(30.617188 146.600495)scale(0.1 -0.1)">
       <use xlink:href="#DejaVuSans-31" transform="translate(0 0.765625)"/>
       <use xlink:href="#DejaVuSans-30" transform="translate(63.623047 0.765625)"/>
       <use xlink:href="#DejaVuSans-30" transform="translate(128.203125 39.046875)scale(0.7)"/>
      </g>
     </g>
    </g>
    <g id="ytick_4">
     <g id="line2d_61">
      <g>
       <use xlink:href="#m573f7ebad4" x="55.217188" y="78.351598" style="stroke: #000000; stroke-width: 0.8"/>
      </g>
     </g>
     <g id="text_16">
      <!-- $\mathdefault{10^{1}}$ -->
      <g transform="translate(30.617188 82.150817)scale(0.1 -0.1)">
       <use xlink:href="#DejaVuSans-31" transform="translate(0 0.684375)"/>
       <use xlink:href="#DejaVuSans-30" transform="translate(63.623047 0.684375)"/>
       <use xlink:href="#DejaVuSans-31" transform="translate(128.203125 38.965625)scale(0.7)"/>
      </g>
     </g>
    </g>
    <g id="ytick_5">
     <g id="line2d_62">
      <defs>
       <path id="mbad7838380" d="M 0 0 
L -2 0 
" style="stroke: #000000; stroke-width: 0.6"/>
      </defs>
      <g>
       <use xlink:href="#mbad7838380" x="55.217188" y="305.4" style="stroke: #000000; stroke-width: 0.6"/>
      </g>
     </g>
    </g>
    <g id="ytick_6">
     <g id="line2d_63">
      <g>
       <use xlink:href="#mbad7838380" x="55.217188" y="297.347739" style="stroke: #000000; stroke-width: 0.6"/>
      </g>
     </g>
    </g>
    <g id="ytick_7">
     <g id="line2d_64">
      <g>
       <use xlink:href="#mbad7838380" x="55.217188" y="291.101919" style="stroke: #000000; stroke-width: 0.6"/>
      </g>
     </g>
    </g>
    <g id="ytick_8">
     <g id="line2d_65">
      <g>
       <use xlink:href="#mbad7838380" x="55.217188" y="285.998714" style="stroke: #000000; stroke-width: 0.6"/>
      </g>
     </g>
    </g>
    <g id="ytick_9">
     <g id="line2d_66">
      <g>
       <use xlink:href="#mbad7838380" x="55.217188" y="281.684015" style="stroke: #000000; stroke-width: 0.6"/>
      </g>
     </g>
    </g>
    <g id="ytick_10">
     <g id="line2d_67">
      <g>
       <use xlink:href="#mbad7838380" x="55.217188" y="277.946452" style="stroke: #000000; stroke-width: 0.6"/>
      </g>
     </g>
    </g>
    <g id="ytick_11">
     <g id="line2d_68">
      <g>
       <use xlink:href="#mbad7838380" x="55.217188" y="274.649689" style="stroke: #000000; stroke-width: 0.6"/>
      </g>
     </g>
    </g>
    <g id="ytick_12">
     <g id="line2d_69">
      <g>
       <use xlink:href="#mbad7838380" x="55.217188" y="252.299347" style="stroke: #000000; stroke-width: 0.6"/>
      </g>
     </g>
    </g>
    <g id="ytick_13">
     <g id="line2d_70">
      <g>
       <use xlink:href="#mbad7838380" x="55.217188" y="240.950322" style="stroke: #000000; stroke-width: 0.6"/>
      </g>
     </g>
    </g>
    <g id="ytick_14">
     <g id="line2d_71">
      <g>
       <use xlink:href="#mbad7838380" x="55.217188" y="232.89806" style="stroke: #000000; stroke-width: 0.6"/>
      </g>
     </g>
    </g>
    <g id="ytick_15">
     <g id="line2d_72">
      <g>
       <use xlink:href="#mbad7838380" x="55.217188" y="226.652241" style="stroke: #000000; stroke-width: 0.6"/>
      </g>
     </g>
    </g>
    <g id="ytick_16">
     <g id="line2d_73">
      <g>
       <use xlink:href="#mbad7838380" x="55.217188" y="221.549035" style="stroke: #000000; stroke-width: 0.6"/>
      </g>
     </g>
    </g>
    <g id="ytick_17">
     <g id="line2d_74">
      <g>
       <use xlink:href="#mbad7838380" x="55.217188" y="217.234336" style="stroke: #000000; stroke-width: 0.6"/>
      </g>
     </g>
    </g>
    <g id="ytick_18">
     <g id="line2d_75">
      <g>
       <use xlink:href="#mbad7838380" x="55.217188" y="213.496774" style="stroke: #000000; stroke-width: 0.6"/>
      </g>
     </g>
    </g>
    <g id="ytick_19">
     <g id="line2d_76">
      <g>
       <use xlink:href="#mbad7838380" x="55.217188" y="210.20001" style="stroke: #000000; stroke-width: 0.6"/>
      </g>
     </g>
    </g>
    <g id="ytick_20">
     <g id="line2d_77">
      <g>
       <use xlink:href="#mbad7838380" x="55.217188" y="187.849668" style="stroke: #000000; stroke-width: 0.6"/>
      </g>
     </g>
    </g>
    <g id="ytick_21">
     <g id="line2d_78">
      <g>
       <use xlink:href="#mbad7838380" x="55.217188" y="176.500643" style="stroke: #000000; stroke-width: 0.6"/>
      </g>
     </g>
    </g>
    <g id="ytick_22">
     <g id="line2d_79">
      <g>
       <use xlink:href="#mbad7838380" x="55.217188" y="168.448382" style="stroke: #000000; stroke-width: 0.6"/>
      </g>
     </g>
    </g>
    <g id="ytick_23">
     <g id="line2d_80">
      <g>
       <use xlink:href="#mbad7838380" x="55.217188" y="162.202563" style="stroke: #000000; stroke-width: 0.6"/>
      </g>
     </g>
    </g>
    <g id="ytick_24">
     <g id="line2d_81">
      <g>
       <use xlink:href="#mbad7838380" x="55.217188" y="157.099357" style="stroke: #000000; stroke-width: 0.6"/>
      </g>
     </g>
    </g>
    <g id="ytick_25">
     <g id="line2d_82">
      <g>
       <use xlink:href="#mbad7838380" x="55.217188" y="152.784658" style="stroke: #000000; stroke-width: 0.6"/>
      </g>
     </g>
    </g>
    <g id="ytick_26">
     <g id="line2d_83">
      <g>
       <use xlink:href="#mbad7838380" x="55.217188" y="149.047095" style="stroke: #000000; stroke-width: 0.6"/>
      </g>
     </g>
    </g>
    <g id="ytick_27">
     <g id="line2d_84">
      <g>
       <use xlink:href="#mbad7838380" x="55.217188" y="145.750332" style="stroke: #000000; stroke-width: 0.6"/>
      </g>
     </g>
    </g>
    <g id="ytick_28">
     <g id="line2d_85">
      <g>
       <use xlink:href="#mbad7838380" x="55.217188" y="123.39999" style="stroke: #000000; stroke-width: 0.6"/>
      </g>
     </g>
    </g>
    <g id="ytick_29">
     <g id="line2d_86">
      <g>
       <use xlink:href="#mbad7838380" x="55.217188" y="112.050965" style="stroke: #000000; stroke-width: 0.6"/>
      </g>
     </g>
    </g>
    <g id="ytick_30">
     <g id="line2d_87">
      <g>
       <use xlink:href="#mbad7838380" x="55.217188" y="103.998703" style="stroke: #000000; stroke-width: 0.6"/>
      </g>
     </g>
    </g>
    <g id="ytick_31">
     <g id="line2d_88">
      <g>
       <use xlink:href="#mbad7838380" x="55.217188" y="97.752884" style="stroke: #000000; stroke-width: 0.6"/>
      </g>
     </g>
    </g>
    <g id="ytick_32">
     <g id="line2d_89">
      <g>
       <use xlink:href="#mbad7838380" x="55.217188" y="92.649678" style="stroke: #000000; stroke-width: 0.6"/>
      </g>
     </g>
    </g>
    <g id="ytick_33">
     <g id="line2d_90">
      <g>
       <use xlink:href="#mbad7838380" x="55.217188" y="88.334979" style="stroke: #000000; stroke-width: 0.6"/>
      </g>
     </g>
    </g>
    <g id="ytick_34">
     <g id="line2d_91">
      <g>
       <use xlink:href="#mbad7838380" x="55.217188" y="84.597417" style="stroke: #000000; stroke-width: 0.6"/>
      </g>
     </g>
    </g>
    <g id="ytick_35">
     <g id="line2d_92">
      <g>
       <use xlink:href="#mbad7838380" x="55.217188" y="81.300653" style="stroke: #000000; stroke-width: 0.6"/>
      </g>
     </g>
    </g>
    <g id="ytick_36">
     <g id="line2d_93">
      <g>
       <use xlink:href="#mbad7838380" x="55.217188" y="58.950311" style="stroke: #000000; stroke-width: 0.6"/>
      </g>
     </g>
    </g>
    <g id="ytick_37">
     <g id="line2d_94">
      <g>
       <use xlink:href="#mbad7838380" x="55.217188" y="47.601286" style="stroke: #000000; stroke-width: 0.6"/>
      </g>
     </g>
    </g>
    <g id="ytick_38">
     <g id="line2d_95">
      <g>
       <use xlink:href="#mbad7838380" x="55.217188" y="39.549025" style="stroke: #000000; stroke-width: 0.6"/>
      </g>
     </g>
    </g>
    <g id="ytick_39">
     <g id="line2d_96">
      <g>
       <use xlink:href="#mbad7838380" x="55.217188" y="33.303206" style="stroke: #000000; stroke-width: 0.6"/>
      </g>
     </g>
    </g>
    <g id="ytick_40">
     <g id="line2d_97">
      <g>
       <use xlink:href="#mbad7838380" x="55.217188" y="28.2" style="stroke: #000000; stroke-width: 0.6"/>
      </g>
     </g>
    </g>
    <g id="text_17">
     <!-- Singular values &amp; Operator Norms -->
     <g transform="translate(18.597656 295.388672)rotate(-90)scale(0.15 -0.15)">
      <defs>
       <path id="DejaVuSans-53" d="M 3425 4513 
L 3425 3897 
Q 3066 4069 2747 4153 
Q 2428 4238 2131 4238 
Q 1616 4238 1336 4038 
Q 1056 3838 1056 3469 
Q 1056 3159 1242 3001 
Q 1428 2844 1947 2747 
L 2328 2669 
Q 3034 2534 3370 2195 
Q 3706 1856 3706 1288 
Q 3706 609 3251 259 
Q 2797 -91 1919 -91 
Q 1588 -91 1214 -16 
Q 841 59 441 206 
L 441 856 
Q 825 641 1194 531 
Q 1563 422 1919 422 
Q 2459 422 2753 634 
Q 3047 847 3047 1241 
Q 3047 1584 2836 1778 
Q 2625 1972 2144 2069 
L 1759 2144 
Q 1053 2284 737 2584 
Q 422 2884 422 3419 
Q 422 4038 858 4394 
Q 1294 4750 2059 4750 
Q 2388 4750 2728 4690 
Q 3069 4631 3425 4513 
z
" transform="scale(0.015625)"/>
       <path id="DejaVuSans-69" d="M 603 3500 
L 1178 3500 
L 1178 0 
L 603 0 
L 603 3500 
z
M 603 4863 
L 1178 4863 
L 1178 4134 
L 603 4134 
L 603 4863 
z
" transform="scale(0.015625)"/>
       <path id="DejaVuSans-6e" d="M 3513 2113 
L 3513 0 
L 2938 0 
L 2938 2094 
Q 2938 2591 2744 2837 
Q 2550 3084 2163 3084 
Q 1697 3084 1428 2787 
Q 1159 2491 1159 1978 
L 1159 0 
L 581 0 
L 581 3500 
L 1159 3500 
L 1159 2956 
Q 1366 3272 1645 3428 
Q 1925 3584 2291 3584 
Q 2894 3584 3203 3211 
Q 3513 2838 3513 2113 
z
" transform="scale(0.015625)"/>
       <path id="DejaVuSans-67" d="M 2906 1791 
Q 2906 2416 2648 2759 
Q 2391 3103 1925 3103 
Q 1463 3103 1205 2759 
Q 947 2416 947 1791 
Q 947 1169 1205 825 
Q 1463 481 1925 481 
Q 2391 481 2648 825 
Q 2906 1169 2906 1791 
z
M 3481 434 
Q 3481 -459 3084 -895 
Q 2688 -1331 1869 -1331 
Q 1566 -1331 1297 -1286 
Q 1028 -1241 775 -1147 
L 775 -588 
Q 1028 -725 1275 -790 
Q 1522 -856 1778 -856 
Q 2344 -856 2625 -561 
Q 2906 -266 2906 331 
L 2906 616 
Q 2728 306 2450 153 
Q 2172 0 1784 0 
Q 1141 0 747 490 
Q 353 981 353 1791 
Q 353 2603 747 3093 
Q 1141 3584 1784 3584 
Q 2172 3584 2450 3431 
Q 2728 3278 2906 2969 
L 2906 3500 
L 3481 3500 
L 3481 434 
z
" transform="scale(0.015625)"/>
       <path id="DejaVuSans-75" d="M 544 1381 
L 544 3500 
L 1119 3500 
L 1119 1403 
Q 1119 906 1312 657 
Q 1506 409 1894 409 
Q 2359 409 2629 706 
Q 2900 1003 2900 1516 
L 2900 3500 
L 3475 3500 
L 3475 0 
L 2900 0 
L 2900 538 
Q 2691 219 2414 64 
Q 2138 -91 1772 -91 
Q 1169 -91 856 284 
Q 544 659 544 1381 
z
M 1991 3584 
L 1991 3584 
z
" transform="scale(0.015625)"/>
       <path id="DejaVuSans-6c" d="M 603 4863 
L 1178 4863 
L 1178 0 
L 603 0 
L 603 4863 
z
" transform="scale(0.015625)"/>
       <path id="DejaVuSans-61" d="M 2194 1759 
Q 1497 1759 1228 1600 
Q 959 1441 959 1056 
Q 959 750 1161 570 
Q 1363 391 1709 391 
Q 2188 391 2477 730 
Q 2766 1069 2766 1631 
L 2766 1759 
L 2194 1759 
z
M 3341 1997 
L 3341 0 
L 2766 0 
L 2766 531 
Q 2569 213 2275 61 
Q 1981 -91 1556 -91 
Q 1019 -91 701 211 
Q 384 513 384 1019 
Q 384 1609 779 1909 
Q 1175 2209 1959 2209 
L 2766 2209 
L 2766 2266 
Q 2766 2663 2505 2880 
Q 2244 3097 1772 3097 
Q 1472 3097 1187 3025 
Q 903 2953 641 2809 
L 641 3341 
Q 956 3463 1253 3523 
Q 1550 3584 1831 3584 
Q 2591 3584 2966 3190 
Q 3341 2797 3341 1997 
z
" transform="scale(0.015625)"/>
       <path id="DejaVuSans-72" d="M 2631 2963 
Q 2534 3019 2420 3045 
Q 2306 3072 2169 3072 
Q 1681 3072 1420 2755 
Q 1159 2438 1159 1844 
L 1159 0 
L 581 0 
L 581 3500 
L 1159 3500 
L 1159 2956 
Q 1341 3275 1631 3429 
Q 1922 3584 2338 3584 
Q 2397 3584 2469 3576 
Q 2541 3569 2628 3553 
L 2631 2963 
z
" transform="scale(0.015625)"/>
       <path id="DejaVuSans-20" transform="scale(0.015625)"/>
       <path id="DejaVuSans-76" d="M 191 3500 
L 800 3500 
L 1894 563 
L 2988 3500 
L 3597 3500 
L 2284 0 
L 1503 0 
L 191 3500 
z
" transform="scale(0.015625)"/>
       <path id="DejaVuSans-65" d="M 3597 1894 
L 3597 1613 
L 953 1613 
Q 991 1019 1311 708 
Q 1631 397 2203 397 
Q 2534 397 2845 478 
Q 3156 559 3463 722 
L 3463 178 
Q 3153 47 2828 -22 
Q 2503 -91 2169 -91 
Q 1331 -91 842 396 
Q 353 884 353 1716 
Q 353 2575 817 3079 
Q 1281 3584 2069 3584 
Q 2775 3584 3186 3129 
Q 3597 2675 3597 1894 
z
M 3022 2063 
Q 3016 2534 2758 2815 
Q 2500 3097 2075 3097 
Q 1594 3097 1305 2825 
Q 1016 2553 972 2059 
L 3022 2063 
z
" transform="scale(0.015625)"/>
       <path id="DejaVuSans-73" d="M 2834 3397 
L 2834 2853 
Q 2591 2978 2328 3040 
Q 2066 3103 1784 3103 
Q 1356 3103 1142 2972 
Q 928 2841 928 2578 
Q 928 2378 1081 2264 
Q 1234 2150 1697 2047 
L 1894 2003 
Q 2506 1872 2764 1633 
Q 3022 1394 3022 966 
Q 3022 478 2636 193 
Q 2250 -91 1575 -91 
Q 1294 -91 989 -36 
Q 684 19 347 128 
L 347 722 
Q 666 556 975 473 
Q 1284 391 1588 391 
Q 1994 391 2212 530 
Q 2431 669 2431 922 
Q 2431 1156 2273 1281 
Q 2116 1406 1581 1522 
L 1381 1569 
Q 847 1681 609 1914 
Q 372 2147 372 2553 
Q 372 3047 722 3315 
Q 1072 3584 1716 3584 
Q 2034 3584 2315 3537 
Q 2597 3491 2834 3397 
z
" transform="scale(0.015625)"/>
       <path id="DejaVuSans-26" d="M 1556 2509 
Q 1272 2256 1139 2004 
Q 1006 1753 1006 1478 
Q 1006 1022 1337 719 
Q 1669 416 2169 416 
Q 2466 416 2725 514 
Q 2984 613 3213 813 
L 1556 2509 
z
M 1997 2859 
L 3584 1234 
Q 3769 1513 3872 1830 
Q 3975 2147 3994 2503 
L 4575 2503 
Q 4538 2091 4375 1687 
Q 4213 1284 3922 891 
L 4794 0 
L 4006 0 
L 3559 459 
Q 3234 181 2878 45 
Q 2522 -91 2113 -91 
Q 1359 -91 881 339 
Q 403 769 403 1441 
Q 403 1841 612 2192 
Q 822 2544 1241 2853 
Q 1091 3050 1012 3245 
Q 934 3441 934 3628 
Q 934 4134 1281 4442 
Q 1628 4750 2203 4750 
Q 2463 4750 2720 4694 
Q 2978 4638 3244 4525 
L 3244 3956 
Q 2972 4103 2725 4179 
Q 2478 4256 2266 4256 
Q 1938 4256 1733 4082 
Q 1528 3909 1528 3634 
Q 1528 3475 1620 3314 
Q 1713 3153 1997 2859 
z
" transform="scale(0.015625)"/>
       <path id="DejaVuSans-4f" d="M 2522 4238 
Q 1834 4238 1429 3725 
Q 1025 3213 1025 2328 
Q 1025 1447 1429 934 
Q 1834 422 2522 422 
Q 3209 422 3611 934 
Q 4013 1447 4013 2328 
Q 4013 3213 3611 3725 
Q 3209 4238 2522 4238 
z
M 2522 4750 
Q 3503 4750 4090 4092 
Q 4678 3434 4678 2328 
Q 4678 1225 4090 567 
Q 3503 -91 2522 -91 
Q 1538 -91 948 565 
Q 359 1222 359 2328 
Q 359 3434 948 4092 
Q 1538 4750 2522 4750 
z
" transform="scale(0.015625)"/>
       <path id="DejaVuSans-70" d="M 1159 525 
L 1159 -1331 
L 581 -1331 
L 581 3500 
L 1159 3500 
L 1159 2969 
Q 1341 3281 1617 3432 
Q 1894 3584 2278 3584 
Q 2916 3584 3314 3078 
Q 3713 2572 3713 1747 
Q 3713 922 3314 415 
Q 2916 -91 2278 -91 
Q 1894 -91 1617 61 
Q 1341 213 1159 525 
z
M 3116 1747 
Q 3116 2381 2855 2742 
Q 2594 3103 2138 3103 
Q 1681 3103 1420 2742 
Q 1159 2381 1159 1747 
Q 1159 1113 1420 752 
Q 1681 391 2138 391 
Q 2594 391 2855 752 
Q 3116 1113 3116 1747 
z
" transform="scale(0.015625)"/>
       <path id="DejaVuSans-74" d="M 1172 4494 
L 1172 3500 
L 2356 3500 
L 2356 3053 
L 1172 3053 
L 1172 1153 
Q 1172 725 1289 603 
Q 1406 481 1766 481 
L 2356 481 
L 2356 0 
L 1766 0 
Q 1100 0 847 248 
Q 594 497 594 1153 
L 594 3053 
L 172 3053 
L 172 3500 
L 594 3500 
L 594 4494 
L 1172 4494 
z
" transform="scale(0.015625)"/>
       <path id="DejaVuSans-6f" d="M 1959 3097 
Q 1497 3097 1228 2736 
Q 959 2375 959 1747 
Q 959 1119 1226 758 
Q 1494 397 1959 397 
Q 2419 397 2687 759 
Q 2956 1122 2956 1747 
Q 2956 2369 2687 2733 
Q 2419 3097 1959 3097 
z
M 1959 3584 
Q 2709 3584 3137 3096 
Q 3566 2609 3566 1747 
Q 3566 888 3137 398 
Q 2709 -91 1959 -91 
Q 1206 -91 779 398 
Q 353 888 353 1747 
Q 353 2609 779 3096 
Q 1206 3584 1959 3584 
z
" transform="scale(0.015625)"/>
       <path id="DejaVuSans-4e" d="M 628 4666 
L 1478 4666 
L 3547 763 
L 3547 4666 
L 4159 4666 
L 4159 0 
L 3309 0 
L 1241 3903 
L 1241 0 
L 628 0 
L 628 4666 
z
" transform="scale(0.015625)"/>
       <path id="DejaVuSans-6d" d="M 3328 2828 
Q 3544 3216 3844 3400 
Q 4144 3584 4550 3584 
Q 5097 3584 5394 3201 
Q 5691 2819 5691 2113 
L 5691 0 
L 5113 0 
L 5113 2094 
Q 5113 2597 4934 2840 
Q 4756 3084 4391 3084 
Q 3944 3084 3684 2787 
Q 3425 2491 3425 1978 
L 3425 0 
L 2847 0 
L 2847 2094 
Q 2847 2600 2669 2842 
Q 2491 3084 2119 3084 
Q 1678 3084 1418 2786 
Q 1159 2488 1159 1978 
L 1159 0 
L 581 0 
L 581 3500 
L 1159 3500 
L 1159 2956 
Q 1356 3278 1631 3431 
Q 1906 3584 2284 3584 
Q 2666 3584 2933 3390 
Q 3200 3197 3328 2828 
z
" transform="scale(0.015625)"/>
      </defs>
      <use xlink:href="#DejaVuSans-53"/>
      <use xlink:href="#DejaVuSans-69" x="63.476562"/>
      <use xlink:href="#DejaVuSans-6e" x="91.259766"/>
      <use xlink:href="#DejaVuSans-67" x="154.638672"/>
      <use xlink:href="#DejaVuSans-75" x="218.115234"/>
      <use xlink:href="#DejaVuSans-6c" x="281.494141"/>
      <use xlink:href="#DejaVuSans-61" x="309.277344"/>
      <use xlink:href="#DejaVuSans-72" x="370.556641"/>
      <use xlink:href="#DejaVuSans-20" x="411.669922"/>
      <use xlink:href="#DejaVuSans-76" x="443.457031"/>
      <use xlink:href="#DejaVuSans-61" x="502.636719"/>
      <use xlink:href="#DejaVuSans-6c" x="563.916016"/>
      <use xlink:href="#DejaVuSans-75" x="591.699219"/>
      <use xlink:href="#DejaVuSans-65" x="655.078125"/>
      <use xlink:href="#DejaVuSans-73" x="716.601562"/>
      <use xlink:href="#DejaVuSans-20" x="768.701172"/>
      <use xlink:href="#DejaVuSans-26" x="800.488281"/>
      <use xlink:href="#DejaVuSans-20" x="878.466797"/>
      <use xlink:href="#DejaVuSans-4f" x="910.253906"/>
      <use xlink:href="#DejaVuSans-70" x="988.964844"/>
      <use xlink:href="#DejaVuSans-65" x="1052.441406"/>
      <use xlink:href="#DejaVuSans-72" x="1113.964844"/>
      <use xlink:href="#DejaVuSans-61" x="1155.078125"/>
      <use xlink:href="#DejaVuSans-74" x="1216.357422"/>
      <use xlink:href="#DejaVuSans-6f" x="1255.566406"/>
      <use xlink:href="#DejaVuSans-72" x="1316.748047"/>
      <use xlink:href="#DejaVuSans-20" x="1357.861328"/>
      <use xlink:href="#DejaVuSans-4e" x="1389.648438"/>
      <use xlink:href="#DejaVuSans-6f" x="1464.453125"/>
      <use xlink:href="#DejaVuSans-72" x="1525.634766"/>
      <use xlink:href="#DejaVuSans-6d" x="1564.998047"/>
      <use xlink:href="#DejaVuSans-73" x="1662.410156"/>
     </g>
    </g>
   </g>
   <g id="line2d_98">
    <path d="M 10.513029 55.918697 
L 17.799291 55.922609 
L 25.085554 55.927763 
L 32.371816 55.934513 
L 39.658078 55.943366 
L 46.944341 55.95513 
L 54.230603 55.970583 
L 61.516865 55.990986 
L 68.803128 56.017932 
L 76.08939 56.053448 
L 83.375652 56.100055 
L 90.661915 56.160451 
L 97.948177 56.239131 
L 105.23444 56.340733 
L 112.520702 56.471188 
L 119.806964 56.637744 
L 127.093227 56.849202 
L 134.379489 57.115849 
L 141.665751 57.449258 
L 148.952014 57.863237 
L 156.238276 58.37333 
L 163.524539 58.992185 
L 170.810801 59.734412 
L 178.097063 60.623691 
L 185.383326 61.686097 
L 192.669588 62.952338 
L 199.95585 64.465981 
L 207.242113 66.270429 
L 214.528375 68.41428 
L 221.814637 70.96275 
L 229.1009 73.978012 
L 236.387162 77.534494 
L 243.673425 81.697102 
L 250.959687 86.507592 
L 258.245949 92.010264 
L 265.532212 98.147844 
L 272.818474 104.835656 
L 280.104736 111.849692 
L 287.390999 118.929683 
L 294.677261 125.793421 
L 301.963524 132.069794 
L 309.249786 137.121595 
L 316.536048 140.318916 
L 323.822311 142.103093 
L 331.108573 143.524259 
L 338.394835 144.488714 
L 345.681098 144.962136 
L 352.96736 145.134515 
L 360.253622 145.167002 
L 367.539885 145.169627 
L 374.826147 145.167289 
L 382.11241 145.16394 
L 389.398672 145.160502 
L 396.684934 145.15738 
L 403.971197 145.154672 
L 411.257459 145.152428 
L 418.543721 145.150553 
L 425.829984 145.149051 
L 433.116246 145.147854 
L 440.402509 145.146923 
L 447.688771 145.14619 
L 454.975033 145.14549 
L 462.261296 145.144927 
L 469.547558 145.144485 
L 476.83382 145.144133 
L 484.120083 145.143848 
L 491.406345 145.143668 
L 498.692607 145.143483 
L 505.186719 145.143375 
" clip-path="url(#pc3a014ae65)" style="fill: none; stroke-dasharray: 5.55,2.4; stroke-dashoffset: 0; stroke: #ffa500; stroke-width: 1.5"/>
   </g>
   <g id="line2d_99">
    <path d="M 10.513029 106.869474 
L 17.799291 106.874626 
L 25.085554 106.881318 
L 32.371816 106.889885 
L 39.658078 106.901044 
L 46.944341 106.915529 
L 54.230603 106.934179 
L 61.516865 106.958168 
L 68.803128 106.989046 
L 76.08939 107.028671 
L 83.375652 107.079263 
L 90.661915 107.143649 
L 97.948177 107.225193 
L 105.23444 107.327728 
L 112.520702 107.456068 
L 119.806964 107.615555 
L 127.093227 107.812413 
L 134.379489 108.054226 
L 141.665751 108.350108 
L 148.952014 108.711645 
L 156.238276 109.153967 
L 163.524539 109.696886 
L 170.810801 110.366246 
L 178.097063 111.195007 
L 185.383326 112.223911 
L 192.669588 113.501896 
L 199.95585 115.085887 
L 207.242113 117.040315 
L 214.528375 119.435399 
L 221.814637 122.344776 
L 229.1009 125.840421 
L 236.387162 129.984319 
L 243.673425 134.813608 
L 250.959687 140.315805 
L 258.245949 146.388213 
L 265.532212 152.786308 
L 272.818474 159.111972 
L 280.104736 164.943949 
L 287.390999 170.037822 
L 294.677261 174.339169 
L 301.963524 177.877844 
L 309.249786 180.723873 
L 316.536048 182.978803 
L 323.822311 184.755624 
L 331.108573 186.156658 
L 338.394835 187.263806 
L 345.681098 188.139667 
L 352.96736 188.831998 
L 360.253622 189.378053 
L 367.539885 189.807428 
L 374.826147 190.143965 
L 382.11241 190.406887 
L 389.398672 190.61173 
L 396.684934 190.770908 
L 403.971197 190.894357 
L 411.257459 190.989941 
L 418.543721 191.063836 
L 425.829984 191.120898 
L 433.116246 191.164929 
L 440.402509 191.19889 
L 447.688771 191.225066 
L 454.975033 191.245219 
L 462.261296 191.260746 
L 469.547558 191.272701 
L 476.83382 191.281885 
L 484.120083 191.288972 
L 491.406345 191.294422 
L 498.692607 191.298621 
L 505.186719 191.301491 
" clip-path="url(#pc3a014ae65)" style="fill: none; stroke: #440154; stroke-width: 1.5; stroke-linecap: square"/>
   </g>
   <g id="line2d_100">
    <path d="M 10.513029 142.666193 
L 17.799291 142.668794 
L 25.085554 142.672168 
L 32.371816 142.676539 
L 39.658078 142.682197 
L 46.944341 142.68954 
L 54.230603 142.69903 
L 61.516865 142.711254 
L 68.803128 142.72701 
L 76.08939 142.747297 
L 83.375652 142.773295 
L 90.661915 142.806552 
L 97.948177 142.848848 
L 105.23444 142.902444 
L 112.520702 142.970048 
L 119.806964 143.05482 
L 127.093227 143.160473 
L 134.379489 143.291492 
L 141.665751 143.453217 
L 148.952014 143.652163 
L 156.238276 143.89653 
L 163.524539 144.196566 
L 170.810801 144.565466 
L 178.097063 145.019813 
L 185.383326 145.580225 
L 192.669588 146.272211 
L 199.95585 147.126747 
L 207.242113 148.181245 
L 214.528375 149.480613 
L 221.814637 151.078197 
L 229.1009 153.037074 
L 236.387162 155.431223 
L 243.673425 158.348641 
L 250.959687 161.900114 
L 258.245949 166.239004 
L 265.532212 171.590852 
L 272.818474 178.243615 
L 280.104736 186.390404 
L 287.390999 195.682274 
L 294.677261 207.372102 
L 301.963524 218.680249 
L 309.249786 229.962112 
L 316.536048 239.937702 
L 323.822311 247.427716 
L 331.108573 252.717296 
L 338.394835 256.740281 
L 345.681098 260.021079 
L 352.96736 262.787203 
L 360.253622 265.139645 
L 367.539885 267.130946 
L 374.826147 268.798651 
L 382.11241 270.177791 
L 389.398672 271.304227 
L 396.684934 272.213942 
L 403.971197 272.941612 
L 411.257459 273.518964 
L 418.543721 273.974049 
L 425.829984 274.330818 
L 433.116246 274.609398 
L 440.402509 274.82618 
L 447.688771 274.994437 
L 454.975033 275.124777 
L 462.261296 275.225585 
L 469.547558 275.303441 
L 476.83382 275.363494 
L 484.120083 275.409866 
L 491.406345 275.445585 
L 498.692607 275.473094 
L 505.186719 275.49197 
" clip-path="url(#pc3a014ae65)" style="fill: none; stroke: #31688e; stroke-width: 1.5; stroke-linecap: square"/>
   </g>
   <g id="line2d_101">
    <path d="M 10.513029 158.626389 
L 17.799291 158.628533 
L 25.085554 158.63132 
L 32.371816 158.634921 
L 39.658078 158.639609 
L 46.944341 158.645694 
L 54.230603 158.6536 
L 61.516865 158.663851 
L 68.803128 158.677142 
L 76.08939 158.694348 
L 83.375652 158.716614 
L 90.661915 158.745393 
L 97.948177 158.782545 
L 105.23444 158.830438 
L 112.520702 158.891966 
L 119.806964 158.970977 
L 127.093227 159.072076 
L 134.379489 159.201236 
L 141.665751 159.365797 
L 148.952014 159.575022 
L 156.238276 159.840473 
L 163.524539 160.176542 
L 170.810801 160.601013 
L 178.097063 161.135507 
L 185.383326 161.806024 
L 192.669588 162.643138 
L 199.95585 163.68212 
L 207.242113 164.962723 
L 214.528375 166.528664 
L 221.814637 168.426126 
L 229.1009 170.701185 
L 236.387162 173.39447 
L 243.673425 176.531223 
L 250.959687 180.102609 
L 258.245949 184.032834 
L 265.532212 188.133471 
L 272.818474 192.093942 
L 280.104736 195.646476 
L 287.390999 199.076511 
L 294.677261 201.059234 
L 301.963524 204.123299 
L 309.249786 207.279616 
L 316.536048 210.609437 
L 323.822311 214.031759 
L 331.108573 217.427783 
L 338.394835 220.683777 
L 345.681098 223.708783 
L 352.96736 226.440457 
L 360.253622 228.845199 
L 367.539885 230.914693 
L 374.826147 232.6606 
L 382.11241 234.108427 
L 389.398672 235.291716 
L 396.684934 236.247108 
L 403.971197 237.010813 
L 411.257459 237.616353 
L 418.543721 238.093343 
L 425.829984 238.467144 
L 433.116246 238.758899 
L 440.402509 238.985846 
L 447.688771 239.161949 
L 454.975033 239.298338 
L 462.261296 239.403798 
L 469.547558 239.485257 
L 476.83382 239.548111 
L 484.120083 239.596577 
L 491.406345 239.633917 
L 498.692607 239.662705 
L 505.186719 239.68245 
" clip-path="url(#pc3a014ae65)" style="fill: none; stroke: #35b779; stroke-width: 1.5; stroke-linecap: square"/>
   </g>
   <g id="line2d_102">
    <path d="M 10.513029 184.835377 
L 17.799291 184.838199 
L 25.085554 184.841877 
L 32.371816 184.846642 
L 39.658078 184.852832 
L 46.944341 184.860845 
L 54.230603 184.871217 
L 61.516865 184.884669 
L 68.803128 184.902037 
L 76.08939 184.924478 
L 83.375652 184.953363 
L 90.661915 184.990475 
L 97.948177 185.038063 
L 105.23444 185.098855 
L 112.520702 185.176219 
L 119.806964 185.274285 
L 127.093227 185.398082 
L 134.379489 185.553613 
L 141.665751 185.748263 
L 148.952014 185.990956 
L 156.238276 186.292594 
L 163.524539 186.666384 
L 170.810801 187.128192 
L 178.097063 187.696556 
L 185.383326 188.39229 
L 192.669588 189.23735 
L 199.95585 190.252567 
L 207.242113 191.45419 
L 214.528375 192.849463 
L 221.814637 194.431976 
L 229.1009 196.178905 
L 236.387162 198.054301 
L 243.673425 200.023869 
L 250.959687 202.087991 
L 258.245949 204.335701 
L 265.532212 207.007961 
L 272.818474 210.507321 
L 280.104736 215.217516 
L 287.390999 221.182998 
L 294.677261 228.057405 
L 301.963524 235.347924 
L 309.249786 242.700082 
L 316.536048 250.226597 
L 323.822311 258.221479 
L 331.108573 265.881358 
L 338.394835 272.221654 
L 345.681098 277.073723 
L 352.96736 280.719781 
L 360.253622 283.498453 
L 367.539885 285.661959 
L 374.826147 287.373227 
L 382.11241 288.736844 
L 389.398672 289.824679 
L 396.684934 290.690305 
L 403.971197 291.376224 
L 411.257459 291.917267 
L 418.543721 292.342119 
L 425.829984 292.674424 
L 433.116246 292.933469 
L 440.402509 293.134862 
L 447.688771 293.291063 
L 454.975033 293.412019 
L 462.261296 293.505526 
L 469.547558 293.577746 
L 476.83382 293.63346 
L 484.120083 293.676433 
L 491.406345 293.709534 
L 498.692607 293.735031 
L 505.186719 293.752548 
" clip-path="url(#pc3a014ae65)" style="fill: none; stroke: #fde725; stroke-width: 1.5; stroke-linecap: square"/>
   </g>
   <g id="patch_3">
    <path d="M 55.217188 305.4 
L 55.217188 28.2 
" style="fill: none; stroke: #000000; stroke-width: 0.8; stroke-linejoin: miter; stroke-linecap: square"/>
   </g>
   <g id="patch_4">
    <path d="M 445.817188 305.4 
L 445.817188 28.2 
" style="fill: none; stroke: #000000; stroke-width: 0.8; stroke-linejoin: miter; stroke-linecap: square"/>
   </g>
   <g id="patch_5">
    <path d="M 55.217187 305.4 
L 445.817187 305.4 
" style="fill: none; stroke: #000000; stroke-width: 0.8; stroke-linejoin: miter; stroke-linecap: square"/>
   </g>
   <g id="patch_6">
    <path d="M 55.217187 28.2 
L 445.817187 28.2 
" style="fill: none; stroke: #000000; stroke-width: 0.8; stroke-linejoin: miter; stroke-linecap: square"/>
   </g>
   <g id="text_18">
    <!-- $A^{(0 \leftarrow T)}_{LRP}$, $\gamma^{(0-T)} = \gamma$ -->
    <g transform="translate(55.217188 22.2)scale(0.15 -0.15)">
     <defs>
      <path id="DejaVuSans-Oblique-41" d="M 2356 4666 
L 3072 4666 
L 3938 0 
L 3278 0 
L 3084 1197 
L 984 1197 
L 325 0 
L -341 0 
L 2356 4666 
z
M 2584 4044 
L 1275 1722 
L 2988 1722 
L 2584 4044 
z
" transform="scale(0.015625)"/>
      <path id="DejaVuSans-28" d="M 1984 4856 
Q 1566 4138 1362 3434 
Q 1159 2731 1159 2009 
Q 1159 1288 1364 580 
Q 1569 -128 1984 -844 
L 1484 -844 
Q 1016 -109 783 600 
Q 550 1309 550 2009 
Q 550 2706 781 3412 
Q 1013 4119 1484 4856 
L 1984 4856 
z
" transform="scale(0.015625)"/>
      <path id="DejaVuSans-2190" d="M 313 1866 
L 313 2147 
L 1541 3375 
L 1916 3000 
L 1188 2272 
L 4997 2272 
L 4997 1741 
L 1188 1741 
L 1916 1013 
L 1541 638 
L 313 1866 
z
" transform="scale(0.015625)"/>
      <path id="DejaVuSans-Oblique-54" d="M 378 4666 
L 4325 4666 
L 4225 4134 
L 2559 4134 
L 1759 0 
L 1125 0 
L 1925 4134 
L 275 4134 
L 378 4666 
z
" transform="scale(0.015625)"/>
      <path id="DejaVuSans-29" d="M 513 4856 
L 1013 4856 
Q 1481 4119 1714 3412 
Q 1947 2706 1947 2009 
Q 1947 1309 1714 600 
Q 1481 -109 1013 -844 
L 513 -844 
Q 928 -128 1133 580 
Q 1338 1288 1338 2009 
Q 1338 2731 1133 3434 
Q 928 4138 513 4856 
z
" transform="scale(0.015625)"/>
      <path id="DejaVuSans-Oblique-4c" d="M 1075 4666 
L 1709 4666 
L 909 525 
L 3181 525 
L 3078 0 
L 172 0 
L 1075 4666 
z
" transform="scale(0.015625)"/>
      <path id="DejaVuSans-Oblique-52" d="M 1613 4147 
L 1294 2491 
L 2106 2491 
Q 2584 2491 2879 2755 
Q 3175 3019 3175 3444 
Q 3175 3784 2976 3965 
Q 2778 4147 2406 4147 
L 1613 4147 
z
M 2772 2241 
Q 2972 2194 3105 2009 
Q 3238 1825 3413 1275 
L 3809 0 
L 3144 0 
L 2778 1197 
Q 2638 1659 2453 1815 
Q 2269 1972 1888 1972 
L 1191 1972 
L 806 0 
L 172 0 
L 1081 4666 
L 2503 4666 
Q 3150 4666 3495 4373 
Q 3841 4081 3841 3531 
Q 3841 3044 3547 2687 
Q 3253 2331 2772 2241 
z
" transform="scale(0.015625)"/>
      <path id="DejaVuSans-Oblique-50" d="M 1081 4666 
L 2541 4666 
Q 3178 4666 3512 4369 
Q 3847 4072 3847 3500 
Q 3847 2731 3353 2303 
Q 2859 1875 1966 1875 
L 1172 1875 
L 806 0 
L 172 0 
L 1081 4666 
z
M 1613 4147 
L 1275 2394 
L 2069 2394 
Q 2606 2394 2893 2669 
Q 3181 2944 3181 3456 
Q 3181 3784 2986 3965 
Q 2791 4147 2438 4147 
L 1613 4147 
z
" transform="scale(0.015625)"/>
      <path id="DejaVuSans-2c" d="M 750 794 
L 1409 794 
L 1409 256 
L 897 -744 
L 494 -744 
L 750 256 
L 750 794 
z
" transform="scale(0.015625)"/>
      <path id="DejaVuSans-3d" d="M 678 2906 
L 4684 2906 
L 4684 2381 
L 678 2381 
L 678 2906 
z
M 678 1631 
L 4684 1631 
L 4684 1100 
L 678 1100 
L 678 1631 
z
" transform="scale(0.015625)"/>
     </defs>
     <use xlink:href="#DejaVuSans-Oblique-41" transform="translate(0 0.465625)"/>
     <use xlink:href="#DejaVuSans-28" transform="translate(75.424974 45.8875)scale(0.7)"/>
     <use xlink:href="#DejaVuSans-30" transform="translate(102.734544 45.8875)scale(0.7)"/>
     <use xlink:href="#DejaVuSans-2190" transform="translate(160.908372 45.8875)scale(0.7)"/>
     <use xlink:href="#DejaVuSans-Oblique-54" transform="translate(233.198411 45.8875)scale(0.7)"/>
     <use xlink:href="#DejaVuSans-29" transform="translate(275.957201 45.8875)scale(0.7)"/>
     <use xlink:href="#DejaVuSans-Oblique-4c" transform="translate(68.408203 -26.878125)scale(0.7)"/>
     <use xlink:href="#DejaVuSans-Oblique-52" transform="translate(107.407227 -26.878125)scale(0.7)"/>
     <use xlink:href="#DejaVuSans-Oblique-50" transform="translate(156.044922 -26.878125)scale(0.7)"/>
     <use xlink:href="#DejaVuSans-2c" transform="translate(306.001146 0.465625)"/>
     <use xlink:href="#DejaVuSans-20" transform="translate(337.788255 0.465625)"/>
     <use xlink:href="#DejaVuSans-Oblique-3b3" transform="translate(369.575365 0.465625)"/>
     <use xlink:href="#DejaVuSans-28" transform="translate(433.221198 38.746875)scale(0.7)"/>
     <use xlink:href="#DejaVuSans-30" transform="translate(460.530768 38.746875)scale(0.7)"/>
     <use xlink:href="#DejaVuSans-2212" transform="translate(518.704596 38.746875)scale(0.7)"/>
     <use xlink:href="#DejaVuSans-Oblique-54" transform="translate(590.994635 38.746875)scale(0.7)"/>
     <use xlink:href="#DejaVuSans-29" transform="translate(633.753424 38.746875)scale(0.7)"/>
     <use xlink:href="#DejaVuSans-3d" transform="translate(683.279792 0.465625)"/>
     <use xlink:href="#DejaVuSans-Oblique-3b3" transform="translate(786.551276 0.465625)"/>
    </g>
   </g>
   <g id="legend_1">
    <g id="patch_7">
     <path d="M 62.217188 300.4 
L 233.117188 300.4 
Q 235.117188 300.4 235.117188 298.4 
L 235.117188 225.965625 
Q 235.117188 223.965625 233.117188 223.965625 
L 62.217188 223.965625 
Q 60.217188 223.965625 60.217188 225.965625 
L 60.217188 298.4 
Q 60.217188 300.4 62.217188 300.4 
z
" style="fill: #ffffff; opacity: 0.8; stroke: #cccccc; stroke-linejoin: miter"/>
    </g>
    <g id="line2d_103">
     <path d="M 64.217188 232.064063 
L 74.217188 232.064063 
L 84.217188 232.064063 
" style="fill: none; stroke-dasharray: 5.55,2.4; stroke-dashoffset: 0; stroke: #ffa500; stroke-width: 1.5"/>
    </g>
    <g id="text_19">
     <!-- L1 operator norm -->
     <g transform="translate(92.217188 235.564063)scale(0.1 -0.1)">
      <defs>
       <path id="DejaVuSans-4c" d="M 628 4666 
L 1259 4666 
L 1259 531 
L 3531 531 
L 3531 0 
L 628 0 
L 628 4666 
z
" transform="scale(0.015625)"/>
      </defs>
      <use xlink:href="#DejaVuSans-4c"/>
      <use xlink:href="#DejaVuSans-31" x="55.712891"/>
      <use xlink:href="#DejaVuSans-20" x="119.335938"/>
      <use xlink:href="#DejaVuSans-6f" x="151.123047"/>
      <use xlink:href="#DejaVuSans-70" x="212.304688"/>
      <use xlink:href="#DejaVuSans-65" x="275.78125"/>
      <use xlink:href="#DejaVuSans-72" x="337.304688"/>
      <use xlink:href="#DejaVuSans-61" x="378.417969"/>
      <use xlink:href="#DejaVuSans-74" x="439.697266"/>
      <use xlink:href="#DejaVuSans-6f" x="478.90625"/>
      <use xlink:href="#DejaVuSans-72" x="540.087891"/>
      <use xlink:href="#DejaVuSans-20" x="581.201172"/>
      <use xlink:href="#DejaVuSans-6e" x="612.988281"/>
      <use xlink:href="#DejaVuSans-6f" x="676.367188"/>
      <use xlink:href="#DejaVuSans-72" x="737.548828"/>
      <use xlink:href="#DejaVuSans-6d" x="776.912109"/>
     </g>
    </g>
    <g id="line2d_104">
     <path d="M 64.217188 246.74375 
L 74.217188 246.74375 
L 84.217188 246.74375 
" style="fill: none; stroke: #440154; stroke-width: 1.5; stroke-linecap: square"/>
    </g>
    <g id="text_20">
     <!-- $\sigma_{1}$ (L2 operator norm) -->
     <g transform="translate(92.217188 250.24375)scale(0.1 -0.1)">
      <defs>
       <path id="DejaVuSans-Oblique-3c3" d="M 2219 3044 
Q 1744 3044 1422 2700 
Q 1081 2341 969 1747 
Q 844 1119 1044 756 
Q 1241 397 1706 397 
Q 2166 397 2503 759 
Q 2844 1122 2966 1747 
Q 3075 2319 2881 2700 
Q 2700 3044 2219 3044 
z
M 2309 3503 
L 4219 3500 
L 4106 2925 
L 3463 2925 
Q 3706 2438 3575 1747 
Q 3406 888 2884 400 
Q 2359 -91 1609 -91 
Q 856 -91 525 400 
Q 194 888 363 1747 
Q 528 2609 1050 3097 
Q 1484 3503 2309 3503 
z
" transform="scale(0.015625)"/>
      </defs>
      <use xlink:href="#DejaVuSans-Oblique-3c3" transform="translate(0 0.125)"/>
      <use xlink:href="#DejaVuSans-31" transform="translate(63.378906 -16.28125)scale(0.7)"/>
      <use xlink:href="#DejaVuSans-20" transform="translate(110.649414 0.125)"/>
      <use xlink:href="#DejaVuSans-28" transform="translate(142.436523 0.125)"/>
      <use xlink:href="#DejaVuSans-4c" transform="translate(181.450195 0.125)"/>
      <use xlink:href="#DejaVuSans-32" transform="translate(237.163086 0.125)"/>
      <use xlink:href="#DejaVuSans-20" transform="translate(300.786133 0.125)"/>
      <use xlink:href="#DejaVuSans-6f" transform="translate(332.573242 0.125)"/>
      <use xlink:href="#DejaVuSans-70" transform="translate(393.754883 0.125)"/>
      <use xlink:href="#DejaVuSans-65" transform="translate(457.231445 0.125)"/>
      <use xlink:href="#DejaVuSans-72" transform="translate(518.754883 0.125)"/>
      <use xlink:href="#DejaVuSans-61" transform="translate(559.868164 0.125)"/>
      <use xlink:href="#DejaVuSans-74" transform="translate(621.147461 0.125)"/>
      <use xlink:href="#DejaVuSans-6f" transform="translate(660.356445 0.125)"/>
      <use xlink:href="#DejaVuSans-72" transform="translate(721.538086 0.125)"/>
      <use xlink:href="#DejaVuSans-20" transform="translate(762.651367 0.125)"/>
      <use xlink:href="#DejaVuSans-6e" transform="translate(794.438477 0.125)"/>
      <use xlink:href="#DejaVuSans-6f" transform="translate(857.817383 0.125)"/>
      <use xlink:href="#DejaVuSans-72" transform="translate(918.999023 0.125)"/>
      <use xlink:href="#DejaVuSans-6d" transform="translate(960.112305 0.125)"/>
      <use xlink:href="#DejaVuSans-29" transform="translate(1057.524414 0.125)"/>
     </g>
    </g>
    <g id="line2d_105">
     <path d="M 64.217188 261.442188 
L 74.217188 261.442188 
L 84.217188 261.442188 
" style="fill: none; stroke: #31688e; stroke-width: 1.5; stroke-linecap: square"/>
    </g>
    <g id="text_21">
     <!-- $\sigma_{2}$ -->
     <g transform="translate(92.217188 264.942188)scale(0.1 -0.1)">
      <use xlink:href="#DejaVuSans-Oblique-3c3" transform="translate(0 0.265625)"/>
      <use xlink:href="#DejaVuSans-32" transform="translate(63.378906 -16.140625)scale(0.7)"/>
     </g>
    </g>
    <g id="line2d_106">
     <path d="M 64.217188 276.120313 
L 74.217188 276.120313 
L 84.217188 276.120313 
" style="fill: none; stroke: #35b779; stroke-width: 1.5; stroke-linecap: square"/>
    </g>
    <g id="text_22">
     <!-- $\sigma_{3}$ -->
     <g transform="translate(92.217188 279.620313)scale(0.1 -0.1)">
      <use xlink:href="#DejaVuSans-Oblique-3c3" transform="translate(0 0.265625)"/>
      <use xlink:href="#DejaVuSans-33" transform="translate(63.378906 -16.140625)scale(0.7)"/>
     </g>
    </g>
    <g id="line2d_107">
     <path d="M 64.217188 290.8 
L 74.217188 290.8 
L 84.217188 290.8 
" style="fill: none; stroke: #fde725; stroke-width: 1.5; stroke-linecap: square"/>
    </g>
    <g id="text_23">
     <!-- $\sigma_{4}$ (smallest Singular value) -->
     <g transform="translate(92.217188 294.3)scale(0.1 -0.1)">
      <use xlink:href="#DejaVuSans-Oblique-3c3" transform="translate(0 0.015625)"/>
      <use xlink:href="#DejaVuSans-34" transform="translate(63.378906 -16.390625)scale(0.7)"/>
      <use xlink:href="#DejaVuSans-20" transform="translate(110.649414 0.015625)"/>
      <use xlink:href="#DejaVuSans-28" transform="translate(142.436523 0.015625)"/>
      <use xlink:href="#DejaVuSans-73" transform="translate(181.450195 0.015625)"/>
      <use xlink:href="#DejaVuSans-6d" transform="translate(233.549805 0.015625)"/>
      <use xlink:href="#DejaVuSans-61" transform="translate(330.961914 0.015625)"/>
      <use xlink:href="#DejaVuSans-6c" transform="translate(392.241211 0.015625)"/>
      <use xlink:href="#DejaVuSans-6c" transform="translate(420.024414 0.015625)"/>
      <use xlink:href="#DejaVuSans-65" transform="translate(447.807617 0.015625)"/>
      <use xlink:href="#DejaVuSans-73" transform="translate(509.331055 0.015625)"/>
      <use xlink:href="#DejaVuSans-74" transform="translate(561.430664 0.015625)"/>
      <use xlink:href="#DejaVuSans-20" transform="translate(600.639648 0.015625)"/>
      <use xlink:href="#DejaVuSans-53" transform="translate(632.426758 0.015625)"/>
      <use xlink:href="#DejaVuSans-69" transform="translate(695.90332 0.015625)"/>
      <use xlink:href="#DejaVuSans-6e" transform="translate(723.686523 0.015625)"/>
      <use xlink:href="#DejaVuSans-67" transform="translate(787.06543 0.015625)"/>
      <use xlink:href="#DejaVuSans-75" transform="translate(850.541992 0.015625)"/>
      <use xlink:href="#DejaVuSans-6c" transform="translate(913.920898 0.015625)"/>
      <use xlink:href="#DejaVuSans-61" transform="translate(941.704102 0.015625)"/>
      <use xlink:href="#DejaVuSans-72" transform="translate(1002.983398 0.015625)"/>
      <use xlink:href="#DejaVuSans-20" transform="translate(1044.09668 0.015625)"/>
      <use xlink:href="#DejaVuSans-76" transform="translate(1075.883789 0.015625)"/>
      <use xlink:href="#DejaVuSans-61" transform="translate(1135.063477 0.015625)"/>
      <use xlink:href="#DejaVuSans-6c" transform="translate(1196.342773 0.015625)"/>
      <use xlink:href="#DejaVuSans-75" transform="translate(1224.125977 0.015625)"/>
      <use xlink:href="#DejaVuSans-65" transform="translate(1287.504883 0.015625)"/>
      <use xlink:href="#DejaVuSans-29" transform="translate(1349.02832 0.015625)"/>
     </g>
    </g>
   </g>
  </g>
  <g id="axes_2">
   <g id="patch_8">
    <path d="M 445.817188 305.4 
L 471.017188 305.4 
L 471.017188 28.2 
L 445.817188 28.2 
z
" style="fill: #ffffff"/>
   </g>
   <g id="matplotlib.axis_3">
    <g id="xtick_58">
     <g id="line2d_108">
      <g>
       <use xlink:href="#m6fa307a317" x="458.417188" y="305.4" style="stroke: #000000; stroke-width: 0.8"/>
      </g>
     </g>
     <g id="text_24">
      <!-- IG -->
      <g transform="translate(453.067969 319.998438)scale(0.1 -0.1)">
       <defs>
        <path id="DejaVuSans-49" d="M 628 4666 
L 1259 4666 
L 1259 0 
L 628 0 
L 628 4666 
z
" transform="scale(0.015625)"/>
        <path id="DejaVuSans-47" d="M 3809 666 
L 3809 1919 
L 2778 1919 
L 2778 2438 
L 4434 2438 
L 4434 434 
Q 4069 175 3628 42 
Q 3188 -91 2688 -91 
Q 1594 -91 976 548 
Q 359 1188 359 2328 
Q 359 3472 976 4111 
Q 1594 4750 2688 4750 
Q 3144 4750 3555 4637 
Q 3966 4525 4313 4306 
L 4313 3634 
Q 3963 3931 3569 4081 
Q 3175 4231 2741 4231 
Q 1884 4231 1454 3753 
Q 1025 3275 1025 2328 
Q 1025 1384 1454 906 
Q 1884 428 2741 428 
Q 3075 428 3337 486 
Q 3600 544 3809 666 
z
" transform="scale(0.015625)"/>
       </defs>
       <use xlink:href="#DejaVuSans-49"/>
       <use xlink:href="#DejaVuSans-47" x="29.492188"/>
      </g>
     </g>
    </g>
   </g>
   <g id="line2d_109">
    <path d="M 445.817188 124.58779 
L 471.017188 124.58779 
" clip-path="url(#p9d1c02753f)" style="fill: none; stroke: #440154; stroke-width: 1.5; stroke-linecap: square"/>
   </g>
   <g id="line2d_110">
    <path d="M 445.817188 155.484015 
L 471.017188 155.484015 
" clip-path="url(#p9d1c02753f)" style="fill: none; stroke: #31688e; stroke-width: 1.5; stroke-linecap: square"/>
   </g>
   <g id="line2d_111">
    <path d="M 445.817188 164.123265 
L 471.017188 164.123265 
" clip-path="url(#p9d1c02753f)" style="fill: none; stroke: #35b779; stroke-width: 1.5; stroke-linecap: square"/>
   </g>
   <g id="line2d_112">
    <path d="M 445.817188 200.535154 
L 471.017188 200.535154 
" clip-path="url(#p9d1c02753f)" style="fill: none; stroke: #fde725; stroke-width: 1.5; stroke-linecap: square"/>
   </g>
   <g id="line2d_113">
    <path d="M 445.817188 49.960257 
L 471.017188 49.960257 
" clip-path="url(#p9d1c02753f)" style="fill: none; stroke-dasharray: 5.55,2.4; stroke-dashoffset: 0; stroke: #ffa500; stroke-width: 1.5"/>
   </g>
   <g id="patch_9">
    <path d="M 445.817188 305.4 
L 445.817188 28.2 
" style="fill: none; stroke: #000000; stroke-width: 0.8; stroke-linejoin: miter; stroke-linecap: square"/>
   </g>
   <g id="patch_10">
    <path d="M 471.017188 305.4 
L 471.017188 28.2 
" style="fill: none; stroke: #000000; stroke-width: 0.8; stroke-linejoin: miter; stroke-linecap: square"/>
   </g>
   <g id="patch_11">
    <path d="M 445.817188 305.4 
L 471.017188 305.4 
" style="fill: none; stroke: #000000; stroke-width: 0.8; stroke-linejoin: miter; stroke-linecap: square"/>
   </g>
   <g id="patch_12">
    <path d="M 445.817188 28.2 
L 471.017188 28.2 
" style="fill: none; stroke: #000000; stroke-width: 0.8; stroke-linejoin: miter; stroke-linecap: square"/>
   </g>
  </g>
  <g id="axes_3">
   <g id="patch_13">
    <path d="M 471.017188 305.4 
L 496.217188 305.4 
L 496.217188 28.2 
L 471.017188 28.2 
z
" style="fill: #ffffff"/>
   </g>
   <g id="matplotlib.axis_4">
    <g id="xtick_59">
     <g id="line2d_114">
      <g>
       <use xlink:href="#m6fa307a317" x="483.617188" y="305.4" style="stroke: #000000; stroke-width: 0.8"/>
      </g>
     </g>
     <g id="text_25">
      <!-- SHAP -->
      <g transform="translate(470.247656 319.998438)scale(0.1 -0.1)">
       <defs>
        <path id="DejaVuSans-48" d="M 628 4666 
L 1259 4666 
L 1259 2753 
L 3553 2753 
L 3553 4666 
L 4184 4666 
L 4184 0 
L 3553 0 
L 3553 2222 
L 1259 2222 
L 1259 0 
L 628 0 
L 628 4666 
z
" transform="scale(0.015625)"/>
        <path id="DejaVuSans-41" d="M 2188 4044 
L 1331 1722 
L 3047 1722 
L 2188 4044 
z
M 1831 4666 
L 2547 4666 
L 4325 0 
L 3669 0 
L 3244 1197 
L 1141 1197 
L 716 0 
L 50 0 
L 1831 4666 
z
" transform="scale(0.015625)"/>
        <path id="DejaVuSans-50" d="M 1259 4147 
L 1259 2394 
L 2053 2394 
Q 2494 2394 2734 2622 
Q 2975 2850 2975 3272 
Q 2975 3691 2734 3919 
Q 2494 4147 2053 4147 
L 1259 4147 
z
M 628 4666 
L 2053 4666 
Q 2838 4666 3239 4311 
Q 3641 3956 3641 3272 
Q 3641 2581 3239 2228 
Q 2838 1875 2053 1875 
L 1259 1875 
L 1259 0 
L 628 0 
L 628 4666 
z
" transform="scale(0.015625)"/>
       </defs>
       <use xlink:href="#DejaVuSans-53"/>
       <use xlink:href="#DejaVuSans-48" x="63.476562"/>
       <use xlink:href="#DejaVuSans-41" x="138.671875"/>
       <use xlink:href="#DejaVuSans-50" x="207.080078"/>
      </g>
     </g>
    </g>
   </g>
   <g id="line2d_115">
    <path d="M 471.017188 127.929355 
L 496.217188 127.929355 
" clip-path="url(#pc031121ec3)" style="fill: none; stroke: #440154; stroke-width: 1.5; stroke-linecap: square"/>
   </g>
   <g id="line2d_116">
    <path d="M 471.017188 129.713206 
L 496.217188 129.713206 
" clip-path="url(#pc031121ec3)" style="fill: none; stroke: #31688e; stroke-width: 1.5; stroke-linecap: square"/>
   </g>
   <g id="line2d_117">
    <path d="M 471.017188 151.900348 
L 496.217188 151.900348 
" clip-path="url(#pc031121ec3)" style="fill: none; stroke: #35b779; stroke-width: 1.5; stroke-linecap: square"/>
   </g>
   <g id="line2d_118">
    <path d="M 471.017188 157.535381 
L 496.217188 157.535381 
" clip-path="url(#pc031121ec3)" style="fill: none; stroke: #fde725; stroke-width: 1.5; stroke-linecap: square"/>
   </g>
   <g id="line2d_119">
    <path d="M 471.017188 61.494936 
L 496.217188 61.494936 
" clip-path="url(#pc031121ec3)" style="fill: none; stroke-dasharray: 5.55,2.4; stroke-dashoffset: 0; stroke: #ffa500; stroke-width: 1.5"/>
   </g>
   <g id="patch_14">
    <path d="M 471.017188 305.4 
L 471.017188 28.2 
" style="fill: none; stroke: #000000; stroke-width: 0.8; stroke-linejoin: miter; stroke-linecap: square"/>
   </g>
   <g id="patch_15">
    <path d="M 496.217188 305.4 
L 496.217188 28.2 
" style="fill: none; stroke: #000000; stroke-width: 0.8; stroke-linejoin: miter; stroke-linecap: square"/>
   </g>
   <g id="patch_16">
    <path d="M 471.017188 305.4 
L 496.217188 305.4 
" style="fill: none; stroke: #000000; stroke-width: 0.8; stroke-linejoin: miter; stroke-linecap: square"/>
   </g>
   <g id="patch_17">
    <path d="M 471.017188 28.2 
L 496.217188 28.2 
" style="fill: none; stroke: #000000; stroke-width: 0.8; stroke-linejoin: miter; stroke-linecap: square"/>
   </g>
   <g id="text_26">
    <!-- $A^{(0 \leftarrow T)}_{IG / SHAP}$ -->
    <g transform="translate(442.667188 22.2)scale(0.15 -0.15)">
     <defs>
      <path id="DejaVuSans-Oblique-49" d="M 1081 4666 
L 1716 4666 
L 806 0 
L 172 0 
L 1081 4666 
z
" transform="scale(0.015625)"/>
      <path id="DejaVuSans-Oblique-47" d="M 3494 697 
L 3738 1919 
L 2700 1919 
L 2797 2438 
L 4453 2438 
L 4050 384 
Q 3634 156 3143 32 
Q 2653 -91 2156 -91 
Q 1278 -91 783 396 
Q 288 884 288 1753 
Q 288 2475 589 3126 
Q 891 3778 1422 4213 
Q 1756 4484 2153 4617 
Q 2550 4750 3034 4750 
Q 3472 4750 3873 4639 
Q 4275 4528 4641 4306 
L 4513 3634 
Q 4231 3928 3853 4083 
Q 3475 4238 3047 4238 
Q 2550 4238 2172 4048 
Q 1794 3859 1497 3463 
Q 1244 3125 1098 2667 
Q 953 2209 953 1734 
Q 953 1081 1287 751 
Q 1622 422 2284 422 
Q 2616 422 2925 492 
Q 3234 563 3494 697 
z
" transform="scale(0.015625)"/>
      <path id="DejaVuSans-2f" d="M 1625 4666 
L 2156 4666 
L 531 -594 
L 0 -594 
L 1625 4666 
z
" transform="scale(0.015625)"/>
      <path id="DejaVuSans-Oblique-53" d="M 3859 4513 
L 3738 3897 
Q 3422 4066 3111 4152 
Q 2800 4238 2509 4238 
Q 1944 4238 1609 3991 
Q 1275 3744 1275 3334 
Q 1275 3109 1398 2989 
Q 1522 2869 2034 2731 
L 2413 2638 
Q 3053 2472 3303 2217 
Q 3553 1963 3553 1503 
Q 3553 797 2998 353 
Q 2444 -91 1538 -91 
Q 1166 -91 791 -17 
Q 416 56 38 206 
L 166 856 
Q 513 641 861 531 
Q 1209 422 1556 422 
Q 2147 422 2503 684 
Q 2859 947 2859 1369 
Q 2859 1650 2717 1795 
Q 2575 1941 2106 2059 
L 1728 2156 
Q 1081 2325 845 2545 
Q 609 2766 609 3163 
Q 609 3859 1145 4304 
Q 1681 4750 2541 4750 
Q 2875 4750 3203 4690 
Q 3531 4631 3859 4513 
z
" transform="scale(0.015625)"/>
      <path id="DejaVuSans-Oblique-48" d="M 1081 4666 
L 1716 4666 
L 1344 2753 
L 3634 2753 
L 4006 4666 
L 4641 4666 
L 3731 0 
L 3097 0 
L 3531 2222 
L 1241 2222 
L 806 0 
L 172 0 
L 1081 4666 
z
" transform="scale(0.015625)"/>
     </defs>
     <use xlink:href="#DejaVuSans-Oblique-41" transform="translate(0 0.546875)"/>
     <use xlink:href="#DejaVuSans-28" transform="translate(75.424974 46.8875)scale(0.7)"/>
     <use xlink:href="#DejaVuSans-30" transform="translate(102.734544 46.8875)scale(0.7)"/>
     <use xlink:href="#DejaVuSans-2190" transform="translate(160.908372 46.8875)scale(0.7)"/>
     <use xlink:href="#DejaVuSans-Oblique-54" transform="translate(233.198411 46.8875)scale(0.7)"/>
     <use xlink:href="#DejaVuSans-29" transform="translate(275.957201 46.8875)scale(0.7)"/>
     <use xlink:href="#DejaVuSans-Oblique-49" transform="translate(68.408203 -26.796875)scale(0.7)"/>
     <use xlink:href="#DejaVuSans-Oblique-47" transform="translate(89.052734 -26.796875)scale(0.7)"/>
     <use xlink:href="#DejaVuSans-2f" transform="translate(143.295898 -26.796875)scale(0.7)"/>
     <use xlink:href="#DejaVuSans-Oblique-53" transform="translate(166.879883 -26.796875)scale(0.7)"/>
     <use xlink:href="#DejaVuSans-Oblique-48" transform="translate(211.313477 -26.796875)scale(0.7)"/>
     <use xlink:href="#DejaVuSans-Oblique-41" transform="translate(263.950195 -26.796875)scale(0.7)"/>
     <use xlink:href="#DejaVuSans-Oblique-50" transform="translate(311.835938 -26.796875)scale(0.7)"/>
    </g>
   </g>
  </g>
 </g>
 <defs>
  <clipPath id="pc3a014ae65">
   <rect x="55.217188" y="28.2" width="390.6" height="277.2"/>
  </clipPath>
  <clipPath id="p9d1c02753f">
   <rect x="445.817188" y="28.2" width="25.2" height="277.2"/>
  </clipPath>
  <clipPath id="pc031121ec3">
   <rect x="471.017188" y="28.2" width="25.2" height="277.2"/>
  </clipPath>
 </defs>
</svg>
