<?xml version="1.0" encoding="utf-8" standalone="no"?>
<!DOCTYPE svg PUBLIC "-//W3C//DTD SVG 1.1//EN"
  "http://www.w3.org/Graphics/SVG/1.1/DTD/svg11.dtd">
<svg xmlns:xlink="http://www.w3.org/1999/xlink" width="454.017187pt" height="347.645313pt" viewBox="0 0 454.017187 347.645313" xmlns="http://www.w3.org/2000/svg" version="1.1">
 <metadata>
  <rdf:RDF xmlns:dc="http://purl.org/dc/elements/1.1/" xmlns:cc="http://creativecommons.org/ns#" xmlns:rdf="http://www.w3.org/1999/02/22-rdf-syntax-ns#">
   <cc:Work>
    <dc:type rdf:resource="http://purl.org/dc/dcmitype/StillImage"/>
    <dc:date>2023-12-12T17:40:27.764373</dc:date>
    <dc:format>image/svg+xml</dc:format>
    <dc:creator>
     <cc:Agent>
      <dc:title>Matplotlib v3.5.1, https://matplotlib.org/</dc:title>
     </cc:Agent>
    </dc:creator>
   </cc:Work>
  </rdf:RDF>
 </metadata>
 <defs>
  <style type="text/css">*{stroke-linejoin: round; stroke-linecap: butt}</style>
 </defs>
 <g id="figure_1">
  <g id="patch_1">
   <path d="M 0 347.645313 
L 454.017187 347.645313 
L 454.017187 0 
L 0 0 
z
" style="fill: #ffffff"/>
  </g>
  <g id="axes_1">
   <g id="patch_2">
    <path d="M 56.217188 305.25 
L 446.817188 305.25 
L 446.817188 28.05 
L 56.217188 28.05 
z
" style="fill: #ffffff"/>
   </g>
   <g id="matplotlib.axis_1">
    <g id="xtick_1">
     <g id="line2d_1">
      <defs>
       <path id="mb2baaab497" d="M 0 0 
L 0 3.5 
" style="stroke: #000000; stroke-width: 0.8"/>
      </defs>
      <g>
       <use xlink:href="#mb2baaab497" x="75.470221" y="305.25" style="stroke: #000000; stroke-width: 0.8"/>
      </g>
     </g>
     <g id="text_1">
      <!-- 0.0001 -->
      <g transform="translate(57.974908 319.848438)scale(0.1 -0.1)">
       <defs>
        <path id="DejaVuSans-30" d="M 2034 4250 
Q 1547 4250 1301 3770 
Q 1056 3291 1056 2328 
Q 1056 1369 1301 889 
Q 1547 409 2034 409 
Q 2525 409 2770 889 
Q 3016 1369 3016 2328 
Q 3016 3291 2770 3770 
Q 2525 4250 2034 4250 
z
M 2034 4750 
Q 2819 4750 3233 4129 
Q 3647 3509 3647 2328 
Q 3647 1150 3233 529 
Q 2819 -91 2034 -91 
Q 1250 -91 836 529 
Q 422 1150 422 2328 
Q 422 3509 836 4129 
Q 1250 4750 2034 4750 
z
" transform="scale(0.015625)"/>
        <path id="DejaVuSans-2e" d="M 684 794 
L 1344 794 
L 1344 0 
L 684 0 
L 684 794 
z
" transform="scale(0.015625)"/>
        <path id="DejaVuSans-31" d="M 794 531 
L 1825 531 
L 1825 4091 
L 703 3866 
L 703 4441 
L 1819 4666 
L 2450 4666 
L 2450 531 
L 3481 531 
L 3481 0 
L 794 0 
L 794 531 
z
" transform="scale(0.015625)"/>
       </defs>
       <use xlink:href="#DejaVuSans-30"/>
       <use xlink:href="#DejaVuSans-2e" x="63.623047"/>
       <use xlink:href="#DejaVuSans-30" x="95.410156"/>
       <use xlink:href="#DejaVuSans-30" x="159.033203"/>
       <use xlink:href="#DejaVuSans-30" x="222.65625"/>
       <use xlink:href="#DejaVuSans-31" x="286.279297"/>
      </g>
     </g>
    </g>
    <g id="xtick_2">
     <g id="line2d_2">
      <g>
       <use xlink:href="#mb2baaab497" x="139.427413" y="305.25" style="stroke: #000000; stroke-width: 0.8"/>
      </g>
     </g>
     <g id="text_2">
      <!-- 0.001 -->
      <g transform="translate(125.11335 319.848438)scale(0.1 -0.1)">
       <use xlink:href="#DejaVuSans-30"/>
       <use xlink:href="#DejaVuSans-2e" x="63.623047"/>
       <use xlink:href="#DejaVuSans-30" x="95.410156"/>
       <use xlink:href="#DejaVuSans-30" x="159.033203"/>
       <use xlink:href="#DejaVuSans-31" x="222.65625"/>
      </g>
     </g>
    </g>
    <g id="xtick_3">
     <g id="line2d_3">
      <g>
       <use xlink:href="#mb2baaab497" x="203.384604" y="305.25" style="stroke: #000000; stroke-width: 0.8"/>
      </g>
     </g>
     <g id="text_3">
      <!-- 0.01 -->
      <g transform="translate(192.251792 319.848438)scale(0.1 -0.1)">
       <use xlink:href="#DejaVuSans-30"/>
       <use xlink:href="#DejaVuSans-2e" x="63.623047"/>
       <use xlink:href="#DejaVuSans-30" x="95.410156"/>
       <use xlink:href="#DejaVuSans-31" x="159.033203"/>
      </g>
     </g>
    </g>
    <g id="xtick_4">
     <g id="line2d_4">
      <g>
       <use xlink:href="#mb2baaab497" x="267.341796" y="305.25" style="stroke: #000000; stroke-width: 0.8"/>
      </g>
     </g>
     <g id="text_4">
      <!-- 0.1 -->
      <g transform="translate(259.390234 319.848438)scale(0.1 -0.1)">
       <use xlink:href="#DejaVuSans-30"/>
       <use xlink:href="#DejaVuSans-2e" x="63.623047"/>
       <use xlink:href="#DejaVuSans-31" x="95.410156"/>
      </g>
     </g>
    </g>
    <g id="xtick_5">
     <g id="line2d_5">
      <g>
       <use xlink:href="#mb2baaab497" x="297.857132" y="305.25" style="stroke: #000000; stroke-width: 0.8"/>
      </g>
     </g>
     <g id="text_5">
      <!-- 0.3 -->
      <g transform="translate(289.90557 319.848438)scale(0.1 -0.1)">
       <defs>
        <path id="DejaVuSans-33" d="M 2597 2516 
Q 3050 2419 3304 2112 
Q 3559 1806 3559 1356 
Q 3559 666 3084 287 
Q 2609 -91 1734 -91 
Q 1441 -91 1130 -33 
Q 819 25 488 141 
L 488 750 
Q 750 597 1062 519 
Q 1375 441 1716 441 
Q 2309 441 2620 675 
Q 2931 909 2931 1356 
Q 2931 1769 2642 2001 
Q 2353 2234 1838 2234 
L 1294 2234 
L 1294 2753 
L 1863 2753 
Q 2328 2753 2575 2939 
Q 2822 3125 2822 3475 
Q 2822 3834 2567 4026 
Q 2313 4219 1838 4219 
Q 1578 4219 1281 4162 
Q 984 4106 628 3988 
L 628 4550 
Q 988 4650 1302 4700 
Q 1616 4750 1894 4750 
Q 2613 4750 3031 4423 
Q 3450 4097 3450 3541 
Q 3450 3153 3228 2886 
Q 3006 2619 2597 2516 
z
" transform="scale(0.015625)"/>
       </defs>
       <use xlink:href="#DejaVuSans-30"/>
       <use xlink:href="#DejaVuSans-2e" x="63.623047"/>
       <use xlink:href="#DejaVuSans-33" x="95.410156"/>
      </g>
     </g>
    </g>
    <g id="xtick_6">
     <g id="line2d_6">
      <g>
       <use xlink:href="#mb2baaab497" x="331.298988" y="305.25" style="stroke: #000000; stroke-width: 0.8"/>
      </g>
     </g>
     <g id="text_6">
      <!-- 1 -->
      <g transform="translate(328.117738 319.848438)scale(0.1 -0.1)">
       <use xlink:href="#DejaVuSans-31"/>
      </g>
     </g>
    </g>
    <g id="xtick_7">
     <g id="line2d_7">
      <g>
       <use xlink:href="#mb2baaab497" x="350.552021" y="305.25" style="stroke: #000000; stroke-width: 0.8"/>
      </g>
     </g>
     <g id="text_7">
      <!-- 2 -->
      <g transform="translate(347.370771 319.848438)scale(0.1 -0.1)">
       <defs>
        <path id="DejaVuSans-32" d="M 1228 531 
L 3431 531 
L 3431 0 
L 469 0 
L 469 531 
Q 828 903 1448 1529 
Q 2069 2156 2228 2338 
Q 2531 2678 2651 2914 
Q 2772 3150 2772 3378 
Q 2772 3750 2511 3984 
Q 2250 4219 1831 4219 
Q 1534 4219 1204 4116 
Q 875 4013 500 3803 
L 500 4441 
Q 881 4594 1212 4672 
Q 1544 4750 1819 4750 
Q 2544 4750 2975 4387 
Q 3406 4025 3406 3419 
Q 3406 3131 3298 2873 
Q 3191 2616 2906 2266 
Q 2828 2175 2409 1742 
Q 1991 1309 1228 531 
z
" transform="scale(0.015625)"/>
       </defs>
       <use xlink:href="#DejaVuSans-32"/>
      </g>
     </g>
    </g>
    <g id="xtick_8">
     <g id="line2d_8">
      <g>
       <use xlink:href="#mb2baaab497" x="369.805055" y="305.25" style="stroke: #000000; stroke-width: 0.8"/>
      </g>
     </g>
     <g id="text_8">
      <!-- 4 -->
      <g transform="translate(366.623805 319.848438)scale(0.1 -0.1)">
       <defs>
        <path id="DejaVuSans-34" d="M 2419 4116 
L 825 1625 
L 2419 1625 
L 2419 4116 
z
M 2253 4666 
L 3047 4666 
L 3047 1625 
L 3713 1625 
L 3713 1100 
L 3047 1100 
L 3047 0 
L 2419 0 
L 2419 1100 
L 313 1100 
L 313 1709 
L 2253 4666 
z
" transform="scale(0.015625)"/>
       </defs>
       <use xlink:href="#DejaVuSans-34"/>
      </g>
     </g>
    </g>
    <g id="xtick_9">
     <g id="line2d_9">
      <g>
       <use xlink:href="#mb2baaab497" x="389.058088" y="305.25" style="stroke: #000000; stroke-width: 0.8"/>
      </g>
     </g>
     <g id="text_9">
      <!-- 8 -->
      <g transform="translate(385.876838 319.848438)scale(0.1 -0.1)">
       <defs>
        <path id="DejaVuSans-38" d="M 2034 2216 
Q 1584 2216 1326 1975 
Q 1069 1734 1069 1313 
Q 1069 891 1326 650 
Q 1584 409 2034 409 
Q 2484 409 2743 651 
Q 3003 894 3003 1313 
Q 3003 1734 2745 1975 
Q 2488 2216 2034 2216 
z
M 1403 2484 
Q 997 2584 770 2862 
Q 544 3141 544 3541 
Q 544 4100 942 4425 
Q 1341 4750 2034 4750 
Q 2731 4750 3128 4425 
Q 3525 4100 3525 3541 
Q 3525 3141 3298 2862 
Q 3072 2584 2669 2484 
Q 3125 2378 3379 2068 
Q 3634 1759 3634 1313 
Q 3634 634 3220 271 
Q 2806 -91 2034 -91 
Q 1263 -91 848 271 
Q 434 634 434 1313 
Q 434 1759 690 2068 
Q 947 2378 1403 2484 
z
M 1172 3481 
Q 1172 3119 1398 2916 
Q 1625 2713 2034 2713 
Q 2441 2713 2670 2916 
Q 2900 3119 2900 3481 
Q 2900 3844 2670 4047 
Q 2441 4250 2034 4250 
Q 1625 4250 1398 4047 
Q 1172 3844 1172 3481 
z
" transform="scale(0.015625)"/>
       </defs>
       <use xlink:href="#DejaVuSans-38"/>
      </g>
     </g>
    </g>
    <g id="xtick_10">
     <g id="line2d_10">
      <g>
       <use xlink:href="#mb2baaab497" x="408.311121" y="305.25" style="stroke: #000000; stroke-width: 0.8"/>
      </g>
     </g>
     <g id="text_10">
      <!-- 16 -->
      <g transform="translate(401.948621 319.848438)scale(0.1 -0.1)">
       <defs>
        <path id="DejaVuSans-36" d="M 2113 2584 
Q 1688 2584 1439 2293 
Q 1191 2003 1191 1497 
Q 1191 994 1439 701 
Q 1688 409 2113 409 
Q 2538 409 2786 701 
Q 3034 994 3034 1497 
Q 3034 2003 2786 2293 
Q 2538 2584 2113 2584 
z
M 3366 4563 
L 3366 3988 
Q 3128 4100 2886 4159 
Q 2644 4219 2406 4219 
Q 1781 4219 1451 3797 
Q 1122 3375 1075 2522 
Q 1259 2794 1537 2939 
Q 1816 3084 2150 3084 
Q 2853 3084 3261 2657 
Q 3669 2231 3669 1497 
Q 3669 778 3244 343 
Q 2819 -91 2113 -91 
Q 1303 -91 875 529 
Q 447 1150 447 2328 
Q 447 3434 972 4092 
Q 1497 4750 2381 4750 
Q 2619 4750 2861 4703 
Q 3103 4656 3366 4563 
z
" transform="scale(0.015625)"/>
       </defs>
       <use xlink:href="#DejaVuSans-31"/>
       <use xlink:href="#DejaVuSans-36" x="63.623047"/>
      </g>
     </g>
    </g>
    <g id="xtick_11">
     <g id="line2d_11">
      <g>
       <use xlink:href="#mb2baaab497" x="427.564154" y="305.25" style="stroke: #000000; stroke-width: 0.8"/>
      </g>
     </g>
     <g id="text_11">
      <!-- 32 -->
      <g transform="translate(421.201654 319.848438)scale(0.1 -0.1)">
       <use xlink:href="#DejaVuSans-33"/>
       <use xlink:href="#DejaVuSans-32" x="63.623047"/>
      </g>
     </g>
    </g>
    <g id="xtick_12">
     <g id="line2d_12">
      <defs>
       <path id="m152baf3397" d="M 0 0 
L 0 2 
" style="stroke: #000000; stroke-width: 0.6"/>
      </defs>
      <g>
       <use xlink:href="#m152baf3397" x="56.217187" y="305.25" style="stroke: #000000; stroke-width: 0.6"/>
      </g>
     </g>
    </g>
    <g id="xtick_13">
     <g id="line2d_13">
      <g>
       <use xlink:href="#m152baf3397" x="61.281398" y="305.25" style="stroke: #000000; stroke-width: 0.6"/>
      </g>
     </g>
    </g>
    <g id="xtick_14">
     <g id="line2d_14">
      <g>
       <use xlink:href="#m152baf3397" x="65.563126" y="305.25" style="stroke: #000000; stroke-width: 0.6"/>
      </g>
     </g>
    </g>
    <g id="xtick_15">
     <g id="line2d_15">
      <g>
       <use xlink:href="#m152baf3397" x="69.272128" y="305.25" style="stroke: #000000; stroke-width: 0.6"/>
      </g>
     </g>
    </g>
    <g id="xtick_16">
     <g id="line2d_16">
      <g>
       <use xlink:href="#m152baf3397" x="72.5437" y="305.25" style="stroke: #000000; stroke-width: 0.6"/>
      </g>
     </g>
    </g>
    <g id="xtick_17">
     <g id="line2d_17">
      <g>
       <use xlink:href="#m152baf3397" x="94.723254" y="305.25" style="stroke: #000000; stroke-width: 0.6"/>
      </g>
     </g>
    </g>
    <g id="xtick_18">
     <g id="line2d_18">
      <g>
       <use xlink:href="#m152baf3397" x="105.985556" y="305.25" style="stroke: #000000; stroke-width: 0.6"/>
      </g>
     </g>
    </g>
    <g id="xtick_19">
     <g id="line2d_19">
      <g>
       <use xlink:href="#m152baf3397" x="113.976287" y="305.25" style="stroke: #000000; stroke-width: 0.6"/>
      </g>
     </g>
    </g>
    <g id="xtick_20">
     <g id="line2d_20">
      <g>
       <use xlink:href="#m152baf3397" x="120.174379" y="305.25" style="stroke: #000000; stroke-width: 0.6"/>
      </g>
     </g>
    </g>
    <g id="xtick_21">
     <g id="line2d_21">
      <g>
       <use xlink:href="#m152baf3397" x="125.23859" y="305.25" style="stroke: #000000; stroke-width: 0.6"/>
      </g>
     </g>
    </g>
    <g id="xtick_22">
     <g id="line2d_22">
      <g>
       <use xlink:href="#m152baf3397" x="129.520318" y="305.25" style="stroke: #000000; stroke-width: 0.6"/>
      </g>
     </g>
    </g>
    <g id="xtick_23">
     <g id="line2d_23">
      <g>
       <use xlink:href="#m152baf3397" x="133.22932" y="305.25" style="stroke: #000000; stroke-width: 0.6"/>
      </g>
     </g>
    </g>
    <g id="xtick_24">
     <g id="line2d_24">
      <g>
       <use xlink:href="#m152baf3397" x="136.500892" y="305.25" style="stroke: #000000; stroke-width: 0.6"/>
      </g>
     </g>
    </g>
    <g id="xtick_25">
     <g id="line2d_25">
      <g>
       <use xlink:href="#m152baf3397" x="158.680446" y="305.25" style="stroke: #000000; stroke-width: 0.6"/>
      </g>
     </g>
    </g>
    <g id="xtick_26">
     <g id="line2d_26">
      <g>
       <use xlink:href="#m152baf3397" x="169.942748" y="305.25" style="stroke: #000000; stroke-width: 0.6"/>
      </g>
     </g>
    </g>
    <g id="xtick_27">
     <g id="line2d_27">
      <g>
       <use xlink:href="#m152baf3397" x="177.933479" y="305.25" style="stroke: #000000; stroke-width: 0.6"/>
      </g>
     </g>
    </g>
    <g id="xtick_28">
     <g id="line2d_28">
      <g>
       <use xlink:href="#m152baf3397" x="184.131571" y="305.25" style="stroke: #000000; stroke-width: 0.6"/>
      </g>
     </g>
    </g>
    <g id="xtick_29">
     <g id="line2d_29">
      <g>
       <use xlink:href="#m152baf3397" x="189.195781" y="305.25" style="stroke: #000000; stroke-width: 0.6"/>
      </g>
     </g>
    </g>
    <g id="xtick_30">
     <g id="line2d_30">
      <g>
       <use xlink:href="#m152baf3397" x="193.47751" y="305.25" style="stroke: #000000; stroke-width: 0.6"/>
      </g>
     </g>
    </g>
    <g id="xtick_31">
     <g id="line2d_31">
      <g>
       <use xlink:href="#m152baf3397" x="197.186512" y="305.25" style="stroke: #000000; stroke-width: 0.6"/>
      </g>
     </g>
    </g>
    <g id="xtick_32">
     <g id="line2d_32">
      <g>
       <use xlink:href="#m152baf3397" x="200.458084" y="305.25" style="stroke: #000000; stroke-width: 0.6"/>
      </g>
     </g>
    </g>
    <g id="xtick_33">
     <g id="line2d_33">
      <g>
       <use xlink:href="#m152baf3397" x="222.637638" y="305.25" style="stroke: #000000; stroke-width: 0.6"/>
      </g>
     </g>
    </g>
    <g id="xtick_34">
     <g id="line2d_34">
      <g>
       <use xlink:href="#m152baf3397" x="233.89994" y="305.25" style="stroke: #000000; stroke-width: 0.6"/>
      </g>
     </g>
    </g>
    <g id="xtick_35">
     <g id="line2d_35">
      <g>
       <use xlink:href="#m152baf3397" x="241.890671" y="305.25" style="stroke: #000000; stroke-width: 0.6"/>
      </g>
     </g>
    </g>
    <g id="xtick_36">
     <g id="line2d_36">
      <g>
       <use xlink:href="#m152baf3397" x="248.088763" y="305.25" style="stroke: #000000; stroke-width: 0.6"/>
      </g>
     </g>
    </g>
    <g id="xtick_37">
     <g id="line2d_37">
      <g>
       <use xlink:href="#m152baf3397" x="253.152973" y="305.25" style="stroke: #000000; stroke-width: 0.6"/>
      </g>
     </g>
    </g>
    <g id="xtick_38">
     <g id="line2d_38">
      <g>
       <use xlink:href="#m152baf3397" x="257.434702" y="305.25" style="stroke: #000000; stroke-width: 0.6"/>
      </g>
     </g>
    </g>
    <g id="xtick_39">
     <g id="line2d_39">
      <g>
       <use xlink:href="#m152baf3397" x="261.143704" y="305.25" style="stroke: #000000; stroke-width: 0.6"/>
      </g>
     </g>
    </g>
    <g id="xtick_40">
     <g id="line2d_40">
      <g>
       <use xlink:href="#m152baf3397" x="264.415276" y="305.25" style="stroke: #000000; stroke-width: 0.6"/>
      </g>
     </g>
    </g>
    <g id="xtick_41">
     <g id="line2d_41">
      <g>
       <use xlink:href="#m152baf3397" x="286.59483" y="305.25" style="stroke: #000000; stroke-width: 0.6"/>
      </g>
     </g>
    </g>
    <g id="xtick_42">
     <g id="line2d_42">
      <g>
       <use xlink:href="#m152baf3397" x="305.847863" y="305.25" style="stroke: #000000; stroke-width: 0.6"/>
      </g>
     </g>
    </g>
    <g id="xtick_43">
     <g id="line2d_43">
      <g>
       <use xlink:href="#m152baf3397" x="312.045955" y="305.25" style="stroke: #000000; stroke-width: 0.6"/>
      </g>
     </g>
    </g>
    <g id="xtick_44">
     <g id="line2d_44">
      <g>
       <use xlink:href="#m152baf3397" x="317.110165" y="305.25" style="stroke: #000000; stroke-width: 0.6"/>
      </g>
     </g>
    </g>
    <g id="xtick_45">
     <g id="line2d_45">
      <g>
       <use xlink:href="#m152baf3397" x="321.391894" y="305.25" style="stroke: #000000; stroke-width: 0.6"/>
      </g>
     </g>
    </g>
    <g id="xtick_46">
     <g id="line2d_46">
      <g>
       <use xlink:href="#m152baf3397" x="325.100896" y="305.25" style="stroke: #000000; stroke-width: 0.6"/>
      </g>
     </g>
    </g>
    <g id="xtick_47">
     <g id="line2d_47">
      <g>
       <use xlink:href="#m152baf3397" x="328.372468" y="305.25" style="stroke: #000000; stroke-width: 0.6"/>
      </g>
     </g>
    </g>
    <g id="xtick_48">
     <g id="line2d_48">
      <g>
       <use xlink:href="#m152baf3397" x="361.814324" y="305.25" style="stroke: #000000; stroke-width: 0.6"/>
      </g>
     </g>
    </g>
    <g id="xtick_49">
     <g id="line2d_49">
      <g>
       <use xlink:href="#m152baf3397" x="376.003147" y="305.25" style="stroke: #000000; stroke-width: 0.6"/>
      </g>
     </g>
    </g>
    <g id="xtick_50">
     <g id="line2d_50">
      <g>
       <use xlink:href="#m152baf3397" x="381.067357" y="305.25" style="stroke: #000000; stroke-width: 0.6"/>
      </g>
     </g>
    </g>
    <g id="xtick_51">
     <g id="line2d_51">
      <g>
       <use xlink:href="#m152baf3397" x="385.349086" y="305.25" style="stroke: #000000; stroke-width: 0.6"/>
      </g>
     </g>
    </g>
    <g id="xtick_52">
     <g id="line2d_52">
      <g>
       <use xlink:href="#m152baf3397" x="392.32966" y="305.25" style="stroke: #000000; stroke-width: 0.6"/>
      </g>
     </g>
    </g>
    <g id="xtick_53">
     <g id="line2d_53">
      <g>
       <use xlink:href="#m152baf3397" x="414.509213" y="305.25" style="stroke: #000000; stroke-width: 0.6"/>
      </g>
     </g>
    </g>
    <g id="xtick_54">
     <g id="line2d_54">
      <g>
       <use xlink:href="#m152baf3397" x="425.771516" y="305.25" style="stroke: #000000; stroke-width: 0.6"/>
      </g>
     </g>
    </g>
    <g id="xtick_55">
     <g id="line2d_55">
      <g>
       <use xlink:href="#m152baf3397" x="433.762247" y="305.25" style="stroke: #000000; stroke-width: 0.6"/>
      </g>
     </g>
    </g>
    <g id="xtick_56">
     <g id="line2d_56">
      <g>
       <use xlink:href="#m152baf3397" x="439.960339" y="305.25" style="stroke: #000000; stroke-width: 0.6"/>
      </g>
     </g>
    </g>
    <g id="xtick_57">
     <g id="line2d_57">
      <g>
       <use xlink:href="#m152baf3397" x="445.024549" y="305.25" style="stroke: #000000; stroke-width: 0.6"/>
      </g>
     </g>
    </g>
    <g id="text_12">
     <!-- $\gamma$ -->
     <g transform="translate(247.017188 337.295313)scale(0.15 -0.15)">
      <defs>
       <path id="DejaVuSans-Oblique-3b3" d="M 1491 2950 
L 1838 788 
L 3456 3500 
L 4066 3500 
L 1972 0 
L 1713 -1331 
L 1138 -1331 
L 1397 0 
L 988 2613 
Q 925 3006 628 3006 
L 475 3006 
L 569 3500 
L 788 3500 
Q 1403 3500 1491 2950 
z
" transform="scale(0.015625)"/>
      </defs>
      <use xlink:href="#DejaVuSans-Oblique-3b3" transform="translate(0 0.3125)"/>
     </g>
    </g>
   </g>
   <g id="matplotlib.axis_2">
    <g id="ytick_1">
     <g id="line2d_58">
      <defs>
       <path id="m5684c41a96" d="M 0 0 
L -3.5 0 
" style="stroke: #000000; stroke-width: 0.8"/>
      </defs>
      <g>
       <use xlink:href="#m5684c41a96" x="56.217188" y="264.983579" style="stroke: #000000; stroke-width: 0.8"/>
      </g>
     </g>
     <g id="text_13">
      <!-- $\mathdefault{10^{-1}}$ -->
      <g transform="translate(25.717188 268.782798)scale(0.1 -0.1)">
       <defs>
        <path id="DejaVuSans-2212" d="M 678 2272 
L 4684 2272 
L 4684 1741 
L 678 1741 
L 678 2272 
z
" transform="scale(0.015625)"/>
       </defs>
       <use xlink:href="#DejaVuSans-31" transform="translate(0 0.684375)"/>
       <use xlink:href="#DejaVuSans-30" transform="translate(63.623047 0.684375)"/>
       <use xlink:href="#DejaVuSans-2212" transform="translate(128.203125 38.965625)scale(0.7)"/>
       <use xlink:href="#DejaVuSans-31" transform="translate(186.855469 38.965625)scale(0.7)"/>
      </g>
     </g>
    </g>
    <g id="ytick_2">
     <g id="line2d_59">
      <g>
       <use xlink:href="#m5684c41a96" x="56.217188" y="218.41153" style="stroke: #000000; stroke-width: 0.8"/>
      </g>
     </g>
     <g id="text_14">
      <!-- $\mathdefault{10^{0}}$ -->
      <g transform="translate(31.617188 222.210748)scale(0.1 -0.1)">
       <use xlink:href="#DejaVuSans-31" transform="translate(0 0.765625)"/>
       <use xlink:href="#DejaVuSans-30" transform="translate(63.623047 0.765625)"/>
       <use xlink:href="#DejaVuSans-30" transform="translate(128.203125 39.046875)scale(0.7)"/>
      </g>
     </g>
    </g>
    <g id="ytick_3">
     <g id="line2d_60">
      <g>
       <use xlink:href="#m5684c41a96" x="56.217188" y="171.839481" style="stroke: #000000; stroke-width: 0.8"/>
      </g>
     </g>
     <g id="text_15">
      <!-- $\mathdefault{10^{1}}$ -->
      <g transform="translate(31.617188 175.638699)scale(0.1 -0.1)">
       <use xlink:href="#DejaVuSans-31" transform="translate(0 0.684375)"/>
       <use xlink:href="#DejaVuSans-30" transform="translate(63.623047 0.684375)"/>
       <use xlink:href="#DejaVuSans-31" transform="translate(128.203125 38.965625)scale(0.7)"/>
      </g>
     </g>
    </g>
    <g id="ytick_4">
     <g id="line2d_61">
      <g>
       <use xlink:href="#m5684c41a96" x="56.217188" y="125.267432" style="stroke: #000000; stroke-width: 0.8"/>
      </g>
     </g>
     <g id="text_16">
      <!-- $\mathdefault{10^{2}}$ -->
      <g transform="translate(31.617188 129.06665)scale(0.1 -0.1)">
       <use xlink:href="#DejaVuSans-31" transform="translate(0 0.765625)"/>
       <use xlink:href="#DejaVuSans-30" transform="translate(63.623047 0.765625)"/>
       <use xlink:href="#DejaVuSans-32" transform="translate(128.203125 39.046875)scale(0.7)"/>
      </g>
     </g>
    </g>
    <g id="ytick_5">
     <g id="line2d_62">
      <g>
       <use xlink:href="#m5684c41a96" x="56.217188" y="78.695382" style="stroke: #000000; stroke-width: 0.8"/>
      </g>
     </g>
     <g id="text_17">
      <!-- $\mathdefault{10^{3}}$ -->
      <g transform="translate(31.617188 82.494601)scale(0.1 -0.1)">
       <use xlink:href="#DejaVuSans-31" transform="translate(0 0.765625)"/>
       <use xlink:href="#DejaVuSans-30" transform="translate(63.623047 0.765625)"/>
       <use xlink:href="#DejaVuSans-33" transform="translate(128.203125 39.046875)scale(0.7)"/>
      </g>
     </g>
    </g>
    <g id="ytick_6">
     <g id="line2d_63">
      <g>
       <use xlink:href="#m5684c41a96" x="56.217188" y="32.123333" style="stroke: #000000; stroke-width: 0.8"/>
      </g>
     </g>
     <g id="text_18">
      <!-- $\mathdefault{10^{4}}$ -->
      <g transform="translate(31.617188 35.922552)scale(0.1 -0.1)">
       <use xlink:href="#DejaVuSans-31" transform="translate(0 0.684375)"/>
       <use xlink:href="#DejaVuSans-30" transform="translate(63.623047 0.684375)"/>
       <use xlink:href="#DejaVuSans-34" transform="translate(128.203125 38.965625)scale(0.7)"/>
      </g>
     </g>
    </g>
    <g id="ytick_7">
     <g id="line2d_64">
      <defs>
       <path id="md8c1403b01" d="M 0 0 
L -2 0 
" style="stroke: #000000; stroke-width: 0.6"/>
      </defs>
      <g>
       <use xlink:href="#md8c1403b01" x="56.217188" y="297.536044" style="stroke: #000000; stroke-width: 0.6"/>
      </g>
     </g>
    </g>
    <g id="ytick_8">
     <g id="line2d_65">
      <g>
       <use xlink:href="#md8c1403b01" x="56.217188" y="289.335113" style="stroke: #000000; stroke-width: 0.6"/>
      </g>
     </g>
    </g>
    <g id="ytick_9">
     <g id="line2d_66">
      <g>
       <use xlink:href="#md8c1403b01" x="56.217188" y="283.51646" style="stroke: #000000; stroke-width: 0.6"/>
      </g>
     </g>
    </g>
    <g id="ytick_10">
     <g id="line2d_67">
      <g>
       <use xlink:href="#md8c1403b01" x="56.217188" y="279.003163" style="stroke: #000000; stroke-width: 0.6"/>
      </g>
     </g>
    </g>
    <g id="ytick_11">
     <g id="line2d_68">
      <g>
       <use xlink:href="#md8c1403b01" x="56.217188" y="275.31553" style="stroke: #000000; stroke-width: 0.6"/>
      </g>
     </g>
    </g>
    <g id="ytick_12">
     <g id="line2d_69">
      <g>
       <use xlink:href="#md8c1403b01" x="56.217188" y="272.19768" style="stroke: #000000; stroke-width: 0.6"/>
      </g>
     </g>
    </g>
    <g id="ytick_13">
     <g id="line2d_70">
      <g>
       <use xlink:href="#md8c1403b01" x="56.217188" y="269.496877" style="stroke: #000000; stroke-width: 0.6"/>
      </g>
     </g>
    </g>
    <g id="ytick_14">
     <g id="line2d_71">
      <g>
       <use xlink:href="#md8c1403b01" x="56.217188" y="267.114599" style="stroke: #000000; stroke-width: 0.6"/>
      </g>
     </g>
    </g>
    <g id="ytick_15">
     <g id="line2d_72">
      <g>
       <use xlink:href="#md8c1403b01" x="56.217188" y="250.963995" style="stroke: #000000; stroke-width: 0.6"/>
      </g>
     </g>
    </g>
    <g id="ytick_16">
     <g id="line2d_73">
      <g>
       <use xlink:href="#md8c1403b01" x="56.217188" y="242.763064" style="stroke: #000000; stroke-width: 0.6"/>
      </g>
     </g>
    </g>
    <g id="ytick_17">
     <g id="line2d_74">
      <g>
       <use xlink:href="#md8c1403b01" x="56.217188" y="236.944411" style="stroke: #000000; stroke-width: 0.6"/>
      </g>
     </g>
    </g>
    <g id="ytick_18">
     <g id="line2d_75">
      <g>
       <use xlink:href="#md8c1403b01" x="56.217188" y="232.431113" style="stroke: #000000; stroke-width: 0.6"/>
      </g>
     </g>
    </g>
    <g id="ytick_19">
     <g id="line2d_76">
      <g>
       <use xlink:href="#md8c1403b01" x="56.217188" y="228.743481" style="stroke: #000000; stroke-width: 0.6"/>
      </g>
     </g>
    </g>
    <g id="ytick_20">
     <g id="line2d_77">
      <g>
       <use xlink:href="#md8c1403b01" x="56.217188" y="225.625631" style="stroke: #000000; stroke-width: 0.6"/>
      </g>
     </g>
    </g>
    <g id="ytick_21">
     <g id="line2d_78">
      <g>
       <use xlink:href="#md8c1403b01" x="56.217188" y="222.924828" style="stroke: #000000; stroke-width: 0.6"/>
      </g>
     </g>
    </g>
    <g id="ytick_22">
     <g id="line2d_79">
      <g>
       <use xlink:href="#md8c1403b01" x="56.217188" y="220.54255" style="stroke: #000000; stroke-width: 0.6"/>
      </g>
     </g>
    </g>
    <g id="ytick_23">
     <g id="line2d_80">
      <g>
       <use xlink:href="#md8c1403b01" x="56.217188" y="204.391946" style="stroke: #000000; stroke-width: 0.6"/>
      </g>
     </g>
    </g>
    <g id="ytick_24">
     <g id="line2d_81">
      <g>
       <use xlink:href="#md8c1403b01" x="56.217188" y="196.191015" style="stroke: #000000; stroke-width: 0.6"/>
      </g>
     </g>
    </g>
    <g id="ytick_25">
     <g id="line2d_82">
      <g>
       <use xlink:href="#md8c1403b01" x="56.217188" y="190.372362" style="stroke: #000000; stroke-width: 0.6"/>
      </g>
     </g>
    </g>
    <g id="ytick_26">
     <g id="line2d_83">
      <g>
       <use xlink:href="#md8c1403b01" x="56.217188" y="185.859064" style="stroke: #000000; stroke-width: 0.6"/>
      </g>
     </g>
    </g>
    <g id="ytick_27">
     <g id="line2d_84">
      <g>
       <use xlink:href="#md8c1403b01" x="56.217188" y="182.171431" style="stroke: #000000; stroke-width: 0.6"/>
      </g>
     </g>
    </g>
    <g id="ytick_28">
     <g id="line2d_85">
      <g>
       <use xlink:href="#md8c1403b01" x="56.217188" y="179.053582" style="stroke: #000000; stroke-width: 0.6"/>
      </g>
     </g>
    </g>
    <g id="ytick_29">
     <g id="line2d_86">
      <g>
       <use xlink:href="#md8c1403b01" x="56.217188" y="176.352779" style="stroke: #000000; stroke-width: 0.6"/>
      </g>
     </g>
    </g>
    <g id="ytick_30">
     <g id="line2d_87">
      <g>
       <use xlink:href="#md8c1403b01" x="56.217188" y="173.970501" style="stroke: #000000; stroke-width: 0.6"/>
      </g>
     </g>
    </g>
    <g id="ytick_31">
     <g id="line2d_88">
      <g>
       <use xlink:href="#md8c1403b01" x="56.217188" y="157.819897" style="stroke: #000000; stroke-width: 0.6"/>
      </g>
     </g>
    </g>
    <g id="ytick_32">
     <g id="line2d_89">
      <g>
       <use xlink:href="#md8c1403b01" x="56.217188" y="149.618966" style="stroke: #000000; stroke-width: 0.6"/>
      </g>
     </g>
    </g>
    <g id="ytick_33">
     <g id="line2d_90">
      <g>
       <use xlink:href="#md8c1403b01" x="56.217188" y="143.800313" style="stroke: #000000; stroke-width: 0.6"/>
      </g>
     </g>
    </g>
    <g id="ytick_34">
     <g id="line2d_91">
      <g>
       <use xlink:href="#md8c1403b01" x="56.217188" y="139.287015" style="stroke: #000000; stroke-width: 0.6"/>
      </g>
     </g>
    </g>
    <g id="ytick_35">
     <g id="line2d_92">
      <g>
       <use xlink:href="#md8c1403b01" x="56.217188" y="135.599382" style="stroke: #000000; stroke-width: 0.6"/>
      </g>
     </g>
    </g>
    <g id="ytick_36">
     <g id="line2d_93">
      <g>
       <use xlink:href="#md8c1403b01" x="56.217188" y="132.481533" style="stroke: #000000; stroke-width: 0.6"/>
      </g>
     </g>
    </g>
    <g id="ytick_37">
     <g id="line2d_94">
      <g>
       <use xlink:href="#md8c1403b01" x="56.217188" y="129.780729" style="stroke: #000000; stroke-width: 0.6"/>
      </g>
     </g>
    </g>
    <g id="ytick_38">
     <g id="line2d_95">
      <g>
       <use xlink:href="#md8c1403b01" x="56.217188" y="127.398452" style="stroke: #000000; stroke-width: 0.6"/>
      </g>
     </g>
    </g>
    <g id="ytick_39">
     <g id="line2d_96">
      <g>
       <use xlink:href="#md8c1403b01" x="56.217188" y="111.247848" style="stroke: #000000; stroke-width: 0.6"/>
      </g>
     </g>
    </g>
    <g id="ytick_40">
     <g id="line2d_97">
      <g>
       <use xlink:href="#md8c1403b01" x="56.217188" y="103.046917" style="stroke: #000000; stroke-width: 0.6"/>
      </g>
     </g>
    </g>
    <g id="ytick_41">
     <g id="line2d_98">
      <g>
       <use xlink:href="#md8c1403b01" x="56.217188" y="97.228264" style="stroke: #000000; stroke-width: 0.6"/>
      </g>
     </g>
    </g>
    <g id="ytick_42">
     <g id="line2d_99">
      <g>
       <use xlink:href="#md8c1403b01" x="56.217188" y="92.714966" style="stroke: #000000; stroke-width: 0.6"/>
      </g>
     </g>
    </g>
    <g id="ytick_43">
     <g id="line2d_100">
      <g>
       <use xlink:href="#md8c1403b01" x="56.217188" y="89.027333" style="stroke: #000000; stroke-width: 0.6"/>
      </g>
     </g>
    </g>
    <g id="ytick_44">
     <g id="line2d_101">
      <g>
       <use xlink:href="#md8c1403b01" x="56.217188" y="85.909484" style="stroke: #000000; stroke-width: 0.6"/>
      </g>
     </g>
    </g>
    <g id="ytick_45">
     <g id="line2d_102">
      <g>
       <use xlink:href="#md8c1403b01" x="56.217188" y="83.20868" style="stroke: #000000; stroke-width: 0.6"/>
      </g>
     </g>
    </g>
    <g id="ytick_46">
     <g id="line2d_103">
      <g>
       <use xlink:href="#md8c1403b01" x="56.217188" y="80.826403" style="stroke: #000000; stroke-width: 0.6"/>
      </g>
     </g>
    </g>
    <g id="ytick_47">
     <g id="line2d_104">
      <g>
       <use xlink:href="#md8c1403b01" x="56.217188" y="64.675799" style="stroke: #000000; stroke-width: 0.6"/>
      </g>
     </g>
    </g>
    <g id="ytick_48">
     <g id="line2d_105">
      <g>
       <use xlink:href="#md8c1403b01" x="56.217188" y="56.474868" style="stroke: #000000; stroke-width: 0.6"/>
      </g>
     </g>
    </g>
    <g id="ytick_49">
     <g id="line2d_106">
      <g>
       <use xlink:href="#md8c1403b01" x="56.217188" y="50.656215" style="stroke: #000000; stroke-width: 0.6"/>
      </g>
     </g>
    </g>
    <g id="ytick_50">
     <g id="line2d_107">
      <g>
       <use xlink:href="#md8c1403b01" x="56.217188" y="46.142917" style="stroke: #000000; stroke-width: 0.6"/>
      </g>
     </g>
    </g>
    <g id="ytick_51">
     <g id="line2d_108">
      <g>
       <use xlink:href="#md8c1403b01" x="56.217188" y="42.455284" style="stroke: #000000; stroke-width: 0.6"/>
      </g>
     </g>
    </g>
    <g id="ytick_52">
     <g id="line2d_109">
      <g>
       <use xlink:href="#md8c1403b01" x="56.217188" y="39.337435" style="stroke: #000000; stroke-width: 0.6"/>
      </g>
     </g>
    </g>
    <g id="ytick_53">
     <g id="line2d_110">
      <g>
       <use xlink:href="#md8c1403b01" x="56.217188" y="36.636631" style="stroke: #000000; stroke-width: 0.6"/>
      </g>
     </g>
    </g>
    <g id="ytick_54">
     <g id="line2d_111">
      <g>
       <use xlink:href="#md8c1403b01" x="56.217188" y="34.254354" style="stroke: #000000; stroke-width: 0.6"/>
      </g>
     </g>
    </g>
    <g id="text_19">
     <!-- Singular values -->
     <g transform="translate(18.597656 224.302734)rotate(-90)scale(0.15 -0.15)">
      <defs>
       <path id="DejaVuSans-53" d="M 3425 4513 
L 3425 3897 
Q 3066 4069 2747 4153 
Q 2428 4238 2131 4238 
Q 1616 4238 1336 4038 
Q 1056 3838 1056 3469 
Q 1056 3159 1242 3001 
Q 1428 2844 1947 2747 
L 2328 2669 
Q 3034 2534 3370 2195 
Q 3706 1856 3706 1288 
Q 3706 609 3251 259 
Q 2797 -91 1919 -91 
Q 1588 -91 1214 -16 
Q 841 59 441 206 
L 441 856 
Q 825 641 1194 531 
Q 1563 422 1919 422 
Q 2459 422 2753 634 
Q 3047 847 3047 1241 
Q 3047 1584 2836 1778 
Q 2625 1972 2144 2069 
L 1759 2144 
Q 1053 2284 737 2584 
Q 422 2884 422 3419 
Q 422 4038 858 4394 
Q 1294 4750 2059 4750 
Q 2388 4750 2728 4690 
Q 3069 4631 3425 4513 
z
" transform="scale(0.015625)"/>
       <path id="DejaVuSans-69" d="M 603 3500 
L 1178 3500 
L 1178 0 
L 603 0 
L 603 3500 
z
M 603 4863 
L 1178 4863 
L 1178 4134 
L 603 4134 
L 603 4863 
z
" transform="scale(0.015625)"/>
       <path id="DejaVuSans-6e" d="M 3513 2113 
L 3513 0 
L 2938 0 
L 2938 2094 
Q 2938 2591 2744 2837 
Q 2550 3084 2163 3084 
Q 1697 3084 1428 2787 
Q 1159 2491 1159 1978 
L 1159 0 
L 581 0 
L 581 3500 
L 1159 3500 
L 1159 2956 
Q 1366 3272 1645 3428 
Q 1925 3584 2291 3584 
Q 2894 3584 3203 3211 
Q 3513 2838 3513 2113 
z
" transform="scale(0.015625)"/>
       <path id="DejaVuSans-67" d="M 2906 1791 
Q 2906 2416 2648 2759 
Q 2391 3103 1925 3103 
Q 1463 3103 1205 2759 
Q 947 2416 947 1791 
Q 947 1169 1205 825 
Q 1463 481 1925 481 
Q 2391 481 2648 825 
Q 2906 1169 2906 1791 
z
M 3481 434 
Q 3481 -459 3084 -895 
Q 2688 -1331 1869 -1331 
Q 1566 -1331 1297 -1286 
Q 1028 -1241 775 -1147 
L 775 -588 
Q 1028 -725 1275 -790 
Q 1522 -856 1778 -856 
Q 2344 -856 2625 -561 
Q 2906 -266 2906 331 
L 2906 616 
Q 2728 306 2450 153 
Q 2172 0 1784 0 
Q 1141 0 747 490 
Q 353 981 353 1791 
Q 353 2603 747 3093 
Q 1141 3584 1784 3584 
Q 2172 3584 2450 3431 
Q 2728 3278 2906 2969 
L 2906 3500 
L 3481 3500 
L 3481 434 
z
" transform="scale(0.015625)"/>
       <path id="DejaVuSans-75" d="M 544 1381 
L 544 3500 
L 1119 3500 
L 1119 1403 
Q 1119 906 1312 657 
Q 1506 409 1894 409 
Q 2359 409 2629 706 
Q 2900 1003 2900 1516 
L 2900 3500 
L 3475 3500 
L 3475 0 
L 2900 0 
L 2900 538 
Q 2691 219 2414 64 
Q 2138 -91 1772 -91 
Q 1169 -91 856 284 
Q 544 659 544 1381 
z
M 1991 3584 
L 1991 3584 
z
" transform="scale(0.015625)"/>
       <path id="DejaVuSans-6c" d="M 603 4863 
L 1178 4863 
L 1178 0 
L 603 0 
L 603 4863 
z
" transform="scale(0.015625)"/>
       <path id="DejaVuSans-61" d="M 2194 1759 
Q 1497 1759 1228 1600 
Q 959 1441 959 1056 
Q 959 750 1161 570 
Q 1363 391 1709 391 
Q 2188 391 2477 730 
Q 2766 1069 2766 1631 
L 2766 1759 
L 2194 1759 
z
M 3341 1997 
L 3341 0 
L 2766 0 
L 2766 531 
Q 2569 213 2275 61 
Q 1981 -91 1556 -91 
Q 1019 -91 701 211 
Q 384 513 384 1019 
Q 384 1609 779 1909 
Q 1175 2209 1959 2209 
L 2766 2209 
L 2766 2266 
Q 2766 2663 2505 2880 
Q 2244 3097 1772 3097 
Q 1472 3097 1187 3025 
Q 903 2953 641 2809 
L 641 3341 
Q 956 3463 1253 3523 
Q 1550 3584 1831 3584 
Q 2591 3584 2966 3190 
Q 3341 2797 3341 1997 
z
" transform="scale(0.015625)"/>
       <path id="DejaVuSans-72" d="M 2631 2963 
Q 2534 3019 2420 3045 
Q 2306 3072 2169 3072 
Q 1681 3072 1420 2755 
Q 1159 2438 1159 1844 
L 1159 0 
L 581 0 
L 581 3500 
L 1159 3500 
L 1159 2956 
Q 1341 3275 1631 3429 
Q 1922 3584 2338 3584 
Q 2397 3584 2469 3576 
Q 2541 3569 2628 3553 
L 2631 2963 
z
" transform="scale(0.015625)"/>
       <path id="DejaVuSans-20" transform="scale(0.015625)"/>
       <path id="DejaVuSans-76" d="M 191 3500 
L 800 3500 
L 1894 563 
L 2988 3500 
L 3597 3500 
L 2284 0 
L 1503 0 
L 191 3500 
z
" transform="scale(0.015625)"/>
       <path id="DejaVuSans-65" d="M 3597 1894 
L 3597 1613 
L 953 1613 
Q 991 1019 1311 708 
Q 1631 397 2203 397 
Q 2534 397 2845 478 
Q 3156 559 3463 722 
L 3463 178 
Q 3153 47 2828 -22 
Q 2503 -91 2169 -91 
Q 1331 -91 842 396 
Q 353 884 353 1716 
Q 353 2575 817 3079 
Q 1281 3584 2069 3584 
Q 2775 3584 3186 3129 
Q 3597 2675 3597 1894 
z
M 3022 2063 
Q 3016 2534 2758 2815 
Q 2500 3097 2075 3097 
Q 1594 3097 1305 2825 
Q 1016 2553 972 2059 
L 3022 2063 
z
" transform="scale(0.015625)"/>
       <path id="DejaVuSans-73" d="M 2834 3397 
L 2834 2853 
Q 2591 2978 2328 3040 
Q 2066 3103 1784 3103 
Q 1356 3103 1142 2972 
Q 928 2841 928 2578 
Q 928 2378 1081 2264 
Q 1234 2150 1697 2047 
L 1894 2003 
Q 2506 1872 2764 1633 
Q 3022 1394 3022 966 
Q 3022 478 2636 193 
Q 2250 -91 1575 -91 
Q 1294 -91 989 -36 
Q 684 19 347 128 
L 347 722 
Q 666 556 975 473 
Q 1284 391 1588 391 
Q 1994 391 2212 530 
Q 2431 669 2431 922 
Q 2431 1156 2273 1281 
Q 2116 1406 1581 1522 
L 1381 1569 
Q 847 1681 609 1914 
Q 372 2147 372 2553 
Q 372 3047 722 3315 
Q 1072 3584 1716 3584 
Q 2034 3584 2315 3537 
Q 2597 3491 2834 3397 
z
" transform="scale(0.015625)"/>
      </defs>
      <use xlink:href="#DejaVuSans-53"/>
      <use xlink:href="#DejaVuSans-69" x="63.476562"/>
      <use xlink:href="#DejaVuSans-6e" x="91.259766"/>
      <use xlink:href="#DejaVuSans-67" x="154.638672"/>
      <use xlink:href="#DejaVuSans-75" x="218.115234"/>
      <use xlink:href="#DejaVuSans-6c" x="281.494141"/>
      <use xlink:href="#DejaVuSans-61" x="309.277344"/>
      <use xlink:href="#DejaVuSans-72" x="370.556641"/>
      <use xlink:href="#DejaVuSans-20" x="411.669922"/>
      <use xlink:href="#DejaVuSans-76" x="443.457031"/>
      <use xlink:href="#DejaVuSans-61" x="502.636719"/>
      <use xlink:href="#DejaVuSans-6c" x="563.916016"/>
      <use xlink:href="#DejaVuSans-75" x="591.699219"/>
      <use xlink:href="#DejaVuSans-65" x="655.078125"/>
      <use xlink:href="#DejaVuSans-73" x="716.601562"/>
     </g>
    </g>
   </g>
   <g id="line2d_112">
    <path d="M 11.513029 40.65 
L 18.799291 40.86059 
L 26.085554 41.116222 
L 33.371816 41.45187 
L 40.658078 41.908647 
L 47.944341 42.409556 
L 55.230603 43.077699 
L 62.516865 43.93026 
L 69.803128 44.967138 
L 77.08939 46.247549 
L 84.375652 47.826 
L 91.661915 49.676009 
L 98.948177 51.863124 
L 106.23444 54.390425 
L 113.520702 57.289112 
L 120.806964 60.505737 
L 128.093227 64.038664 
L 135.379489 67.86021 
L 142.665751 71.956558 
L 149.952014 76.275999 
L 157.238276 80.788087 
L 164.524539 85.460875 
L 171.810801 90.260278 
L 179.097063 95.163537 
L 186.383326 100.148755 
L 193.669588 105.198495 
L 200.95585 110.297058 
L 208.242113 115.430822 
L 215.528375 120.588715 
L 222.814637 125.760969 
L 230.1009 130.939051 
L 237.387162 136.11394 
L 244.673425 141.277349 
L 251.959687 146.420012 
L 259.245949 151.531232 
L 266.532212 156.598541 
L 273.818474 161.60758 
L 281.104736 166.54078 
L 288.390999 171.377481 
L 295.677261 176.093127 
L 302.963524 180.659572 
L 310.249786 185.045027 
L 317.536048 189.215365 
L 324.822311 193.13557 
L 332.108573 196.772158 
L 339.394835 200.096124 
L 346.681098 203.086097 
L 353.96736 205.728333 
L 361.253622 208.023659 
L 368.539885 209.987714 
L 375.826147 211.641423 
L 383.11241 213.013308 
L 390.398672 214.136384 
L 397.684934 215.045177 
L 404.971197 215.77339 
L 412.257459 216.352105 
L 419.543721 216.808905 
L 426.829984 217.167508 
L 434.116246 217.447793 
L 441.402509 217.666096 
L 448.688771 217.83566 
L 455.017187 217.949806 
" clip-path="url(#pf2356bb889)" style="fill: none; stroke-dasharray: 5.55,2.4; stroke-dashoffset: 0; stroke: #ffa500; stroke-width: 1.5"/>
   </g>
   <g id="line2d_113">
    <path d="M -1 106.170988 
L 11.513029 106.171009 
L 42.028364 106.381864 
L 75.470221 107.101078 
L 105.985556 109.023894 
L 139.427413 114.584268 
L 164.878538 122.953749 
L 177.933479 128.831939 
L 186.778931 133.364419 
L 193.47751 137.052053 
L 198.870437 140.159352 
L 203.384604 142.843217 
L 217.573428 151.668443 
L 226.919366 157.711443 
L 233.89994 162.295638 
L 239.473821 165.979137 
L 244.113958 169.01193 
L 248.088763 171.36506 
L 259.351066 178.03133 
L 267.341796 182.681197 
L 273.539889 186.048783 
L 278.604099 188.189936 
L 282.885828 189.838381 
L 286.59483 191.257043 
L 300.783653 196.587233 
L 310.129591 199.914838 
L 317.110165 202.240143 
L 322.684046 203.968968 
L 327.324183 205.306724 
L 331.298988 206.371827 
L 350.552021 210.379929 
L 369.805055 212.649145 
L 389.058088 213.794381 
L 408.311121 214.355447 
L 427.564154 214.630992 
L 446.817187 214.767246 
L 455.017187 214.796094 
" clip-path="url(#pf2356bb889)" style="fill: none; stroke: #440154; stroke-width: 1.5; stroke-linecap: square"/>
   </g>
   <g id="line2d_114">
    <path d="M -1 183.302824 
L 11.513029 183.302825 
L 42.028364 183.30791 
L 75.470221 183.325674 
L 105.985556 183.376338 
L 139.427413 183.552412 
L 164.878538 183.923228 
L 177.933479 184.285163 
L 186.778931 184.638272 
L 193.47751 184.982643 
L 198.870437 185.318367 
L 203.384604 185.645524 
L 217.573428 186.997531 
L 226.919366 188.185566 
L 233.89994 189.234837 
L 239.473821 190.19981 
L 244.113958 191.119386 
L 248.088763 192.014703 
L 259.351066 195.212474 
L 267.341796 197.795854 
L 273.539889 199.815806 
L 278.604099 201.595833 
L 282.885828 203.190931 
L 286.59483 204.636024 
L 300.783653 210.703219 
L 310.129591 214.040358 
L 317.110165 216.484453 
L 322.684046 218.269175 
L 327.324183 219.929717 
L 331.298988 221.116232 
L 350.552021 226.003573 
L 369.805055 229.674995 
L 389.058088 231.746368 
L 408.311121 232.883723 
L 427.564154 233.492878 
L 446.817187 233.807629 
L 455.017187 233.875822 
" clip-path="url(#pf2356bb889)" style="fill: none; stroke: #46327e; stroke-width: 1.5; stroke-linecap: square"/>
   </g>
   <g id="line2d_115">
    <path d="M -1 198.51941 
L 11.513029 198.519411 
L 42.028364 198.522139 
L 75.470221 198.531646 
L 105.985556 198.558827 
L 139.427413 198.65383 
L 164.878538 198.856784 
L 177.933479 199.0588 
L 186.778931 199.259722 
L 193.47751 199.459429 
L 198.870437 199.657805 
L 203.384604 199.854736 
L 217.573428 200.710237 
L 226.919366 201.529544 
L 233.89994 202.309385 
L 239.473821 203.047222 
L 244.113958 203.737861 
L 248.088763 204.303924 
L 259.351066 206.103967 
L 267.341796 207.714375 
L 273.539889 209.188744 
L 278.604099 210.55964 
L 282.885828 211.868025 
L 286.59483 213.079745 
L 300.783653 217.60239 
L 310.129591 221.142218 
L 317.110165 223.692339 
L 322.684046 225.543636 
L 327.324183 227.00253 
L 331.298988 228.223 
L 350.552021 233.488897 
L 369.805055 236.81098 
L 389.058088 238.938169 
L 408.311121 240.066121 
L 427.564154 240.633125 
L 446.817187 240.933265 
L 455.017187 241.014449 
" clip-path="url(#pf2356bb889)" style="fill: none; stroke: #365c8d; stroke-width: 1.5; stroke-linecap: square"/>
   </g>
   <g id="line2d_116">
    <path d="M -1 209.254712 
L 11.513029 209.254712 
L 42.028364 209.256541 
L 75.470221 209.262964 
L 105.985556 209.281351 
L 139.427413 209.346117 
L 164.878538 209.486017 
L 177.933479 209.626211 
L 186.778931 209.765996 
L 193.47751 209.905105 
L 198.870437 210.0433 
L 203.384604 210.18042 
L 217.573428 210.773715 
L 226.919366 211.337192 
L 233.89994 211.87334 
L 239.473821 212.386684 
L 244.113958 212.880263 
L 248.088763 213.355941 
L 259.351066 215.003464 
L 267.341796 216.479963 
L 273.539889 217.820406 
L 278.604099 219.074897 
L 282.885828 220.202306 
L 286.59483 221.190811 
L 300.783653 225.231059 
L 310.129591 228.268497 
L 317.110165 230.577614 
L 322.684046 232.284713 
L 327.324183 233.684881 
L 331.298988 234.847513 
L 350.552021 239.629248 
L 369.805055 243.106641 
L 389.058088 245.366798 
L 408.311121 246.688492 
L 427.564154 247.39068 
L 446.817187 247.74541 
L 455.017187 247.820972 
" clip-path="url(#pf2356bb889)" style="fill: none; stroke: #277f8e; stroke-width: 1.5; stroke-linecap: square"/>
   </g>
   <g id="line2d_117">
    <path d="M -1 220.201079 
L 11.513029 220.201079 
L 42.028364 220.202599 
L 75.470221 220.207933 
L 105.985556 220.223176 
L 139.427413 220.276402 
L 164.878538 220.389896 
L 177.933479 220.502596 
L 186.778931 220.614487 
L 193.47751 220.725558 
L 198.870437 220.835793 
L 203.384604 220.945156 
L 217.573428 221.419812 
L 226.919366 221.872654 
L 233.89994 222.298871 
L 239.473821 222.697467 
L 244.113958 223.074496 
L 248.088763 223.438368 
L 259.351066 224.753394 
L 267.341796 226.000878 
L 273.539889 227.164718 
L 278.604099 228.222735 
L 282.885828 229.145262 
L 286.59483 229.953548 
L 300.783653 233.430626 
L 310.129591 236.108229 
L 317.110165 238.003003 
L 322.684046 239.674682 
L 327.324183 241.082937 
L 331.298988 242.260348 
L 350.552021 247.291594 
L 369.805055 250.776465 
L 389.058088 252.914924 
L 408.311121 254.204085 
L 427.564154 254.870706 
L 446.817187 255.2089 
L 455.017187 255.281653 
" clip-path="url(#pf2356bb889)" style="fill: none; stroke: #1fa187; stroke-width: 1.5; stroke-linecap: square"/>
   </g>
   <g id="line2d_118">
    <path d="M -1 230.812847 
L 11.513029 230.812847 
L 42.028364 230.813846 
L 75.470221 230.817305 
L 105.985556 230.827177 
L 139.427413 230.861651 
L 164.878538 230.935224 
L 177.933479 231.008333 
L 186.778931 231.080971 
L 193.47751 231.153107 
L 198.870437 231.224732 
L 203.384604 231.29589 
L 217.573428 231.605505 
L 226.919366 231.904096 
L 233.89994 232.191806 
L 239.473821 232.469686 
L 244.113958 232.739694 
L 248.088763 233.003988 
L 259.351066 233.984012 
L 267.341796 234.99565 
L 273.539889 235.994767 
L 278.604099 236.943291 
L 282.885828 237.835905 
L 286.59483 238.674273 
L 300.783653 242.265106 
L 310.129591 244.58469 
L 317.110165 246.282949 
L 322.684046 247.723041 
L 327.324183 249.064753 
L 331.298988 250.202561 
L 350.552021 255.185557 
L 369.805055 258.645836 
L 389.058088 260.689317 
L 408.311121 261.865279 
L 427.564154 262.507335 
L 446.817187 262.842084 
L 455.017187 262.914817 
" clip-path="url(#pf2356bb889)" style="fill: none; stroke: #4ac16d; stroke-width: 1.5; stroke-linecap: square"/>
   </g>
   <g id="line2d_119">
    <path d="M -1 242.71454 
L 11.513029 242.71454 
L 42.028364 242.715161 
L 75.470221 242.717532 
L 105.985556 242.724256 
L 139.427413 242.747777 
L 164.878538 242.798049 
L 177.933479 242.848227 
L 186.778931 242.898379 
L 193.47751 242.94847 
L 198.870437 242.998539 
L 203.384604 243.048478 
L 217.573428 243.270888 
L 226.919366 243.493975 
L 233.89994 243.71857 
L 239.473821 243.945002 
L 244.113958 244.173125 
L 248.088763 244.402488 
L 259.351066 245.259727 
L 267.341796 246.081927 
L 273.539889 246.846636 
L 278.604099 247.551652 
L 282.885828 248.204602 
L 286.59483 248.814613 
L 300.783653 251.542074 
L 310.129591 253.9064 
L 317.110165 255.89501 
L 322.684046 257.412225 
L 327.324183 258.612657 
L 331.298988 259.691061 
L 350.552021 264.574093 
L 369.805055 267.964728 
L 389.058088 270.307475 
L 408.311121 271.72066 
L 427.564154 272.276432 
L 446.817187 272.566395 
L 455.017187 272.629755 
" clip-path="url(#pf2356bb889)" style="fill: none; stroke: #a0da39; stroke-width: 1.5; stroke-linecap: square"/>
   </g>
   <g id="line2d_120">
    <path d="M -1 270.27122 
L 11.513029 270.27122 
L 42.028364 270.270473 
L 75.470221 270.279554 
L 105.985556 270.277044 
L 139.427413 270.294297 
L 164.878538 270.331176 
L 177.933479 270.367983 
L 186.778931 270.404551 
L 193.47751 270.441028 
L 198.870437 270.477373 
L 203.384604 270.513587 
L 217.573428 270.672929 
L 226.919366 270.82965 
L 233.89994 270.983769 
L 239.473821 271.135303 
L 244.113958 271.284257 
L 248.088763 271.430669 
L 259.351066 271.957345 
L 267.341796 272.449626 
L 273.539889 272.908846 
L 278.604099 273.336502 
L 282.885828 273.73419 
L 286.59483 274.103618 
L 300.783653 275.668719 
L 310.129591 276.732405 
L 317.110165 277.492694 
L 322.684046 278.079822 
L 327.324183 278.571924 
L 331.298988 279.013619 
L 350.552021 282.173152 
L 369.805055 286.036499 
L 389.058088 288.937876 
L 408.311121 290.761304 
L 427.564154 291.718635 
L 446.817187 292.200171 
L 455.017187 292.302504 
" clip-path="url(#pf2356bb889)" style="fill: none; stroke: #fde725; stroke-width: 1.5; stroke-linecap: square"/>
   </g>
   <g id="patch_3">
    <path d="M 56.217188 305.25 
L 56.217188 28.05 
" style="fill: none; stroke: #000000; stroke-width: 0.8; stroke-linejoin: miter; stroke-linecap: square"/>
   </g>
   <g id="patch_4">
    <path d="M 446.817188 305.25 
L 446.817188 28.05 
" style="fill: none; stroke: #000000; stroke-width: 0.8; stroke-linejoin: miter; stroke-linecap: square"/>
   </g>
   <g id="patch_5">
    <path d="M 56.217187 305.25 
L 446.817187 305.25 
" style="fill: none; stroke: #000000; stroke-width: 0.8; stroke-linejoin: miter; stroke-linecap: square"/>
   </g>
   <g id="patch_6">
    <path d="M 56.217187 28.05 
L 446.817187 28.05 
" style="fill: none; stroke: #000000; stroke-width: 0.8; stroke-linejoin: miter; stroke-linecap: square"/>
   </g>
   <g id="text_20">
    <!-- $A^{(4 \leftarrow 5)}_{LRP}(\gamma)$ -->
    <g transform="translate(56.217188 22.05)scale(0.15 -0.15)">
     <defs>
      <path id="DejaVuSans-Oblique-41" d="M 2356 4666 
L 3072 4666 
L 3938 0 
L 3278 0 
L 3084 1197 
L 984 1197 
L 325 0 
L -341 0 
L 2356 4666 
z
M 2584 4044 
L 1275 1722 
L 2988 1722 
L 2584 4044 
z
" transform="scale(0.015625)"/>
      <path id="DejaVuSans-28" d="M 1984 4856 
Q 1566 4138 1362 3434 
Q 1159 2731 1159 2009 
Q 1159 1288 1364 580 
Q 1569 -128 1984 -844 
L 1484 -844 
Q 1016 -109 783 600 
Q 550 1309 550 2009 
Q 550 2706 781 3412 
Q 1013 4119 1484 4856 
L 1984 4856 
z
" transform="scale(0.015625)"/>
      <path id="DejaVuSans-2190" d="M 313 1866 
L 313 2147 
L 1541 3375 
L 1916 3000 
L 1188 2272 
L 4997 2272 
L 4997 1741 
L 1188 1741 
L 1916 1013 
L 1541 638 
L 313 1866 
z
" transform="scale(0.015625)"/>
      <path id="DejaVuSans-35" d="M 691 4666 
L 3169 4666 
L 3169 4134 
L 1269 4134 
L 1269 2991 
Q 1406 3038 1543 3061 
Q 1681 3084 1819 3084 
Q 2600 3084 3056 2656 
Q 3513 2228 3513 1497 
Q 3513 744 3044 326 
Q 2575 -91 1722 -91 
Q 1428 -91 1123 -41 
Q 819 9 494 109 
L 494 744 
Q 775 591 1075 516 
Q 1375 441 1709 441 
Q 2250 441 2565 725 
Q 2881 1009 2881 1497 
Q 2881 1984 2565 2268 
Q 2250 2553 1709 2553 
Q 1456 2553 1204 2497 
Q 953 2441 691 2322 
L 691 4666 
z
" transform="scale(0.015625)"/>
      <path id="DejaVuSans-29" d="M 513 4856 
L 1013 4856 
Q 1481 4119 1714 3412 
Q 1947 2706 1947 2009 
Q 1947 1309 1714 600 
Q 1481 -109 1013 -844 
L 513 -844 
Q 928 -128 1133 580 
Q 1338 1288 1338 2009 
Q 1338 2731 1133 3434 
Q 928 4138 513 4856 
z
" transform="scale(0.015625)"/>
      <path id="DejaVuSans-Oblique-4c" d="M 1075 4666 
L 1709 4666 
L 909 525 
L 3181 525 
L 3078 0 
L 172 0 
L 1075 4666 
z
" transform="scale(0.015625)"/>
      <path id="DejaVuSans-Oblique-52" d="M 1613 4147 
L 1294 2491 
L 2106 2491 
Q 2584 2491 2879 2755 
Q 3175 3019 3175 3444 
Q 3175 3784 2976 3965 
Q 2778 4147 2406 4147 
L 1613 4147 
z
M 2772 2241 
Q 2972 2194 3105 2009 
Q 3238 1825 3413 1275 
L 3809 0 
L 3144 0 
L 2778 1197 
Q 2638 1659 2453 1815 
Q 2269 1972 1888 1972 
L 1191 1972 
L 806 0 
L 172 0 
L 1081 4666 
L 2503 4666 
Q 3150 4666 3495 4373 
Q 3841 4081 3841 3531 
Q 3841 3044 3547 2687 
Q 3253 2331 2772 2241 
z
" transform="scale(0.015625)"/>
      <path id="DejaVuSans-Oblique-50" d="M 1081 4666 
L 2541 4666 
Q 3178 4666 3512 4369 
Q 3847 4072 3847 3500 
Q 3847 2731 3353 2303 
Q 2859 1875 1966 1875 
L 1172 1875 
L 806 0 
L 172 0 
L 1081 4666 
z
M 1613 4147 
L 1275 2394 
L 2069 2394 
Q 2606 2394 2893 2669 
Q 3181 2944 3181 3456 
Q 3181 3784 2986 3965 
Q 2791 4147 2438 4147 
L 1613 4147 
z
" transform="scale(0.015625)"/>
     </defs>
     <use xlink:href="#DejaVuSans-Oblique-41" transform="translate(0 0.465625)"/>
     <use xlink:href="#DejaVuSans-28" transform="translate(75.424974 45.8875)scale(0.7)"/>
     <use xlink:href="#DejaVuSans-34" transform="translate(102.734544 45.8875)scale(0.7)"/>
     <use xlink:href="#DejaVuSans-2190" transform="translate(160.908372 45.8875)scale(0.7)"/>
     <use xlink:href="#DejaVuSans-35" transform="translate(233.198411 45.8875)scale(0.7)"/>
     <use xlink:href="#DejaVuSans-29" transform="translate(277.734544 45.8875)scale(0.7)"/>
     <use xlink:href="#DejaVuSans-Oblique-4c" transform="translate(68.408203 -26.878125)scale(0.7)"/>
     <use xlink:href="#DejaVuSans-Oblique-52" transform="translate(107.407227 -26.878125)scale(0.7)"/>
     <use xlink:href="#DejaVuSans-Oblique-50" transform="translate(156.044922 -26.878125)scale(0.7)"/>
     <use xlink:href="#DejaVuSans-28" transform="translate(307.77849 0.465625)"/>
     <use xlink:href="#DejaVuSans-Oblique-3b3" transform="translate(346.792161 0.465625)"/>
     <use xlink:href="#DejaVuSans-29" transform="translate(405.971849 0.465625)"/>
    </g>
   </g>
   <g id="legend_1">
    <g id="patch_7">
     <path d="M 260.017188 168.196875 
L 439.817188 168.196875 
Q 441.817188 168.196875 441.817188 166.196875 
L 441.817188 35.05 
Q 441.817188 33.05 439.817188 33.05 
L 260.017188 33.05 
Q 258.017188 33.05 258.017188 35.05 
L 258.017188 166.196875 
Q 258.017188 168.196875 260.017188 168.196875 
z
" style="fill: #ffffff; opacity: 0.8; stroke: #cccccc; stroke-linejoin: miter"/>
    </g>
    <g id="line2d_121">
     <path d="M 262.017188 41.148438 
L 272.017188 41.148438 
L 282.017188 41.148438 
" style="fill: none; stroke-dasharray: 5.55,2.4; stroke-dashoffset: 0; stroke: #ffa500; stroke-width: 1.5"/>
    </g>
    <g id="text_21">
     <!-- L1 operator norm -->
     <g transform="translate(290.017188 44.648438)scale(0.1 -0.1)">
      <defs>
       <path id="DejaVuSans-4c" d="M 628 4666 
L 1259 4666 
L 1259 531 
L 3531 531 
L 3531 0 
L 628 0 
L 628 4666 
z
" transform="scale(0.015625)"/>
       <path id="DejaVuSans-6f" d="M 1959 3097 
Q 1497 3097 1228 2736 
Q 959 2375 959 1747 
Q 959 1119 1226 758 
Q 1494 397 1959 397 
Q 2419 397 2687 759 
Q 2956 1122 2956 1747 
Q 2956 2369 2687 2733 
Q 2419 3097 1959 3097 
z
M 1959 3584 
Q 2709 3584 3137 3096 
Q 3566 2609 3566 1747 
Q 3566 888 3137 398 
Q 2709 -91 1959 -91 
Q 1206 -91 779 398 
Q 353 888 353 1747 
Q 353 2609 779 3096 
Q 1206 3584 1959 3584 
z
" transform="scale(0.015625)"/>
       <path id="DejaVuSans-70" d="M 1159 525 
L 1159 -1331 
L 581 -1331 
L 581 3500 
L 1159 3500 
L 1159 2969 
Q 1341 3281 1617 3432 
Q 1894 3584 2278 3584 
Q 2916 3584 3314 3078 
Q 3713 2572 3713 1747 
Q 3713 922 3314 415 
Q 2916 -91 2278 -91 
Q 1894 -91 1617 61 
Q 1341 213 1159 525 
z
M 3116 1747 
Q 3116 2381 2855 2742 
Q 2594 3103 2138 3103 
Q 1681 3103 1420 2742 
Q 1159 2381 1159 1747 
Q 1159 1113 1420 752 
Q 1681 391 2138 391 
Q 2594 391 2855 752 
Q 3116 1113 3116 1747 
z
" transform="scale(0.015625)"/>
       <path id="DejaVuSans-74" d="M 1172 4494 
L 1172 3500 
L 2356 3500 
L 2356 3053 
L 1172 3053 
L 1172 1153 
Q 1172 725 1289 603 
Q 1406 481 1766 481 
L 2356 481 
L 2356 0 
L 1766 0 
Q 1100 0 847 248 
Q 594 497 594 1153 
L 594 3053 
L 172 3053 
L 172 3500 
L 594 3500 
L 594 4494 
L 1172 4494 
z
" transform="scale(0.015625)"/>
       <path id="DejaVuSans-6d" d="M 3328 2828 
Q 3544 3216 3844 3400 
Q 4144 3584 4550 3584 
Q 5097 3584 5394 3201 
Q 5691 2819 5691 2113 
L 5691 0 
L 5113 0 
L 5113 2094 
Q 5113 2597 4934 2840 
Q 4756 3084 4391 3084 
Q 3944 3084 3684 2787 
Q 3425 2491 3425 1978 
L 3425 0 
L 2847 0 
L 2847 2094 
Q 2847 2600 2669 2842 
Q 2491 3084 2119 3084 
Q 1678 3084 1418 2786 
Q 1159 2488 1159 1978 
L 1159 0 
L 581 0 
L 581 3500 
L 1159 3500 
L 1159 2956 
Q 1356 3278 1631 3431 
Q 1906 3584 2284 3584 
Q 2666 3584 2933 3390 
Q 3200 3197 3328 2828 
z
" transform="scale(0.015625)"/>
      </defs>
      <use xlink:href="#DejaVuSans-4c"/>
      <use xlink:href="#DejaVuSans-31" x="55.712891"/>
      <use xlink:href="#DejaVuSans-20" x="119.335938"/>
      <use xlink:href="#DejaVuSans-6f" x="151.123047"/>
      <use xlink:href="#DejaVuSans-70" x="212.304688"/>
      <use xlink:href="#DejaVuSans-65" x="275.78125"/>
      <use xlink:href="#DejaVuSans-72" x="337.304688"/>
      <use xlink:href="#DejaVuSans-61" x="378.417969"/>
      <use xlink:href="#DejaVuSans-74" x="439.697266"/>
      <use xlink:href="#DejaVuSans-6f" x="478.90625"/>
      <use xlink:href="#DejaVuSans-72" x="540.087891"/>
      <use xlink:href="#DejaVuSans-20" x="581.201172"/>
      <use xlink:href="#DejaVuSans-6e" x="612.988281"/>
      <use xlink:href="#DejaVuSans-6f" x="676.367188"/>
      <use xlink:href="#DejaVuSans-72" x="737.548828"/>
      <use xlink:href="#DejaVuSans-6d" x="776.912109"/>
     </g>
    </g>
    <g id="line2d_122">
     <path d="M 262.017188 55.828125 
L 272.017188 55.828125 
L 282.017188 55.828125 
" style="fill: none; stroke: #440154; stroke-width: 1.5; stroke-linecap: square"/>
    </g>
    <g id="text_22">
     <!-- $\sigma_{1}$ (L2 operator norm) -->
     <g transform="translate(290.017188 59.328125)scale(0.1 -0.1)">
      <defs>
       <path id="DejaVuSans-Oblique-3c3" d="M 2219 3044 
Q 1744 3044 1422 2700 
Q 1081 2341 969 1747 
Q 844 1119 1044 756 
Q 1241 397 1706 397 
Q 2166 397 2503 759 
Q 2844 1122 2966 1747 
Q 3075 2319 2881 2700 
Q 2700 3044 2219 3044 
z
M 2309 3503 
L 4219 3500 
L 4106 2925 
L 3463 2925 
Q 3706 2438 3575 1747 
Q 3406 888 2884 400 
Q 2359 -91 1609 -91 
Q 856 -91 525 400 
Q 194 888 363 1747 
Q 528 2609 1050 3097 
Q 1484 3503 2309 3503 
z
" transform="scale(0.015625)"/>
      </defs>
      <use xlink:href="#DejaVuSans-Oblique-3c3" transform="translate(0 0.125)"/>
      <use xlink:href="#DejaVuSans-31" transform="translate(63.378906 -16.28125)scale(0.7)"/>
      <use xlink:href="#DejaVuSans-20" transform="translate(110.649414 0.125)"/>
      <use xlink:href="#DejaVuSans-28" transform="translate(142.436523 0.125)"/>
      <use xlink:href="#DejaVuSans-4c" transform="translate(181.450195 0.125)"/>
      <use xlink:href="#DejaVuSans-32" transform="translate(237.163086 0.125)"/>
      <use xlink:href="#DejaVuSans-20" transform="translate(300.786133 0.125)"/>
      <use xlink:href="#DejaVuSans-6f" transform="translate(332.573242 0.125)"/>
      <use xlink:href="#DejaVuSans-70" transform="translate(393.754883 0.125)"/>
      <use xlink:href="#DejaVuSans-65" transform="translate(457.231445 0.125)"/>
      <use xlink:href="#DejaVuSans-72" transform="translate(518.754883 0.125)"/>
      <use xlink:href="#DejaVuSans-61" transform="translate(559.868164 0.125)"/>
      <use xlink:href="#DejaVuSans-74" transform="translate(621.147461 0.125)"/>
      <use xlink:href="#DejaVuSans-6f" transform="translate(660.356445 0.125)"/>
      <use xlink:href="#DejaVuSans-72" transform="translate(721.538086 0.125)"/>
      <use xlink:href="#DejaVuSans-20" transform="translate(762.651367 0.125)"/>
      <use xlink:href="#DejaVuSans-6e" transform="translate(794.438477 0.125)"/>
      <use xlink:href="#DejaVuSans-6f" transform="translate(857.817383 0.125)"/>
      <use xlink:href="#DejaVuSans-72" transform="translate(918.999023 0.125)"/>
      <use xlink:href="#DejaVuSans-6d" transform="translate(960.112305 0.125)"/>
      <use xlink:href="#DejaVuSans-29" transform="translate(1057.524414 0.125)"/>
     </g>
    </g>
    <g id="line2d_123">
     <path d="M 262.017188 70.526563 
L 272.017188 70.526563 
L 282.017188 70.526563 
" style="fill: none; stroke: #46327e; stroke-width: 1.5; stroke-linecap: square"/>
    </g>
    <g id="text_23">
     <!-- $\sigma_{25}$ -->
     <g transform="translate(290.017188 74.026563)scale(0.1 -0.1)">
      <use xlink:href="#DejaVuSans-Oblique-3c3" transform="translate(0 0.265625)"/>
      <use xlink:href="#DejaVuSans-32" transform="translate(63.378906 -16.140625)scale(0.7)"/>
      <use xlink:href="#DejaVuSans-35" transform="translate(107.915039 -16.140625)scale(0.7)"/>
     </g>
    </g>
    <g id="line2d_124">
     <path d="M 262.017188 85.204687 
L 272.017188 85.204687 
L 282.017188 85.204687 
" style="fill: none; stroke: #365c8d; stroke-width: 1.5; stroke-linecap: square"/>
    </g>
    <g id="text_24">
     <!-- $\sigma_{50}$ -->
     <g transform="translate(290.017188 88.704687)scale(0.1 -0.1)">
      <use xlink:href="#DejaVuSans-Oblique-3c3" transform="translate(0 0.265625)"/>
      <use xlink:href="#DejaVuSans-35" transform="translate(63.378906 -16.140625)scale(0.7)"/>
      <use xlink:href="#DejaVuSans-30" transform="translate(107.915039 -16.140625)scale(0.7)"/>
     </g>
    </g>
    <g id="line2d_125">
     <path d="M 262.017188 99.882812 
L 272.017188 99.882812 
L 282.017188 99.882812 
" style="fill: none; stroke: #277f8e; stroke-width: 1.5; stroke-linecap: square"/>
    </g>
    <g id="text_25">
     <!-- $\sigma_{75}$ -->
     <g transform="translate(290.017188 103.382812)scale(0.1 -0.1)">
      <defs>
       <path id="DejaVuSans-37" d="M 525 4666 
L 3525 4666 
L 3525 4397 
L 1831 0 
L 1172 0 
L 2766 4134 
L 525 4134 
L 525 4666 
z
" transform="scale(0.015625)"/>
      </defs>
      <use xlink:href="#DejaVuSans-Oblique-3c3" transform="translate(0 0.265625)"/>
      <use xlink:href="#DejaVuSans-37" transform="translate(63.378906 -16.140625)scale(0.7)"/>
      <use xlink:href="#DejaVuSans-35" transform="translate(107.915039 -16.140625)scale(0.7)"/>
     </g>
    </g>
    <g id="line2d_126">
     <path d="M 262.017188 114.560938 
L 272.017188 114.560938 
L 282.017188 114.560938 
" style="fill: none; stroke: #1fa187; stroke-width: 1.5; stroke-linecap: square"/>
    </g>
    <g id="text_26">
     <!-- $\sigma_{100}$ -->
     <g transform="translate(290.017188 118.060938)scale(0.1 -0.1)">
      <use xlink:href="#DejaVuSans-Oblique-3c3" transform="translate(0 0.265625)"/>
      <use xlink:href="#DejaVuSans-31" transform="translate(63.378906 -16.140625)scale(0.7)"/>
      <use xlink:href="#DejaVuSans-30" transform="translate(107.915039 -16.140625)scale(0.7)"/>
      <use xlink:href="#DejaVuSans-30" transform="translate(152.451172 -16.140625)scale(0.7)"/>
     </g>
    </g>
    <g id="line2d_127">
     <path d="M 262.017188 129.239063 
L 272.017188 129.239063 
L 282.017188 129.239063 
" style="fill: none; stroke: #4ac16d; stroke-width: 1.5; stroke-linecap: square"/>
    </g>
    <g id="text_27">
     <!-- $\sigma_{125}$ -->
     <g transform="translate(290.017188 132.739063)scale(0.1 -0.1)">
      <use xlink:href="#DejaVuSans-Oblique-3c3" transform="translate(0 0.265625)"/>
      <use xlink:href="#DejaVuSans-31" transform="translate(63.378906 -16.140625)scale(0.7)"/>
      <use xlink:href="#DejaVuSans-32" transform="translate(107.915039 -16.140625)scale(0.7)"/>
      <use xlink:href="#DejaVuSans-35" transform="translate(152.451172 -16.140625)scale(0.7)"/>
     </g>
    </g>
    <g id="line2d_128">
     <path d="M 262.017188 143.917188 
L 272.017188 143.917188 
L 282.017188 143.917188 
" style="fill: none; stroke: #a0da39; stroke-width: 1.5; stroke-linecap: square"/>
    </g>
    <g id="text_28">
     <!-- $\sigma_{150}$ -->
     <g transform="translate(290.017188 147.417188)scale(0.1 -0.1)">
      <use xlink:href="#DejaVuSans-Oblique-3c3" transform="translate(0 0.265625)"/>
      <use xlink:href="#DejaVuSans-31" transform="translate(63.378906 -16.140625)scale(0.7)"/>
      <use xlink:href="#DejaVuSans-35" transform="translate(107.915039 -16.140625)scale(0.7)"/>
      <use xlink:href="#DejaVuSans-30" transform="translate(152.451172 -16.140625)scale(0.7)"/>
     </g>
    </g>
    <g id="line2d_129">
     <path d="M 262.017188 158.596875 
L 272.017188 158.596875 
L 282.017188 158.596875 
" style="fill: none; stroke: #fde725; stroke-width: 1.5; stroke-linecap: square"/>
    </g>
    <g id="text_29">
     <!-- $\sigma_{174}$ (smallest Singular value) -->
     <g transform="translate(290.017188 162.096875)scale(0.1 -0.1)">
      <use xlink:href="#DejaVuSans-Oblique-3c3" transform="translate(0 0.015625)"/>
      <use xlink:href="#DejaVuSans-31" transform="translate(63.378906 -16.390625)scale(0.7)"/>
      <use xlink:href="#DejaVuSans-37" transform="translate(107.915039 -16.390625)scale(0.7)"/>
      <use xlink:href="#DejaVuSans-34" transform="translate(152.451172 -16.390625)scale(0.7)"/>
      <use xlink:href="#DejaVuSans-20" transform="translate(199.72168 0.015625)"/>
      <use xlink:href="#DejaVuSans-28" transform="translate(231.508789 0.015625)"/>
      <use xlink:href="#DejaVuSans-73" transform="translate(270.522461 0.015625)"/>
      <use xlink:href="#DejaVuSans-6d" transform="translate(322.62207 0.015625)"/>
      <use xlink:href="#DejaVuSans-61" transform="translate(420.03418 0.015625)"/>
      <use xlink:href="#DejaVuSans-6c" transform="translate(481.313477 0.015625)"/>
      <use xlink:href="#DejaVuSans-6c" transform="translate(509.09668 0.015625)"/>
      <use xlink:href="#DejaVuSans-65" transform="translate(536.879883 0.015625)"/>
      <use xlink:href="#DejaVuSans-73" transform="translate(598.40332 0.015625)"/>
      <use xlink:href="#DejaVuSans-74" transform="translate(650.50293 0.015625)"/>
      <use xlink:href="#DejaVuSans-20" transform="translate(689.711914 0.015625)"/>
      <use xlink:href="#DejaVuSans-53" transform="translate(721.499023 0.015625)"/>
      <use xlink:href="#DejaVuSans-69" transform="translate(784.975586 0.015625)"/>
      <use xlink:href="#DejaVuSans-6e" transform="translate(812.758789 0.015625)"/>
      <use xlink:href="#DejaVuSans-67" transform="translate(876.137695 0.015625)"/>
      <use xlink:href="#DejaVuSans-75" transform="translate(939.614258 0.015625)"/>
      <use xlink:href="#DejaVuSans-6c" transform="translate(1002.993164 0.015625)"/>
      <use xlink:href="#DejaVuSans-61" transform="translate(1030.776367 0.015625)"/>
      <use xlink:href="#DejaVuSans-72" transform="translate(1092.055664 0.015625)"/>
      <use xlink:href="#DejaVuSans-20" transform="translate(1133.168945 0.015625)"/>
      <use xlink:href="#DejaVuSans-76" transform="translate(1164.956055 0.015625)"/>
      <use xlink:href="#DejaVuSans-61" transform="translate(1224.135742 0.015625)"/>
      <use xlink:href="#DejaVuSans-6c" transform="translate(1285.415039 0.015625)"/>
      <use xlink:href="#DejaVuSans-75" transform="translate(1313.198242 0.015625)"/>
      <use xlink:href="#DejaVuSans-65" transform="translate(1376.577148 0.015625)"/>
      <use xlink:href="#DejaVuSans-29" transform="translate(1438.100586 0.015625)"/>
     </g>
    </g>
   </g>
  </g>
 </g>
 <defs>
  <clipPath id="pf2356bb889">
   <rect x="56.217188" y="28.05" width="390.6" height="277.2"/>
  </clipPath>
 </defs>
</svg>
