<?xml version="1.0" encoding="utf-8" standalone="no"?>
<!DOCTYPE svg PUBLIC "-//W3C//DTD SVG 1.1//EN"
  "http://www.w3.org/Graphics/SVG/1.1/DTD/svg11.dtd">
<svg xmlns:xlink="http://www.w3.org/1999/xlink" width="576pt" height="288pt" viewBox="0 0 576 288" xmlns="http://www.w3.org/2000/svg" version="1.1">
 <metadata>
  <rdf:RDF xmlns:dc="http://purl.org/dc/elements/1.1/" xmlns:cc="http://creativecommons.org/ns#" xmlns:rdf="http://www.w3.org/1999/02/22-rdf-syntax-ns#">
   <cc:Work>
    <dc:type rdf:resource="http://purl.org/dc/dcmitype/StillImage"/>
    <dc:date>2023-04-08T21:23:15.067327</dc:date>
    <dc:format>image/svg+xml</dc:format>
    <dc:creator>
     <cc:Agent>
      <dc:title>Matplotlib v3.6.2, https://matplotlib.org/</dc:title>
     </cc:Agent>
    </dc:creator>
   </cc:Work>
  </rdf:RDF>
 </metadata>
 <defs>
  <style type="text/css">*{stroke-linejoin: round; stroke-linecap: butt}</style>
 </defs>
 <g id="figure_1">
  <g id="patch_1">
   <path d="M 0 288 
L 576 288 
L 576 0 
L 0 0 
z
" style="fill: #ffffff"/>
  </g>
  <g id="axes_1">
   <g id="patch_2">
    <path d="M 72 256.32 
L 518.4 256.32 
L 518.4 34.56 
L 72 34.56 
z
" style="fill: #ffffff"/>
   </g>
   <g id="matplotlib.axis_1">
    <g id="xtick_1">
     <g id="line2d_1">
      <defs>
       <path id="m2534a75a4d" d="M 0 0 
L 0 3.5 
" style="stroke: #000000; stroke-width: 0.8"/>
      </defs>
      <g>
       <use xlink:href="#m2534a75a4d" x="82.528302" y="256.32" style="stroke: #000000; stroke-width: 0.8"/>
      </g>
     </g>
     <g id="text_1">
      <!-- 0 -->
      <g transform="translate(79.347052 270.918437) scale(0.1 -0.1)">
       <defs>
        <path id="DejaVuSans-30" d="M 2034 4250 
Q 1547 4250 1301 3770 
Q 1056 3291 1056 2328 
Q 1056 1369 1301 889 
Q 1547 409 2034 409 
Q 2525 409 2770 889 
Q 3016 1369 3016 2328 
Q 3016 3291 2770 3770 
Q 2525 4250 2034 4250 
z
M 2034 4750 
Q 2819 4750 3233 4129 
Q 3647 3509 3647 2328 
Q 3647 1150 3233 529 
Q 2819 -91 2034 -91 
Q 1250 -91 836 529 
Q 422 1150 422 2328 
Q 422 3509 836 4129 
Q 1250 4750 2034 4750 
z
" transform="scale(0.015625)"/>
       </defs>
       <use xlink:href="#DejaVuSans-30"/>
      </g>
     </g>
    </g>
    <g id="xtick_2">
     <g id="line2d_2">
      <g>
       <use xlink:href="#m2534a75a4d" x="187.811321" y="256.32" style="stroke: #000000; stroke-width: 0.8"/>
      </g>
     </g>
     <g id="text_2">
      <!-- 1 -->
      <g transform="translate(184.630071 270.918437) scale(0.1 -0.1)">
       <defs>
        <path id="DejaVuSans-31" d="M 794 531 
L 1825 531 
L 1825 4091 
L 703 3866 
L 703 4441 
L 1819 4666 
L 2450 4666 
L 2450 531 
L 3481 531 
L 3481 0 
L 794 0 
L 794 531 
z
" transform="scale(0.015625)"/>
       </defs>
       <use xlink:href="#DejaVuSans-31"/>
      </g>
     </g>
    </g>
    <g id="xtick_3">
     <g id="line2d_3">
      <g>
       <use xlink:href="#m2534a75a4d" x="293.09434" y="256.32" style="stroke: #000000; stroke-width: 0.8"/>
      </g>
     </g>
     <g id="text_3">
      <!-- 2 -->
      <g transform="translate(289.91309 270.918437) scale(0.1 -0.1)">
       <defs>
        <path id="DejaVuSans-32" d="M 1228 531 
L 3431 531 
L 3431 0 
L 469 0 
L 469 531 
Q 828 903 1448 1529 
Q 2069 2156 2228 2338 
Q 2531 2678 2651 2914 
Q 2772 3150 2772 3378 
Q 2772 3750 2511 3984 
Q 2250 4219 1831 4219 
Q 1534 4219 1204 4116 
Q 875 4013 500 3803 
L 500 4441 
Q 881 4594 1212 4672 
Q 1544 4750 1819 4750 
Q 2544 4750 2975 4387 
Q 3406 4025 3406 3419 
Q 3406 3131 3298 2873 
Q 3191 2616 2906 2266 
Q 2828 2175 2409 1742 
Q 1991 1309 1228 531 
z
" transform="scale(0.015625)"/>
       </defs>
       <use xlink:href="#DejaVuSans-32"/>
      </g>
     </g>
    </g>
    <g id="xtick_4">
     <g id="line2d_4">
      <g>
       <use xlink:href="#m2534a75a4d" x="398.377358" y="256.32" style="stroke: #000000; stroke-width: 0.8"/>
      </g>
     </g>
     <g id="text_4">
      <!-- 3 -->
      <g transform="translate(395.196108 270.918437) scale(0.1 -0.1)">
       <defs>
        <path id="DejaVuSans-33" d="M 2597 2516 
Q 3050 2419 3304 2112 
Q 3559 1806 3559 1356 
Q 3559 666 3084 287 
Q 2609 -91 1734 -91 
Q 1441 -91 1130 -33 
Q 819 25 488 141 
L 488 750 
Q 750 597 1062 519 
Q 1375 441 1716 441 
Q 2309 441 2620 675 
Q 2931 909 2931 1356 
Q 2931 1769 2642 2001 
Q 2353 2234 1838 2234 
L 1294 2234 
L 1294 2753 
L 1863 2753 
Q 2328 2753 2575 2939 
Q 2822 3125 2822 3475 
Q 2822 3834 2567 4026 
Q 2313 4219 1838 4219 
Q 1578 4219 1281 4162 
Q 984 4106 628 3988 
L 628 4550 
Q 988 4650 1302 4700 
Q 1616 4750 1894 4750 
Q 2613 4750 3031 4423 
Q 3450 4097 3450 3541 
Q 3450 3153 3228 2886 
Q 3006 2619 2597 2516 
z
" transform="scale(0.015625)"/>
       </defs>
       <use xlink:href="#DejaVuSans-33"/>
      </g>
     </g>
    </g>
    <g id="xtick_5">
     <g id="line2d_5">
      <g>
       <use xlink:href="#m2534a75a4d" x="503.660377" y="256.32" style="stroke: #000000; stroke-width: 0.8"/>
      </g>
     </g>
     <g id="text_5">
      <!-- 4 -->
      <g transform="translate(500.479127 270.918437) scale(0.1 -0.1)">
       <defs>
        <path id="DejaVuSans-34" d="M 2419 4116 
L 825 1625 
L 2419 1625 
L 2419 4116 
z
M 2253 4666 
L 3047 4666 
L 3047 1625 
L 3713 1625 
L 3713 1100 
L 3047 1100 
L 3047 0 
L 2419 0 
L 2419 1100 
L 313 1100 
L 313 1709 
L 2253 4666 
z
" transform="scale(0.015625)"/>
       </defs>
       <use xlink:href="#DejaVuSans-34"/>
      </g>
     </g>
    </g>
    <g id="text_6">
     <!-- $\gamma$ -->
     <g transform="translate(292.2 284.57625) scale(0.1 -0.1)">
      <defs>
       <path id="DejaVuSans-Oblique-3b3" d="M 1491 2950 
L 1838 788 
L 3456 3500 
L 4066 3500 
L 1972 0 
L 1713 -1331 
L 1138 -1331 
L 1397 0 
L 988 2613 
Q 925 3006 628 3006 
L 475 3006 
L 569 3500 
L 788 3500 
Q 1403 3500 1491 2950 
z
" transform="scale(0.015625)"/>
      </defs>
      <use xlink:href="#DejaVuSans-Oblique-3b3" transform="translate(0 0.3125)"/>
     </g>
    </g>
   </g>
   <g id="matplotlib.axis_2">
    <g id="ytick_1">
     <g id="line2d_6">
      <defs>
       <path id="mc2328306ee" d="M 0 0 
L -3.5 0 
" style="stroke: #000000; stroke-width: 0.8"/>
      </defs>
      <g>
       <use xlink:href="#mc2328306ee" x="72" y="251.089811" style="stroke: #000000; stroke-width: 0.8"/>
      </g>
     </g>
     <g id="text_7">
      <!-- 0 -->
      <g transform="translate(58.6375 254.88903) scale(0.1 -0.1)">
       <use xlink:href="#DejaVuSans-30"/>
      </g>
     </g>
    </g>
    <g id="ytick_2">
     <g id="line2d_7">
      <g>
       <use xlink:href="#mc2328306ee" x="72" y="198.787925" style="stroke: #000000; stroke-width: 0.8"/>
      </g>
     </g>
     <g id="text_8">
      <!-- 1 -->
      <g transform="translate(58.6375 202.587143) scale(0.1 -0.1)">
       <use xlink:href="#DejaVuSans-31"/>
      </g>
     </g>
    </g>
    <g id="ytick_3">
     <g id="line2d_8">
      <g>
       <use xlink:href="#mc2328306ee" x="72" y="146.486038" style="stroke: #000000; stroke-width: 0.8"/>
      </g>
     </g>
     <g id="text_9">
      <!-- 2 -->
      <g transform="translate(58.6375 150.285256) scale(0.1 -0.1)">
       <use xlink:href="#DejaVuSans-32"/>
      </g>
     </g>
    </g>
    <g id="ytick_4">
     <g id="line2d_9">
      <g>
       <use xlink:href="#mc2328306ee" x="72" y="94.184151" style="stroke: #000000; stroke-width: 0.8"/>
      </g>
     </g>
     <g id="text_10">
      <!-- 3 -->
      <g transform="translate(58.6375 97.98337) scale(0.1 -0.1)">
       <use xlink:href="#DejaVuSans-33"/>
      </g>
     </g>
    </g>
    <g id="ytick_5">
     <g id="line2d_10">
      <g>
       <use xlink:href="#mc2328306ee" x="72" y="41.882264" style="stroke: #000000; stroke-width: 0.8"/>
      </g>
     </g>
     <g id="text_11">
      <!-- 4 -->
      <g transform="translate(58.6375 45.681483) scale(0.1 -0.1)">
       <use xlink:href="#DejaVuSans-34"/>
      </g>
     </g>
    </g>
    <g id="text_12">
     <!-- Singular values -->
     <g transform="translate(52.557812 183.875156) rotate(-90) scale(0.1 -0.1)">
      <defs>
       <path id="DejaVuSans-53" d="M 3425 4513 
L 3425 3897 
Q 3066 4069 2747 4153 
Q 2428 4238 2131 4238 
Q 1616 4238 1336 4038 
Q 1056 3838 1056 3469 
Q 1056 3159 1242 3001 
Q 1428 2844 1947 2747 
L 2328 2669 
Q 3034 2534 3370 2195 
Q 3706 1856 3706 1288 
Q 3706 609 3251 259 
Q 2797 -91 1919 -91 
Q 1588 -91 1214 -16 
Q 841 59 441 206 
L 441 856 
Q 825 641 1194 531 
Q 1563 422 1919 422 
Q 2459 422 2753 634 
Q 3047 847 3047 1241 
Q 3047 1584 2836 1778 
Q 2625 1972 2144 2069 
L 1759 2144 
Q 1053 2284 737 2584 
Q 422 2884 422 3419 
Q 422 4038 858 4394 
Q 1294 4750 2059 4750 
Q 2388 4750 2728 4690 
Q 3069 4631 3425 4513 
z
" transform="scale(0.015625)"/>
       <path id="DejaVuSans-69" d="M 603 3500 
L 1178 3500 
L 1178 0 
L 603 0 
L 603 3500 
z
M 603 4863 
L 1178 4863 
L 1178 4134 
L 603 4134 
L 603 4863 
z
" transform="scale(0.015625)"/>
       <path id="DejaVuSans-6e" d="M 3513 2113 
L 3513 0 
L 2938 0 
L 2938 2094 
Q 2938 2591 2744 2837 
Q 2550 3084 2163 3084 
Q 1697 3084 1428 2787 
Q 1159 2491 1159 1978 
L 1159 0 
L 581 0 
L 581 3500 
L 1159 3500 
L 1159 2956 
Q 1366 3272 1645 3428 
Q 1925 3584 2291 3584 
Q 2894 3584 3203 3211 
Q 3513 2838 3513 2113 
z
" transform="scale(0.015625)"/>
       <path id="DejaVuSans-67" d="M 2906 1791 
Q 2906 2416 2648 2759 
Q 2391 3103 1925 3103 
Q 1463 3103 1205 2759 
Q 947 2416 947 1791 
Q 947 1169 1205 825 
Q 1463 481 1925 481 
Q 2391 481 2648 825 
Q 2906 1169 2906 1791 
z
M 3481 434 
Q 3481 -459 3084 -895 
Q 2688 -1331 1869 -1331 
Q 1566 -1331 1297 -1286 
Q 1028 -1241 775 -1147 
L 775 -588 
Q 1028 -725 1275 -790 
Q 1522 -856 1778 -856 
Q 2344 -856 2625 -561 
Q 2906 -266 2906 331 
L 2906 616 
Q 2728 306 2450 153 
Q 2172 0 1784 0 
Q 1141 0 747 490 
Q 353 981 353 1791 
Q 353 2603 747 3093 
Q 1141 3584 1784 3584 
Q 2172 3584 2450 3431 
Q 2728 3278 2906 2969 
L 2906 3500 
L 3481 3500 
L 3481 434 
z
" transform="scale(0.015625)"/>
       <path id="DejaVuSans-75" d="M 544 1381 
L 544 3500 
L 1119 3500 
L 1119 1403 
Q 1119 906 1312 657 
Q 1506 409 1894 409 
Q 2359 409 2629 706 
Q 2900 1003 2900 1516 
L 2900 3500 
L 3475 3500 
L 3475 0 
L 2900 0 
L 2900 538 
Q 2691 219 2414 64 
Q 2138 -91 1772 -91 
Q 1169 -91 856 284 
Q 544 659 544 1381 
z
M 1991 3584 
L 1991 3584 
z
" transform="scale(0.015625)"/>
       <path id="DejaVuSans-6c" d="M 603 4863 
L 1178 4863 
L 1178 0 
L 603 0 
L 603 4863 
z
" transform="scale(0.015625)"/>
       <path id="DejaVuSans-61" d="M 2194 1759 
Q 1497 1759 1228 1600 
Q 959 1441 959 1056 
Q 959 750 1161 570 
Q 1363 391 1709 391 
Q 2188 391 2477 730 
Q 2766 1069 2766 1631 
L 2766 1759 
L 2194 1759 
z
M 3341 1997 
L 3341 0 
L 2766 0 
L 2766 531 
Q 2569 213 2275 61 
Q 1981 -91 1556 -91 
Q 1019 -91 701 211 
Q 384 513 384 1019 
Q 384 1609 779 1909 
Q 1175 2209 1959 2209 
L 2766 2209 
L 2766 2266 
Q 2766 2663 2505 2880 
Q 2244 3097 1772 3097 
Q 1472 3097 1187 3025 
Q 903 2953 641 2809 
L 641 3341 
Q 956 3463 1253 3523 
Q 1550 3584 1831 3584 
Q 2591 3584 2966 3190 
Q 3341 2797 3341 1997 
z
" transform="scale(0.015625)"/>
       <path id="DejaVuSans-72" d="M 2631 2963 
Q 2534 3019 2420 3045 
Q 2306 3072 2169 3072 
Q 1681 3072 1420 2755 
Q 1159 2438 1159 1844 
L 1159 0 
L 581 0 
L 581 3500 
L 1159 3500 
L 1159 2956 
Q 1341 3275 1631 3429 
Q 1922 3584 2338 3584 
Q 2397 3584 2469 3576 
Q 2541 3569 2628 3553 
L 2631 2963 
z
" transform="scale(0.015625)"/>
       <path id="DejaVuSans-20" transform="scale(0.015625)"/>
       <path id="DejaVuSans-76" d="M 191 3500 
L 800 3500 
L 1894 563 
L 2988 3500 
L 3597 3500 
L 2284 0 
L 1503 0 
L 191 3500 
z
" transform="scale(0.015625)"/>
       <path id="DejaVuSans-65" d="M 3597 1894 
L 3597 1613 
L 953 1613 
Q 991 1019 1311 708 
Q 1631 397 2203 397 
Q 2534 397 2845 478 
Q 3156 559 3463 722 
L 3463 178 
Q 3153 47 2828 -22 
Q 2503 -91 2169 -91 
Q 1331 -91 842 396 
Q 353 884 353 1716 
Q 353 2575 817 3079 
Q 1281 3584 2069 3584 
Q 2775 3584 3186 3129 
Q 3597 2675 3597 1894 
z
M 3022 2063 
Q 3016 2534 2758 2815 
Q 2500 3097 2075 3097 
Q 1594 3097 1305 2825 
Q 1016 2553 972 2059 
L 3022 2063 
z
" transform="scale(0.015625)"/>
       <path id="DejaVuSans-73" d="M 2834 3397 
L 2834 2853 
Q 2591 2978 2328 3040 
Q 2066 3103 1784 3103 
Q 1356 3103 1142 2972 
Q 928 2841 928 2578 
Q 928 2378 1081 2264 
Q 1234 2150 1697 2047 
L 1894 2003 
Q 2506 1872 2764 1633 
Q 3022 1394 3022 966 
Q 3022 478 2636 193 
Q 2250 -91 1575 -91 
Q 1294 -91 989 -36 
Q 684 19 347 128 
L 347 722 
Q 666 556 975 473 
Q 1284 391 1588 391 
Q 1994 391 2212 530 
Q 2431 669 2431 922 
Q 2431 1156 2273 1281 
Q 2116 1406 1581 1522 
L 1381 1569 
Q 847 1681 609 1914 
Q 372 2147 372 2553 
Q 372 3047 722 3315 
Q 1072 3584 1716 3584 
Q 2034 3584 2315 3537 
Q 2597 3491 2834 3397 
z
" transform="scale(0.015625)"/>
      </defs>
      <use xlink:href="#DejaVuSans-53"/>
      <use xlink:href="#DejaVuSans-69" x="63.476562"/>
      <use xlink:href="#DejaVuSans-6e" x="91.259766"/>
      <use xlink:href="#DejaVuSans-67" x="154.638672"/>
      <use xlink:href="#DejaVuSans-75" x="218.115234"/>
      <use xlink:href="#DejaVuSans-6c" x="281.494141"/>
      <use xlink:href="#DejaVuSans-61" x="309.277344"/>
      <use xlink:href="#DejaVuSans-72" x="370.556641"/>
      <use xlink:href="#DejaVuSans-20" x="411.669922"/>
      <use xlink:href="#DejaVuSans-76" x="443.457031"/>
      <use xlink:href="#DejaVuSans-61" x="502.636719"/>
      <use xlink:href="#DejaVuSans-6c" x="563.916016"/>
      <use xlink:href="#DejaVuSans-75" x="591.699219"/>
      <use xlink:href="#DejaVuSans-65" x="655.078125"/>
      <use xlink:href="#DejaVuSans-73" x="716.601562"/>
     </g>
    </g>
   </g>
   <g id="line2d_11">
    <path d="M 82.528302 76.51459 
L 82.529355 76.540938 
L 82.53146 76.593299 
L 82.53883 76.773237 
L 82.559887 77.266976 
L 82.633585 78.881384 
L 82.791509 82.109713 
L 82.949434 85.176122 
L 83.107358 88.110364 
L 83.265283 90.919323 
L 83.423208 93.608685 
L 83.581132 96.185096 
L 84.283019 106.447905 
L 84.984906 115.149926 
L 85.686792 122.670565 
L 86.388679 129.266971 
L 87.090566 135.119394 
L 87.792453 140.35928 
L 90.424528 156.008169 
L 93.056604 167.383573 
L 95.688679 176.035503 
L 98.320755 182.823282 
L 100.95283 188.272753 
L 103.584906 192.727668 
L 117.622642 206.967704 
L 131.660377 213.7149 
L 145.698113 217.496247 
L 159.735849 219.864787 
L 173.773585 221.470562 
L 187.811321 222.624662 
L 293.09434 226.207009 
L 503.660377 227.899975 
L 577 228.04427 
" clip-path="url(#p1f9beb2c5b)" style="fill: none; stroke: #440154; stroke-width: 1.5; stroke-linecap: square"/>
   </g>
   <g id="line2d_12">
    <path d="M 82.528302 204.947076 
L 82.529355 204.955702 
L 82.53146 204.972854 
L 82.53883 205.032356 
L 82.559887 205.197955 
L 82.633585 205.741688 
L 82.791509 206.78399 
L 82.949434 207.712166 
L 83.107358 208.557169 
L 83.265283 209.336596 
L 83.423208 210.062095 
L 83.581132 210.741977 
L 84.283019 213.347339 
L 84.984906 215.47247 
L 85.686792 217.27008 
L 86.388679 218.825864 
L 87.090566 220.194203 
L 87.792453 221.412344 
L 90.424528 225.031811 
L 93.056604 227.672831 
L 95.688679 229.711615 
L 98.320755 231.347508 
L 100.95283 232.698233 
L 103.584906 233.838328 
L 117.622642 237.868928 
L 131.660377 240.143566 
L 145.698113 241.571195 
L 159.735849 242.511519 
L 173.773585 243.150413 
L 187.811321 243.595992 
L 293.09434 244.746478 
L 503.660377 245.094421 
L 577 245.116352 
" clip-path="url(#p1f9beb2c5b)" style="fill: none; stroke: #31688e; stroke-width: 1.5; stroke-linecap: square"/>
   </g>
   <g id="line2d_13">
    <path d="M 82.528302 227.038249 
L 82.529355 227.041969 
L 82.53146 227.049446 
L 82.53883 227.075539 
L 82.559887 227.149762 
L 82.633585 227.406355 
L 82.791509 227.934301 
L 82.949434 228.428216 
L 83.107358 228.889678 
L 83.265283 229.321948 
L 83.423208 229.72829 
L 83.581132 230.111633 
L 84.283019 231.594267 
L 84.984906 232.812467 
L 85.686792 233.846795 
L 86.388679 234.744512 
L 87.090566 235.535913 
L 87.792453 236.241757 
L 90.424528 238.342265 
L 93.056604 239.867613 
L 95.688679 241.027581 
L 98.320755 241.93572 
L 100.95283 242.661062 
L 103.584906 243.248846 
L 117.622642 245.044034 
L 131.660377 245.809225 
L 145.698113 246.224735 
L 159.735849 246.504075 
L 173.773585 246.719088 
L 187.811321 246.896372 
L 293.09434 247.639167 
L 503.660377 248.073584 
L 577 248.109579 
" clip-path="url(#p1f9beb2c5b)" style="fill: none; stroke: #35b779; stroke-width: 1.5; stroke-linecap: square"/>
   </g>
   <g id="line2d_14">
    <path d="M 82.528302 240.878708 
L 82.529355 240.880419 
L 82.53146 240.883816 
L 82.53883 240.895556 
L 82.559887 240.927826 
L 82.633585 241.030817 
L 82.791509 241.224475 
L 82.949434 241.399311 
L 83.107358 241.562285 
L 83.265283 241.716091 
L 83.423208 241.862136 
L 83.581132 242.001338 
L 84.283019 242.551694 
L 84.984906 243.013561 
L 85.686792 243.407689 
L 86.388679 243.748183 
L 87.090566 244.045352 
L 87.792453 244.306974 
L 90.424528 245.060744 
L 93.056604 245.583218 
L 95.688679 245.970472 
L 98.320755 246.273676 
L 100.95283 246.522307 
L 103.584906 246.734233 
L 117.622642 247.560915 
L 131.660377 248.131519 
L 145.698113 248.534942 
L 159.735849 248.820599 
L 173.773585 249.027121 
L 187.811321 249.180513 
L 293.09434 249.662349 
L 503.660377 249.876324 
L 577 249.893384 
" clip-path="url(#p1f9beb2c5b)" style="fill: none; stroke: #fde725; stroke-width: 1.5; stroke-linecap: square"/>
   </g>
   <g id="patch_3">
    <path d="M 72 256.32 
L 72 34.56 
" style="fill: none; stroke: #000000; stroke-width: 0.8; stroke-linejoin: miter; stroke-linecap: square"/>
   </g>
   <g id="patch_4">
    <path d="M 518.4 256.32 
L 518.4 34.56 
" style="fill: none; stroke: #000000; stroke-width: 0.8; stroke-linejoin: miter; stroke-linecap: square"/>
   </g>
   <g id="patch_5">
    <path d="M 72 256.32 
L 518.4 256.32 
" style="fill: none; stroke: #000000; stroke-width: 0.8; stroke-linejoin: miter; stroke-linecap: square"/>
   </g>
   <g id="patch_6">
    <path d="M 72 34.56 
L 518.4 34.56 
" style="fill: none; stroke: #000000; stroke-width: 0.8; stroke-linejoin: miter; stroke-linecap: square"/>
   </g>
   <g id="legend_1">
    <g id="patch_7">
     <path d="M 398.198437 101.2725 
L 511.4 101.2725 
Q 513.4 101.2725 513.4 99.2725 
L 513.4 41.56 
Q 513.4 39.56 511.4 39.56 
L 398.198437 39.56 
Q 396.198437 39.56 396.198437 41.56 
L 396.198437 99.2725 
Q 396.198437 101.2725 398.198437 101.2725 
z
" style="fill: #ffffff; opacity: 0.8; stroke: #cccccc; stroke-linejoin: miter"/>
    </g>
    <g id="line2d_15">
     <path d="M 400.198437 47.658438 
L 410.198437 47.658438 
L 420.198437 47.658438 
" style="fill: none; stroke: #440154; stroke-width: 1.5; stroke-linecap: square"/>
    </g>
    <g id="text_13">
     <!-- Singular value 1 -->
     <g transform="translate(428.198437 51.158438) scale(0.1 -0.1)">
      <use xlink:href="#DejaVuSans-53"/>
      <use xlink:href="#DejaVuSans-69" x="63.476562"/>
      <use xlink:href="#DejaVuSans-6e" x="91.259766"/>
      <use xlink:href="#DejaVuSans-67" x="154.638672"/>
      <use xlink:href="#DejaVuSans-75" x="218.115234"/>
      <use xlink:href="#DejaVuSans-6c" x="281.494141"/>
      <use xlink:href="#DejaVuSans-61" x="309.277344"/>
      <use xlink:href="#DejaVuSans-72" x="370.556641"/>
      <use xlink:href="#DejaVuSans-20" x="411.669922"/>
      <use xlink:href="#DejaVuSans-76" x="443.457031"/>
      <use xlink:href="#DejaVuSans-61" x="502.636719"/>
      <use xlink:href="#DejaVuSans-6c" x="563.916016"/>
      <use xlink:href="#DejaVuSans-75" x="591.699219"/>
      <use xlink:href="#DejaVuSans-65" x="655.078125"/>
      <use xlink:href="#DejaVuSans-20" x="716.601562"/>
      <use xlink:href="#DejaVuSans-31" x="748.388672"/>
     </g>
    </g>
    <g id="line2d_16">
     <path d="M 400.198437 62.336563 
L 410.198437 62.336563 
L 420.198437 62.336563 
" style="fill: none; stroke: #31688e; stroke-width: 1.5; stroke-linecap: square"/>
    </g>
    <g id="text_14">
     <!-- Singular value 2 -->
     <g transform="translate(428.198437 65.836563) scale(0.1 -0.1)">
      <use xlink:href="#DejaVuSans-53"/>
      <use xlink:href="#DejaVuSans-69" x="63.476562"/>
      <use xlink:href="#DejaVuSans-6e" x="91.259766"/>
      <use xlink:href="#DejaVuSans-67" x="154.638672"/>
      <use xlink:href="#DejaVuSans-75" x="218.115234"/>
      <use xlink:href="#DejaVuSans-6c" x="281.494141"/>
      <use xlink:href="#DejaVuSans-61" x="309.277344"/>
      <use xlink:href="#DejaVuSans-72" x="370.556641"/>
      <use xlink:href="#DejaVuSans-20" x="411.669922"/>
      <use xlink:href="#DejaVuSans-76" x="443.457031"/>
      <use xlink:href="#DejaVuSans-61" x="502.636719"/>
      <use xlink:href="#DejaVuSans-6c" x="563.916016"/>
      <use xlink:href="#DejaVuSans-75" x="591.699219"/>
      <use xlink:href="#DejaVuSans-65" x="655.078125"/>
      <use xlink:href="#DejaVuSans-20" x="716.601562"/>
      <use xlink:href="#DejaVuSans-32" x="748.388672"/>
     </g>
    </g>
    <g id="line2d_17">
     <path d="M 400.198437 77.014688 
L 410.198437 77.014688 
L 420.198437 77.014688 
" style="fill: none; stroke: #35b779; stroke-width: 1.5; stroke-linecap: square"/>
    </g>
    <g id="text_15">
     <!-- Singular value 3 -->
     <g transform="translate(428.198437 80.514688) scale(0.1 -0.1)">
      <use xlink:href="#DejaVuSans-53"/>
      <use xlink:href="#DejaVuSans-69" x="63.476562"/>
      <use xlink:href="#DejaVuSans-6e" x="91.259766"/>
      <use xlink:href="#DejaVuSans-67" x="154.638672"/>
      <use xlink:href="#DejaVuSans-75" x="218.115234"/>
      <use xlink:href="#DejaVuSans-6c" x="281.494141"/>
      <use xlink:href="#DejaVuSans-61" x="309.277344"/>
      <use xlink:href="#DejaVuSans-72" x="370.556641"/>
      <use xlink:href="#DejaVuSans-20" x="411.669922"/>
      <use xlink:href="#DejaVuSans-76" x="443.457031"/>
      <use xlink:href="#DejaVuSans-61" x="502.636719"/>
      <use xlink:href="#DejaVuSans-6c" x="563.916016"/>
      <use xlink:href="#DejaVuSans-75" x="591.699219"/>
      <use xlink:href="#DejaVuSans-65" x="655.078125"/>
      <use xlink:href="#DejaVuSans-20" x="716.601562"/>
      <use xlink:href="#DejaVuSans-33" x="748.388672"/>
     </g>
    </g>
    <g id="line2d_18">
     <path d="M 400.198437 91.692813 
L 410.198437 91.692813 
L 420.198437 91.692813 
" style="fill: none; stroke: #fde725; stroke-width: 1.5; stroke-linecap: square"/>
    </g>
    <g id="text_16">
     <!-- Singular value 4 -->
     <g transform="translate(428.198437 95.192813) scale(0.1 -0.1)">
      <use xlink:href="#DejaVuSans-53"/>
      <use xlink:href="#DejaVuSans-69" x="63.476562"/>
      <use xlink:href="#DejaVuSans-6e" x="91.259766"/>
      <use xlink:href="#DejaVuSans-67" x="154.638672"/>
      <use xlink:href="#DejaVuSans-75" x="218.115234"/>
      <use xlink:href="#DejaVuSans-6c" x="281.494141"/>
      <use xlink:href="#DejaVuSans-61" x="309.277344"/>
      <use xlink:href="#DejaVuSans-72" x="370.556641"/>
      <use xlink:href="#DejaVuSans-20" x="411.669922"/>
      <use xlink:href="#DejaVuSans-76" x="443.457031"/>
      <use xlink:href="#DejaVuSans-61" x="502.636719"/>
      <use xlink:href="#DejaVuSans-6c" x="563.916016"/>
      <use xlink:href="#DejaVuSans-75" x="591.699219"/>
      <use xlink:href="#DejaVuSans-65" x="655.078125"/>
      <use xlink:href="#DejaVuSans-20" x="716.601562"/>
      <use xlink:href="#DejaVuSans-34" x="748.388672"/>
     </g>
    </g>
   </g>
  </g>
 </g>
 <defs>
  <clipPath id="p1f9beb2c5b">
   <rect x="72" y="34.56" width="446.4" height="221.76"/>
  </clipPath>
 </defs>
</svg>
